<svg xmlns="http://www.w3.org/2000/svg" xmlns:xlink="http://www.w3.org/1999/xlink" version="1.1" viewBox="0 0 4600 2600" style="background: #ffffff"><defs><style>@import url(https://fonts.googleapis.com/css?family=Open+Sans:400,700);</style></defs><defs joint-selector="defs"></defs><g joint-selector="layers"  transform="matrix(1,0,0,1,0,0)"><g ></g><g ><!--z-index:0--><!--z-index:1--><!--z-index:2--><!--z-index:3--><!--z-index:4--><!--z-index:5--><!--z-index:6--><!--z-index:7--><!--z-index:8--><!--z-index:9--><!--z-index:10--><!--z-index:11--><!--z-index:12--><!--z-index:13--><!--z-index:14--><!--z-index:15--><!--z-index:16--><!--z-index:17--><!--z-index:18--><!--z-index:19--><!--z-index:20--><!--z-index:21--><!--z-index:22--><!--z-index:23--><!--z-index:24--><!--z-index:25--><g   id="j_3"  transform="translate(20,2563.6)"><g id="v-7"><text  id="v-8" font-size="22px" xml:space="preserve" y="0.8em" font-weight="normal" text-anchor="start" fill="#aaaaaa" pointer-events="none" display="block" font-family="Open Sans"><tspan dy="0"  display="block">Friday, April 4, 2025 at 3:29 PM Eastern European Standard Time</tspan></text></g></g><!--z-index:26--><g   id="j_2"  transform="translate(20,2537.2)"><g id="v-5"><text  id="v-6" font-size="22px" xml:space="preserve" y="0.8em" font-weight="normal" text-anchor="start" fill="#aaaaaa" pointer-events="none" display="block" font-family="Open Sans"><tspan dy="0"  display="block">Программные системы онлайн-сервиса KALK.PRO</tspan></text></g></g><!--z-index:27--><g   id="j_1"  transform="translate(20,2494)"><g id="v-3"><text  id="v-4" font-size="36px" xml:space="preserve" y="0.8em" font-weight="normal" text-anchor="start" fill="#000000" pointer-events="none" display="block" font-family="Open Sans"><tspan dy="0"  display="block">[System Landscape]</tspan></text></g></g><!--z-index:28--><g   id="j_4"  transform="translate(1374,151)" style=""><g  id="v-12" style="opacity: 1;"><rect  x="0" y="160" width="400" height="240" rx="70" id="v-14" stroke="#b8b8b8" stroke-width="2" pointer-events="visiblePainted" fill="#cccccc" style="fill: rgb(204, 204, 204); stroke: rgb(184, 184, 184);"></rect><circle  cx="200" cy="88.88888888888889" r="88.88888888888889" id="v-13" stroke="#b8b8b8" stroke-width="2" pointer-events="visiblePainted" fill="#cccccc" style="fill: rgb(204, 204, 204); stroke: rgb(184, 184, 184);"></circle><line  x1="80" y1="266.6666666666667" x2="80" y2="400" id="v-20" stroke="#b8b8b8" stroke-width="2" style="stroke: rgb(184, 184, 184);"></line><line  x1="320" y1="266.6666666666667" x2="320" y2="400" id="v-21" stroke="#b8b8b8" stroke-width="2" style="stroke: rgb(184, 184, 184);"></line><text  id="v-15" font-size="34" xml:space="preserve" y="0.8em" font-weight="bold" text-anchor="middle" pointer-events="visible" font-family="Open Sans" fill="#ffffff" transform="matrix(1,0,0,1,200,231.5)" style="fill: rgb(255, 255, 255);"><tspan dy="0" >Пользователь</tspan><tspan dy="1.2em" x="0" >(посетитель сайта)</tspan></text><text  id="v-16" font-size="17" xml:space="preserve" y="0.8em" text-anchor="middle" font-family="Open Sans" fill="#ffffff" transform="matrix(1,0,0,1,200,313.1)" style="fill: rgb(255, 255, 255);"><tspan dy="0" >[Person]</tspan></text><text  id="v-17" font-size="24" xml:space="preserve" display="none" y="0.8em" text-anchor="middle" font-family="Open Sans" fill="#ffffff" transform="matrix(1,0,0,1,200,333.5)" style="fill: rgb(255, 255, 255);"><tspan dy="0" style="fill-opacity: 0; stroke-opacity: 0;" >-</tspan></text><g  id="v-18" font-weight="normal" text-anchor="middle" color="#ffffff" transform="matrix(1,0,0,1,197.5,368)" display="none" style="fill: rgb(255, 255, 255);"><g ></g><g ></g><g ></g><g ></g></g><image  id="v-19"></image></g></g><!--z-index:29--><g   id="j_5"  transform="translate(2074,151)" style=""><g  id="v-25" style="opacity: 1;"><rect  x="0" y="160" width="400" height="240" rx="70" id="v-27" stroke="#b8b8b8" stroke-width="2" pointer-events="visiblePainted" fill="#cccccc" style="fill: rgb(204, 204, 204); stroke: rgb(184, 184, 184);"></rect><circle  cx="200" cy="88.88888888888889" r="88.88888888888889" id="v-26" stroke="#b8b8b8" stroke-width="2" pointer-events="visiblePainted" fill="#cccccc" style="fill: rgb(204, 204, 204); stroke: rgb(184, 184, 184);"></circle><line  x1="80" y1="266.6666666666667" x2="80" y2="400" id="v-33" stroke="#b8b8b8" stroke-width="2" style="stroke: rgb(184, 184, 184);"></line><line  x1="320" y1="266.6666666666667" x2="320" y2="400" id="v-34" stroke="#b8b8b8" stroke-width="2" style="stroke: rgb(184, 184, 184);"></line><text  id="v-28" font-size="34" xml:space="preserve" y="0.8em" font-weight="bold" text-anchor="middle" pointer-events="visible" font-family="Open Sans" fill="#ffffff" transform="matrix(1,0,0,1,200,251.9)" style="fill: rgb(255, 255, 255);"><tspan dy="0" >Администратор сайта</tspan></text><text  id="v-29" font-size="17" xml:space="preserve" y="0.8em" text-anchor="middle" font-family="Open Sans" fill="#ffffff" transform="matrix(1,0,0,1,200,292.7)" style="fill: rgb(255, 255, 255);"><tspan dy="0" >[Person]</tspan></text><text  id="v-30" font-size="24" xml:space="preserve" display="none" y="0.8em" text-anchor="middle" font-family="Open Sans" fill="#ffffff" transform="matrix(1,0,0,1,200,313.1)" style="fill: rgb(255, 255, 255);"><tspan dy="0" style="fill-opacity: 0; stroke-opacity: 0;" >-</tspan></text><g  id="v-31" font-weight="normal" text-anchor="middle" color="#ffffff" transform="matrix(1,0,0,1,197.5,368)" display="none" style="fill: rgb(255, 255, 255);"><g ></g><g ></g><g ></g><g ></g></g><image  id="v-32"></image></g></g><!--z-index:30--><g   id="j_6"  transform="translate(949,1451)" style=""><g  id="v-35" style="opacity: 1;"><rect  id="v-36" rx="20" ry="20" stroke="#b8b8b8" stroke-width="2" pointer-events="visiblePainted" fill="#cccccc" width="450" height="300" style="fill: rgb(204, 204, 204); stroke: rgb(184, 184, 184);"></rect><text  id="v-37" font-size="34" xml:space="preserve" y="0.8em" font-weight="bold" text-anchor="middle" pointer-events="visible" font-family="Open Sans" fill="#ffffff" transform="matrix(1,0,0,1,225,121.9)" style="fill: rgb(255, 255, 255);"><tspan dy="0" >Yandex SMTP</tspan></text><text  id="v-38" font-size="17" xml:space="preserve" y="0.8em" text-anchor="middle" font-family="Open Sans" fill="#ffffff" transform="matrix(1,0,0,1,225,162.7)" style="fill: rgb(255, 255, 255);"><tspan dy="0" >[Software System]</tspan></text><text  id="v-39" font-size="24" xml:space="preserve" display="none" y="0.8em" text-anchor="middle" font-family="Open Sans" fill="#ffffff" transform="matrix(1,0,0,1,225,183.1)" style="fill: rgb(255, 255, 255);"><tspan dy="0" style="fill-opacity: 0; stroke-opacity: 0;" >-</tspan></text><g  id="v-40" color="#ffffff" transform="matrix(1,0,0,1,222.5,268)" display="none" style="fill: rgb(255, 255, 255);"><g ></g><g ></g><g ></g><g ></g></g><image  id="v-41"></image></g></g><!--z-index:31--><g   id="j_7"  transform="translate(1699,1451)" style=""><g  id="v-42" style="opacity: 1;"><rect  id="v-43" rx="20" ry="20" stroke="#0f5eaa" stroke-width="2" pointer-events="visiblePainted" fill="#1168bd" width="450" height="300" style="fill: rgb(17, 104, 189); stroke: rgb(15, 94, 170);"></rect><text  id="v-44" font-size="34" xml:space="preserve" y="0.8em" font-weight="bold" text-anchor="middle" pointer-events="visible" font-family="Open Sans" fill="#ffffff" transform="matrix(1,0,0,1,225,102.5)" style="fill: rgb(255, 255, 255);"><tspan dy="0" >API Gateway</tspan></text><text  id="v-45" font-size="17" xml:space="preserve" y="0.8em" text-anchor="middle" font-family="Open Sans" fill="#ffffff" transform="matrix(1,0,0,1,225,143.3)" style="fill: rgb(255, 255, 255);"><tspan dy="0" >[Software System]</tspan></text><text  id="v-46" font-size="24" xml:space="preserve" y="0.8em" text-anchor="middle" font-family="Open Sans" fill="#ffffff" transform="matrix(1,0,0,1,225,173.7)" style="fill: rgb(255, 255, 255);"><tspan dy="0" >API Gateway</tspan></text><g  id="v-47" color="#ffffff" transform="matrix(1,0,0,1,222.5,268)" display="none" style="fill: rgb(255, 255, 255);"><g ></g><g ></g><g ></g><g ></g></g><image  id="v-48"></image></g></g><!--z-index:32--><g   id="j_8"  transform="translate(1699,851)" style=""><g  id="v-52" style="opacity: 1;"><rect  id="v-53" rx="20" ry="20" stroke="#0f5eaa" stroke-width="2" pointer-events="visiblePainted" fill="#1168bd" width="450" height="300" style="fill: rgb(17, 104, 189); stroke: rgb(15, 94, 170);"></rect><text  id="v-54" font-size="34" xml:space="preserve" y="0.8em" font-weight="bold" text-anchor="middle" pointer-events="visible" font-family="Open Sans" fill="#ffffff" transform="matrix(1,0,0,1,225,61.7)" style="fill: rgb(255, 255, 255);"><tspan dy="0" >Онлайн-сервис</tspan><tspan dy="1.2em" x="0" >автоматизации</tspan><tspan dy="1.2em" x="0" >строительных расчетов</tspan></text><text  id="v-55" font-size="17" xml:space="preserve" y="0.8em" text-anchor="middle" font-family="Open Sans" fill="#ffffff" transform="matrix(1,0,0,1,225,184.1)" style="fill: rgb(255, 255, 255);"><tspan dy="0" >[Software System]</tspan></text><text  id="v-56" font-size="24" xml:space="preserve" y="0.8em" text-anchor="middle" font-family="Open Sans" fill="#ffffff" transform="matrix(1,0,0,1,225,214.5)" style="fill: rgb(255, 255, 255);"><tspan dy="0" >KALK.PRO</tspan></text><g  id="v-57" color="#ffffff" transform="matrix(1,0,0,1,222.5,268)" display="none" style="fill: rgb(255, 255, 255);"><g ></g><g ></g><g ></g><g ></g></g><image  id="v-58"></image></g></g><!--z-index:33--><g   id="j_9"  transform="translate(2449,1451)" style=""><g  id="v-65" style="opacity: 1;"><rect  id="v-66" rx="20" ry="20" stroke="#0f5eaa" stroke-width="2" pointer-events="visiblePainted" fill="#1168bd" width="450" height="300" style="fill: rgb(17, 104, 189); stroke: rgb(15, 94, 170);"></rect><text  id="v-67" font-size="34" xml:space="preserve" y="0.8em" font-weight="bold" text-anchor="middle" pointer-events="visible" font-family="Open Sans" fill="#ffffff" transform="matrix(1,0,0,1,225,53.3)" style="fill: rgb(255, 255, 255);"><tspan dy="0" >Кластер проектных</tspan><tspan dy="1.2em" x="0" >расчетов</tspan></text><text  id="v-68" font-size="17" xml:space="preserve" y="0.8em" text-anchor="middle" font-family="Open Sans" fill="#ffffff" transform="matrix(1,0,0,1,225,134.9)" style="fill: rgb(255, 255, 255);"><tspan dy="0" >[Software System]</tspan></text><text  id="v-69" font-size="24" xml:space="preserve" y="0.8em" text-anchor="middle" font-family="Open Sans" fill="#ffffff" transform="matrix(1,0,0,1,225,165.3)" style="fill: rgb(255, 255, 255);"><tspan dy="0" >Расчет проектов (чертежи, 3D</tspan><tspan dy="1.2em" x="0" >модель, характеристики</tspan><tspan dy="1.2em" x="0" >конструкций)</tspan></text><g  id="v-70" color="#ffffff" transform="matrix(1,0,0,1,222.5,268)" display="none" style="fill: rgb(255, 255, 255);"><g ></g><g ></g><g ></g><g ></g></g><image  id="v-71"></image></g></g><!--z-index:34--><g   id="j_10"  transform="translate(3199,1451)" style=""><g  id="v-78" style="opacity: 1;"><rect  id="v-79" rx="20" ry="20" stroke="#0f5eaa" stroke-width="2" pointer-events="visiblePainted" fill="#1168bd" width="450" height="300" style="fill: rgb(17, 104, 189); stroke: rgb(15, 94, 170);"></rect><text  id="v-80" font-size="34" xml:space="preserve" y="0.8em" font-weight="bold" text-anchor="middle" pointer-events="visible" font-family="Open Sans" fill="#ffffff" transform="matrix(1,0,0,1,225,67.7)" style="fill: rgb(255, 255, 255);"><tspan dy="0" >Сервис простых</tspan><tspan dy="1.2em" x="0" >расчетов</tspan></text><text  id="v-81" font-size="17" xml:space="preserve" y="0.8em" text-anchor="middle" font-family="Open Sans" fill="#ffffff" transform="matrix(1,0,0,1,225,149.3)" style="fill: rgb(255, 255, 255);"><tspan dy="0" >[Software System]</tspan></text><text  id="v-82" font-size="24" xml:space="preserve" y="0.8em" text-anchor="middle" font-family="Open Sans" fill="#ffffff" transform="matrix(1,0,0,1,225,179.7)" style="fill: rgb(255, 255, 255);"><tspan dy="0" >Расчет типовых строительных</tspan><tspan dy="1.2em" x="0" >конструкций</tspan></text><g  id="v-83" color="#ffffff" transform="matrix(1,0,0,1,222.5,268)" display="none" style="fill: rgb(255, 255, 255);"><g ></g><g ></g><g ></g><g ></g></g><image  id="v-84"></image></g></g><!--z-index:35--><g   id="j_11"  transform="translate(3949,1451)" style=""><g  id="v-91" style="opacity: 1;"><rect  id="v-92" rx="20" ry="20" stroke="#0f5eaa" stroke-width="2" pointer-events="visiblePainted" fill="#1168bd" width="450" height="300" style="fill: rgb(17, 104, 189); stroke: rgb(15, 94, 170);"></rect><text  id="v-93" font-size="34" xml:space="preserve" y="0.8em" font-weight="bold" text-anchor="middle" pointer-events="visible" font-family="Open Sans" fill="#ffffff" transform="matrix(1,0,0,1,225,53.3)" style="fill: rgb(255, 255, 255);"><tspan dy="0" >Сервис расчета</tspan><tspan dy="1.2em" x="0" >металлопроката</tspan></text><text  id="v-94" font-size="17" xml:space="preserve" y="0.8em" text-anchor="middle" font-family="Open Sans" fill="#ffffff" transform="matrix(1,0,0,1,225,134.9)" style="fill: rgb(255, 255, 255);"><tspan dy="0" >[Software System]</tspan></text><text  id="v-95" font-size="24" xml:space="preserve" y="0.8em" text-anchor="middle" font-family="Open Sans" fill="#ffffff" transform="matrix(1,0,0,1,225,165.3)" style="fill: rgb(255, 255, 255);"><tspan dy="0" >Расчет изделий из</tspan><tspan dy="1.2em" x="0" >металлопроката. Справочник</tspan><tspan dy="1.2em" x="0" >ГОСТов по металлопрокату.</tspan></text><g  id="v-96" color="#ffffff" transform="matrix(1,0,0,1,222.5,268)" display="none" style="fill: rgb(255, 255, 255);"><g ></g><g ></g><g ></g><g ></g></g><image  id="v-97"></image></g></g><!--z-index:36--><g   id="j_12"  transform="translate(1699,2051)" style=""><g  id="v-104" style="opacity: 1;"><rect  id="v-105" rx="20" ry="20" stroke="#0f5eaa" stroke-width="2" pointer-events="visiblePainted" fill="#1168bd" width="450" height="300" style="fill: rgb(17, 104, 189); stroke: rgb(15, 94, 170);"></rect><text  id="v-106" font-size="34" xml:space="preserve" y="0.8em" font-weight="bold" text-anchor="middle" pointer-events="visible" font-family="Open Sans" fill="#ffffff" transform="matrix(1,0,0,1,225,47.3)" style="fill: rgb(255, 255, 255);"><tspan dy="0" >Сервис подбора</tspan><tspan dy="1.2em" x="0" >оптимальной</tspan><tspan dy="1.2em" x="0" >конфигурации лестницы</tspan></text><text  id="v-107" font-size="17" xml:space="preserve" y="0.8em" text-anchor="middle" font-family="Open Sans" fill="#ffffff" transform="matrix(1,0,0,1,225,169.7)" style="fill: rgb(255, 255, 255);"><tspan dy="0" >[Software System]</tspan></text><text  id="v-108" font-size="24" xml:space="preserve" y="0.8em" text-anchor="middle" font-family="Open Sans" fill="#ffffff" transform="matrix(1,0,0,1,225,200.1)" style="fill: rgb(255, 255, 255);"><tspan dy="0" >Сервис подбора оптимальной</tspan><tspan dy="1.2em" x="0" >конфигурации лестницы</tspan></text><g  id="v-109" color="#ffffff" transform="matrix(1,0,0,1,222.5,268)" display="none" style="fill: rgb(255, 255, 255);"><g ></g><g ></g><g ></g><g ></g></g><image  id="v-110"></image></g></g><!--z-index:37--><g   id="j_13"  transform="translate(199,1451)" style=""><g  id="v-117" style="opacity: 1;"><rect  id="v-118" rx="20" ry="20" stroke="#0f5eaa" stroke-width="2" pointer-events="visiblePainted" fill="#1168bd" width="450" height="300" style="fill: rgb(17, 104, 189); stroke: rgb(15, 94, 170);"></rect><text  id="v-119" font-size="34" xml:space="preserve" y="0.8em" font-weight="bold" text-anchor="middle" pointer-events="visible" font-family="Open Sans" fill="#ffffff" transform="matrix(1,0,0,1,225,67.7)" style="fill: rgb(255, 255, 255);"><tspan dy="0" >Сервис публикации</tspan><tspan dy="1.2em" x="0" >файлов статики</tspan></text><text  id="v-120" font-size="17" xml:space="preserve" y="0.8em" text-anchor="middle" font-family="Open Sans" fill="#ffffff" transform="matrix(1,0,0,1,225,149.3)" style="fill: rgb(255, 255, 255);"><tspan dy="0" >[Software System]</tspan></text><text  id="v-121" font-size="24" xml:space="preserve" y="0.8em" text-anchor="middle" font-family="Open Sans" fill="#ffffff" transform="matrix(1,0,0,1,225,179.7)" style="fill: rgb(255, 255, 255);"><tspan dy="0" >Сервис публикации файлов</tspan><tspan dy="1.2em" x="0" >статики на защищенном сервере</tspan></text><g  id="v-122" color="#ffffff" transform="matrix(1,0,0,1,222.5,268)" display="none" style="fill: rgb(255, 255, 255);"><g ></g><g ></g><g ></g><g ></g></g><image  id="v-123"></image></g></g><!--z-index:38--><g   id="j_14" ><path  stroke="#707070" d="M 1682 551 L 1843 851" id="v-139" stroke-width="2" stroke-dasharray="30 30" fill="none" style="opacity: 1;"></path><path  fill="black" stroke="black" d="M 0 0 0 0" transform="matrix(0.47410332155505014,0.8804692160947302,-0.8804692160947302,0.47410332155505014,1681.68994140625,551)"></path><path  fill="#707070" stroke="#707070" d="M 20 0 L 0 10 L 20 20 z" id="v-141" transform="matrix(-0.4741032629342655,-0.8804692476600661,0.8804692476600661,-0.4741032629342655,1834.425353824617,855.7410376059432)" style="opacity: 1;"></path><path  d="M 1682 551 L 1843 851" id="v-140" fill="none" style="cursor: auto; pointer-events: visiblepainted;"></path><g ><g id="v-130"  label-idx="0" cursor="move" transform="matrix(1,0,0,1,1762.5,701)" style="cursor: default; opacity: 1;"><rect joint-selector="rect" id="v-134" fill="#ffffff" rx="3" ry="3" pointer-events="none" width="169.4484100341797" height="120.0617561340332" transform="matrix(1,0,0,1,-84.7,-60)"></rect><text joint-selector="text" id="v-133" font-size="24px" xml:space="preserve" y="0.8em" fill="#707070" text-anchor="middle" pointer-events="none" font-family="Open Sans" font-weight="normal" transform="matrix(1,0,0,1,0,-53)"><tspan dy="0" >Работа с веб-инт</tspan><tspan dy="1.2em" x="0" >ерфейсом</tspan><tspan dy="1.2em" x="0" >(расчеты,</tspan><tspan dy="1.2em" x="0" >проекты)</tspan></text></g><g id="v-131"  label-idx="1" cursor="move" transform="matrix(1,0,0,1,1762.5,770.5999755859375)" style="cursor: default; opacity: 1;"><rect joint-selector="rect" id="v-136" fill="#ffffff" rx="3" ry="3" pointer-events="none" width="61.94699478149414" height="24.311274528503418" transform="matrix(1,0,0,1,-31,-12.2)"></rect><text joint-selector="text" id="v-135" font-size="17px" xml:space="preserve" y="0.8em" fill="#707070" text-anchor="middle" pointer-events="none" font-family="Open Sans" font-weight="normal" transform="matrix(1,0,0,1,0,-7.1)"><tspan dy="0" >[HTTPS]</tspan></text></g><g id="v-132"  label-idx="2" cursor="move" transform="matrix(1,0,0,1,1752.5,779)" style="cursor: default; opacity: 1;"><rect joint-selector="rect" id="v-138" fill="#ffffff" rx="3" ry="3"  width="0" height="0" transform="matrix(1,0,0,1,0,0)" display="none"></rect><text joint-selector="text" id="v-137" fill="#000000" font-size="14" text-anchor="middle" pointer-events="none"></text></g></g><g  display="none" style="display: none;"></g><g  id="v-143" display="none"><g  id="v-128"><path  end="source" d="M 26 0 L 0 13 L 26 26 z"></path></g><g  id="v-129"><path  end="target" d="M 26 0 L 0 13 L 26 26 z"></path></g></g><g  id="v-142" display="none"><g  id="v-127" transform="translate(1700.914933026174, 586.2452168189578) "><g  event="remove"><circle r="11"></circle><path transform="scale(.8) translate(-16, -16)" d="M24.778,21.419 19.276,15.917 24.777,10.415 21.949,7.585 16.447,13.087 10.945,7.585 8.117,10.415 13.618,15.917 8.116,21.419 10.946,24.248 16.447,18.746 21.948,24.248z"></path><title>Remove link.</title></g><g  event="link:options"><circle r="11" transform="translate(25)"></circle><path fill="white" transform="scale(.55) translate(29, -16)" d="M31.229,17.736c0.064-0.571,0.104-1.148,0.104-1.736s-0.04-1.166-0.104-1.737l-4.377-1.557c-0.218-0.716-0.504-1.401-0.851-2.05l1.993-4.192c-0.725-0.91-1.549-1.734-2.458-2.459l-4.193,1.994c-0.647-0.347-1.334-0.632-2.049-0.849l-1.558-4.378C17.165,0.708,16.588,0.667,16,0.667s-1.166,0.041-1.737,0.105L12.707,5.15c-0.716,0.217-1.401,0.502-2.05,0.849L6.464,4.005C5.554,4.73,4.73,5.554,4.005,6.464l1.994,4.192c-0.347,0.648-0.632,1.334-0.849,2.05l-4.378,1.557C0.708,14.834,0.667,15.412,0.667,16s0.041,1.165,0.105,1.736l4.378,1.558c0.217,0.715,0.502,1.401,0.849,2.049l-1.994,4.193c0.725,0.909,1.549,1.733,2.459,2.458l4.192-1.993c0.648,0.347,1.334,0.633,2.05,0.851l1.557,4.377c0.571,0.064,1.148,0.104,1.737,0.104c0.588,0,1.165-0.04,1.736-0.104l1.558-4.377c0.715-0.218,1.399-0.504,2.049-0.851l4.193,1.993c0.909-0.725,1.733-1.549,2.458-2.458l-1.993-4.193c0.347-0.647,0.633-1.334,0.851-2.049L31.229,17.736zM16,20.871c-2.69,0-4.872-2.182-4.872-4.871c0-2.69,2.182-4.872,4.872-4.872c2.689,0,4.871,2.182,4.871,4.872C20.871,18.689,18.689,20.871,16,20.871z"></path><title>Link options.</title></g></g></g></g><!--z-index:39--><g   id="j_15" ><path  stroke="#707070" d="M 2166 551 L 2005 851" id="v-159" stroke-width="2" stroke-dasharray="30 30" fill="none" style="opacity: 1;"></path><path  fill="black" stroke="black" d="M 0 0 0 0" transform="matrix(-0.47410338017583303,0.8804691845293903,-0.8804691845293903,-0.47410338017583303,2166.31005859375,551)"></path><path  fill="#707070" stroke="#707070" d="M 20 0 L 0 10 L 20 20 z" id="v-161" transform="matrix(0.4741034974173923,-0.8804691213986988,0.8804691213986988,0.4741034974173923,1995.9652601399641,846.2589687398131)" style="opacity: 1;"></path><path  d="M 2166 551 L 2005 851" id="v-160" fill="none" style="cursor: auto; pointer-events: visiblepainted;"></path><g ><g id="v-150"  label-idx="0" cursor="move" transform="matrix(1,0,0,1,2085.5,701)" style="cursor: default; opacity: 1;"><rect joint-selector="rect" id="v-154" fill="#ffffff" rx="3" ry="3" pointer-events="none" width="135.611328125" height="120.0617561340332" transform="matrix(1,0,0,1,-67.8,-60)"></rect><text joint-selector="text" id="v-153" font-size="24px" xml:space="preserve" y="0.8em" fill="#707070" text-anchor="middle" pointer-events="none" font-family="Open Sans" font-weight="normal" transform="matrix(1,0,0,1,0,-53)"><tspan dy="0" >Управление</tspan><tspan dy="1.2em" x="0" >структруой и</tspan><tspan dy="1.2em" x="0" >данными на</tspan><tspan dy="1.2em" x="0" >сайте</tspan></text></g><g id="v-151"  label-idx="1" cursor="move" transform="matrix(1,0,0,1,2085.5,770.5999755859375)" style="cursor: default; opacity: 1;"><rect joint-selector="rect" id="v-156" fill="#ffffff" rx="3" ry="3" pointer-events="none" width="61.94699478149414" height="24.311274528503418" transform="matrix(1,0,0,1,-31,-12.2)"></rect><text joint-selector="text" id="v-155" font-size="17px" xml:space="preserve" y="0.8em" fill="#707070" text-anchor="middle" pointer-events="none" font-family="Open Sans" font-weight="normal" transform="matrix(1,0,0,1,0,-7.1)"><tspan dy="0" >[HTTPS]</tspan></text></g><g id="v-152"  label-idx="2" cursor="move" transform="matrix(1,0,0,1,2075.5,779)" style="cursor: default; opacity: 1;"><rect joint-selector="rect" id="v-158" fill="#ffffff" rx="3" ry="3"  width="0" height="0" transform="matrix(1,0,0,1,0,0)" display="none"></rect><text joint-selector="text" id="v-157" fill="#000000" font-size="14" text-anchor="middle" pointer-events="none"></text></g></g><g  display="none" style="display: none;"></g><g  id="v-163" display="none"><g  id="v-148"><path  end="source" d="M 26 0 L 0 13 L 26 26 z"></path></g><g  id="v-149"><path  end="target" d="M 26 0 L 0 13 L 26 26 z"></path></g></g><g  id="v-162" display="none"><g  id="v-147" transform="translate(2147.0850669738256, 586.2452168189578) "><g  event="remove"><circle r="11"></circle><path transform="scale(.8) translate(-16, -16)" d="M24.778,21.419 19.276,15.917 24.777,10.415 21.949,7.585 16.447,13.087 10.945,7.585 8.117,10.415 13.618,15.917 8.116,21.419 10.946,24.248 16.447,18.746 21.948,24.248z"></path><title>Remove link.</title></g><g  event="link:options"><circle r="11" transform="translate(25)"></circle><path fill="white" transform="scale(.55) translate(29, -16)" d="M31.229,17.736c0.064-0.571,0.104-1.148,0.104-1.736s-0.04-1.166-0.104-1.737l-4.377-1.557c-0.218-0.716-0.504-1.401-0.851-2.05l1.993-4.192c-0.725-0.91-1.549-1.734-2.458-2.459l-4.193,1.994c-0.647-0.347-1.334-0.632-2.049-0.849l-1.558-4.378C17.165,0.708,16.588,0.667,16,0.667s-1.166,0.041-1.737,0.105L12.707,5.15c-0.716,0.217-1.401,0.502-2.05,0.849L6.464,4.005C5.554,4.73,4.73,5.554,4.005,6.464l1.994,4.192c-0.347,0.648-0.632,1.334-0.849,2.05l-4.378,1.557C0.708,14.834,0.667,15.412,0.667,16s0.041,1.165,0.105,1.736l4.378,1.558c0.217,0.715,0.502,1.401,0.849,2.049l-1.994,4.193c0.725,0.909,1.549,1.733,2.459,2.458l4.192-1.993c0.648,0.347,1.334,0.633,2.05,0.851l1.557,4.377c0.571,0.064,1.148,0.104,1.737,0.104c0.588,0,1.165-0.04,1.736-0.104l1.558-4.377c0.715-0.218,1.399-0.504,2.049-0.851l4.193,1.993c0.909-0.725,1.733-1.549,2.458-2.458l-1.993-4.193c0.347-0.647,0.633-1.334,0.851-2.049L31.229,17.736zM16,20.871c-2.69,0-4.872-2.182-4.872-4.871c0-2.69,2.182-4.872,4.872-4.872c2.689,0,4.871,2.182,4.871,4.872C20.871,18.689,18.689,20.871,16,20.871z"></path><title>Link options.</title></g></g></g></g><!--z-index:40--><g   id="j_16" ><path  stroke="#707070" d="M 2112 1151 L 2487 1451" id="v-179" stroke-width="2" stroke-dasharray="30 30" fill="none" style="opacity: 1;"></path><path  fill="black" stroke="black" d="M 0 0 0 0" transform="matrix(0.7808688000832672,0.624695059254128,-0.624695059254128,0.7808688000832672,2111.5,1151)"></path><path  fill="#707070" stroke="#707070" d="M 20 0 L 0 10 L 20 20 z" id="v-181" transform="matrix(-0.7808688416748548,-0.6246950072646416,0.6246950072646416,-0.7808688416748548,2480.253144594102,1458.8086902472073)" style="opacity: 1;"></path><path  d="M 2112 1151 L 2487 1451" id="v-180" fill="none" style="cursor: auto; pointer-events: visiblepainted;"></path><g ><g id="v-170"  label-idx="0" cursor="move" transform="matrix(1,0,0,1,2299.5,1301)" style="cursor: default; opacity: 1;"><rect joint-selector="rect" id="v-174" fill="#ffffff" rx="3" ry="3" pointer-events="none" width="167.60752868652344" height="91.26176834106445" transform="matrix(1,0,0,1,-83.8,-45.6)"></rect><text joint-selector="text" id="v-173" font-size="24px" xml:space="preserve" y="0.8em" fill="#707070" text-anchor="middle" pointer-events="none" font-family="Open Sans" font-weight="normal" transform="matrix(1,0,0,1,0,-38.6)"><tspan dy="0" >Получение</tspan><tspan dy="1.2em" x="0" >проекта с</tspan><tspan dy="1.2em" x="0" >чертежами и 3D</tspan></text></g><g id="v-171"  label-idx="1" cursor="move" transform="matrix(1,0,0,1,2299.5,1356.199951171875)" style="cursor: default; opacity: 1;"><rect joint-selector="rect" id="v-176" fill="#ffffff" rx="3" ry="3" pointer-events="none" width="124.50762176513672" height="24.311274528503418" transform="matrix(1,0,0,1,-62.3,-12.2)"></rect><text joint-selector="text" id="v-175" font-size="17px" xml:space="preserve" y="0.8em" fill="#707070" text-anchor="middle" pointer-events="none" font-family="Open Sans" font-weight="normal" transform="matrix(1,0,0,1,0,-7.1)"><tspan dy="0" >[WEB-SOCKETS]</tspan></text></g><g id="v-172"  label-idx="2" cursor="move" transform="matrix(1,0,0,1,2289.5,1364.5999755859375)" style="cursor: default; opacity: 1;"><rect joint-selector="rect" id="v-178" fill="#ffffff" rx="3" ry="3"  width="0" height="0" transform="matrix(1,0,0,1,0,0)" display="none"></rect><text joint-selector="text" id="v-177" fill="#000000" font-size="14" text-anchor="middle" pointer-events="none"></text></g></g><g  display="none" style="display: none;"></g><g  id="v-183" display="none"><g  id="v-168"><path  end="source" d="M 26 0 L 0 13 L 26 26 z"></path></g><g  id="v-169"><path  end="target" d="M 26 0 L 0 13 L 26 26 z"></path></g></g><g  id="v-182" display="none"><g  id="v-167" transform="translate(2143.234752377721, 1175.987801902177) "><g  event="remove"><circle r="11"></circle><path transform="scale(.8) translate(-16, -16)" d="M24.778,21.419 19.276,15.917 24.777,10.415 21.949,7.585 16.447,13.087 10.945,7.585 8.117,10.415 13.618,15.917 8.116,21.419 10.946,24.248 16.447,18.746 21.948,24.248z"></path><title>Remove link.</title></g><g  event="link:options"><circle r="11" transform="translate(25)"></circle><path fill="white" transform="scale(.55) translate(29, -16)" d="M31.229,17.736c0.064-0.571,0.104-1.148,0.104-1.736s-0.04-1.166-0.104-1.737l-4.377-1.557c-0.218-0.716-0.504-1.401-0.851-2.05l1.993-4.192c-0.725-0.91-1.549-1.734-2.458-2.459l-4.193,1.994c-0.647-0.347-1.334-0.632-2.049-0.849l-1.558-4.378C17.165,0.708,16.588,0.667,16,0.667s-1.166,0.041-1.737,0.105L12.707,5.15c-0.716,0.217-1.401,0.502-2.05,0.849L6.464,4.005C5.554,4.73,4.73,5.554,4.005,6.464l1.994,4.192c-0.347,0.648-0.632,1.334-0.849,2.05l-4.378,1.557C0.708,14.834,0.667,15.412,0.667,16s0.041,1.165,0.105,1.736l4.378,1.558c0.217,0.715,0.502,1.401,0.849,2.049l-1.994,4.193c0.725,0.909,1.549,1.733,2.459,2.458l4.192-1.993c0.648,0.347,1.334,0.633,2.05,0.851l1.557,4.377c0.571,0.064,1.148,0.104,1.737,0.104c0.588,0,1.165-0.04,1.736-0.104l1.558-4.377c0.715-0.218,1.399-0.504,2.049-0.851l4.193,1.993c0.909-0.725,1.733-1.549,2.458-2.458l-1.993-4.193c0.347-0.647,0.633-1.334,0.851-2.049L31.229,17.736zM16,20.871c-2.69,0-4.872-2.182-4.872-4.871c0-2.69,2.182-4.872,4.872-4.872c2.689,0,4.871,2.182,4.871,4.872C20.871,18.689,18.689,20.871,16,20.871z"></path><title>Link options.</title></g></g></g></g><!--z-index:41--><g   id="j_17" ><path  stroke="#707070" d="M 2149 1091 L 3199 1511" id="v-199" stroke-width="2" stroke-dasharray="30 30" fill="none" style="opacity: 1;"></path><path  fill="black" stroke="black" d="M 0 0 0 0" transform="matrix(0.9284766955435519,0.371390664708372,-0.371390664708372,0.9284766955435519,2149,1091)"></path><path  fill="#707070" stroke="#707070" d="M 20 0 L 0 10 L 20 20 z" id="v-201" transform="matrix(-0.928476707906966,-0.3713906337998342,0.3713906337998342,-0.928476707906966,3195.2861927723216,1520.284806229568)" style="opacity: 1;"></path><path  d="M 2149 1091 L 3199 1511" id="v-200" fill="none" style="cursor: auto; pointer-events: visiblepainted;"></path><g ><g id="v-190"  label-idx="0" cursor="move" transform="matrix(1,0,0,1,2674,1301)" style="cursor: default; opacity: 1;"><rect joint-selector="rect" id="v-194" fill="#ffffff" rx="3" ry="3" pointer-events="none" width="161.12063598632812" height="91.26176834106445" transform="matrix(1,0,0,1,-80.6,-45.6)"></rect><text joint-selector="text" id="v-193" font-size="24px" xml:space="preserve" y="0.8em" fill="#707070" text-anchor="middle" pointer-events="none" font-family="Open Sans" font-weight="normal" transform="matrix(1,0,0,1,0,-38.6)"><tspan dy="0" >Расчет типовых</tspan><tspan dy="1.2em" x="0" >строительных</tspan><tspan dy="1.2em" x="0" >расчетов</tspan></text></g><g id="v-191"  label-idx="1" cursor="move" transform="matrix(1,0,0,1,2674,1356.199951171875)" style="cursor: default; opacity: 1;"><rect joint-selector="rect" id="v-196" fill="#ffffff" rx="3" ry="3" pointer-events="none" width="124.50762176513672" height="24.311274528503418" transform="matrix(1,0,0,1,-62.3,-12.2)"></rect><text joint-selector="text" id="v-195" font-size="17px" xml:space="preserve" y="0.8em" fill="#707070" text-anchor="middle" pointer-events="none" font-family="Open Sans" font-weight="normal" transform="matrix(1,0,0,1,0,-7.1)"><tspan dy="0" >[WEB-SOCKETS]</tspan></text></g><g id="v-192"  label-idx="2" cursor="move" transform="matrix(1,0,0,1,2664,1364.5999755859375)" style="cursor: default; opacity: 1;"><rect joint-selector="rect" id="v-198" fill="#ffffff" rx="3" ry="3"  width="0" height="0" transform="matrix(1,0,0,1,0,0)" display="none"></rect><text joint-selector="text" id="v-197" fill="#000000" font-size="14" text-anchor="middle" pointer-events="none"></text></g></g><g  display="none" style="display: none;"></g><g  id="v-203" display="none"><g  id="v-188"><path  end="source" d="M 26 0 L 0 13 L 26 26 z"></path></g><g  id="v-189"><path  end="target" d="M 26 0 L 0 13 L 26 26 z"></path></g></g><g  id="v-202" display="none"><g  id="v-187" transform="translate(2186.1390676354104, 1105.855627054164) "><g  event="remove"><circle r="11"></circle><path transform="scale(.8) translate(-16, -16)" d="M24.778,21.419 19.276,15.917 24.777,10.415 21.949,7.585 16.447,13.087 10.945,7.585 8.117,10.415 13.618,15.917 8.116,21.419 10.946,24.248 16.447,18.746 21.948,24.248z"></path><title>Remove link.</title></g><g  event="link:options"><circle r="11" transform="translate(25)"></circle><path fill="white" transform="scale(.55) translate(29, -16)" d="M31.229,17.736c0.064-0.571,0.104-1.148,0.104-1.736s-0.04-1.166-0.104-1.737l-4.377-1.557c-0.218-0.716-0.504-1.401-0.851-2.05l1.993-4.192c-0.725-0.91-1.549-1.734-2.458-2.459l-4.193,1.994c-0.647-0.347-1.334-0.632-2.049-0.849l-1.558-4.378C17.165,0.708,16.588,0.667,16,0.667s-1.166,0.041-1.737,0.105L12.707,5.15c-0.716,0.217-1.401,0.502-2.05,0.849L6.464,4.005C5.554,4.73,4.73,5.554,4.005,6.464l1.994,4.192c-0.347,0.648-0.632,1.334-0.849,2.05l-4.378,1.557C0.708,14.834,0.667,15.412,0.667,16s0.041,1.165,0.105,1.736l4.378,1.558c0.217,0.715,0.502,1.401,0.849,2.049l-1.994,4.193c0.725,0.909,1.549,1.733,2.459,2.458l4.192-1.993c0.648,0.347,1.334,0.633,2.05,0.851l1.557,4.377c0.571,0.064,1.148,0.104,1.737,0.104c0.588,0,1.165-0.04,1.736-0.104l1.558-4.377c0.715-0.218,1.399-0.504,2.049-0.851l4.193,1.993c0.909-0.725,1.733-1.549,2.458-2.458l-1.993-4.193c0.347-0.647,0.633-1.334,0.851-2.049L31.229,17.736zM16,20.871c-2.69,0-4.872-2.182-4.872-4.871c0-2.69,2.182-4.872,4.872-4.872c2.689,0,4.871,2.182,4.871,4.872C20.871,18.689,18.689,20.871,16,20.871z"></path><title>Link options.</title></g></g></g></g><!--z-index:42--><g   id="j_18" ><path  stroke="#707070" d="M 2149 1055 L 3789 1449 C 3795.6666666666665 1450.3333333333333 3802 1452.3333333333333 3808 1455 L 3949 1511" id="v-220" stroke-width="2" stroke-dasharray="30 30" fill="none" style="opacity: 1;"></path><path  fill="black" stroke="black" d="M 0 0 0 0" transform="matrix(0.9723873020607068,0.23337295214120202,-0.23337295214120202,0.9723873020607068,2149,1055)"></path><path  fill="#707070" stroke="#707070" d="M 20 0 L 0 10 L 20 20 z" id="v-222" transform="matrix(-0.928476707906966,-0.3713906337998342,0.3713906337998342,-0.928476707906966,3945.2861927723216,1520.284806229568)" style="opacity: 1;"></path><path  d="M 2149 1055 L 3789 1449 C 3795.6666666666665 1450.3333333333333 3802 1452.3333333333333 3808 1455 L 3949 1511" id="v-221" fill="none" style="cursor: auto; pointer-events: visiblepainted;"></path><g ><g id="v-211"  label-idx="0" cursor="move" transform="matrix(1,0,0,1,3052.46337890625,1272.0516357421875)" style="cursor: default; opacity: 1;"><rect joint-selector="rect" id="v-215" fill="#ffffff" rx="3" ry="3" pointer-events="none" width="163.2244873046875" height="62.46176338195801" transform="matrix(1,0,0,1,-81.6,-31.2)"></rect><text joint-selector="text" id="v-214" font-size="24px" xml:space="preserve" y="0.8em" fill="#707070" text-anchor="middle" pointer-events="none" font-family="Open Sans" font-weight="normal" transform="matrix(1,0,0,1,0,-24.2)"><tspan dy="0" >Расчет</tspan><tspan dy="1.2em" x="0" >металлопроката</tspan></text></g><g id="v-212"  label-idx="1" cursor="move" transform="matrix(1,0,0,1,3052.46337890625,1312.8515625)" style="cursor: default; opacity: 1;"><rect joint-selector="rect" id="v-217" fill="#ffffff" rx="3" ry="3" pointer-events="none" width="65.89173126220703" height="24.311274528503418" transform="matrix(1,0,0,1,-32.9,-12.2)"></rect><text joint-selector="text" id="v-216" font-size="17px" xml:space="preserve" y="0.8em" fill="#707070" text-anchor="middle" pointer-events="none" font-family="Open Sans" font-weight="normal" transform="matrix(1,0,0,1,0,-7.1)"><tspan dy="0" >[iFrame]</tspan></text></g><g id="v-213"  label-idx="2" cursor="move" transform="matrix(1,0,0,1,3042.46337890625,1321.2515869140625)" style="cursor: default; opacity: 1;"><rect joint-selector="rect" id="v-219" fill="#ffffff" rx="3" ry="3"  width="0" height="0" transform="matrix(1,0,0,1,0,0)" display="none"></rect><text joint-selector="text" id="v-218" fill="#000000" font-size="14" text-anchor="middle" pointer-events="none"></text></g></g><g  display="none" style="display: none;"><g  transform="translate(3799, 1451)" id="v-401"><circle  idx="0" r="10"></circle><path  idx="0" d="M16,5.333c-7.732,0-14,4.701-14,10.5c0,1.982,0.741,3.833,2.016,5.414L2,25.667l5.613-1.441c2.339,1.317,5.237,2.107,8.387,2.107c7.732,0,14-4.701,14-10.5C30,10.034,23.732,5.333,16,5.333z" transform="translate(5, -33)"></path><path  idx="0" transform="scale(.8) translate(9.5, -37)" d="M24.778,21.419 19.276,15.917 24.777,10.415 21.949,7.585 16.447,13.087 10.945,7.585 8.117,10.415 13.618,15.917 8.116,21.419 10.946,24.248 16.447,18.746 21.948,24.248z"><title>Remove vertex.</title></path></g></g><g  id="v-224" display="none"><g  id="v-209"><path  end="source" d="M 26 0 L 0 13 L 26 26 z"></path></g><g  id="v-210"><path  end="target" d="M 26 0 L 0 13 L 26 26 z"></path></g></g><g  id="v-223" display="none"><g  id="v-207" transform="translate(2187.8933383566355, 1064.3438873856794) "><g  event="remove"><circle r="11"></circle><path transform="scale(.8) translate(-16, -16)" d="M24.778,21.419 19.276,15.917 24.777,10.415 21.949,7.585 16.447,13.087 10.945,7.585 8.117,10.415 13.618,15.917 8.116,21.419 10.946,24.248 16.447,18.746 21.948,24.248z"></path><title>Remove link.</title></g><g  event="link:options"><circle r="11" transform="translate(25)"></circle><path fill="white" transform="scale(.55) translate(29, -16)" d="M31.229,17.736c0.064-0.571,0.104-1.148,0.104-1.736s-0.04-1.166-0.104-1.737l-4.377-1.557c-0.218-0.716-0.504-1.401-0.851-2.05l1.993-4.192c-0.725-0.91-1.549-1.734-2.458-2.459l-4.193,1.994c-0.647-0.347-1.334-0.632-2.049-0.849l-1.558-4.378C17.165,0.708,16.588,0.667,16,0.667s-1.166,0.041-1.737,0.105L12.707,5.15c-0.716,0.217-1.401,0.502-2.05,0.849L6.464,4.005C5.554,4.73,4.73,5.554,4.005,6.464l1.994,4.192c-0.347,0.648-0.632,1.334-0.849,2.05l-4.378,1.557C0.708,14.834,0.667,15.412,0.667,16s0.041,1.165,0.105,1.736l4.378,1.558c0.217,0.715,0.502,1.401,0.849,2.049l-1.994,4.193c0.725,0.909,1.549,1.733,2.459,2.458l4.192-1.993c0.648,0.347,1.334,0.633,2.05,0.851l1.557,4.377c0.571,0.064,1.148,0.104,1.737,0.104c0.588,0,1.165-0.04,1.736-0.104l1.558-4.377c0.715-0.218,1.399-0.504,2.049-0.851l4.193,1.993c0.909-0.725,1.733-1.549,2.458-2.458l-1.993-4.193c0.347-0.647,0.633-1.334,0.851-2.049L31.229,17.736zM16,20.871c-2.69,0-4.872-2.182-4.872-4.871c0-2.69,2.182-4.872,4.872-4.872c2.689,0,4.871,2.182,4.871,4.872C20.871,18.689,18.689,20.871,16,20.871z"></path><title>Link options.</title></g></g></g></g><!--z-index:43--><g   id="j_19" ><path  stroke="#707070" d="M 1699 1091 L 649 1511" id="v-240" stroke-width="2" stroke-dasharray="30 30" fill="none" style="opacity: 1;"></path><path  fill="black" stroke="black" d="M 0 0 0 0" transform="matrix(-0.928476707906966,0.37139063379983406,-0.37139063379983406,-0.928476707906966,1699,1091)"></path><path  fill="#707070" stroke="#707070" d="M 20 0 L 0 10 L 20 20 z" id="v-242" transform="matrix(0.9284766089996245,-0.3713908810681253,0.3713908810681253,0.9284766089996245,645.2861151383851,1501.7152755331851)" style="opacity: 1;"></path><path  d="M 1699 1091 L 649 1511" id="v-241" fill="none" style="cursor: auto; pointer-events: visiblepainted;"></path><g ><g id="v-231"  label-idx="0" cursor="move" transform="matrix(1,0,0,1,1174,1301)" style="cursor: default; opacity: 1;"><rect joint-selector="rect" id="v-235" fill="#ffffff" rx="3" ry="3" pointer-events="none" width="161.61737060546875" height="62.46176338195801" transform="matrix(1,0,0,1,-80.8,-31.2)"></rect><text joint-selector="text" id="v-234" font-size="24px" xml:space="preserve" y="0.8em" fill="#707070" text-anchor="middle" pointer-events="none" font-family="Open Sans" font-weight="normal" transform="matrix(1,0,0,1,0,-24.2)"><tspan dy="0" >Размещение</tspan><tspan dy="1.2em" x="0" >файлов статики</tspan></text></g><g id="v-232"  label-idx="1" cursor="move" transform="matrix(1,0,0,1,1174,1341.800048828125)" style="cursor: default; opacity: 1;"><rect joint-selector="rect" id="v-237" fill="#ffffff" rx="3" ry="3" pointer-events="none" width="52.62572479248047" height="24.311274528503418" transform="matrix(1,0,0,1,-26.3,-12.2)"></rect><text joint-selector="text" id="v-236" font-size="17px" xml:space="preserve" y="0.8em" fill="#707070" text-anchor="middle" pointer-events="none" font-family="Open Sans" font-weight="normal" transform="matrix(1,0,0,1,0,-7.1)"><tspan dy="0" >[HTTP]</tspan></text></g><g id="v-233"  label-idx="2" cursor="move" transform="matrix(1,0,0,1,1164,1350.199951171875)" style="cursor: default; opacity: 1;"><rect joint-selector="rect" id="v-239" fill="#ffffff" rx="3" ry="3"  width="0" height="0" transform="matrix(1,0,0,1,0,0)" display="none"></rect><text joint-selector="text" id="v-238" fill="#000000" font-size="14" text-anchor="middle" pointer-events="none"></text></g></g><g  display="none" style="display: none;"></g><g  id="v-244" display="none"><g  id="v-229"><path  end="source" d="M 26 0 L 0 13 L 26 26 z"></path></g><g  id="v-230"><path  end="target" d="M 26 0 L 0 13 L 26 26 z"></path></g></g><g  id="v-243" display="none"><g  id="v-228" transform="translate(1661.8609323645896, 1105.855627054164) "><g  event="remove"><circle r="11"></circle><path transform="scale(.8) translate(-16, -16)" d="M24.778,21.419 19.276,15.917 24.777,10.415 21.949,7.585 16.447,13.087 10.945,7.585 8.117,10.415 13.618,15.917 8.116,21.419 10.946,24.248 16.447,18.746 21.948,24.248z"></path><title>Remove link.</title></g><g  event="link:options"><circle r="11" transform="translate(25)"></circle><path fill="white" transform="scale(.55) translate(29, -16)" d="M31.229,17.736c0.064-0.571,0.104-1.148,0.104-1.736s-0.04-1.166-0.104-1.737l-4.377-1.557c-0.218-0.716-0.504-1.401-0.851-2.05l1.993-4.192c-0.725-0.91-1.549-1.734-2.458-2.459l-4.193,1.994c-0.647-0.347-1.334-0.632-2.049-0.849l-1.558-4.378C17.165,0.708,16.588,0.667,16,0.667s-1.166,0.041-1.737,0.105L12.707,5.15c-0.716,0.217-1.401,0.502-2.05,0.849L6.464,4.005C5.554,4.73,4.73,5.554,4.005,6.464l1.994,4.192c-0.347,0.648-0.632,1.334-0.849,2.05l-4.378,1.557C0.708,14.834,0.667,15.412,0.667,16s0.041,1.165,0.105,1.736l4.378,1.558c0.217,0.715,0.502,1.401,0.849,2.049l-1.994,4.193c0.725,0.909,1.549,1.733,2.459,2.458l4.192-1.993c0.648,0.347,1.334,0.633,2.05,0.851l1.557,4.377c0.571,0.064,1.148,0.104,1.737,0.104c0.588,0,1.165-0.04,1.736-0.104l1.558-4.377c0.715-0.218,1.399-0.504,2.049-0.851l4.193,1.993c0.909-0.725,1.733-1.549,2.458-2.458l-1.993-4.193c0.347-0.647,0.633-1.334,0.851-2.049L31.229,17.736zM16,20.871c-2.69,0-4.872-2.182-4.872-4.871c0-2.69,2.182-4.872,4.872-4.872c2.689,0,4.871,2.182,4.871,4.872C20.871,18.689,18.689,20.871,16,20.871z"></path><title>Link options.</title></g></g></g></g><!--z-index:44--><g   id="j_20" ><path  stroke="#059e05" d="M 1924 1151 L 1924 1291 C 1923.9999999999998 1297.6666666666665 1923.9999999999998 1304.3333333333333 1924 1311 L 1924 1451" id="v-260" stroke-width="2" stroke-dasharray="30 30" fill="none" style="opacity: 1;"></path><path  fill="black" stroke="black" d="M 0 0 0 0" transform="matrix(6.123233995736766e-17,1,-1,6.123233995736766e-17,1924,1151)"></path><path  fill="#059e05" stroke="#059e05" d="M 20 0 L 0 10 L 20 20 z" id="v-262" transform="matrix(-1.8369701987210297e-16,-1,1,-1.8369701987210297e-16,1914,1451)" style="opacity: 1;"></path><path  d="M 1924 1151 L 1924 1291 C 1923.9999999999998 1297.6666666666665 1923.9999999999998 1304.3333333333333 1924 1311 L 1924 1451" id="v-261" fill="none" style="cursor: auto; pointer-events: visiblepainted;"></path><g ><g id="v-251"  label-idx="0" cursor="move" transform="matrix(1,0,0,1,1924,1301)" style="cursor: default; opacity: 1;"><rect joint-selector="rect" id="v-255" fill="#ffffff" rx="3" ry="3" pointer-events="none" width="198.58102416992188" height="235.26174926757812" transform="matrix(1,0,0,1,-99.3,-117.6)"></rect><text joint-selector="text" id="v-254" font-size="24px" xml:space="preserve" y="0.8em" fill="#059e05" text-anchor="middle" pointer-events="none" font-family="Open Sans" font-weight="normal" transform="matrix(1,0,0,1,0,-110.6)"><tspan dy="0" >Размещение</tspan><tspan dy="1.2em" x="0" >запроса на</tspan><tspan dy="1.2em" x="0" >расчёт. POST: /op</tspan><tspan dy="1.2em" x="0" >tis-</tspan><tspan dy="1.2em" x="0" >stairs/</tspan><tspan dy="1.2em" x="0" >api/</tspan><tspan dy="1.2em" x="0" >{stair-type}/reque</tspan><tspan dy="1.2em" x="0" >st</tspan></text></g><g id="v-252"  label-idx="1" cursor="move" transform="matrix(1,0,0,1,1924,1428.199951171875)" style="cursor: default; opacity: 1;"><rect joint-selector="rect" id="v-257" fill="#ffffff" rx="3" ry="3" pointer-events="none" width="79.88825225830078" height="24.311274528503418" transform="matrix(1,0,0,1,-39.9,-12.2)"></rect><text joint-selector="text" id="v-256" font-size="17px" xml:space="preserve" y="0.8em" fill="#059e05" text-anchor="middle" pointer-events="none" font-family="Open Sans" font-weight="normal" transform="matrix(1,0,0,1,0,-7.1)"><tspan dy="0" >[REST API]</tspan></text></g><g id="v-253"  label-idx="2" cursor="move" transform="matrix(1,0,0,1,1914,1436.5999755859375)" style="cursor: default; opacity: 1;"><rect joint-selector="rect" id="v-259" fill="#ffffff" rx="3" ry="3"  width="0" height="0" transform="matrix(1,0,0,1,0,0)" display="none"></rect><text joint-selector="text" id="v-258" fill="#000000" font-size="14" text-anchor="middle" pointer-events="none"></text></g></g><g  display="none" style="display: none;"><g  transform="translate(1924, 1301)" id="v-402"><circle  idx="0" r="10"></circle><path  idx="0" d="M16,5.333c-7.732,0-14,4.701-14,10.5c0,1.982,0.741,3.833,2.016,5.414L2,25.667l5.613-1.441c2.339,1.317,5.237,2.107,8.387,2.107c7.732,0,14-4.701,14-10.5C30,10.034,23.732,5.333,16,5.333z" transform="translate(5, -33)"></path><path  idx="0" transform="scale(.8) translate(9.5, -37)" d="M24.778,21.419 19.276,15.917 24.777,10.415 21.949,7.585 16.447,13.087 10.945,7.585 8.117,10.415 13.618,15.917 8.116,21.419 10.946,24.248 16.447,18.746 21.948,24.248z"><title>Remove vertex.</title></path></g></g><g  id="v-264" display="none"><g  id="v-249"><path  end="source" d="M 26 0 L 0 13 L 26 26 z"></path></g><g  id="v-250"><path  end="target" d="M 26 0 L 0 13 L 26 26 z"></path></g></g><g  id="v-263" display="none"><g  id="v-248" transform="translate(1924, 1191) "><g  event="remove"><circle r="11"></circle><path transform="scale(.8) translate(-16, -16)" d="M24.778,21.419 19.276,15.917 24.777,10.415 21.949,7.585 16.447,13.087 10.945,7.585 8.117,10.415 13.618,15.917 8.116,21.419 10.946,24.248 16.447,18.746 21.948,24.248z"></path><title>Remove link.</title></g><g  event="link:options"><circle r="11" transform="translate(25)"></circle><path fill="white" transform="scale(.55) translate(29, -16)" d="M31.229,17.736c0.064-0.571,0.104-1.148,0.104-1.736s-0.04-1.166-0.104-1.737l-4.377-1.557c-0.218-0.716-0.504-1.401-0.851-2.05l1.993-4.192c-0.725-0.91-1.549-1.734-2.458-2.459l-4.193,1.994c-0.647-0.347-1.334-0.632-2.049-0.849l-1.558-4.378C17.165,0.708,16.588,0.667,16,0.667s-1.166,0.041-1.737,0.105L12.707,5.15c-0.716,0.217-1.401,0.502-2.05,0.849L6.464,4.005C5.554,4.73,4.73,5.554,4.005,6.464l1.994,4.192c-0.347,0.648-0.632,1.334-0.849,2.05l-4.378,1.557C0.708,14.834,0.667,15.412,0.667,16s0.041,1.165,0.105,1.736l4.378,1.558c0.217,0.715,0.502,1.401,0.849,2.049l-1.994,4.193c0.725,0.909,1.549,1.733,2.459,2.458l4.192-1.993c0.648,0.347,1.334,0.633,2.05,0.851l1.557,4.377c0.571,0.064,1.148,0.104,1.737,0.104c0.588,0,1.165-0.04,1.736-0.104l1.558-4.377c0.715-0.218,1.399-0.504,2.049-0.851l4.193,1.993c0.909-0.725,1.733-1.549,2.458-2.458l-1.993-4.193c0.347-0.647,0.633-1.334,0.851-2.049L31.229,17.736zM16,20.871c-2.69,0-4.872-2.182-4.872-4.871c0-2.69,2.182-4.872,4.872-4.872c2.689,0,4.871,2.182,4.871,4.872C20.871,18.689,18.689,20.871,16,20.871z"></path><title>Link options.</title></g></g></g></g><!--z-index:45--><g   id="j_21" ><path  stroke="#0d38ea" d="M 1999 1151 L 2070 1292 C 2072.6666666666665 1298 2072.6666666666665 1304 2070 1310 L 1999 1451" id="v-280" stroke-width="2" stroke-dasharray="30 30" fill="none" style="opacity: 1;"></path><path  fill="black" stroke="black" d="M 0 0 0 0" transform="matrix(0.4472136088532365,0.8944271843232765,-0.8944271843232765,0.4472136088532365,1999,1151)"></path><path  fill="#0d38ea" stroke="#0d38ea" d="M 20 0 L 0 10 L 20 20 z" id="v-282" transform="matrix(0.4472137875035034,-0.8944270949981173,0.8944270949981173,0.4472137875035034,1990.055759143734,1446.5279192077587)" style="opacity: 1;"></path><path  d="M 1999 1151 L 2070 1292 C 2072.6666666666665 1298 2072.6666666666665 1304 2070 1310 L 1999 1451" id="v-281" fill="none" style="cursor: auto; pointer-events: visiblepainted;"></path><g ><g id="v-271"  label-idx="0" cursor="move" transform="matrix(1,0,0,1,2072,1301)" style="cursor: default; opacity: 1;"><rect joint-selector="rect" id="v-275" fill="#ffffff" rx="3" ry="3" pointer-events="none" width="198.2303924560547" height="235.26174926757812" transform="matrix(1,0,0,1,-99.1,-117.6)"></rect><text joint-selector="text" id="v-274" font-size="24px" xml:space="preserve" y="0.8em" fill="#0d38ea" text-anchor="middle" pointer-events="none" font-family="Open Sans" font-weight="normal" transform="matrix(1,0,0,1,0,-110.6)"><tspan dy="0" >Получение</tspan><tspan dy="1.2em" x="0" >статуса и</tspan><tspan dy="1.2em" x="0" >результата</tspan><tspan dy="1.2em" x="0" >расчёта. GET: /op</tspan><tspan dy="1.2em" x="0" >tis-</tspan><tspan dy="1.2em" x="0" >stairs/</tspan><tspan dy="1.2em" x="0" >api/</tspan><tspan dy="1.2em" x="0" >requests-statuses</tspan></text></g><g id="v-272"  label-idx="1" cursor="move" transform="matrix(1,0,0,1,2072,1428.199951171875)" style="cursor: default; opacity: 1;"><rect joint-selector="rect" id="v-277" fill="#ffffff" rx="3" ry="3" pointer-events="none" width="79.88825225830078" height="24.311274528503418" transform="matrix(1,0,0,1,-39.9,-12.2)"></rect><text joint-selector="text" id="v-276" font-size="17px" xml:space="preserve" y="0.8em" fill="#0d38ea" text-anchor="middle" pointer-events="none" font-family="Open Sans" font-weight="normal" transform="matrix(1,0,0,1,0,-7.1)"><tspan dy="0" >[REST API]</tspan></text></g><g id="v-273"  label-idx="2" cursor="move" transform="matrix(1,0,0,1,2062,1436.5999755859375)" style="cursor: default; opacity: 1;"><rect joint-selector="rect" id="v-279" fill="#ffffff" rx="3" ry="3"  width="0" height="0" transform="matrix(1,0,0,1,0,0)" display="none"></rect><text joint-selector="text" id="v-278" fill="#000000" font-size="14" text-anchor="middle" pointer-events="none"></text></g></g><g  display="none" style="display: none;"><g  transform="translate(2074, 1301)" id="v-403"><circle  idx="0" r="10"></circle><path  idx="0" d="M16,5.333c-7.732,0-14,4.701-14,10.5c0,1.982,0.741,3.833,2.016,5.414L2,25.667l5.613-1.441c2.339,1.317,5.237,2.107,8.387,2.107c7.732,0,14-4.701,14-10.5C30,10.034,23.732,5.333,16,5.333z" transform="translate(5, -33)"></path><path  idx="0" transform="scale(.8) translate(9.5, -37)" d="M24.778,21.419 19.276,15.917 24.777,10.415 21.949,7.585 16.447,13.087 10.945,7.585 8.117,10.415 13.618,15.917 8.116,21.419 10.946,24.248 16.447,18.746 21.948,24.248z"><title>Remove vertex.</title></path></g></g><g  id="v-284" display="none"><g  id="v-269"><path  end="source" d="M 26 0 L 0 13 L 26 26 z"></path></g><g  id="v-270"><path  end="target" d="M 26 0 L 0 13 L 26 26 z"></path></g></g><g  id="v-283" display="none"><g  id="v-268" transform="translate(2016.989823158115, 1186.7262685252708) "><g  event="remove"><circle r="11"></circle><path transform="scale(.8) translate(-16, -16)" d="M24.778,21.419 19.276,15.917 24.777,10.415 21.949,7.585 16.447,13.087 10.945,7.585 8.117,10.415 13.618,15.917 8.116,21.419 10.946,24.248 16.447,18.746 21.948,24.248z"></path><title>Remove link.</title></g><g  event="link:options"><circle r="11" transform="translate(25)"></circle><path fill="white" transform="scale(.55) translate(29, -16)" d="M31.229,17.736c0.064-0.571,0.104-1.148,0.104-1.736s-0.04-1.166-0.104-1.737l-4.377-1.557c-0.218-0.716-0.504-1.401-0.851-2.05l1.993-4.192c-0.725-0.91-1.549-1.734-2.458-2.459l-4.193,1.994c-0.647-0.347-1.334-0.632-2.049-0.849l-1.558-4.378C17.165,0.708,16.588,0.667,16,0.667s-1.166,0.041-1.737,0.105L12.707,5.15c-0.716,0.217-1.401,0.502-2.05,0.849L6.464,4.005C5.554,4.73,4.73,5.554,4.005,6.464l1.994,4.192c-0.347,0.648-0.632,1.334-0.849,2.05l-4.378,1.557C0.708,14.834,0.667,15.412,0.667,16s0.041,1.165,0.105,1.736l4.378,1.558c0.217,0.715,0.502,1.401,0.849,2.049l-1.994,4.193c0.725,0.909,1.549,1.733,2.459,2.458l4.192-1.993c0.648,0.347,1.334,0.633,2.05,0.851l1.557,4.377c0.571,0.064,1.148,0.104,1.737,0.104c0.588,0,1.165-0.04,1.736-0.104l1.558-4.377c0.715-0.218,1.399-0.504,2.049-0.851l4.193,1.993c0.909-0.725,1.733-1.549,2.458-2.458l-1.993-4.193c0.347-0.647,0.633-1.334,0.851-2.049L31.229,17.736zM16,20.871c-2.69,0-4.872-2.182-4.872-4.871c0-2.69,2.182-4.872,4.872-4.872c2.689,0,4.871,2.182,4.871,4.872C20.871,18.689,18.689,20.871,16,20.871z"></path><title>Link options.</title></g></g></g></g><!--z-index:46--><g   id="j_22" ><path  stroke="#0d38ea" d="M 1849 1151 L 1778 1292 C 1775.333333333333 1298 1775.333333333333 1304 1778 1310 L 1849 1451" id="v-300" stroke-width="2" stroke-dasharray="30 30" fill="none" style="opacity: 1;"></path><path  fill="black" stroke="black" d="M 0 0 0 0" transform="matrix(-0.4472135493031434,0.8944272140983217,-0.8944272140983217,-0.4472135493031434,1849,1151)"></path><path  fill="#0d38ea" stroke="#0d38ea" d="M 20 0 L 0 10 L 20 20 z" id="v-302" transform="matrix(-0.4472135493031436,-0.8944272140983216,0.8944272140983216,-0.4472135493031436,1840.0556953832984,1455.472193766827)" style="opacity: 1;"></path><path  d="M 1849 1151 L 1778 1292 C 1775.333333333333 1298 1775.333333333333 1304 1778 1310 L 1849 1451" id="v-301" fill="none" style="cursor: auto; pointer-events: visiblepainted;"></path><g ><g id="v-291"  label-idx="0" cursor="move" transform="matrix(1,0,0,1,1776,1301)" style="cursor: default; opacity: 1;"><rect joint-selector="rect" id="v-295" fill="#ffffff" rx="3" ry="3" pointer-events="none" width="185.5487823486328" height="235.26174926757812" transform="matrix(1,0,0,1,-92.8,-117.6)"></rect><text joint-selector="text" id="v-294" font-size="24px" xml:space="preserve" y="0.8em" fill="#0d38ea" text-anchor="middle" pointer-events="none" font-family="Open Sans" font-weight="normal" transform="matrix(1,0,0,1,0,-110.6)"><tspan dy="0" >Установить</tspan><tspan dy="1.2em" x="0" >параметры</tspan><tspan dy="1.2em" x="0" >доступа</tspan><tspan dy="1.2em" x="0" >пользователя к</tspan><tspan dy="1.2em" x="0" >расчётам. POST: /</tspan><tspan dy="1.2em" x="0" >optis-</tspan><tspan dy="1.2em" x="0" >stairs/</tspan><tspan dy="1.2em" x="0" >api/user-acl</tspan></text></g><g id="v-292"  label-idx="1" cursor="move" transform="matrix(1,0,0,1,1776,1428.199951171875)" style="cursor: default; opacity: 1;"><rect joint-selector="rect" id="v-297" fill="#ffffff" rx="3" ry="3" pointer-events="none" width="79.88825225830078" height="24.311274528503418" transform="matrix(1,0,0,1,-39.9,-12.2)"></rect><text joint-selector="text" id="v-296" font-size="17px" xml:space="preserve" y="0.8em" fill="#0d38ea" text-anchor="middle" pointer-events="none" font-family="Open Sans" font-weight="normal" transform="matrix(1,0,0,1,0,-7.1)"><tspan dy="0" >[REST API]</tspan></text></g><g id="v-293"  label-idx="2" cursor="move" transform="matrix(1,0,0,1,1766,1436.5999755859375)" style="cursor: default; opacity: 1;"><rect joint-selector="rect" id="v-299" fill="#ffffff" rx="3" ry="3"  width="0" height="0" transform="matrix(1,0,0,1,0,0)" display="none"></rect><text joint-selector="text" id="v-298" fill="#000000" font-size="14" text-anchor="middle" pointer-events="none"></text></g></g><g  display="none" style="display: none;"><g  transform="translate(1774, 1301)" id="v-404"><circle  idx="0" r="10"></circle><path  idx="0" d="M16,5.333c-7.732,0-14,4.701-14,10.5c0,1.982,0.741,3.833,2.016,5.414L2,25.667l5.613-1.441c2.339,1.317,5.237,2.107,8.387,2.107c7.732,0,14-4.701,14-10.5C30,10.034,23.732,5.333,16,5.333z" transform="translate(5, -33)"></path><path  idx="0" transform="scale(.8) translate(9.5, -37)" d="M24.778,21.419 19.276,15.917 24.777,10.415 21.949,7.585 16.447,13.087 10.945,7.585 8.117,10.415 13.618,15.917 8.116,21.419 10.946,24.248 16.447,18.746 21.948,24.248z"><title>Remove vertex.</title></path></g></g><g  id="v-304" display="none"><g  id="v-289"><path  end="source" d="M 26 0 L 0 13 L 26 26 z"></path></g><g  id="v-290"><path  end="target" d="M 26 0 L 0 13 L 26 26 z"></path></g></g><g  id="v-303" display="none"><g  id="v-288" transform="translate(1831.010176841885, 1186.7262685252708) "><g  event="remove"><circle r="11"></circle><path transform="scale(.8) translate(-16, -16)" d="M24.778,21.419 19.276,15.917 24.777,10.415 21.949,7.585 16.447,13.087 10.945,7.585 8.117,10.415 13.618,15.917 8.116,21.419 10.946,24.248 16.447,18.746 21.948,24.248z"></path><title>Remove link.</title></g><g  event="link:options"><circle r="11" transform="translate(25)"></circle><path fill="white" transform="scale(.55) translate(29, -16)" d="M31.229,17.736c0.064-0.571,0.104-1.148,0.104-1.736s-0.04-1.166-0.104-1.737l-4.377-1.557c-0.218-0.716-0.504-1.401-0.851-2.05l1.993-4.192c-0.725-0.91-1.549-1.734-2.458-2.459l-4.193,1.994c-0.647-0.347-1.334-0.632-2.049-0.849l-1.558-4.378C17.165,0.708,16.588,0.667,16,0.667s-1.166,0.041-1.737,0.105L12.707,5.15c-0.716,0.217-1.401,0.502-2.05,0.849L6.464,4.005C5.554,4.73,4.73,5.554,4.005,6.464l1.994,4.192c-0.347,0.648-0.632,1.334-0.849,2.05l-4.378,1.557C0.708,14.834,0.667,15.412,0.667,16s0.041,1.165,0.105,1.736l4.378,1.558c0.217,0.715,0.502,1.401,0.849,2.049l-1.994,4.193c0.725,0.909,1.549,1.733,2.459,2.458l4.192-1.993c0.648,0.347,1.334,0.633,2.05,0.851l1.557,4.377c0.571,0.064,1.148,0.104,1.737,0.104c0.588,0,1.165-0.04,1.736-0.104l1.558-4.377c0.715-0.218,1.399-0.504,2.049-0.851l4.193,1.993c0.909-0.725,1.733-1.549,2.458-2.458l-1.993-4.193c0.347-0.647,0.633-1.334,0.851-2.049L31.229,17.736zM16,20.871c-2.69,0-4.872-2.182-4.872-4.871c0-2.69,2.182-4.872,4.872-4.872c2.689,0,4.871,2.182,4.871,4.872C20.871,18.689,18.689,20.871,16,20.871z"></path><title>Link options.</title></g></g></g></g><!--z-index:47--><g   id="j_23" ><path  stroke="#059e05" d="M 1924 1751 L 1924 1891 C 1923.9999999999998 1897.6666666666665 1923.9999999999998 1904.3333333333333 1924 1911 L 1924 2051" id="v-320" stroke-width="2" stroke-dasharray="30 30" fill="none" style="opacity: 1;"></path><path  fill="black" stroke="black" d="M 0 0 0 0" transform="matrix(6.123233995736766e-17,1,-1,6.123233995736766e-17,1924,1751)"></path><path  fill="#059e05" stroke="#059e05" d="M 20 0 L 0 10 L 20 20 z" id="v-322" transform="matrix(-1.8369701987210297e-16,-1,1,-1.8369701987210297e-16,1914,2051)" style="opacity: 1;"></path><path  d="M 1924 1751 L 1924 1891 C 1923.9999999999998 1897.6666666666665 1923.9999999999998 1904.3333333333333 1924 1911 L 1924 2051" id="v-321" fill="none" style="cursor: auto; pointer-events: visiblepainted;"></path><g ><g id="v-311"  label-idx="0" cursor="move" transform="matrix(1,0,0,1,1924,1901)" style="cursor: default; opacity: 1;"><rect joint-selector="rect" id="v-315" fill="#ffffff" rx="3" ry="3" pointer-events="none" width="198.58102416992188" height="177.66175842285156" transform="matrix(1,0,0,1,-99.3,-88.8)"></rect><text joint-selector="text" id="v-314" font-size="24px" xml:space="preserve" y="0.8em" fill="#059e05" text-anchor="middle" pointer-events="none" font-family="Open Sans" font-weight="normal" transform="matrix(1,0,0,1,0,-81.8)"><tspan dy="0" >Размещение</tspan><tspan dy="1.2em" x="0" >запроса на</tspan><tspan dy="1.2em" x="0" >расчёт. POST: /ap</tspan><tspan dy="1.2em" x="0" >i/</tspan><tspan dy="1.2em" x="0" >{stair-type}/reque</tspan><tspan dy="1.2em" x="0" >st</tspan></text></g><g id="v-312"  label-idx="1" cursor="move" transform="matrix(1,0,0,1,1924,1999.4000244140625)" style="cursor: default; opacity: 1;"><rect joint-selector="rect" id="v-317" fill="#ffffff" rx="3" ry="3" pointer-events="none" width="79.88825225830078" height="24.311274528503418" transform="matrix(1,0,0,1,-39.9,-12.2)"></rect><text joint-selector="text" id="v-316" font-size="17px" xml:space="preserve" y="0.8em" fill="#059e05" text-anchor="middle" pointer-events="none" font-family="Open Sans" font-weight="normal" transform="matrix(1,0,0,1,0,-7.1)"><tspan dy="0" >[REST API]</tspan></text></g><g id="v-313"  label-idx="2" cursor="move" transform="matrix(1,0,0,1,1914,2007.800048828125)" style="cursor: default; opacity: 1;"><rect joint-selector="rect" id="v-319" fill="#ffffff" rx="3" ry="3"  width="0" height="0" transform="matrix(1,0,0,1,0,0)" display="none"></rect><text joint-selector="text" id="v-318" fill="#000000" font-size="14" text-anchor="middle" pointer-events="none"></text></g></g><g  display="none" style="display: none;"><g  transform="translate(1924, 1901)" id="v-405"><circle  idx="0" r="10"></circle><path  idx="0" d="M16,5.333c-7.732,0-14,4.701-14,10.5c0,1.982,0.741,3.833,2.016,5.414L2,25.667l5.613-1.441c2.339,1.317,5.237,2.107,8.387,2.107c7.732,0,14-4.701,14-10.5C30,10.034,23.732,5.333,16,5.333z" transform="translate(5, -33)"></path><path  idx="0" transform="scale(.8) translate(9.5, -37)" d="M24.778,21.419 19.276,15.917 24.777,10.415 21.949,7.585 16.447,13.087 10.945,7.585 8.117,10.415 13.618,15.917 8.116,21.419 10.946,24.248 16.447,18.746 21.948,24.248z"><title>Remove vertex.</title></path></g></g><g  id="v-324" display="none"><g  id="v-309"><path  end="source" d="M 26 0 L 0 13 L 26 26 z"></path></g><g  id="v-310"><path  end="target" d="M 26 0 L 0 13 L 26 26 z"></path></g></g><g  id="v-323" display="none"><g  id="v-308" transform="translate(1924, 1791) "><g  event="remove"><circle r="11"></circle><path transform="scale(.8) translate(-16, -16)" d="M24.778,21.419 19.276,15.917 24.777,10.415 21.949,7.585 16.447,13.087 10.945,7.585 8.117,10.415 13.618,15.917 8.116,21.419 10.946,24.248 16.447,18.746 21.948,24.248z"></path><title>Remove link.</title></g><g  event="link:options"><circle r="11" transform="translate(25)"></circle><path fill="white" transform="scale(.55) translate(29, -16)" d="M31.229,17.736c0.064-0.571,0.104-1.148,0.104-1.736s-0.04-1.166-0.104-1.737l-4.377-1.557c-0.218-0.716-0.504-1.401-0.851-2.05l1.993-4.192c-0.725-0.91-1.549-1.734-2.458-2.459l-4.193,1.994c-0.647-0.347-1.334-0.632-2.049-0.849l-1.558-4.378C17.165,0.708,16.588,0.667,16,0.667s-1.166,0.041-1.737,0.105L12.707,5.15c-0.716,0.217-1.401,0.502-2.05,0.849L6.464,4.005C5.554,4.73,4.73,5.554,4.005,6.464l1.994,4.192c-0.347,0.648-0.632,1.334-0.849,2.05l-4.378,1.557C0.708,14.834,0.667,15.412,0.667,16s0.041,1.165,0.105,1.736l4.378,1.558c0.217,0.715,0.502,1.401,0.849,2.049l-1.994,4.193c0.725,0.909,1.549,1.733,2.459,2.458l4.192-1.993c0.648,0.347,1.334,0.633,2.05,0.851l1.557,4.377c0.571,0.064,1.148,0.104,1.737,0.104c0.588,0,1.165-0.04,1.736-0.104l1.558-4.377c0.715-0.218,1.399-0.504,2.049-0.851l4.193,1.993c0.909-0.725,1.733-1.549,2.458-2.458l-1.993-4.193c0.347-0.647,0.633-1.334,0.851-2.049L31.229,17.736zM16,20.871c-2.69,0-4.872-2.182-4.872-4.871c0-2.69,2.182-4.872,4.872-4.872c2.689,0,4.871,2.182,4.871,4.872C20.871,18.689,18.689,20.871,16,20.871z"></path><title>Link options.</title></g></g></g></g><!--z-index:48--><g   id="j_24" ><path  stroke="#0d38ea" d="M 1999 1751 L 2070 1892 C 2072.6666666666665 1898 2072.6666666666665 1904 2070 1910 L 1999 2051" id="v-340" stroke-width="2" stroke-dasharray="30 30" fill="none" style="opacity: 1;"></path><path  fill="black" stroke="black" d="M 0 0 0 0" transform="matrix(0.4472136088532365,0.8944271843232765,-0.8944271843232765,0.4472136088532365,1999,1751)"></path><path  fill="#0d38ea" stroke="#0d38ea" d="M 20 0 L 0 10 L 20 20 z" id="v-342" transform="matrix(0.4472137875035034,-0.8944270949981173,0.8944270949981173,0.4472137875035034,1990.055759143734,2046.5279192077587)" style="opacity: 1;"></path><path  d="M 1999 1751 L 2070 1892 C 2072.6666666666665 1898 2072.6666666666665 1904 2070 1910 L 1999 2051" id="v-341" fill="none" style="cursor: auto; pointer-events: visiblepainted;"></path><g ><g id="v-331"  label-idx="0" cursor="move" transform="matrix(1,0,0,1,2072,1901)" style="cursor: default; opacity: 1;"><rect joint-selector="rect" id="v-335" fill="#ffffff" rx="3" ry="3" pointer-events="none" width="198.2303924560547" height="177.66175842285156" transform="matrix(1,0,0,1,-99.1,-88.8)"></rect><text joint-selector="text" id="v-334" font-size="24px" xml:space="preserve" y="0.8em" fill="#0d38ea" text-anchor="middle" pointer-events="none" font-family="Open Sans" font-weight="normal" transform="matrix(1,0,0,1,0,-81.8)"><tspan dy="0" >Получение</tspan><tspan dy="1.2em" x="0" >статуса и</tspan><tspan dy="1.2em" x="0" >результата</tspan><tspan dy="1.2em" x="0" >расчёта. GET: /ap</tspan><tspan dy="1.2em" x="0" >i/</tspan><tspan dy="1.2em" x="0" >requests-statuses</tspan></text></g><g id="v-332"  label-idx="1" cursor="move" transform="matrix(1,0,0,1,2072,1999.4000244140625)" style="cursor: default; opacity: 1;"><rect joint-selector="rect" id="v-337" fill="#ffffff" rx="3" ry="3" pointer-events="none" width="79.88825225830078" height="24.311274528503418" transform="matrix(1,0,0,1,-39.9,-12.2)"></rect><text joint-selector="text" id="v-336" font-size="17px" xml:space="preserve" y="0.8em" fill="#0d38ea" text-anchor="middle" pointer-events="none" font-family="Open Sans" font-weight="normal" transform="matrix(1,0,0,1,0,-7.1)"><tspan dy="0" >[REST API]</tspan></text></g><g id="v-333"  label-idx="2" cursor="move" transform="matrix(1,0,0,1,2062,2007.800048828125)" style="cursor: default; opacity: 1;"><rect joint-selector="rect" id="v-339" fill="#ffffff" rx="3" ry="3"  width="0" height="0" transform="matrix(1,0,0,1,0,0)" display="none"></rect><text joint-selector="text" id="v-338" fill="#000000" font-size="14" text-anchor="middle" pointer-events="none"></text></g></g><g  display="none" style="display: none;"><g  transform="translate(2074, 1901)" id="v-406"><circle  idx="0" r="10"></circle><path  idx="0" d="M16,5.333c-7.732,0-14,4.701-14,10.5c0,1.982,0.741,3.833,2.016,5.414L2,25.667l5.613-1.441c2.339,1.317,5.237,2.107,8.387,2.107c7.732,0,14-4.701,14-10.5C30,10.034,23.732,5.333,16,5.333z" transform="translate(5, -33)"></path><path  idx="0" transform="scale(.8) translate(9.5, -37)" d="M24.778,21.419 19.276,15.917 24.777,10.415 21.949,7.585 16.447,13.087 10.945,7.585 8.117,10.415 13.618,15.917 8.116,21.419 10.946,24.248 16.447,18.746 21.948,24.248z"><title>Remove vertex.</title></path></g></g><g  id="v-344" display="none"><g  id="v-329"><path  end="source" d="M 26 0 L 0 13 L 26 26 z"></path></g><g  id="v-330"><path  end="target" d="M 26 0 L 0 13 L 26 26 z"></path></g></g><g  id="v-343" display="none"><g  id="v-328" transform="translate(2016.989823158115, 1786.7262685252708) "><g  event="remove"><circle r="11"></circle><path transform="scale(.8) translate(-16, -16)" d="M24.778,21.419 19.276,15.917 24.777,10.415 21.949,7.585 16.447,13.087 10.945,7.585 8.117,10.415 13.618,15.917 8.116,21.419 10.946,24.248 16.447,18.746 21.948,24.248z"></path><title>Remove link.</title></g><g  event="link:options"><circle r="11" transform="translate(25)"></circle><path fill="white" transform="scale(.55) translate(29, -16)" d="M31.229,17.736c0.064-0.571,0.104-1.148,0.104-1.736s-0.04-1.166-0.104-1.737l-4.377-1.557c-0.218-0.716-0.504-1.401-0.851-2.05l1.993-4.192c-0.725-0.91-1.549-1.734-2.458-2.459l-4.193,1.994c-0.647-0.347-1.334-0.632-2.049-0.849l-1.558-4.378C17.165,0.708,16.588,0.667,16,0.667s-1.166,0.041-1.737,0.105L12.707,5.15c-0.716,0.217-1.401,0.502-2.05,0.849L6.464,4.005C5.554,4.73,4.73,5.554,4.005,6.464l1.994,4.192c-0.347,0.648-0.632,1.334-0.849,2.05l-4.378,1.557C0.708,14.834,0.667,15.412,0.667,16s0.041,1.165,0.105,1.736l4.378,1.558c0.217,0.715,0.502,1.401,0.849,2.049l-1.994,4.193c0.725,0.909,1.549,1.733,2.459,2.458l4.192-1.993c0.648,0.347,1.334,0.633,2.05,0.851l1.557,4.377c0.571,0.064,1.148,0.104,1.737,0.104c0.588,0,1.165-0.04,1.736-0.104l1.558-4.377c0.715-0.218,1.399-0.504,2.049-0.851l4.193,1.993c0.909-0.725,1.733-1.549,2.458-2.458l-1.993-4.193c0.347-0.647,0.633-1.334,0.851-2.049L31.229,17.736zM16,20.871c-2.69,0-4.872-2.182-4.872-4.871c0-2.69,2.182-4.872,4.872-4.872c2.689,0,4.871,2.182,4.871,4.872C20.871,18.689,18.689,20.871,16,20.871z"></path><title>Link options.</title></g></g></g></g><!--z-index:49--><g   id="j_25" ><path  stroke="#0d38ea" d="M 1849 1751 L 1778 1892 C 1775.333333333333 1898 1775.333333333333 1904 1778 1910 L 1849 2051" id="v-360" stroke-width="2" stroke-dasharray="30 30" fill="none" style="opacity: 1;"></path><path  fill="black" stroke="black" d="M 0 0 0 0" transform="matrix(-0.4472135493031434,0.8944272140983217,-0.8944272140983217,-0.4472135493031434,1849,1751)"></path><path  fill="#0d38ea" stroke="#0d38ea" d="M 20 0 L 0 10 L 20 20 z" id="v-362" transform="matrix(-0.4472135493031436,-0.8944272140983216,0.8944272140983216,-0.4472135493031436,1840.0556953832984,2055.4721937668273)" style="opacity: 1;"></path><path  d="M 1849 1751 L 1778 1892 C 1775.333333333333 1898 1775.333333333333 1904 1778 1910 L 1849 2051" id="v-361" fill="none" style="cursor: auto; pointer-events: visiblepainted;"></path><g ><g id="v-351"  label-idx="0" cursor="move" transform="matrix(1,0,0,1,1776,1901)" style="cursor: default; opacity: 1;"><rect joint-selector="rect" id="v-355" fill="#ffffff" rx="3" ry="3" pointer-events="none" width="170.50033569335938" height="177.66175842285156" transform="matrix(1,0,0,1,-85.3,-88.8)"></rect><text joint-selector="text" id="v-354" font-size="24px" xml:space="preserve" y="0.8em" fill="#0d38ea" text-anchor="middle" pointer-events="none" font-family="Open Sans" font-weight="normal" transform="matrix(1,0,0,1,0,-81.8)"><tspan dy="0" >Установить</tspan><tspan dy="1.2em" x="0" >параметры</tspan><tspan dy="1.2em" x="0" >доступа</tspan><tspan dy="1.2em" x="0" >пользователя к</tspan><tspan dy="1.2em" x="0" >расчётам. POST:</tspan><tspan dy="1.2em" x="0" >/api/user-acl</tspan></text></g><g id="v-352"  label-idx="1" cursor="move" transform="matrix(1,0,0,1,1776,1999.4000244140625)" style="cursor: default; opacity: 1;"><rect joint-selector="rect" id="v-357" fill="#ffffff" rx="3" ry="3" pointer-events="none" width="79.88825225830078" height="24.311274528503418" transform="matrix(1,0,0,1,-39.9,-12.2)"></rect><text joint-selector="text" id="v-356" font-size="17px" xml:space="preserve" y="0.8em" fill="#0d38ea" text-anchor="middle" pointer-events="none" font-family="Open Sans" font-weight="normal" transform="matrix(1,0,0,1,0,-7.1)"><tspan dy="0" >[REST API]</tspan></text></g><g id="v-353"  label-idx="2" cursor="move" transform="matrix(1,0,0,1,1766,2007.800048828125)" style="cursor: default; opacity: 1;"><rect joint-selector="rect" id="v-359" fill="#ffffff" rx="3" ry="3"  width="0" height="0" transform="matrix(1,0,0,1,0,0)" display="none"></rect><text joint-selector="text" id="v-358" fill="#000000" font-size="14" text-anchor="middle" pointer-events="none"></text></g></g><g  display="none" style="display: none;"><g  transform="translate(1774, 1901)" id="v-407"><circle  idx="0" r="10"></circle><path  idx="0" d="M16,5.333c-7.732,0-14,4.701-14,10.5c0,1.982,0.741,3.833,2.016,5.414L2,25.667l5.613-1.441c2.339,1.317,5.237,2.107,8.387,2.107c7.732,0,14-4.701,14-10.5C30,10.034,23.732,5.333,16,5.333z" transform="translate(5, -33)"></path><path  idx="0" transform="scale(.8) translate(9.5, -37)" d="M24.778,21.419 19.276,15.917 24.777,10.415 21.949,7.585 16.447,13.087 10.945,7.585 8.117,10.415 13.618,15.917 8.116,21.419 10.946,24.248 16.447,18.746 21.948,24.248z"><title>Remove vertex.</title></path></g></g><g  id="v-364" display="none"><g  id="v-349"><path  end="source" d="M 26 0 L 0 13 L 26 26 z"></path></g><g  id="v-350"><path  end="target" d="M 26 0 L 0 13 L 26 26 z"></path></g></g><g  id="v-363" display="none"><g  id="v-348" transform="translate(1831.010176841885, 1786.7262685252708) "><g  event="remove"><circle r="11"></circle><path transform="scale(.8) translate(-16, -16)" d="M24.778,21.419 19.276,15.917 24.777,10.415 21.949,7.585 16.447,13.087 10.945,7.585 8.117,10.415 13.618,15.917 8.116,21.419 10.946,24.248 16.447,18.746 21.948,24.248z"></path><title>Remove link.</title></g><g  event="link:options"><circle r="11" transform="translate(25)"></circle><path fill="white" transform="scale(.55) translate(29, -16)" d="M31.229,17.736c0.064-0.571,0.104-1.148,0.104-1.736s-0.04-1.166-0.104-1.737l-4.377-1.557c-0.218-0.716-0.504-1.401-0.851-2.05l1.993-4.192c-0.725-0.91-1.549-1.734-2.458-2.459l-4.193,1.994c-0.647-0.347-1.334-0.632-2.049-0.849l-1.558-4.378C17.165,0.708,16.588,0.667,16,0.667s-1.166,0.041-1.737,0.105L12.707,5.15c-0.716,0.217-1.401,0.502-2.05,0.849L6.464,4.005C5.554,4.73,4.73,5.554,4.005,6.464l1.994,4.192c-0.347,0.648-0.632,1.334-0.849,2.05l-4.378,1.557C0.708,14.834,0.667,15.412,0.667,16s0.041,1.165,0.105,1.736l4.378,1.558c0.217,0.715,0.502,1.401,0.849,2.049l-1.994,4.193c0.725,0.909,1.549,1.733,2.459,2.458l4.192-1.993c0.648,0.347,1.334,0.633,2.05,0.851l1.557,4.377c0.571,0.064,1.148,0.104,1.737,0.104c0.588,0,1.165-0.04,1.736-0.104l1.558-4.377c0.715-0.218,1.399-0.504,2.049-0.851l4.193,1.993c0.909-0.725,1.733-1.549,2.458-2.458l-1.993-4.193c0.347-0.647,0.633-1.334,0.851-2.049L31.229,17.736zM16,20.871c-2.69,0-4.872-2.182-4.872-4.871c0-2.69,2.182-4.872,4.872-4.872c2.689,0,4.871,2.182,4.871,4.872C20.871,18.689,18.689,20.871,16,20.871z"></path><title>Link options.</title></g></g></g></g><!--z-index:50--><g   id="j_26" ><path  stroke="#707070" d="M 1737 1151 L 1362 1451" id="v-380" stroke-width="2" stroke-dasharray="30 30" fill="none" style="opacity: 1;"></path><path  fill="black" stroke="black" d="M 0 0 0 0" transform="matrix(-0.7808688416748546,0.6246950072646418,-0.6246950072646418,-0.7808688416748546,1736.5,1151)"></path><path  fill="#707070" stroke="#707070" d="M 20 0 L 0 10 L 20 20 z" id="v-382" transform="matrix(0.7808686753084834,-0.6246952152225711,0.6246952152225711,0.7808686753084834,1355.2530769150019,1443.1913171569533)" style="opacity: 1;"></path><path  d="M 1737 1151 L 1362 1451" id="v-381" fill="none" style="cursor: auto; pointer-events: visiblepainted;"></path><g ><g id="v-371"  label-idx="0" cursor="move" transform="matrix(1,0,0,1,1549.5,1301)" style="cursor: default; opacity: 1;"><rect joint-selector="rect" id="v-375" fill="#ffffff" rx="3" ry="3" pointer-events="none" width="171.66915893554688" height="120.0617561340332" transform="matrix(1,0,0,1,-85.8,-60)"></rect><text joint-selector="text" id="v-374" font-size="24px" xml:space="preserve" y="0.8em" fill="#707070" text-anchor="middle" pointer-events="none" font-family="Open Sans" font-weight="normal" transform="matrix(1,0,0,1,0,-53)"><tspan dy="0" >Отправка e-mail</tspan><tspan dy="1.2em" x="0" >уведомлений</tspan><tspan dy="1.2em" x="0" >через внешний</tspan><tspan dy="1.2em" x="0" >шлюз</tspan></text></g><g id="v-372"  label-idx="1" cursor="move" transform="matrix(1,0,0,1,1549.5,1370.5999755859375)" style="cursor: default; opacity: 1;"><rect joint-selector="rect" id="v-377" fill="#ffffff" rx="3" ry="3" pointer-events="none" width="55.34321212768555" height="24.311274528503418" transform="matrix(1,0,0,1,-27.7,-12.2)"></rect><text joint-selector="text" id="v-376" font-size="17px" xml:space="preserve" y="0.8em" fill="#707070" text-anchor="middle" pointer-events="none" font-family="Open Sans" font-weight="normal" transform="matrix(1,0,0,1,0,-7.1)"><tspan dy="0" >[SMTP]</tspan></text></g><g id="v-373"  label-idx="2" cursor="move" transform="matrix(1,0,0,1,1539.5,1379)" style="cursor: default; opacity: 1;"><rect joint-selector="rect" id="v-379" fill="#ffffff" rx="3" ry="3"  width="0" height="0" transform="matrix(1,0,0,1,0,0)" display="none"></rect><text joint-selector="text" id="v-378" fill="#000000" font-size="14" text-anchor="middle" pointer-events="none"></text></g></g><g  display="none" style="display: none;"></g><g  id="v-384" display="none"><g  id="v-369"><path  end="source" d="M 26 0 L 0 13 L 26 26 z"></path></g><g  id="v-370"><path  end="target" d="M 26 0 L 0 13 L 26 26 z"></path></g></g><g  id="v-383" display="none"><g  id="v-368" transform="translate(1705.7652476222788, 1175.987801902177) "><g  event="remove"><circle r="11"></circle><path transform="scale(.8) translate(-16, -16)" d="M24.778,21.419 19.276,15.917 24.777,10.415 21.949,7.585 16.447,13.087 10.945,7.585 8.117,10.415 13.618,15.917 8.116,21.419 10.946,24.248 16.447,18.746 21.948,24.248z"></path><title>Remove link.</title></g><g  event="link:options"><circle r="11" transform="translate(25)"></circle><path fill="white" transform="scale(.55) translate(29, -16)" d="M31.229,17.736c0.064-0.571,0.104-1.148,0.104-1.736s-0.04-1.166-0.104-1.737l-4.377-1.557c-0.218-0.716-0.504-1.401-0.851-2.05l1.993-4.192c-0.725-0.91-1.549-1.734-2.458-2.459l-4.193,1.994c-0.647-0.347-1.334-0.632-2.049-0.849l-1.558-4.378C17.165,0.708,16.588,0.667,16,0.667s-1.166,0.041-1.737,0.105L12.707,5.15c-0.716,0.217-1.401,0.502-2.05,0.849L6.464,4.005C5.554,4.73,4.73,5.554,4.005,6.464l1.994,4.192c-0.347,0.648-0.632,1.334-0.849,2.05l-4.378,1.557C0.708,14.834,0.667,15.412,0.667,16s0.041,1.165,0.105,1.736l4.378,1.558c0.217,0.715,0.502,1.401,0.849,2.049l-1.994,4.193c0.725,0.909,1.549,1.733,2.459,2.458l4.192-1.993c0.648,0.347,1.334,0.633,2.05,0.851l1.557,4.377c0.571,0.064,1.148,0.104,1.737,0.104c0.588,0,1.165-0.04,1.736-0.104l1.558-4.377c0.715-0.218,1.399-0.504,2.049-0.851l4.193,1.993c0.909-0.725,1.733-1.549,2.458-2.458l-1.993-4.193c0.347-0.647,0.633-1.334,0.851-2.049L31.229,17.736zM16,20.871c-2.69,0-4.872-2.182-4.872-4.871c0-2.69,2.182-4.872,4.872-4.872c2.689,0,4.871,2.182,4.871,4.872C20.871,18.689,18.689,20.871,16,20.871z"></path><title>Link options.</title></g></g></g></g><!--z-index:51--></g><g ></g><g ></g><g ></g></g></svg>