<svg xmlns="http://www.w3.org/2000/svg" xmlns:xlink="http://www.w3.org/1999/xlink" contentStyleType="text/css" height="384px" preserveAspectRatio="none" style="width:817px;height:384px;background:#FFFFFF;" version="1.1" viewBox="0 0 817 384" width="817px" zoomAndPan="magnify"><defs/><g><!--class requests--><g id="elem_requests"><rect codeLine="2" fill="#F1F1F1" height="179.9063" id="requests" rx="2.5" ry="2.5" style="stroke:#181818;stroke-width:0.5;" width="450.6143" x="7" y="197.95"/><ellipse cx="198.8882" cy="213.95" fill="#ADD1B2" rx="11" ry="11" style="stroke:#181818;stroke-width:1.0;"/><path d="M203.0024,219.95 L195.2827,219.95 L195.2827,207.5569 L203.0024,207.5569 L203.0024,209.7151 L197.7314,209.7151 L197.7314,212.388 L202.5044,212.388 L202.5044,214.5462 L197.7314,214.5462 L197.7314,217.7918 L203.0024,217.7918 Z " fill="#000000"/><text fill="#000000" font-family="sans-serif" font-size="14" lengthAdjust="spacing" textLength="58.3379" x="219.3882" y="219.241">requests</text><line style="stroke:#181818;stroke-width:0.5;" x1="8" x2="456.6143" y1="229.95" y2="229.95"/><ellipse cx="18" cy="243.6941" fill="#000000" rx="3" ry="3" style="stroke:#000000;stroke-width:1.0;"/><text fill="#000000" font-family="sans-serif" font-size="14" lengthAdjust="spacing" textLength="165.5117" x="27" y="247.4852">id : SERIAL PRIMARY KEY</text><line style="stroke:#181818;stroke-width:1.0;" x1="8" x2="456.6143" y1="254.4383" y2="254.4383"/><ellipse cx="18" cy="268.1824" fill="#000000" rx="3" ry="3" style="stroke:#000000;stroke-width:1.0;"/><text fill="#000000" font-family="sans-serif" font-size="14" lengthAdjust="spacing" textLength="262.0557" x="27" y="271.9734">user_email : VARCHAR(128) NOT NULL</text><ellipse cx="18" cy="284.6707" fill="#000000" rx="3" ry="3" style="stroke:#000000;stroke-width:1.0;"/><text fill="#000000" font-family="sans-serif" font-size="14" lengthAdjust="spacing" textLength="273.1709" x="27" y="288.4617">calculation_id : VARCHAR(36) NOT NULL</text><ellipse cx="18" cy="301.159" fill="#000000" rx="3" ry="3" style="stroke:#000000;stroke-width:1.0;"/><text fill="#000000" font-family="sans-serif" font-size="14" lengthAdjust="spacing" textLength="424.6143" x="27" y="304.95">status_id : ENUM ('new', 'processing', 'ready', 'send') NOT NULL</text><ellipse cx="18" cy="317.6473" fill="#000000" rx="3" ry="3" style="stroke:#000000;stroke-width:1.0;"/><text fill="#000000" font-family="sans-serif" font-size="14" lengthAdjust="spacing" textLength="208.0176" x="27" y="321.4383">request_data : JSON NOT NULL</text><ellipse cx="18" cy="334.1355" fill="#000000" rx="3" ry="3" style="stroke:#000000;stroke-width:1.0;"/><text fill="#000000" font-family="sans-serif" font-size="14" lengthAdjust="spacing" textLength="192.1719" x="27" y="337.9266">progress_percent : DECIMAL</text><ellipse cx="18" cy="350.6238" fill="#000000" rx="3" ry="3" style="stroke:#000000;stroke-width:1.0;"/><text fill="#000000" font-family="sans-serif" font-size="14" lengthAdjust="spacing" textLength="389.6621" x="27" y="354.4148">create_time : TIMESTAMP DEFAULT CURRENT_TIMESTAMP</text><ellipse cx="18" cy="367.1121" fill="#000000" rx="3" ry="3" style="stroke:#000000;stroke-width:1.0;"/><text fill="#000000" font-family="sans-serif" font-size="14" lengthAdjust="spacing" textLength="395.2744" x="27" y="370.9031">update_time : TIMESTAMP DEFAULT CURRENT_TIMESTAMP</text></g><!--class optimal_configurations--><g id="elem_optimal_configurations"><rect codeLine="14" fill="#F1F1F1" height="80.9766" id="optimal_configurations" rx="2.5" ry="2.5" style="stroke:#181818;stroke-width:0.5;" width="244.5449" x="110.03" y="23.49"/><ellipse cx="150.1232" cy="39.49" fill="#ADD1B2" rx="11" ry="11" style="stroke:#181818;stroke-width:1.0;"/><path d="M154.2375,45.49 L146.5177,45.49 L146.5177,33.0969 L154.2375,33.0969 L154.2375,35.2551 L148.9665,35.2551 L148.9665,37.928 L153.7394,37.928 L153.7394,40.0862 L148.9665,40.0862 L148.9665,43.3318 L154.2375,43.3318 Z " fill="#000000"/><text fill="#000000" font-family="sans-serif" font-size="14" lengthAdjust="spacing" textLength="156.7822" x="169.6995" y="44.781">optimal_configurations</text><line style="stroke:#181818;stroke-width:0.5;" x1="111.03" x2="353.5749" y1="55.49" y2="55.49"/><ellipse cx="121.03" cy="69.2341" fill="#000000" rx="3" ry="3" style="stroke:#000000;stroke-width:1.0;"/><text fill="#000000" font-family="sans-serif" font-size="14" lengthAdjust="spacing" textLength="215.626" x="130.03" y="73.0252">request_id : INTEGER NOT NULL</text><line style="stroke:#181818;stroke-width:1.0;" x1="111.03" x2="353.5749" y1="79.9783" y2="79.9783"/><ellipse cx="121.03" cy="93.7224" fill="#000000" rx="3" ry="3" style="stroke:#000000;stroke-width:1.0;"/><text fill="#000000" font-family="sans-serif" font-size="14" lengthAdjust="spacing" textLength="218.5449" x="130.03" y="97.5134">configurations : JSON NOT NULL</text></g><!--class user_acl--><g id="elem_user_acl"><rect codeLine="21" fill="#F1F1F1" height="113.9531" id="user_acl" rx="2.5" ry="2.5" style="stroke:#181818;stroke-width:0.5;" width="421.2744" x="389.67" y="7"/><ellipse cx="568.4058" cy="23" fill="#ADD1B2" rx="11" ry="11" style="stroke:#181818;stroke-width:1.0;"/><path d="M572.5201,29 L564.8004,29 L564.8004,16.6069 L572.5201,16.6069 L572.5201,18.7651 L567.2491,18.7651 L567.2491,21.438 L572.0221,21.438 L572.0221,23.5962 L567.2491,23.5962 L567.2491,26.8418 L572.5201,26.8418 Z " fill="#000000"/><text fill="#000000" font-family="sans-serif" font-size="14" lengthAdjust="spacing" textLength="55.3027" x="588.9058" y="28.291">user_acl</text><line style="stroke:#181818;stroke-width:0.5;" x1="390.67" x2="809.9444" y1="39" y2="39"/><ellipse cx="400.67" cy="52.7441" fill="#000000" rx="3" ry="3" style="stroke:#000000;stroke-width:1.0;"/><text fill="#000000" font-family="sans-serif" font-size="14" lengthAdjust="spacing" textLength="356.2822" x="409.67" y="56.5352">user_email : VARCHAR(128) NOT NULL PRIMARY KEY</text><line style="stroke:#181818;stroke-width:1.0;" x1="390.67" x2="809.9444" y1="63.4883" y2="63.4883"/><ellipse cx="400.67" cy="77.2324" fill="#000000" rx="3" ry="3" style="stroke:#000000;stroke-width:1.0;"/><text fill="#000000" font-family="sans-serif" font-size="14" lengthAdjust="spacing" textLength="395.2744" x="409.67" y="81.0234">update_time : TIMESTAMP DEFAULT CURRENT_TIMESTAMP</text><ellipse cx="400.67" cy="93.7207" fill="#000000" rx="3" ry="3" style="stroke:#000000;stroke-width:1.0;"/><text fill="#000000" font-family="sans-serif" font-size="14" lengthAdjust="spacing" textLength="263.2588" x="409.67" y="97.5117">max_simultaneous_requests : INTEGER</text><ellipse cx="400.67" cy="110.209" fill="#000000" rx="3" ry="3" style="stroke:#000000;stroke-width:1.0;"/><text fill="#000000" font-family="sans-serif" font-size="14" lengthAdjust="spacing" textLength="262.5342" x="409.67" y="114">available_calculations_count : INTEGER</text></g><!--link optimal_configurations to requests--><g id="link_optimal_configurations_requests"><path codeLine="19" d="M232.31,112.91 C232.31,138.74 232.31,157.44 232.31,189.6 " fill="none" id="optimal_configurations-requests" style="stroke:#181818;stroke-width:1.0;"/><line style="stroke:#181818;stroke-width:1.0;" x1="232.31" x2="224.31" y1="112.91" y2="104.91"/><line style="stroke:#181818;stroke-width:1.0;" x1="232.31" x2="240.31" y1="112.91" y2="104.91"/><line style="stroke:#181818;stroke-width:1.0;" x1="232.31" x2="232.31" y1="112.91" y2="104.91"/><line style="stroke:#181818;stroke-width:1.0;" x1="232.31" x2="238.31" y1="189.6" y2="197.6"/><line style="stroke:#181818;stroke-width:1.0;" x1="232.31" x2="226.31" y1="189.6" y2="197.6"/><line style="stroke:#181818;stroke-width:1.0;" x1="232.31" x2="232.31" y1="189.6" y2="197.6"/><line style="stroke:#181818;stroke-width:1.0;" x1="236.31" x2="228.31" y1="187.6" y2="187.6"/><text fill="#000000" font-family="sans-serif" font-size="13" lengthAdjust="spacing" textLength="72.6108" x="233.31" y="164.5184">request_ids</text></g><!--SRC=[bP9TJuCm58Rl-HNDRfX6BjJ46E_8h8e2MpemsLLJuRWqWOAqgClSVxShr4tYOiOLpNdErtjU48gh5HeryDQ2L7A4c4JsWTOEqjyfpz4DccCI-26QaI3ooG8zuOK9Ubx7j18Q2YNZXMQVVJ9vyCdu_EBw1CNJ1CLf67PSnegiBPZYbQ2chcKlhuQeL4origDmd4Pex0huSC-GMpTL1b9oiTo-6c3vQliZGUJki4g_3CsPOhhGutmQ3mXTRTdeShI69WEXD7MB9tfDEx9ke80gNe8E9K64vuaVpJHqvwTXWYOf8JXEw4-aLwJEZqpRE0xqzwXgdSSAcbNYbI_RnWZMNUVlaBsLNTUe5iG9liVazxxsOeFyeJGRvq2ZZUTzhNSUkK6xbdAtWF43omepidtO8Vytos6V7QsgIIlP9vMyR0l515JQLNlpzofr87lNKx6N0kYUKwNMe3N6iEp6-GO0]--></g></svg>