<svg xmlns="http://www.w3.org/2000/svg" xmlns:xlink="http://www.w3.org/1999/xlink" version="1.1" viewBox="0 0 2280 2122" style="background: #ffffff"><defs joint-selector="defs"></defs><g joint-selector="layers"  transform="matrix(1,0,0,1,0,0)"><g ></g><g ><g   id="j_87"  transform="translate(20,2077)"><g id="v-1137"><text  id="v-1138" font-size="22px" xml:space="preserve" y="0.8em" font-weight="normal" text-anchor="start" fill="#aaaaaa" pointer-events="none" font-family="Open Sans"><tspan dy="0" >Monday, January 20, 2025 at 8:05 PM Eastern European Standard Time</tspan></text></g></g><g   id="j_86"  transform="translate(20,2046)"><g id="v-1135"><text  id="v-1136" font-size="22px" xml:space="preserve" y="0.8em" font-weight="normal" text-anchor="start" fill="#aaaaaa" pointer-events="none" font-family="Open Sans"><tspan dy="0" >Сайт KALK.PRO - Схема развертывания в dev окружении</tspan></text></g></g><g   id="j_85"  transform="translate(20,2002)"><g id="v-1133"><text  id="v-1134" font-size="36px" xml:space="preserve" y="0.8em" font-weight="normal" text-anchor="start" fill="#000000" pointer-events="none" font-family="Open Sans"><tspan dy="0" >[Deployment] Онлайн-сервис автоматизации строительных расчетов - Development</tspan></text></g></g><g   id="j_79"  transform="translate(500,200)" style=""><g  id="v-1041" style="opacity: 1;"><rect  id="v-1042" width="1280" height="1722" rx="10" ry="10" fill="#ffffff" stroke="#888888" stroke-width="1" pointer-events="none" style="stroke: rgb(136, 136, 136);"></rect><text  id="v-1043" font-size="24px" xml:space="preserve" y="1683" font-weight="normal" text-anchor="start" pointer-events="visible" font-family="Open Sans" fill="#000000" transform="matrix(1,0,0,1,15,0)" style="fill: rgb(0, 0, 0);"><tspan dy="0" >FirstVDS</tspan></text><text  id="v-1044" font-size="17px" xml:space="preserve" y="1707" font-weight="normal" text-anchor="start" pointer-events="visible" font-family="Open Sans" fill="#000000" transform="matrix(1,0,0,1,15,0)" style="fill: rgb(0, 0, 0);"><tspan dy="0" >[Deployment Node]</tspan></text><text  id="v-1045" font-size="40px" xml:space="preserve" display="none" y="1707" font-weight="normal" fill="#000000" text-anchor="end" pointer-events="visible" font-family="Open Sans" transform="matrix(1,0,0,1,1265,0)"><tspan dy="0" style="fill-opacity: 0; stroke-opacity: 0;" >-</tspan></text><image  id="v-1046" pointer-events="visible"></image></g></g><g   id="j_80"  transform="translate(520,220)" style=""><g  id="v-1047" style="opacity: 1;"><rect  id="v-1048" width="1240" height="1611" rx="10" ry="10" fill="#ffffff" stroke="#888888" stroke-width="1" pointer-events="none" style="stroke: rgb(136, 136, 136);"></rect><text  id="v-1049" font-size="24px" xml:space="preserve" y="1572" font-weight="normal" text-anchor="start" pointer-events="visible" font-family="Open Sans" fill="#000000" transform="matrix(1,0,0,1,15,0)" style="fill: rgb(0, 0, 0);"><tspan dy="0" >WEB-SERVER</tspan></text><text  id="v-1050" font-size="17px" xml:space="preserve" y="1596" font-weight="normal" text-anchor="start" pointer-events="visible" font-family="Open Sans" fill="#000000" transform="matrix(1,0,0,1,15,0)" style="fill: rgb(0, 0, 0);"><tspan dy="0" >[Deployment Node: VPS KVM]</tspan></text><text  id="v-1051" font-size="40px" xml:space="preserve" display="none" y="1596" font-weight="normal" fill="#000000" text-anchor="end" pointer-events="visible" font-family="Open Sans" transform="matrix(1,0,0,1,1225,0)"><tspan dy="0" style="fill-opacity: 0; stroke-opacity: 0;" >-</tspan></text><image  id="v-1052" pointer-events="visible"></image></g></g><g   id="j_71"  transform="translate(1290,1440)" style=""><g  id="v-964" style="opacity: 1;"><rect  id="v-965" rx="10" ry="10" stroke="#78a8d8" stroke-width="2" pointer-events="visiblePainted" fill="#85bbf0" x="10" y="0" width="150" height="75" style="fill: rgb(133, 187, 240); stroke: rgb(120, 168, 216);"></rect><rect  id="v-966" rx="5" ry="5" stroke="#78a8d8" stroke-width="2" pointer-events="visiblePainted" fill="#85bbf0" x="0" y="37.5" width="450" height="262.5" style="fill: rgb(133, 187, 240); stroke: rgb(120, 168, 216);"></rect><text  id="v-967" font-size="34" xml:space="preserve" y="0.8em" font-weight="bold" text-anchor="middle" pointer-events="visible" font-family="Open Sans" fill="#ffffff" transform="matrix(1,0,0,1,225,65.6)" style="fill: rgb(255, 255, 255);"><tspan dy="0" >Статические файлы для</tspan><tspan dy="1.2em" x="0" >сайта</tspan></text><text  id="v-968" font-size="17" xml:space="preserve" y="0.8em" text-anchor="middle" font-family="Open Sans" fill="#ffffff" transform="matrix(1,0,0,1,225,150.6)" style="fill: rgb(255, 255, 255);"><tspan dy="0" >[Container]</tspan></text><text  id="v-969" font-size="24" xml:space="preserve" y="0.8em" text-anchor="middle" font-family="Open Sans" fill="#ffffff" transform="matrix(1,0,0,1,225,181.9)" style="fill: rgb(255, 255, 255);"><tspan dy="0" >Файловая директория с правами</tspan><tspan dy="1.2em" x="0" >только на чтение, 20Gb (Debian</tspan><tspan dy="1.2em" x="0" >11, ext4)</tspan></text><g  id="v-970" font-weight="normal" text-anchor="middle" color="#ffffff" transform="matrix(1,0,0,1,222.5,281.9)" display="none" style="fill: rgb(255, 255, 255);"><g ></g><g ></g><g ></g><g ></g></g><image  id="v-971"></image></g></g><g   id="j_70"  transform="translate(540,1440)" style=""><g  id="v-950" style="opacity: 1;"><path  d="M 0,30 a 225,30 0,0,0 450 0 a 225,30 0,0,0 -450 0 l 0,240 a 225,30 0,0,0 450 0 l 0,-240" id="v-951" stroke="#78a8d8" stroke-width="2" pointer-events="visiblePainted" fill="#85bbf0" style="fill: rgb(133, 187, 240); stroke: rgb(120, 168, 216);"></path><rect  id="v-952" stroke-width="0" pointer-events="visiblePainted" fill="none" stroke="none" width="450" height="270" x="0" y="30"></rect><text  id="v-953" font-size="34" xml:space="preserve" y="0.8em" font-weight="bold" text-anchor="middle" pointer-events="visible" font-family="Open Sans" fill="#ffffff" transform="matrix(1,0,0,1,225,113.1)" style="fill: rgb(255, 255, 255);"><tspan dy="0" >БД db_kalkpro</tspan></text><text  id="v-954" font-size="17" xml:space="preserve" y="0.8em" text-anchor="middle" font-family="Open Sans" fill="#ffffff" transform="matrix(1,0,0,1,225,155.6)" style="fill: rgb(255, 255, 255);"><tspan dy="0" >[Container: MySQL]</tspan></text><text  id="v-955" font-size="24" xml:space="preserve" y="0.8em" text-anchor="middle" font-family="Open Sans" fill="#ffffff" transform="matrix(1,0,0,1,225,186.9)" style="fill: rgb(255, 255, 255);"><tspan dy="0" >db: db_devkalkproru (MariaDB</tspan><tspan dy="1.2em" x="0" >10.11.4)</tspan></text><g  id="v-956" font-weight="normal" text-anchor="middle" color="#ffffff" transform="matrix(1,0,0,1,222.5,256.9)" display="none" style="fill: rgb(255, 255, 255);"><g ></g><g ></g><g ></g><g ></g></g><image  id="v-957"></image></g></g><g   id="j_72"  transform="translate(540,840)" style=""><g  id="v-981" style="opacity: 1;"><rect  id="v-982" rx="20" ry="20" stroke="#3c7fc0" stroke-width="2" pointer-events="visiblePainted" fill="#438dd5" width="450" height="300" style="fill: rgb(67, 141, 213); stroke: rgb(60, 127, 192);"></rect><text  id="v-983" font-size="34" xml:space="preserve" y="0.8em" font-weight="bold" text-anchor="middle" pointer-events="visible" font-family="Open Sans" fill="#ffffff" transform="matrix(1,0,0,1,225,76.9)" style="fill: rgb(255, 255, 255);"><tspan dy="0" >Backend-приложение</tspan><tspan dy="1.2em" x="0" >KALK.PRO</tspan></text><text  id="v-984" font-size="17" xml:space="preserve" y="0.8em" text-anchor="middle" font-family="Open Sans" fill="#ffffff" transform="matrix(1,0,0,1,225,161.9)" style="fill: rgb(255, 255, 255);"><tspan dy="0" >[Container: php 7.3.33, UMI.CMS]</tspan></text><text  id="v-985" font-size="24" xml:space="preserve" y="0.8em" text-anchor="middle" font-family="Open Sans" fill="#ffffff" transform="matrix(1,0,0,1,225,193.1)" style="fill: rgb(255, 255, 255);"><tspan dy="0" >Бэкенд приложение (PHP 7.3.33)</tspan></text><g  id="v-986" color="#ffffff" transform="matrix(1,0,0,1,210,233.1)" display="none" style="fill: rgb(255, 255, 255);"><g ></g><g ></g><g ></g><g  transform="translate(5 0)"><svg xmlns="http://www.w3.org/2000/svg" width="20" height="20" fill="currentColor" viewBox="0 0 16 16"><path d="M6.354 5.5H4a3 3 0 0 0 0 6h3a3 3 0 0 0 2.83-4H9c-.086 0-.17.01-.25.031A2 2 0 0 1 7 10.5H4a2 2 0 1 1 0-4h1.535c.218-.376.495-.714.82-1z"></path><path d="M9 5.5a3 3 0 0 0-2.83 4h1.098A2 2 0 0 1 9 6.5h3a2 2 0 1 1 0 4h-1.535a4.02 4.02 0 0 1-.82 1H12a3 3 0 1 0 0-6H9z"></path></svg></g></g><image  id="v-987"></image></g></g><g   id="j_73"  transform="translate(1290,840)" style=""><g  id="v-997" style="opacity: 1;"><rect  id="v-998" rx="20" ry="20" stroke="#3c7fc0" stroke-width="2" pointer-events="visiblePainted" fill="#438dd5" width="450" height="300" style="fill: rgb(67, 141, 213); stroke: rgb(60, 127, 192);"></rect><text  id="v-999" font-size="34" xml:space="preserve" y="0.8em" font-weight="bold" text-anchor="middle" pointer-events="visible" font-family="Open Sans" fill="#ffffff" transform="matrix(1,0,0,1,225,61.9)" style="fill: rgb(255, 255, 255);"><tspan dy="0" >Набор фронтенд</tspan><tspan dy="1.2em" x="0" >приложений</tspan></text><text  id="v-1000" font-size="17" xml:space="preserve" y="0.8em" text-anchor="middle" font-family="Open Sans" fill="#ffffff" transform="matrix(1,0,0,1,225,146.9)" style="fill: rgb(255, 255, 255);"><tspan dy="0" >[Container: php 7.3.33, ReactJS]</tspan></text><text  id="v-1001" font-size="24" xml:space="preserve" y="0.8em" text-anchor="middle" font-family="Open Sans" fill="#ffffff" transform="matrix(1,0,0,1,225,178.1)" style="fill: rgb(255, 255, 255);"><tspan dy="0" >Фронтенд приложения (HTML,</tspan><tspan dy="1.2em" x="0" >ReactJS, PHP 7.3.33)</tspan></text><g  id="v-1002" color="#ffffff" transform="matrix(1,0,0,1,210,248.1)" display="none" style="fill: rgb(255, 255, 255);"><g ></g><g ></g><g ></g><g  transform="translate(5 0)"><svg xmlns="http://www.w3.org/2000/svg" width="20" height="20" fill="currentColor" viewBox="0 0 16 16"><path d="M6.354 5.5H4a3 3 0 0 0 0 6h3a3 3 0 0 0 2.83-4H9c-.086 0-.17.01-.25.031A2 2 0 0 1 7 10.5H4a2 2 0 1 1 0-4h1.535c.218-.376.495-.714.82-1z"></path><path d="M9 5.5a3 3 0 0 0-2.83 4h1.098A2 2 0 0 1 9 6.5h3a2 2 0 1 1 0 4h-1.535a4.02 4.02 0 0 1-.82 1H12a3 3 0 1 0 0-6H9z"></path></svg></g></g><image  id="v-1003"></image></g></g><g   id="j_74"  transform="translate(915,240)" style=""><g  id="v-1010" style="opacity: 1;"><rect  id="v-1011" rx="20" ry="20" stroke="#3c7fc0" stroke-width="2" pointer-events="visiblePainted" fill="#438dd5" width="450" height="300" style="fill: rgb(67, 141, 213); stroke: rgb(60, 127, 192);"></rect><text  id="v-1012" font-size="34" xml:space="preserve" y="0.8em" font-weight="bold" text-anchor="middle" pointer-events="visible" font-family="Open Sans" fill="#ffffff" transform="matrix(1,0,0,1,225,83.1)" style="fill: rgb(255, 255, 255);"><tspan dy="0" >Веб-сервер</tspan></text><text  id="v-1013" font-size="17" xml:space="preserve" y="0.8em" text-anchor="middle" font-family="Open Sans" fill="#ffffff" transform="matrix(1,0,0,1,225,125.6)" style="fill: rgb(255, 255, 255);"><tspan dy="0" >[Container: nginx/1.22.1 + php-fpm]</tspan></text><text  id="v-1014" font-size="24" xml:space="preserve" y="0.8em" text-anchor="middle" font-family="Open Sans" fill="#ffffff" transform="matrix(1,0,0,1,225,156.9)" style="fill: rgb(255, 255, 255);"><tspan dy="0" >Веб-сервер (nginx/1.22.1 +</tspan><tspan dy="1.2em" x="0" >php-fpm)</tspan></text><g  id="v-1015" color="#ffffff" transform="matrix(1,0,0,1,210,226.9)" display="none" style="fill: rgb(255, 255, 255);"><g ></g><g ></g><g ></g><g  transform="translate(5 0)"><svg xmlns="http://www.w3.org/2000/svg" width="20" height="20" fill="currentColor" viewBox="0 0 16 16"><path d="M6.354 5.5H4a3 3 0 0 0 0 6h3a3 3 0 0 0 2.83-4H9c-.086 0-.17.01-.25.031A2 2 0 0 1 7 10.5H4a2 2 0 1 1 0-4h1.535c.218-.376.495-.714.82-1z"></path><path d="M9 5.5a3 3 0 0 0-2.83 4h1.098A2 2 0 0 1 9 6.5h3a2 2 0 1 1 0 4h-1.535a4.02 4.02 0 0 1-.82 1H12a3 3 0 1 0 0-6H9z"></path></svg></g></g><image  id="v-1016"></image></g></g><g   id="j_81" ><path  stroke="#707070" d="M 765 1140 L 765 1440" id="v-1062" stroke-width="2" stroke-dasharray="30 30" fill="none" style="opacity: 1;"></path><path  fill="black" stroke="black" d="M 0 0 0 0" transform="matrix(6.123233995736766e-17,1,-1,6.123233995736766e-17,765,1140)"></path><path  fill="#707070" stroke="#707070" d="M 20 0 L 0 10 L 20 20 z" id="v-1064" transform="matrix(-1.8369701987210297e-16,-1,1,-1.8369701987210297e-16,755,1440)" style="opacity: 1;"></path><path  d="M 765 1140 L 765 1440" id="v-1063" fill="none" style="cursor: auto; pointer-events: visiblepainted;"></path><g ><g id="v-1056"  label-idx="0" cursor="move" transform="matrix(1,0,0,1,765,1290)" style="cursor: default; opacity: 1;"><rect joint-selector="rect" id="v-1059" fill="#ffffff" rx="3" ry="3" pointer-events="none" width="0" height="0" transform="matrix(1,0,0,1,0,0)"></rect><text joint-selector="text" id="v-1058" font-size="24px" xml:space="preserve" display="none" y="0.8em" fill="#707070" text-anchor="middle" pointer-events="none" font-family="Open Sans" font-weight="normal"><tspan dy="0" style="fill-opacity: 0; stroke-opacity: 0;" >-</tspan></text></g><g id="v-1057"  label-idx="1" cursor="move" transform="matrix(1,0,0,1,755,1302)" style="cursor: default; opacity: 1;"><rect joint-selector="rect" id="v-1061" fill="#ffffff" rx="3" ry="3"  width="0" height="0" transform="matrix(1,0,0,1,0,0)" display="none"></rect><text joint-selector="text" id="v-1060" fill="#000000" font-size="14" text-anchor="middle" pointer-events="none"></text></g></g><g  display="none" style="display: none;"></g><g  id="v-1066" display="none"><g  id="v-1054"><path  end="source" d="M 26 0 L 0 13 L 26 26 z"></path></g><g  id="v-1055"><path  end="target" d="M 26 0 L 0 13 L 26 26 z"></path></g></g><g  id="v-1065" display="none"><g  id="v-1053" transform="translate(765, 1180) "><g  event="remove"><circle r="11"></circle><path transform="scale(.8) translate(-16, -16)" d="M24.778,21.419 19.276,15.917 24.777,10.415 21.949,7.585 16.447,13.087 10.945,7.585 8.117,10.415 13.618,15.917 8.116,21.419 10.946,24.248 16.447,18.746 21.948,24.248z"></path><title>Remove link.</title></g><g  event="link:options"><circle r="11" transform="translate(25)"></circle><path fill="white" transform="scale(.55) translate(29, -16)" d="M31.229,17.736c0.064-0.571,0.104-1.148,0.104-1.736s-0.04-1.166-0.104-1.737l-4.377-1.557c-0.218-0.716-0.504-1.401-0.851-2.05l1.993-4.192c-0.725-0.91-1.549-1.734-2.458-2.459l-4.193,1.994c-0.647-0.347-1.334-0.632-2.049-0.849l-1.558-4.378C17.165,0.708,16.588,0.667,16,0.667s-1.166,0.041-1.737,0.105L12.707,5.15c-0.716,0.217-1.401,0.502-2.05,0.849L6.464,4.005C5.554,4.73,4.73,5.554,4.005,6.464l1.994,4.192c-0.347,0.648-0.632,1.334-0.849,2.05l-4.378,1.557C0.708,14.834,0.667,15.412,0.667,16s0.041,1.165,0.105,1.736l4.378,1.558c0.217,0.715,0.502,1.401,0.849,2.049l-1.994,4.193c0.725,0.909,1.549,1.733,2.459,2.458l4.192-1.993c0.648,0.347,1.334,0.633,2.05,0.851l1.557,4.377c0.571,0.064,1.148,0.104,1.737,0.104c0.588,0,1.165-0.04,1.736-0.104l1.558-4.377c0.715-0.218,1.399-0.504,2.049-0.851l4.193,1.993c0.909-0.725,1.733-1.549,2.458-2.458l-1.993-4.193c0.347-0.647,0.633-1.334,0.851-2.049L31.229,17.736zM16,20.871c-2.69,0-4.872-2.182-4.872-4.871c0-2.69,2.182-4.872,4.872-4.872c2.689,0,4.871,2.182,4.871,4.872C20.871,18.689,18.689,20.871,16,20.871z"></path><title>Link options.</title></g></g></g></g><g   id="j_82" ><path  stroke="#707070" d="M 953 1140 L 1328 1440" id="v-1082" stroke-width="2" stroke-dasharray="30 30" fill="none" style="opacity: 1;"></path><path  fill="black" stroke="black" d="M 0 0 0 0" transform="matrix(0.7808688000832672,0.624695059254128,-0.624695059254128,0.7808688000832672,952.5,1140)"></path><path  fill="#707070" stroke="#707070" d="M 20 0 L 0 10 L 20 20 z" id="v-1084" transform="matrix(-0.7808688416748548,-0.6246950072646416,0.6246950072646416,-0.7808688416748548,1321.2530225237897,1447.8086902472076)" style="opacity: 1;"></path><path  d="M 953 1140 L 1328 1440" id="v-1083" fill="none" style="cursor: auto; pointer-events: visiblepainted;"></path><g ><g id="v-1073"  label-idx="0" cursor="move" transform="matrix(1,0,0,1,1140.5,1290)" style="cursor: default; opacity: 1;"><rect joint-selector="rect" id="v-1077" fill="#ffffff" rx="3" ry="3" pointer-events="none" width="158.62115478515625" height="90.50681686401367" transform="matrix(1,0,0,1,-79.3,-45.2)"></rect><text joint-selector="text" id="v-1076" font-size="24px" xml:space="preserve" y="0.8em" fill="#707070" text-anchor="middle" pointer-events="none" font-family="Open Sans" font-weight="normal" transform="matrix(1,0,0,1,0,-38.1)"><tspan dy="0" >Хранилище</tspan><tspan dy="1.2em" x="0" >статических</tspan><tspan dy="1.2em" x="0" >файлов сайта</tspan></text></g><g id="v-1074"  label-idx="1" cursor="move" transform="matrix(1,0,0,1,1140.5,1347)" style="cursor: default; opacity: 1;"><rect joint-selector="rect" id="v-1079" fill="#ffffff" rx="3" ry="3" pointer-events="none" width="29.230510711669922" height="23.03477191925049" transform="matrix(1,0,0,1,-14.6,-11.5)"></rect><text joint-selector="text" id="v-1078" font-size="17px" xml:space="preserve" y="0.8em" fill="#707070" text-anchor="middle" pointer-events="none" font-family="Open Sans" font-weight="normal" transform="matrix(1,0,0,1,0,-7)"><tspan dy="0" >[FS]</tspan></text></g><g id="v-1075"  label-idx="2" cursor="move" transform="matrix(1,0,0,1,1130.5,1356.25)" style="cursor: default; opacity: 1;"><rect joint-selector="rect" id="v-1081" fill="#ffffff" rx="3" ry="3"  width="0" height="0" transform="matrix(1,0,0,1,0,0)" display="none"></rect><text joint-selector="text" id="v-1080" fill="#000000" font-size="14" text-anchor="middle" pointer-events="none"></text></g></g><g  display="none" style="display: none;"></g><g  id="v-1086" display="none"><g  id="v-1071"><path  end="source" d="M 26 0 L 0 13 L 26 26 z"></path></g><g  id="v-1072"><path  end="target" d="M 26 0 L 0 13 L 26 26 z"></path></g></g><g  id="v-1085" display="none"><g  id="v-1070" transform="translate(984.2347523777213, 1164.987801902177) "><g  event="remove"><circle r="11"></circle><path transform="scale(.8) translate(-16, -16)" d="M24.778,21.419 19.276,15.917 24.777,10.415 21.949,7.585 16.447,13.087 10.945,7.585 8.117,10.415 13.618,15.917 8.116,21.419 10.946,24.248 16.447,18.746 21.948,24.248z"></path><title>Remove link.</title></g><g  event="link:options"><circle r="11" transform="translate(25)"></circle><path fill="white" transform="scale(.55) translate(29, -16)" d="M31.229,17.736c0.064-0.571,0.104-1.148,0.104-1.736s-0.04-1.166-0.104-1.737l-4.377-1.557c-0.218-0.716-0.504-1.401-0.851-2.05l1.993-4.192c-0.725-0.91-1.549-1.734-2.458-2.459l-4.193,1.994c-0.647-0.347-1.334-0.632-2.049-0.849l-1.558-4.378C17.165,0.708,16.588,0.667,16,0.667s-1.166,0.041-1.737,0.105L12.707,5.15c-0.716,0.217-1.401,0.502-2.05,0.849L6.464,4.005C5.554,4.73,4.73,5.554,4.005,6.464l1.994,4.192c-0.347,0.648-0.632,1.334-0.849,2.05l-4.378,1.557C0.708,14.834,0.667,15.412,0.667,16s0.041,1.165,0.105,1.736l4.378,1.558c0.217,0.715,0.502,1.401,0.849,2.049l-1.994,4.193c0.725,0.909,1.549,1.733,2.459,2.458l4.192-1.993c0.648,0.347,1.334,0.633,2.05,0.851l1.557,4.377c0.571,0.064,1.148,0.104,1.737,0.104c0.588,0,1.165-0.04,1.736-0.104l1.558-4.377c0.715-0.218,1.399-0.504,2.049-0.851l4.193,1.993c0.909-0.725,1.733-1.549,2.458-2.458l-1.993-4.193c0.347-0.647,0.633-1.334,0.851-2.049L31.229,17.736zM16,20.871c-2.69,0-4.872-2.182-4.872-4.871c0-2.69,2.182-4.872,4.872-4.872c2.689,0,4.871,2.182,4.871,4.872C20.871,18.689,18.689,20.871,16,20.871z"></path><title>Link options.</title></g></g></g></g><g   id="j_83" ><path  stroke="#707070" d="M 1046 540 L 859 840" id="v-1102" stroke-width="2" stroke-dasharray="30 30" fill="none" style="opacity: 1;"></path><path  fill="black" stroke="black" d="M 0 0 0 0" transform="matrix(-0.5299989865422612,0.8479982749181605,-0.8479982749181605,-0.5299989865422612,1046.25,540)"></path><path  fill="#707070" stroke="#707070" d="M 20 0 L 0 10 L 20 20 z" id="v-1104" transform="matrix(0.5299987607066415,-0.8479984160653982,0.8479984160653982,0.5299987607066415,850.2700160252483,834.7000160848376)" style="opacity: 1;"></path><path  d="M 1046 540 L 859 840" id="v-1103" fill="none" style="cursor: auto; pointer-events: visiblepainted;"></path><g ><g id="v-1093"  label-idx="0" cursor="move" transform="matrix(1,0,0,1,952.5,690)" style="cursor: default; opacity: 1;"><rect joint-selector="rect" id="v-1097" fill="#ffffff" rx="3" ry="3" pointer-events="none" width="165.92234802246094" height="61.70682144165039" transform="matrix(1,0,0,1,-83,-30.8)"></rect><text joint-selector="text" id="v-1096" font-size="24px" xml:space="preserve" y="0.8em" fill="#707070" text-anchor="middle" pointer-events="none" font-family="Open Sans" font-weight="normal" transform="matrix(1,0,0,1,0,-23.7)"><tspan dy="0" >Получение</tspan><tspan dy="1.2em" x="0" >данных для UI</tspan></text></g><g id="v-1094"  label-idx="1" cursor="move" transform="matrix(1,0,0,1,952.5,732)" style="cursor: default; opacity: 1;"><rect joint-selector="rect" id="v-1099" fill="#ffffff" rx="3" ry="3" pointer-events="none" width="79.87615966796875" height="23.03477191925049" transform="matrix(1,0,0,1,-39.9,-11.5)"></rect><text joint-selector="text" id="v-1098" font-size="17px" xml:space="preserve" y="0.8em" fill="#707070" text-anchor="middle" pointer-events="none" font-family="Open Sans" font-weight="normal" transform="matrix(1,0,0,1,0,-7)"><tspan dy="0" >[REST API]</tspan></text></g><g id="v-1095"  label-idx="2" cursor="move" transform="matrix(1,0,0,1,942.5,741.25)" style="cursor: default; opacity: 1;"><rect joint-selector="rect" id="v-1101" fill="#ffffff" rx="3" ry="3"  width="0" height="0" transform="matrix(1,0,0,1,0,0)" display="none"></rect><text joint-selector="text" id="v-1100" fill="#000000" font-size="14" text-anchor="middle" pointer-events="none"></text></g></g><g  display="none" style="display: none;"></g><g  id="v-1106" display="none"><g  id="v-1091"><path  end="source" d="M 26 0 L 0 13 L 26 26 z"></path></g><g  id="v-1092"><path  end="target" d="M 26 0 L 0 13 L 26 26 z"></path></g></g><g  id="v-1105" display="none"><g  id="v-1090" transform="translate(1024.8407411961143, 573.9453349794959) "><g  event="remove"><circle r="11"></circle><path transform="scale(.8) translate(-16, -16)" d="M24.778,21.419 19.276,15.917 24.777,10.415 21.949,7.585 16.447,13.087 10.945,7.585 8.117,10.415 13.618,15.917 8.116,21.419 10.946,24.248 16.447,18.746 21.948,24.248z"></path><title>Remove link.</title></g><g  event="link:options"><circle r="11" transform="translate(25)"></circle><path fill="white" transform="scale(.55) translate(29, -16)" d="M31.229,17.736c0.064-0.571,0.104-1.148,0.104-1.736s-0.04-1.166-0.104-1.737l-4.377-1.557c-0.218-0.716-0.504-1.401-0.851-2.05l1.993-4.192c-0.725-0.91-1.549-1.734-2.458-2.459l-4.193,1.994c-0.647-0.347-1.334-0.632-2.049-0.849l-1.558-4.378C17.165,0.708,16.588,0.667,16,0.667s-1.166,0.041-1.737,0.105L12.707,5.15c-0.716,0.217-1.401,0.502-2.05,0.849L6.464,4.005C5.554,4.73,4.73,5.554,4.005,6.464l1.994,4.192c-0.347,0.648-0.632,1.334-0.849,2.05l-4.378,1.557C0.708,14.834,0.667,15.412,0.667,16s0.041,1.165,0.105,1.736l4.378,1.558c0.217,0.715,0.502,1.401,0.849,2.049l-1.994,4.193c0.725,0.909,1.549,1.733,2.459,2.458l4.192-1.993c0.648,0.347,1.334,0.633,2.05,0.851l1.557,4.377c0.571,0.064,1.148,0.104,1.737,0.104c0.588,0,1.165-0.04,1.736-0.104l1.558-4.377c0.715-0.218,1.399-0.504,2.049-0.851l4.193,1.993c0.909-0.725,1.733-1.549,2.458-2.458l-1.993-4.193c0.347-0.647,0.633-1.334,0.851-2.049L31.229,17.736zM16,20.871c-2.69,0-4.872-2.182-4.872-4.871c0-2.69,2.182-4.872,4.872-4.872c2.689,0,4.871,2.182,4.871,4.872C20.871,18.689,18.689,20.871,16,20.871z"></path><title>Link options.</title></g></g></g></g><g   id="j_84" ><path  stroke="#707070" d="M 1234 540 L 1421 840" id="v-1122" stroke-width="2" stroke-dasharray="30 30" fill="none" style="opacity: 1;"></path><path  fill="black" stroke="black" d="M 0 0 0 0" transform="matrix(0.52999893008336,0.8479983102049754,-0.8479983102049754,0.52999893008336,1233.75,540)"></path><path  fill="#707070" stroke="#707070" d="M 20 0 L 0 10 L 20 20 z" id="v-1124" transform="matrix(-0.5299989865422614,-0.8479982749181603,0.8479982749181603,-0.5299989865422614,1412.769958288116,845.2999921458542)" style="opacity: 1;"></path><path  d="M 1234 540 L 1421 840" id="v-1123" fill="none" style="cursor: auto; pointer-events: visiblepainted;"></path><g ><g id="v-1113"  label-idx="0" cursor="move" transform="matrix(1,0,0,1,1327.5,690)" style="cursor: default; opacity: 1;"><rect joint-selector="rect" id="v-1117" fill="#ffffff" rx="3" ry="3" pointer-events="none" width="178.2109832763672" height="32.90682029724121" transform="matrix(1,0,0,1,-89.1,-16.4)"></rect><text joint-selector="text" id="v-1116" font-size="24px" xml:space="preserve" y="0.8em" fill="#707070" text-anchor="middle" pointer-events="none" font-family="Open Sans" font-weight="normal" transform="matrix(1,0,0,1,0,-9.3)"><tspan dy="0" >UI приложения</tspan></text></g><g id="v-1114"  label-idx="1" cursor="move" transform="matrix(1,0,0,1,1327.5,717)" style="cursor: default; opacity: 1;"><rect joint-selector="rect" id="v-1119" fill="#ffffff" rx="3" ry="3" pointer-events="none" width="61.93165969848633" height="23.03477191925049" transform="matrix(1,0,0,1,-31,-11.5)"></rect><text joint-selector="text" id="v-1118" font-size="17px" xml:space="preserve" y="0.8em" fill="#707070" text-anchor="middle" pointer-events="none" font-family="Open Sans" font-weight="normal" transform="matrix(1,0,0,1,0,-7)"><tspan dy="0" >[HTTPS]</tspan></text></g><g id="v-1115"  label-idx="2" cursor="move" transform="matrix(1,0,0,1,1317.5,726.25)" style="cursor: default; opacity: 1;"><rect joint-selector="rect" id="v-1121" fill="#ffffff" rx="3" ry="3"  width="0" height="0" transform="matrix(1,0,0,1,0,0)" display="none"></rect><text joint-selector="text" id="v-1120" fill="#000000" font-size="14" text-anchor="middle" pointer-events="none"></text></g></g><g  display="none" style="display: none;"></g><g  id="v-1126" display="none"><g  id="v-1111"><path  end="source" d="M 26 0 L 0 13 L 26 26 z"></path></g><g  id="v-1112"><path  end="target" d="M 26 0 L 0 13 L 26 26 z"></path></g></g><g  id="v-1125" display="none"><g  id="v-1110" transform="translate(1255.1592588038857, 573.9453349794959) "><g  event="remove"><circle r="11"></circle><path transform="scale(.8) translate(-16, -16)" d="M24.778,21.419 19.276,15.917 24.777,10.415 21.949,7.585 16.447,13.087 10.945,7.585 8.117,10.415 13.618,15.917 8.116,21.419 10.946,24.248 16.447,18.746 21.948,24.248z"></path><title>Remove link.</title></g><g  event="link:options"><circle r="11" transform="translate(25)"></circle><path fill="white" transform="scale(.55) translate(29, -16)" d="M31.229,17.736c0.064-0.571,0.104-1.148,0.104-1.736s-0.04-1.166-0.104-1.737l-4.377-1.557c-0.218-0.716-0.504-1.401-0.851-2.05l1.993-4.192c-0.725-0.91-1.549-1.734-2.458-2.459l-4.193,1.994c-0.647-0.347-1.334-0.632-2.049-0.849l-1.558-4.378C17.165,0.708,16.588,0.667,16,0.667s-1.166,0.041-1.737,0.105L12.707,5.15c-0.716,0.217-1.401,0.502-2.05,0.849L6.464,4.005C5.554,4.73,4.73,5.554,4.005,6.464l1.994,4.192c-0.347,0.648-0.632,1.334-0.849,2.05l-4.378,1.557C0.708,14.834,0.667,15.412,0.667,16s0.041,1.165,0.105,1.736l4.378,1.558c0.217,0.715,0.502,1.401,0.849,2.049l-1.994,4.193c0.725,0.909,1.549,1.733,2.459,2.458l4.192-1.993c0.648,0.347,1.334,0.633,2.05,0.851l1.557,4.377c0.571,0.064,1.148,0.104,1.737,0.104c0.588,0,1.165-0.04,1.736-0.104l1.558-4.377c0.715-0.218,1.399-0.504,2.049-0.851l4.193,1.993c0.909-0.725,1.733-1.549,2.458-2.458l-1.993-4.193c0.347-0.647,0.633-1.334,0.851-2.049L31.229,17.736zM16,20.871c-2.69,0-4.872-2.182-4.872-4.871c0-2.69,2.182-4.872,4.872-4.872c2.689,0,4.871,2.182,4.871,4.872C20.871,18.689,18.689,20.871,16,20.871z"></path><title>Link options.</title></g></g></g></g></g><g ></g><g ></g><g ></g></g></svg>