<svg xmlns="http://www.w3.org/2000/svg" xmlns:xlink="http://www.w3.org/1999/xlink" version="1.1" viewBox="0 0 5586 3100" style="background: #ffffff"><defs joint-selector="defs"></defs><g joint-selector="layers"  transform="matrix(1,0,0,1,0,0)"><g ></g><g ><g   id="j_69"  transform="translate(20,3055)"><g id="v-936"><text  id="v-937" font-size="22px" xml:space="preserve" y="0.8em" font-weight="normal" text-anchor="start" fill="#aaaaaa" pointer-events="none" font-family="Open Sans"><tspan dy="0" >Monday, January 20, 2025 at 8:05 PM Eastern European Standard Time</tspan></text></g></g><g   id="j_68"  transform="translate(20,3024)"><g id="v-934"><text  id="v-935" font-size="22px" xml:space="preserve" y="0.8em" font-weight="normal" text-anchor="start" fill="#aaaaaa" pointer-events="none" font-family="Open Sans"><tspan dy="0" >Сайт KALK.PRO - Контейнеры</tspan></text></g></g><g   id="j_67"  transform="translate(20,2980)"><g id="v-932"><text  id="v-933" font-size="36px" xml:space="preserve" y="0.8em" font-weight="normal" text-anchor="start" fill="#000000" pointer-events="none" font-family="Open Sans"><tspan dy="0" >[Container] Онлайн-сервис автоматизации строительных расчетов</tspan></text></g></g><g   id="j_43"  transform="translate(649,199)" style=""><g  id="v-530" style="opacity: 1;"><rect  x="0" y="160" width="400" height="240" rx="70" id="v-532" stroke="#b8b8b8" stroke-width="2" pointer-events="visiblePainted" fill="#cccccc" style="fill: rgb(204, 204, 204); stroke: rgb(184, 184, 184);"></rect><circle  cx="200" cy="88.88888888888889" r="88.88888888888889" id="v-531" stroke="#b8b8b8" stroke-width="2" pointer-events="visiblePainted" fill="#cccccc" style="fill: rgb(204, 204, 204); stroke: rgb(184, 184, 184);"></circle><line  x1="80" y1="266.6666666666667" x2="80" y2="400" id="v-538" stroke="#b8b8b8" stroke-width="2" style="stroke: rgb(184, 184, 184);"></line><line  x1="320" y1="266.6666666666667" x2="320" y2="400" id="v-539" stroke="#b8b8b8" stroke-width="2" style="stroke: rgb(184, 184, 184);"></line><text  id="v-533" font-size="34" xml:space="preserve" y="0.8em" font-weight="bold" text-anchor="middle" pointer-events="visible" font-family="Open Sans" fill="#ffffff" transform="matrix(1,0,0,1,200,221.9)" style="fill: rgb(255, 255, 255);"><tspan dy="0" >Пользователь</tspan><tspan dy="1.2em" x="0" >(посетитель сайта)</tspan></text><text  id="v-534" font-size="17" xml:space="preserve" y="0.8em" text-anchor="middle" font-family="Open Sans" fill="#ffffff" transform="matrix(1,0,0,1,200,306.9)" style="fill: rgb(255, 255, 255);"><tspan dy="0" >[Person]</tspan></text><text  id="v-535" font-size="24" xml:space="preserve" display="none" y="0.8em" text-anchor="middle" font-family="Open Sans" fill="#ffffff" transform="matrix(1,0,0,1,200,338.1)" style="fill: rgb(255, 255, 255);"><tspan dy="0" style="fill-opacity: 0; stroke-opacity: 0;" >-</tspan></text><g  id="v-536" font-weight="normal" text-anchor="middle" color="#ffffff" transform="matrix(1,0,0,1,197.5,348.1)" display="none" style="fill: rgb(255, 255, 255);"><g ></g><g ></g><g ></g><g ></g></g><image  id="v-537"></image></g></g><g   id="j_44"  transform="translate(1786,1999)" style=""><g  id="v-540" style="opacity: 1;"><rect  id="v-541" rx="20" ry="20" stroke="#b8b8b8" stroke-width="2" pointer-events="visiblePainted" fill="#cccccc" width="450" height="300" style="fill: rgb(204, 204, 204); stroke: rgb(184, 184, 184);"></rect><text  id="v-542" font-size="34" xml:space="preserve" y="0.8em" font-weight="bold" text-anchor="middle" pointer-events="visible" font-family="Open Sans" fill="#ffffff" transform="matrix(1,0,0,1,225,113.1)" style="fill: rgb(255, 255, 255);"><tspan dy="0" >Yandex SMTP</tspan></text><text  id="v-543" font-size="17" xml:space="preserve" y="0.8em" text-anchor="middle" font-family="Open Sans" fill="#ffffff" transform="matrix(1,0,0,1,225,155.6)" style="fill: rgb(255, 255, 255);"><tspan dy="0" >[Software System]</tspan></text><text  id="v-544" font-size="24" xml:space="preserve" display="none" y="0.8em" text-anchor="middle" font-family="Open Sans" fill="#ffffff" transform="matrix(1,0,0,1,225,186.9)" style="fill: rgb(255, 255, 255);"><tspan dy="0" style="fill-opacity: 0; stroke-opacity: 0;" >-</tspan></text><g  id="v-545" color="#ffffff" transform="matrix(1,0,0,1,222.5,196.9)" display="none" style="fill: rgb(255, 255, 255);"><g ></g><g ></g><g ></g><g ></g></g><image  id="v-546"></image></g></g><g   id="j_45"  transform="translate(3286,1999)" style=""><g  id="v-553" style="opacity: 1;"><rect  id="v-554" rx="20" ry="20" stroke="#0f5eaa" stroke-width="2" pointer-events="visiblePainted" fill="#1168bd" width="450" height="300" style="fill: rgb(17, 104, 189); stroke: rgb(15, 94, 170);"></rect><text  id="v-555" font-size="34" xml:space="preserve" y="0.8em" font-weight="bold" text-anchor="middle" pointer-events="visible" font-family="Open Sans" fill="#ffffff" transform="matrix(1,0,0,1,225,46.9)" style="fill: rgb(255, 255, 255);"><tspan dy="0" >Кластер проектных</tspan><tspan dy="1.2em" x="0" >расчетов</tspan></text><text  id="v-556" font-size="17" xml:space="preserve" y="0.8em" text-anchor="middle" font-family="Open Sans" fill="#ffffff" transform="matrix(1,0,0,1,225,131.9)" style="fill: rgb(255, 255, 255);"><tspan dy="0" >[Software System]</tspan></text><text  id="v-557" font-size="24" xml:space="preserve" y="0.8em" text-anchor="middle" font-family="Open Sans" fill="#ffffff" transform="matrix(1,0,0,1,225,163.1)" style="fill: rgb(255, 255, 255);"><tspan dy="0" >Расчет проектов (чертежи, 3D</tspan><tspan dy="1.2em" x="0" >модель, характеристики</tspan><tspan dy="1.2em" x="0" >конструкций)</tspan></text><g  id="v-558" color="#ffffff" transform="matrix(1,0,0,1,222.5,263.1)" display="none" style="fill: rgb(255, 255, 255);"><g ></g><g ></g><g ></g><g ></g></g><image  id="v-559"></image></g></g><g   id="j_46"  transform="translate(4036,1999)" style=""><g  id="v-566" style="opacity: 1;"><rect  id="v-567" rx="20" ry="20" stroke="#0f5eaa" stroke-width="2" pointer-events="visiblePainted" fill="#1168bd" width="450" height="300" style="fill: rgb(17, 104, 189); stroke: rgb(15, 94, 170);"></rect><text  id="v-568" font-size="34" xml:space="preserve" y="0.8em" font-weight="bold" text-anchor="middle" pointer-events="visible" font-family="Open Sans" fill="#ffffff" transform="matrix(1,0,0,1,225,61.9)" style="fill: rgb(255, 255, 255);"><tspan dy="0" >Сервис простых</tspan><tspan dy="1.2em" x="0" >расчетов</tspan></text><text  id="v-569" font-size="17" xml:space="preserve" y="0.8em" text-anchor="middle" font-family="Open Sans" fill="#ffffff" transform="matrix(1,0,0,1,225,146.9)" style="fill: rgb(255, 255, 255);"><tspan dy="0" >[Software System]</tspan></text><text  id="v-570" font-size="24" xml:space="preserve" y="0.8em" text-anchor="middle" font-family="Open Sans" fill="#ffffff" transform="matrix(1,0,0,1,225,178.1)" style="fill: rgb(255, 255, 255);"><tspan dy="0" >Расчет типовых строительных</tspan><tspan dy="1.2em" x="0" >конструкций</tspan></text><g  id="v-571" color="#ffffff" transform="matrix(1,0,0,1,222.5,248.1)" display="none" style="fill: rgb(255, 255, 255);"><g ></g><g ></g><g ></g><g ></g></g><image  id="v-572"></image></g></g><g   id="j_47"  transform="translate(4786,1999)" style=""><g  id="v-579" style="opacity: 1;"><rect  id="v-580" rx="20" ry="20" stroke="#0f5eaa" stroke-width="2" pointer-events="visiblePainted" fill="#1168bd" width="450" height="300" style="fill: rgb(17, 104, 189); stroke: rgb(15, 94, 170);"></rect><text  id="v-581" font-size="34" xml:space="preserve" y="0.8em" font-weight="bold" text-anchor="middle" pointer-events="visible" font-family="Open Sans" fill="#ffffff" transform="matrix(1,0,0,1,225,46.9)" style="fill: rgb(255, 255, 255);"><tspan dy="0" >Сервис расчета</tspan><tspan dy="1.2em" x="0" >металлопроката</tspan></text><text  id="v-582" font-size="17" xml:space="preserve" y="0.8em" text-anchor="middle" font-family="Open Sans" fill="#ffffff" transform="matrix(1,0,0,1,225,131.9)" style="fill: rgb(255, 255, 255);"><tspan dy="0" >[Software System]</tspan></text><text  id="v-583" font-size="24" xml:space="preserve" y="0.8em" text-anchor="middle" font-family="Open Sans" fill="#ffffff" transform="matrix(1,0,0,1,225,163.1)" style="fill: rgb(255, 255, 255);"><tspan dy="0" >Расчет изделий из</tspan><tspan dy="1.2em" x="0" >металлопроката. Справочник</tspan><tspan dy="1.2em" x="0" >ГОСТов по металлопрокату.</tspan></text><g  id="v-584" color="#ffffff" transform="matrix(1,0,0,1,222.5,263.1)" display="none" style="fill: rgb(255, 255, 255);"><g ></g><g ></g><g ></g><g ></g></g><image  id="v-585"></image></g></g><g   id="j_48"  transform="translate(4374,2599)" style=""><g  id="v-592" style="opacity: 1;"><rect  id="v-593" rx="20" ry="20" stroke="#0f5eaa" stroke-width="2" pointer-events="visiblePainted" fill="#1168bd" width="450" height="300" style="fill: rgb(17, 104, 189); stroke: rgb(15, 94, 170);"></rect><text  id="v-594" font-size="34" xml:space="preserve" y="0.8em" font-weight="bold" text-anchor="middle" pointer-events="visible" font-family="Open Sans" fill="#ffffff" transform="matrix(1,0,0,1,225,19.4)" style="fill: rgb(255, 255, 255);"><tspan dy="0" >Сервис подбора</tspan><tspan dy="1.2em" x="0" >оптимальной</tspan><tspan dy="1.2em" x="0" >конфигурации</tspan><tspan dy="1.2em" x="0" >лестницы</tspan></text><text  id="v-595" font-size="17" xml:space="preserve" y="0.8em" text-anchor="middle" font-family="Open Sans" fill="#ffffff" transform="matrix(1,0,0,1,225,189.4)" style="fill: rgb(255, 255, 255);"><tspan dy="0" >[Software System]</tspan></text><text  id="v-596" font-size="24" xml:space="preserve" y="0.8em" text-anchor="middle" font-family="Open Sans" fill="#ffffff" transform="matrix(1,0,0,1,225,220.6)" style="fill: rgb(255, 255, 255);"><tspan dy="0" >Сервис подбора оптимальной</tspan><tspan dy="1.2em" x="0" >конфигурации лестницы</tspan></text><g  id="v-597" color="#ffffff" transform="matrix(1,0,0,1,222.5,290.6)" display="none" style="fill: rgb(255, 255, 255);"><g ></g><g ></g><g ></g><g ></g></g><image  id="v-598"></image></g></g><g   id="j_49"  transform="translate(2536,1999)" style=""><g  id="v-605" style="opacity: 1;"><rect  id="v-606" rx="20" ry="20" stroke="#0f5eaa" stroke-width="2" pointer-events="visiblePainted" fill="#1168bd" width="450" height="300" style="fill: rgb(17, 104, 189); stroke: rgb(15, 94, 170);"></rect><text  id="v-607" font-size="34" xml:space="preserve" y="0.8em" font-weight="bold" text-anchor="middle" pointer-events="visible" font-family="Open Sans" fill="#ffffff" transform="matrix(1,0,0,1,225,61.9)" style="fill: rgb(255, 255, 255);"><tspan dy="0" >Сервис публикации</tspan><tspan dy="1.2em" x="0" >файлов статики</tspan></text><text  id="v-608" font-size="17" xml:space="preserve" y="0.8em" text-anchor="middle" font-family="Open Sans" fill="#ffffff" transform="matrix(1,0,0,1,225,146.9)" style="fill: rgb(255, 255, 255);"><tspan dy="0" >[Software System]</tspan></text><text  id="v-609" font-size="24" xml:space="preserve" y="0.8em" text-anchor="middle" font-family="Open Sans" fill="#ffffff" transform="matrix(1,0,0,1,225,178.1)" style="fill: rgb(255, 255, 255);"><tspan dy="0" >Сервис публикации файлов</tspan><tspan dy="1.2em" x="0" >статики на защищенном сервере</tspan></text><g  id="v-610" color="#ffffff" transform="matrix(1,0,0,1,222.5,248.1)" display="none" style="fill: rgb(255, 255, 255);"><g ></g><g ></g><g ></g><g ></g></g><image  id="v-611"></image></g></g><g   id="j_42"  transform="translate(200,779)" style=""><g id="v-522"><rect  id="v-523" width="1314" height="1643" rx="0" ry="0" fill="#ffffff" stroke="#0f5eaa" stroke-width="1" stroke-dasharray="20,20" pointer-events="none"></rect><text  id="v-524" font-size="40px" xml:space="preserve" y="1588" font-weight="normal" fill="#0f5eaa" text-anchor="start" pointer-events="visible" font-family="Open Sans" transform="matrix(1,0,0,1,15,0)"><tspan dy="0" >Онлайн-сервис автоматизации строительных расчетов</tspan></text><text  id="v-525" font-size="33px" xml:space="preserve" y="1628" font-weight="normal" fill="#0f5eaa" text-anchor="start" pointer-events="visible" font-family="Open Sans" transform="matrix(1,0,0,1,15,0)"><tspan dy="0" >[Software System]</tspan></text><image  id="v-526" pointer-events="visible"></image></g></g><g   id="j_41"  transform="translate(254,1379)" style=""><g id="v-517"><rect  id="v-518" width="1240" height="402" rx="0" ry="0" fill="#ffffff" stroke="#2e3a50" stroke-width="1" stroke-dasharray="5,5" pointer-events="none"></rect><text  id="v-519" font-size="32px" xml:space="preserve" y="387" font-weight="normal" fill="#2e3a50" text-anchor="start" pointer-events="visible" font-family="Open Sans" transform="matrix(1,0,0,1,15,0)"><tspan dy="0" >app_kalkpro</tspan></text><text  id="v-520" font-size="25px" xml:space="preserve" display="none" y="387" font-weight="normal" fill="#2e3a50" text-anchor="start" pointer-events="visible" font-family="Open Sans" transform="matrix(1,0,0,1,15,0)"><tspan dy="0" style="fill-opacity: 0; stroke-opacity: 0;" >-</tspan></text><image  id="v-521" pointer-events="visible"></image></g></g><g   id="j_50"  transform="translate(220,1999)" style=""><g  id="v-612" style="opacity: 1;"><path  d="M 0,30 a 225,30 0,0,0 450 0 a 225,30 0,0,0 -450 0 l 0,240 a 225,30 0,0,0 450 0 l 0,-240" id="v-613" stroke="#78a8d8" stroke-width="2" pointer-events="visiblePainted" fill="#85bbf0" style="fill: rgb(133, 187, 240); stroke: rgb(120, 168, 216);"></path><rect  id="v-614" stroke-width="0" pointer-events="visiblePainted" fill="none" stroke="none" width="450" height="270" x="0" y="30"></rect><text  id="v-615" font-size="34" xml:space="preserve" y="0.8em" font-weight="bold" text-anchor="middle" pointer-events="visible" font-family="Open Sans" fill="#ffffff" transform="matrix(1,0,0,1,225,128.1)" style="fill: rgb(255, 255, 255);"><tspan dy="0" >БД db_kalkpro</tspan></text><text  id="v-616" font-size="17" xml:space="preserve" y="0.8em" text-anchor="middle" font-family="Open Sans" fill="#ffffff" transform="matrix(1,0,0,1,225,170.6)" style="fill: rgb(255, 255, 255);"><tspan dy="0" >[Container: MySQL]</tspan></text><text  id="v-617" font-size="24" xml:space="preserve" y="0.8em" text-anchor="middle" font-family="Open Sans" fill="#ffffff" transform="matrix(1,0,0,1,225,201.9)" style="fill: rgb(255, 255, 255);"><tspan dy="0" >База данных сайта</tspan></text><g  id="v-618" font-weight="normal" text-anchor="middle" color="#ffffff" transform="matrix(1,0,0,1,222.5,241.9)" display="none" style="fill: rgb(255, 255, 255);"><g ></g><g ></g><g ></g><g ></g></g><image  id="v-619"></image></g></g><g   id="j_51"  transform="translate(970,1999)" style=""><g  id="v-626" style="opacity: 1;"><rect  id="v-627" rx="10" ry="10" stroke="#78a8d8" stroke-width="2" pointer-events="visiblePainted" fill="#85bbf0" x="10" y="0" width="150" height="75" style="fill: rgb(133, 187, 240); stroke: rgb(120, 168, 216);"></rect><rect  id="v-628" rx="5" ry="5" stroke="#78a8d8" stroke-width="2" pointer-events="visiblePainted" fill="#85bbf0" x="0" y="37.5" width="450" height="262.5" style="fill: rgb(133, 187, 240); stroke: rgb(120, 168, 216);"></rect><text  id="v-629" font-size="34" xml:space="preserve" y="0.8em" font-weight="bold" text-anchor="middle" pointer-events="visible" font-family="Open Sans" fill="#ffffff" transform="matrix(1,0,0,1,225,80.6)" style="fill: rgb(255, 255, 255);"><tspan dy="0" >Статические файлы для</tspan><tspan dy="1.2em" x="0" >сайта</tspan></text><text  id="v-630" font-size="17" xml:space="preserve" y="0.8em" text-anchor="middle" font-family="Open Sans" fill="#ffffff" transform="matrix(1,0,0,1,225,165.6)" style="fill: rgb(255, 255, 255);"><tspan dy="0" >[Container]</tspan></text><text  id="v-631" font-size="24" xml:space="preserve" y="0.8em" text-anchor="middle" font-family="Open Sans" fill="#ffffff" transform="matrix(1,0,0,1,225,196.9)" style="fill: rgb(255, 255, 255);"><tspan dy="0" >Файлы картинки, документация в</tspan><tspan dy="1.2em" x="0" >PDF</tspan></text><g  id="v-632" font-weight="normal" text-anchor="middle" color="#ffffff" transform="matrix(1,0,0,1,222.5,266.9)" display="none" style="fill: rgb(255, 255, 255);"><g ></g><g ></g><g ></g><g ></g></g><image  id="v-633"></image></g></g><g   id="j_53"  transform="translate(649,799)" style=""><g  id="v-653" style="opacity: 1;"><rect  id="v-654" rx="20" ry="20" stroke="#3c7fc0" stroke-width="2" pointer-events="visiblePainted" fill="#438dd5" width="450" height="300" style="fill: rgb(67, 141, 213); stroke: rgb(60, 127, 192);"></rect><text  id="v-655" font-size="34" xml:space="preserve" y="0.8em" font-weight="bold" text-anchor="middle" pointer-events="visible" font-family="Open Sans" fill="#ffffff" transform="matrix(1,0,0,1,225,113.1)" style="fill: rgb(255, 255, 255);"><tspan dy="0" >Веб-сервер</tspan></text><text  id="v-656" font-size="17" xml:space="preserve" y="0.8em" text-anchor="middle" font-family="Open Sans" fill="#ffffff" transform="matrix(1,0,0,1,225,155.6)" style="fill: rgb(255, 255, 255);"><tspan dy="0" >[Container: nginx/1.22.1 + php-fpm]</tspan></text><text  id="v-657" font-size="24" xml:space="preserve" display="none" y="0.8em" text-anchor="middle" font-family="Open Sans" fill="#ffffff" transform="matrix(1,0,0,1,225,186.9)" style="fill: rgb(255, 255, 255);"><tspan dy="0" style="fill-opacity: 0; stroke-opacity: 0;" >-</tspan></text><g  id="v-658" color="#ffffff" transform="matrix(1,0,0,1,210,196.9)" display="none" style="fill: rgb(255, 255, 255);"><g ></g><g ></g><g ></g><g  transform="translate(5 0)"><svg xmlns="http://www.w3.org/2000/svg" width="20" height="20" fill="currentColor" viewBox="0 0 16 16"><path d="M6.354 5.5H4a3 3 0 0 0 0 6h3a3 3 0 0 0 2.83-4H9c-.086 0-.17.01-.25.031A2 2 0 0 1 7 10.5H4a2 2 0 1 1 0-4h1.535c.218-.376.495-.714.82-1z"></path><path d="M9 5.5a3 3 0 0 0-2.83 4h1.098A2 2 0 0 1 9 6.5h3a2 2 0 1 1 0 4h-1.535a4.02 4.02 0 0 1-.82 1H12a3 3 0 1 0 0-6H9z"></path></svg></g></g><image  id="v-659"></image></g></g><g   id="j_40"  transform="translate(1024,1399)" style=""><g  id="v-510" style="opacity: 1;"><rect  id="v-511" rx="20" ry="20" stroke="#3c7fc0" stroke-width="2" pointer-events="visiblePainted" fill="#438dd5" width="450" height="300" style="fill: rgb(67, 141, 213); stroke: rgb(60, 127, 192);"></rect><text  id="v-512" font-size="34" xml:space="preserve" y="0.8em" font-weight="bold" text-anchor="middle" pointer-events="visible" font-family="Open Sans" fill="#ffffff" transform="matrix(1,0,0,1,225,61.9)" style="fill: rgb(255, 255, 255);"><tspan dy="0" >Набор фронтенд</tspan><tspan dy="1.2em" x="0" >приложений</tspan></text><text  id="v-513" font-size="17" xml:space="preserve" y="0.8em" text-anchor="middle" font-family="Open Sans" fill="#ffffff" transform="matrix(1,0,0,1,225,146.9)" style="fill: rgb(255, 255, 255);"><tspan dy="0" >[Container: php 7.3.33, ReactJS]</tspan></text><text  id="v-514" font-size="24" xml:space="preserve" y="0.8em" text-anchor="middle" font-family="Open Sans" fill="#ffffff" transform="matrix(1,0,0,1,225,178.1)" style="fill: rgb(255, 255, 255);"><tspan dy="0" >Front-приложения, генерируемые</tspan><tspan dy="1.2em" x="0" >на бэкенде и реактивные</tspan></text><g  id="v-515" color="#ffffff" transform="matrix(1,0,0,1,210,248.1)" display="none" style="fill: rgb(255, 255, 255);"><g ></g><g ></g><g ></g><g  transform="translate(5 0)"><svg xmlns="http://www.w3.org/2000/svg" width="20" height="20" fill="currentColor" viewBox="0 0 16 16"><path d="M6.354 5.5H4a3 3 0 0 0 0 6h3a3 3 0 0 0 2.83-4H9c-.086 0-.17.01-.25.031A2 2 0 0 1 7 10.5H4a2 2 0 1 1 0-4h1.535c.218-.376.495-.714.82-1z"></path><path d="M9 5.5a3 3 0 0 0-2.83 4h1.098A2 2 0 0 1 9 6.5h3a2 2 0 1 1 0 4h-1.535a4.02 4.02 0 0 1-.82 1H12a3 3 0 1 0 0-6H9z"></path></svg></g></g><image  id="v-516"></image></g></g><g   id="j_52"  transform="translate(274,1399)" style=""><g  id="v-643" style="opacity: 1;"><rect  id="v-644" rx="20" ry="20" stroke="#3c7fc0" stroke-width="2" pointer-events="visiblePainted" fill="#438dd5" width="450" height="300" style="fill: rgb(67, 141, 213); stroke: rgb(60, 127, 192);"></rect><text  id="v-645" font-size="34" xml:space="preserve" y="0.8em" font-weight="bold" text-anchor="middle" pointer-events="visible" font-family="Open Sans" fill="#ffffff" transform="matrix(1,0,0,1,225,61.9)" style="fill: rgb(255, 255, 255);"><tspan dy="0" >Backend-приложение</tspan><tspan dy="1.2em" x="0" >KALK.PRO</tspan></text><text  id="v-646" font-size="17" xml:space="preserve" y="0.8em" text-anchor="middle" font-family="Open Sans" fill="#ffffff" transform="matrix(1,0,0,1,225,146.9)" style="fill: rgb(255, 255, 255);"><tspan dy="0" >[Container: php 7.3.33, UMI.CMS]</tspan></text><text  id="v-647" font-size="24" xml:space="preserve" y="0.8em" text-anchor="middle" font-family="Open Sans" fill="#ffffff" transform="matrix(1,0,0,1,225,178.1)" style="fill: rgb(255, 255, 255);"><tspan dy="0" >Основная бизнес-логика сайта +</tspan><tspan dy="1.2em" x="0" >регламентные задания</tspan></text><g  id="v-648" color="#ffffff" transform="matrix(1,0,0,1,210,248.1)" display="none" style="fill: rgb(255, 255, 255);"><g ></g><g ></g><g ></g><g  transform="translate(5 0)"><svg xmlns="http://www.w3.org/2000/svg" width="20" height="20" fill="currentColor" viewBox="0 0 16 16"><path d="M6.354 5.5H4a3 3 0 0 0 0 6h3a3 3 0 0 0 2.83-4H9c-.086 0-.17.01-.25.031A2 2 0 0 1 7 10.5H4a2 2 0 1 1 0-4h1.535c.218-.376.495-.714.82-1z"></path><path d="M9 5.5a3 3 0 0 0-2.83 4h1.098A2 2 0 0 1 9 6.5h3a2 2 0 1 1 0 4h-1.535a4.02 4.02 0 0 1-.82 1H12a3 3 0 1 0 0-6H9z"></path></svg></g></g><image  id="v-649"></image></g></g><g   id="j_54" ><path  stroke="#707070" d="M 1474 1579 L 4626 1998 C 4632.666666666666 1998.6666666666665 4639 2000.333333333333 4645 2003 L 4786 2059" id="v-676" stroke-width="2" stroke-dasharray="30 30" fill="none" style="opacity: 1;"></path><path  fill="black" stroke="black" d="M 0 0 0 0" transform="matrix(0.9912889888636252,0.13170474766587345,-0.13170474766587345,0.9912889888636252,1474,1578.8900146484375)"></path><path  fill="#707070" stroke="#707070" d="M 20 0 L 0 10 L 20 20 z" id="v-678" transform="matrix(-0.9284767079069659,-0.37139063379983417,0.37139063379983417,-0.9284767079069659,4782.286192772322,2068.284806229568)" style="opacity: 1;"></path><path  d="M 1474 1579 L 4626 1998 C 4632.666666666666 1998.6666666666665 4639 2000.333333333333 4645 2003 L 4786 2059" id="v-677" fill="none" style="cursor: auto; pointer-events: visiblepainted;"></path><g ><g id="v-667"  label-idx="0" cursor="move" transform="matrix(1,0,0,1,3134.97216796875,1799.7955322265625)" style="cursor: default; opacity: 1;"><rect joint-selector="rect" id="v-671" fill="#ffffff" rx="3" ry="3" pointer-events="none" width="190.6670379638672" height="89.99857330322266" transform="matrix(1,0,0,1,-95.3,-45)"></rect><text joint-selector="text" id="v-670" font-size="24px" xml:space="preserve" y="0.8em" fill="#707070" text-anchor="middle" pointer-events="none" font-family="Open Sans" font-weight="normal" transform="matrix(1,0,0,1,0,-38.7)"><tspan dy="0" >Получение</tspan><tspan dy="1.2em" x="0" >расчетов по</tspan><tspan dy="1.2em" x="0" >металлопрокату</tspan></text></g><g id="v-668"  label-idx="1" cursor="move" transform="matrix(1,0,0,1,3134.97216796875,1856.7955322265625)" style="cursor: default; opacity: 1;"><rect joint-selector="rect" id="v-673" fill="#ffffff" rx="3" ry="3" pointer-events="none" width="65.84575653076172" height="23.14183807373047" transform="matrix(1,0,0,1,-32.9,-11.6)"></rect><text joint-selector="text" id="v-672" font-size="17px" xml:space="preserve" y="0.8em" fill="#707070" text-anchor="middle" pointer-events="none" font-family="Open Sans" font-weight="normal" transform="matrix(1,0,0,1,0,-6.7)"><tspan dy="0" >[iFrame]</tspan></text></g><g id="v-669"  label-idx="2" cursor="move" transform="matrix(1,0,0,1,3124.97216796875,1866.0455322265625)" style="cursor: default; opacity: 1;"><rect joint-selector="rect" id="v-675" fill="#ffffff" rx="3" ry="3"  width="0" height="0" transform="matrix(1,0,0,1,0,0)" display="none"></rect><text joint-selector="text" id="v-674" fill="#000000" font-size="14" text-anchor="middle" pointer-events="none"></text></g></g><g  display="none" style="display: none;"><g  transform="translate(4636, 1999)" id="v-938"><circle  idx="0" r="10"></circle><path  idx="0" d="M16,5.333c-7.732,0-14,4.701-14,10.5c0,1.982,0.741,3.833,2.016,5.414L2,25.667l5.613-1.441c2.339,1.317,5.237,2.107,8.387,2.107c7.732,0,14-4.701,14-10.5C30,10.034,23.732,5.333,16,5.333z" transform="translate(5, -33)"></path><path  idx="0" transform="scale(.8) translate(9.5, -37)" d="M24.778,21.419 19.276,15.917 24.777,10.415 21.949,7.585 16.447,13.087 10.945,7.585 8.117,10.415 13.618,15.917 8.116,21.419 10.946,24.248 16.447,18.746 21.948,24.248z"><title>Remove vertex.</title></path></g></g><g  id="v-680" display="none"><g  id="v-665"><path  end="source" d="M 26 0 L 0 13 L 26 26 z"></path></g><g  id="v-666"><path  end="target" d="M 26 0 L 0 13 L 26 26 z"></path></g></g><g  id="v-679" display="none"><g  id="v-663" transform="translate(1513.6512003967282, 1584.2708924385245) "><g  event="remove"><circle r="11"></circle><path transform="scale(.8) translate(-16, -16)" d="M24.778,21.419 19.276,15.917 24.777,10.415 21.949,7.585 16.447,13.087 10.945,7.585 8.117,10.415 13.618,15.917 8.116,21.419 10.946,24.248 16.447,18.746 21.948,24.248z"></path><title>Remove link.</title></g><g  event="link:options"><circle r="11" transform="translate(25)"></circle><path fill="white" transform="scale(.55) translate(29, -16)" d="M31.229,17.736c0.064-0.571,0.104-1.148,0.104-1.736s-0.04-1.166-0.104-1.737l-4.377-1.557c-0.218-0.716-0.504-1.401-0.851-2.05l1.993-4.192c-0.725-0.91-1.549-1.734-2.458-2.459l-4.193,1.994c-0.647-0.347-1.334-0.632-2.049-0.849l-1.558-4.378C17.165,0.708,16.588,0.667,16,0.667s-1.166,0.041-1.737,0.105L12.707,5.15c-0.716,0.217-1.401,0.502-2.05,0.849L6.464,4.005C5.554,4.73,4.73,5.554,4.005,6.464l1.994,4.192c-0.347,0.648-0.632,1.334-0.849,2.05l-4.378,1.557C0.708,14.834,0.667,15.412,0.667,16s0.041,1.165,0.105,1.736l4.378,1.558c0.217,0.715,0.502,1.401,0.849,2.049l-1.994,4.193c0.725,0.909,1.549,1.733,2.459,2.458l4.192-1.993c0.648,0.347,1.334,0.633,2.05,0.851l1.557,4.377c0.571,0.064,1.148,0.104,1.737,0.104c0.588,0,1.165-0.04,1.736-0.104l1.558-4.377c0.715-0.218,1.399-0.504,2.049-0.851l4.193,1.993c0.909-0.725,1.733-1.549,2.458-2.458l-1.993-4.193c0.347-0.647,0.633-1.334,0.851-2.049L31.229,17.736zM16,20.871c-2.69,0-4.872-2.182-4.872-4.871c0-2.69,2.182-4.872,4.872-4.872c2.689,0,4.871,2.182,4.871,4.872C20.871,18.689,18.689,20.871,16,20.871z"></path><title>Link options.</title></g></g></g></g><g   id="j_55" ><path  stroke="#707070" d="M 1474 1573 L 5376 1998 C 5382.666666666666 1998.6666666666665 5386 2002.333333333333 5386 2009 L 5386 2393 C 5386 2399.6666666666665 5383 2404.333333333333 5377 2407 L 4824 2650" id="v-698" stroke-width="2" stroke-dasharray="30 30" fill="none" style="opacity: 1;"></path><path  fill="black" stroke="black" d="M 0 0 0 0" transform="matrix(0.9941359256792507,0.10813769589675519,-0.10813769589675519,0.9941359256792507,1474,1573.469970703125)"></path><path  fill="#707070" stroke="#707070" d="M 20 0 L 0 10 L 20 20 z" id="v-700" transform="matrix(0.9154349971780996,-0.40246585686432146,0.40246585686432146,0.9154349971780996,4819.975288334575,2640.9257285187373)" style="opacity: 1;"></path><path  d="M 1474 1573 L 5376 1998 C 5382.666666666666 1998.6666666666665 5386 2002.333333333333 5386 2009 L 5386 2393 C 5386 2399.6666666666665 5383 2404.333333333333 5377 2407 L 4824 2650" id="v-699" fill="none" style="cursor: auto; pointer-events: visiblepainted;"></path><g ><g id="v-689"  label-idx="0" cursor="move" transform="matrix(1,0,0,1,3933.2333984375,1840.85595703125)" style="cursor: default; opacity: 1;"><rect joint-selector="rect" id="v-693" fill="#ffffff" rx="3" ry="3" pointer-events="none" width="170.38177490234375" height="118.79857635498047" transform="matrix(1,0,0,1,-85.2,-59.4)"></rect><text joint-selector="text" id="v-692" font-size="24px" xml:space="preserve" y="0.8em" fill="#707070" text-anchor="middle" pointer-events="none" font-family="Open Sans" font-weight="normal" transform="matrix(1,0,0,1,0,-53.1)"><tspan dy="0" >Подбор</tspan><tspan dy="1.2em" x="0" >оптимальных</tspan><tspan dy="1.2em" x="0" >конфигураций</tspan><tspan dy="1.2em" x="0" >лестниц</tspan></text></g><g id="v-690"  label-idx="1" cursor="move" transform="matrix(1,0,0,1,3933.2333984375,1912.85595703125)" style="cursor: default; opacity: 1;"><rect joint-selector="rect" id="v-695" fill="#ffffff" rx="3" ry="3" pointer-events="none" width="52.57535934448242" height="23.14183807373047" transform="matrix(1,0,0,1,-26.3,-11.6)"></rect><text joint-selector="text" id="v-694" font-size="17px" xml:space="preserve" y="0.8em" fill="#707070" text-anchor="middle" pointer-events="none" font-family="Open Sans" font-weight="normal" transform="matrix(1,0,0,1,0,-6.7)"><tspan dy="0" >[HTTP]</tspan></text></g><g id="v-691"  label-idx="2" cursor="move" transform="matrix(1,0,0,1,3923.2333984375,1922.10595703125)" style="cursor: default; opacity: 1;"><rect joint-selector="rect" id="v-697" fill="#ffffff" rx="3" ry="3"  width="0" height="0" transform="matrix(1,0,0,1,0,0)" display="none"></rect><text joint-selector="text" id="v-696" fill="#000000" font-size="14" text-anchor="middle" pointer-events="none"></text></g></g><g  display="none" style="display: none;"><g  transform="translate(5386, 1999)" id="v-939"><circle  idx="0" r="10"></circle><path  idx="0" d="M16,5.333c-7.732,0-14,4.701-14,10.5c0,1.982,0.741,3.833,2.016,5.414L2,25.667l5.613-1.441c2.339,1.317,5.237,2.107,8.387,2.107c7.732,0,14-4.701,14-10.5C30,10.034,23.732,5.333,16,5.333z" transform="translate(5, -33)"></path><path  idx="0" transform="scale(.8) translate(9.5, -37)" d="M24.778,21.419 19.276,15.917 24.777,10.415 21.949,7.585 16.447,13.087 10.945,7.585 8.117,10.415 13.618,15.917 8.116,21.419 10.946,24.248 16.447,18.746 21.948,24.248z"><title>Remove vertex.</title></path></g><g  transform="translate(5386, 2403)" id="v-940"><circle  idx="1" r="10"></circle><path  idx="1" d="M16,5.333c-7.732,0-14,4.701-14,10.5c0,1.982,0.741,3.833,2.016,5.414L2,25.667l5.613-1.441c2.339,1.317,5.237,2.107,8.387,2.107c7.732,0,14-4.701,14-10.5C30,10.034,23.732,5.333,16,5.333z" transform="translate(5, -33)"></path><path  idx="1" transform="scale(.8) translate(9.5, -37)" d="M24.778,21.419 19.276,15.917 24.777,10.415 21.949,7.585 16.447,13.087 10.945,7.585 8.117,10.415 13.618,15.917 8.116,21.419 10.946,24.248 16.447,18.746 21.948,24.248z"><title>Remove vertex.</title></path></g></g><g  id="v-702" display="none"><g  id="v-687"><path  end="source" d="M 26 0 L 0 13 L 26 26 z"></path></g><g  id="v-688"><path  end="target" d="M 26 0 L 0 13 L 26 26 z"></path></g></g><g  id="v-701" display="none"><g  id="v-684" transform="translate(1513.7648255841864, 1577.3311252878727) "><g  event="remove"><circle r="11"></circle><path transform="scale(.8) translate(-16, -16)" d="M24.778,21.419 19.276,15.917 24.777,10.415 21.949,7.585 16.447,13.087 10.945,7.585 8.117,10.415 13.618,15.917 8.116,21.419 10.946,24.248 16.447,18.746 21.948,24.248z"></path><title>Remove link.</title></g><g  event="link:options"><circle r="11" transform="translate(25)"></circle><path fill="white" transform="scale(.55) translate(29, -16)" d="M31.229,17.736c0.064-0.571,0.104-1.148,0.104-1.736s-0.04-1.166-0.104-1.737l-4.377-1.557c-0.218-0.716-0.504-1.401-0.851-2.05l1.993-4.192c-0.725-0.91-1.549-1.734-2.458-2.459l-4.193,1.994c-0.647-0.347-1.334-0.632-2.049-0.849l-1.558-4.378C17.165,0.708,16.588,0.667,16,0.667s-1.166,0.041-1.737,0.105L12.707,5.15c-0.716,0.217-1.401,0.502-2.05,0.849L6.464,4.005C5.554,4.73,4.73,5.554,4.005,6.464l1.994,4.192c-0.347,0.648-0.632,1.334-0.849,2.05l-4.378,1.557C0.708,14.834,0.667,15.412,0.667,16s0.041,1.165,0.105,1.736l4.378,1.558c0.217,0.715,0.502,1.401,0.849,2.049l-1.994,4.193c0.725,0.909,1.549,1.733,2.459,2.458l4.192-1.993c0.648,0.347,1.334,0.633,2.05,0.851l1.557,4.377c0.571,0.064,1.148,0.104,1.737,0.104c0.588,0,1.165-0.04,1.736-0.104l1.558-4.377c0.715-0.218,1.399-0.504,2.049-0.851l4.193,1.993c0.909-0.725,1.733-1.549,2.458-2.458l-1.993-4.193c0.347-0.647,0.633-1.334,0.851-2.049L31.229,17.736zM16,20.871c-2.69,0-4.872-2.182-4.872-4.871c0-2.69,2.182-4.872,4.872-4.872c2.689,0,4.871,2.182,4.871,4.872C20.871,18.689,18.689,20.871,16,20.871z"></path><title>Link options.</title></g></g></g></g><g   id="j_56" ><path  stroke="#707070" d="M 486 1699 L 459 1999" id="v-712" stroke-width="2" stroke-dasharray="30 30" fill="none" style="opacity: 1;"></path><path  fill="black" stroke="black" d="M 0 0 0 0" transform="matrix(-0.08963764165531642,0.9959744440488786,-0.9959744440488786,-0.08963764165531642,485.5,1699)"></path><path  fill="#707070" stroke="#707070" d="M 20 0 L 0 10 L 20 20 z" id="v-714" transform="matrix(0.08963764165531674,-0.9959744440488786,0.9959744440488786,0.08963764165531674,448.5402414476454,1998.1036512270607)" style="opacity: 1;"></path><path  d="M 486 1699 L 459 1999" id="v-713" fill="none" style="cursor: auto; pointer-events: visiblepainted;"></path><g ><g id="v-706"  label-idx="0" cursor="move" transform="matrix(1,0,0,1,472.5,1849)" style="cursor: default; opacity: 1;"><rect joint-selector="rect" id="v-709" fill="#ffffff" rx="3" ry="3" pointer-events="none" width="0" height="0" transform="matrix(1,0,0,1,0,0)"></rect><text joint-selector="text" id="v-708" font-size="24px" xml:space="preserve" display="none" y="0.8em" fill="#707070" text-anchor="middle" pointer-events="none" font-family="Open Sans" font-weight="normal"><tspan dy="0" style="fill-opacity: 0; stroke-opacity: 0;" >-</tspan></text></g><g id="v-707"  label-idx="1" cursor="move" transform="matrix(1,0,0,1,462.5,1861)" style="cursor: default; opacity: 1;"><rect joint-selector="rect" id="v-711" fill="#ffffff" rx="3" ry="3"  width="0" height="0" transform="matrix(1,0,0,1,0,0)" display="none"></rect><text joint-selector="text" id="v-710" fill="#000000" font-size="14" text-anchor="middle" pointer-events="none"></text></g></g><g  display="none" style="display: none;"></g><g  id="v-716" display="none"><g  id="v-704"><path  end="source" d="M 26 0 L 0 13 L 26 26 z"></path></g><g  id="v-705"><path  end="target" d="M 26 0 L 0 13 L 26 26 z"></path></g></g><g  id="v-715" display="none"><g  id="v-703" transform="translate(482.41449202016435, 1738.8389775537291) "><g  event="remove"><circle r="11"></circle><path transform="scale(.8) translate(-16, -16)" d="M24.778,21.419 19.276,15.917 24.777,10.415 21.949,7.585 16.447,13.087 10.945,7.585 8.117,10.415 13.618,15.917 8.116,21.419 10.946,24.248 16.447,18.746 21.948,24.248z"></path><title>Remove link.</title></g><g  event="link:options"><circle r="11" transform="translate(25)"></circle><path fill="white" transform="scale(.55) translate(29, -16)" d="M31.229,17.736c0.064-0.571,0.104-1.148,0.104-1.736s-0.04-1.166-0.104-1.737l-4.377-1.557c-0.218-0.716-0.504-1.401-0.851-2.05l1.993-4.192c-0.725-0.91-1.549-1.734-2.458-2.459l-4.193,1.994c-0.647-0.347-1.334-0.632-2.049-0.849l-1.558-4.378C17.165,0.708,16.588,0.667,16,0.667s-1.166,0.041-1.737,0.105L12.707,5.15c-0.716,0.217-1.401,0.502-2.05,0.849L6.464,4.005C5.554,4.73,4.73,5.554,4.005,6.464l1.994,4.192c-0.347,0.648-0.632,1.334-0.849,2.05l-4.378,1.557C0.708,14.834,0.667,15.412,0.667,16s0.041,1.165,0.105,1.736l4.378,1.558c0.217,0.715,0.502,1.401,0.849,2.049l-1.994,4.193c0.725,0.909,1.549,1.733,2.459,2.458l4.192-1.993c0.648,0.347,1.334,0.633,2.05,0.851l1.557,4.377c0.571,0.064,1.148,0.104,1.737,0.104c0.588,0,1.165-0.04,1.736-0.104l1.558-4.377c0.715-0.218,1.399-0.504,2.049-0.851l4.193,1.993c0.909-0.725,1.733-1.549,2.458-2.458l-1.993-4.193c0.347-0.647,0.633-1.334,0.851-2.049L31.229,17.736zM16,20.871c-2.69,0-4.872-2.182-4.872-4.871c0-2.69,2.182-4.872,4.872-4.872c2.689,0,4.871,2.182,4.871,4.872C20.871,18.689,18.689,20.871,16,20.871z"></path><title>Link options.</title></g></g></g></g><g   id="j_57" ><path  stroke="#707070" d="M 1474 1638 L 2536 2060" id="v-732" stroke-width="2" stroke-dasharray="30 30" fill="none" style="opacity: 1;"></path><path  fill="black" stroke="black" d="M 0 0 0 0" transform="matrix(0.9294932848957409,0.3688390344496156,-0.3688390344496156,0.9294932848957409,1474,1638.2900390625)"></path><path  fill="#707070" stroke="#707070" d="M 20 0 L 0 10 L 20 20 z" id="v-734" transform="matrix(-0.9294932357818444,-0.36883915821912994,0.36883915821912994,-0.9294932357818444,2532.3116189006273,2069.005052455635)" style="opacity: 1;"></path><path  d="M 1474 1638 L 2536 2060" id="v-733" fill="none" style="cursor: auto; pointer-events: visiblepainted;"></path><g ><g id="v-723"  label-idx="0" cursor="move" transform="matrix(1,0,0,1,2005,1849)" style="cursor: default; opacity: 1;"><rect joint-selector="rect" id="v-727" fill="#ffffff" rx="3" ry="3" pointer-events="none" width="162.1736602783203" height="118.79857635498047" transform="matrix(1,0,0,1,-81.1,-59.4)"></rect><text joint-selector="text" id="v-726" font-size="24px" xml:space="preserve" y="0.8em" fill="#707070" text-anchor="middle" pointer-events="none" font-family="Open Sans" font-weight="normal" transform="matrix(1,0,0,1,0,-53.1)"><tspan dy="0" >Получение</tspan><tspan dy="1.2em" x="0" >статическийх</tspan><tspan dy="1.2em" x="0" >файлов</tspan><tspan dy="1.2em" x="0" >пользователя</tspan></text></g><g id="v-724"  label-idx="1" cursor="move" transform="matrix(1,0,0,1,2005,1921)" style="cursor: default; opacity: 1;"><rect joint-selector="rect" id="v-729" fill="#ffffff" rx="3" ry="3" pointer-events="none" width="52.57535934448242" height="23.14183807373047" transform="matrix(1,0,0,1,-26.3,-11.6)"></rect><text joint-selector="text" id="v-728" font-size="17px" xml:space="preserve" y="0.8em" fill="#707070" text-anchor="middle" pointer-events="none" font-family="Open Sans" font-weight="normal" transform="matrix(1,0,0,1,0,-6.7)"><tspan dy="0" >[HTTP]</tspan></text></g><g id="v-725"  label-idx="2" cursor="move" transform="matrix(1,0,0,1,1995,1930.25)" style="cursor: default; opacity: 1;"><rect joint-selector="rect" id="v-731" fill="#ffffff" rx="3" ry="3"  width="0" height="0" transform="matrix(1,0,0,1,0,0)" display="none"></rect><text joint-selector="text" id="v-730" fill="#000000" font-size="14" text-anchor="middle" pointer-events="none"></text></g></g><g  display="none" style="display: none;"></g><g  id="v-736" display="none"><g  id="v-721"><path  end="source" d="M 26 0 L 0 13 L 26 26 z"></path></g><g  id="v-722"><path  end="target" d="M 26 0 L 0 13 L 26 26 z"></path></g></g><g  id="v-735" display="none"><g  id="v-720" transform="translate(1511.1727671508486, 1652.7710995646498) "><g  event="remove"><circle r="11"></circle><path transform="scale(.8) translate(-16, -16)" d="M24.778,21.419 19.276,15.917 24.777,10.415 21.949,7.585 16.447,13.087 10.945,7.585 8.117,10.415 13.618,15.917 8.116,21.419 10.946,24.248 16.447,18.746 21.948,24.248z"></path><title>Remove link.</title></g><g  event="link:options"><circle r="11" transform="translate(25)"></circle><path fill="white" transform="scale(.55) translate(29, -16)" d="M31.229,17.736c0.064-0.571,0.104-1.148,0.104-1.736s-0.04-1.166-0.104-1.737l-4.377-1.557c-0.218-0.716-0.504-1.401-0.851-2.05l1.993-4.192c-0.725-0.91-1.549-1.734-2.458-2.459l-4.193,1.994c-0.647-0.347-1.334-0.632-2.049-0.849l-1.558-4.378C17.165,0.708,16.588,0.667,16,0.667s-1.166,0.041-1.737,0.105L12.707,5.15c-0.716,0.217-1.401,0.502-2.05,0.849L6.464,4.005C5.554,4.73,4.73,5.554,4.005,6.464l1.994,4.192c-0.347,0.648-0.632,1.334-0.849,2.05l-4.378,1.557C0.708,14.834,0.667,15.412,0.667,16s0.041,1.165,0.105,1.736l4.378,1.558c0.217,0.715,0.502,1.401,0.849,2.049l-1.994,4.193c0.725,0.909,1.549,1.733,2.459,2.458l4.192-1.993c0.648,0.347,1.334,0.633,2.05,0.851l1.557,4.377c0.571,0.064,1.148,0.104,1.737,0.104c0.588,0,1.165-0.04,1.736-0.104l1.558-4.377c0.715-0.218,1.399-0.504,2.049-0.851l4.193,1.993c0.909-0.725,1.733-1.549,2.458-2.458l-1.993-4.193c0.347-0.647,0.633-1.334,0.851-2.049L31.229,17.736zM16,20.871c-2.69,0-4.872-2.182-4.872-4.871c0-2.69,2.182-4.872,4.872-4.872c2.689,0,4.871,2.182,4.871,4.872C20.871,18.689,18.689,20.871,16,20.871z"></path><title>Link options.</title></g></g></g></g><g   id="j_58" ><path  stroke="#707070" d="M 673 1699 L 1021 1999" id="v-752" stroke-width="2" stroke-dasharray="30 30" fill="none" style="opacity: 1;"></path><path  fill="black" stroke="black" d="M 0 0 0 0" transform="matrix(0.7574099408120305,0.6529396461841754,-0.6529396461841754,0.7574099408120305,673,1699)"></path><path  fill="#707070" stroke="#707070" d="M 20 0 L 0 10 L 20 20 z" id="v-754" transform="matrix(-0.7574098973399422,-0.6529396966117912,0.6529396966117912,-0.7574098973399422,1014.470605327594,2006.574076994205)" style="opacity: 1;"></path><path  d="M 673 1699 L 1021 1999" id="v-753" fill="none" style="cursor: auto; pointer-events: visiblepainted;"></path><g ><g id="v-743"  label-idx="0" cursor="move" transform="matrix(1,0,0,1,847,1849)" style="cursor: default; opacity: 1;"><rect joint-selector="rect" id="v-747" fill="#ffffff" rx="3" ry="3" pointer-events="none" width="158.6662139892578" height="89.99857330322266" transform="matrix(1,0,0,1,-79.3,-45)"></rect><text joint-selector="text" id="v-746" font-size="24px" xml:space="preserve" y="0.8em" fill="#707070" text-anchor="middle" pointer-events="none" font-family="Open Sans" font-weight="normal" transform="matrix(1,0,0,1,0,-38.7)"><tspan dy="0" >Хранилище</tspan><tspan dy="1.2em" x="0" >статических</tspan><tspan dy="1.2em" x="0" >файлов сайта</tspan></text></g><g id="v-744"  label-idx="1" cursor="move" transform="matrix(1,0,0,1,847,1906)" style="cursor: default; opacity: 1;"><rect joint-selector="rect" id="v-749" fill="#ffffff" rx="3" ry="3" pointer-events="none" width="29.216569900512695" height="23.14183807373047" transform="matrix(1,0,0,1,-14.6,-11.6)"></rect><text joint-selector="text" id="v-748" font-size="17px" xml:space="preserve" y="0.8em" fill="#707070" text-anchor="middle" pointer-events="none" font-family="Open Sans" font-weight="normal" transform="matrix(1,0,0,1,0,-6.7)"><tspan dy="0" >[FS]</tspan></text></g><g id="v-745"  label-idx="2" cursor="move" transform="matrix(1,0,0,1,837,1915.25)" style="cursor: default; opacity: 1;"><rect joint-selector="rect" id="v-751" fill="#ffffff" rx="3" ry="3"  width="0" height="0" transform="matrix(1,0,0,1,0,0)" display="none"></rect><text joint-selector="text" id="v-750" fill="#000000" font-size="14" text-anchor="middle" pointer-events="none"></text></g></g><g  display="none" style="display: none;"></g><g  id="v-756" display="none"><g  id="v-741"><path  end="source" d="M 26 0 L 0 13 L 26 26 z"></path></g><g  id="v-742"><path  end="target" d="M 26 0 L 0 13 L 26 26 z"></path></g></g><g  id="v-755" display="none"><g  id="v-740" transform="translate(703.2963984640231, 1725.1175848827784) "><g  event="remove"><circle r="11"></circle><path transform="scale(.8) translate(-16, -16)" d="M24.778,21.419 19.276,15.917 24.777,10.415 21.949,7.585 16.447,13.087 10.945,7.585 8.117,10.415 13.618,15.917 8.116,21.419 10.946,24.248 16.447,18.746 21.948,24.248z"></path><title>Remove link.</title></g><g  event="link:options"><circle r="11" transform="translate(25)"></circle><path fill="white" transform="scale(.55) translate(29, -16)" d="M31.229,17.736c0.064-0.571,0.104-1.148,0.104-1.736s-0.04-1.166-0.104-1.737l-4.377-1.557c-0.218-0.716-0.504-1.401-0.851-2.05l1.993-4.192c-0.725-0.91-1.549-1.734-2.458-2.459l-4.193,1.994c-0.647-0.347-1.334-0.632-2.049-0.849l-1.558-4.378C17.165,0.708,16.588,0.667,16,0.667s-1.166,0.041-1.737,0.105L12.707,5.15c-0.716,0.217-1.401,0.502-2.05,0.849L6.464,4.005C5.554,4.73,4.73,5.554,4.005,6.464l1.994,4.192c-0.347,0.648-0.632,1.334-0.849,2.05l-4.378,1.557C0.708,14.834,0.667,15.412,0.667,16s0.041,1.165,0.105,1.736l4.378,1.558c0.217,0.715,0.502,1.401,0.849,2.049l-1.994,4.193c0.725,0.909,1.549,1.733,2.459,2.458l4.192-1.993c0.648,0.347,1.334,0.633,2.05,0.851l1.557,4.377c0.571,0.064,1.148,0.104,1.737,0.104c0.588,0,1.165-0.04,1.736-0.104l1.558-4.377c0.715-0.218,1.399-0.504,2.049-0.851l4.193,1.993c0.909-0.725,1.733-1.549,2.458-2.458l-1.993-4.193c0.347-0.647,0.633-1.334,0.851-2.049L31.229,17.736zM16,20.871c-2.69,0-4.872-2.182-4.872-4.871c0-2.69,2.182-4.872,4.872-4.872c2.689,0,4.871,2.182,4.871,4.872C20.871,18.689,18.689,20.871,16,20.871z"></path><title>Link options.</title></g></g></g></g><g   id="j_59" ><path  stroke="#707070" d="M 968 1099 L 1155 1399" id="v-772" stroke-width="2" stroke-dasharray="30 30" fill="none" style="opacity: 1;"></path><path  fill="black" stroke="black" d="M 0 0 0 0" transform="matrix(0.5299989300833599,0.8479983102049753,-0.8479983102049753,0.5299989300833599,967.75,1099)"></path><path  fill="#707070" stroke="#707070" d="M 20 0 L 0 10 L 20 20 z" id="v-774" transform="matrix(-0.5299989865422613,-0.8479982749181602,0.8479982749181602,-0.5299989865422613,1146.769958288116,1404.2999921458543)" style="opacity: 1;"></path><path  d="M 968 1099 L 1155 1399" id="v-773" fill="none" style="cursor: auto; pointer-events: visiblepainted;"></path><g ><g id="v-763"  label-idx="0" cursor="move" transform="matrix(1,0,0,1,1061.5,1249)" style="cursor: default; opacity: 1;"><rect joint-selector="rect" id="v-767" fill="#ffffff" rx="3" ry="3" pointer-events="none" width="178.26446533203125" height="32.3985710144043" transform="matrix(1,0,0,1,-89.1,-16.2)"></rect><text joint-selector="text" id="v-766" font-size="24px" xml:space="preserve" y="0.8em" fill="#707070" text-anchor="middle" pointer-events="none" font-family="Open Sans" font-weight="normal" transform="matrix(1,0,0,1,0,-9.9)"><tspan dy="0" >UI приложения</tspan></text></g><g id="v-764"  label-idx="1" cursor="move" transform="matrix(1,0,0,1,1061.5,1276)" style="cursor: default; opacity: 1;"><rect joint-selector="rect" id="v-769" fill="#ffffff" rx="3" ry="3" pointer-events="none" width="61.904415130615234" height="23.14183807373047" transform="matrix(1,0,0,1,-31,-11.6)"></rect><text joint-selector="text" id="v-768" font-size="17px" xml:space="preserve" y="0.8em" fill="#707070" text-anchor="middle" pointer-events="none" font-family="Open Sans" font-weight="normal" transform="matrix(1,0,0,1,0,-6.7)"><tspan dy="0" >[HTTPS]</tspan></text></g><g id="v-765"  label-idx="2" cursor="move" transform="matrix(1,0,0,1,1051.5,1285.25)" style="cursor: default; opacity: 1;"><rect joint-selector="rect" id="v-771" fill="#ffffff" rx="3" ry="3"  width="0" height="0" transform="matrix(1,0,0,1,0,0)" display="none"></rect><text joint-selector="text" id="v-770" fill="#000000" font-size="14" text-anchor="middle" pointer-events="none"></text></g></g><g  display="none" style="display: none;"></g><g  id="v-776" display="none"><g  id="v-761"><path  end="source" d="M 26 0 L 0 13 L 26 26 z"></path></g><g  id="v-762"><path  end="target" d="M 26 0 L 0 13 L 26 26 z"></path></g></g><g  id="v-775" display="none"><g  id="v-760" transform="translate(989.1592588038857, 1132.9453349794958) "><g  event="remove"><circle r="11"></circle><path transform="scale(.8) translate(-16, -16)" d="M24.778,21.419 19.276,15.917 24.777,10.415 21.949,7.585 16.447,13.087 10.945,7.585 8.117,10.415 13.618,15.917 8.116,21.419 10.946,24.248 16.447,18.746 21.948,24.248z"></path><title>Remove link.</title></g><g  event="link:options"><circle r="11" transform="translate(25)"></circle><path fill="white" transform="scale(.55) translate(29, -16)" d="M31.229,17.736c0.064-0.571,0.104-1.148,0.104-1.736s-0.04-1.166-0.104-1.737l-4.377-1.557c-0.218-0.716-0.504-1.401-0.851-2.05l1.993-4.192c-0.725-0.91-1.549-1.734-2.458-2.459l-4.193,1.994c-0.647-0.347-1.334-0.632-2.049-0.849l-1.558-4.378C17.165,0.708,16.588,0.667,16,0.667s-1.166,0.041-1.737,0.105L12.707,5.15c-0.716,0.217-1.401,0.502-2.05,0.849L6.464,4.005C5.554,4.73,4.73,5.554,4.005,6.464l1.994,4.192c-0.347,0.648-0.632,1.334-0.849,2.05l-4.378,1.557C0.708,14.834,0.667,15.412,0.667,16s0.041,1.165,0.105,1.736l4.378,1.558c0.217,0.715,0.502,1.401,0.849,2.049l-1.994,4.193c0.725,0.909,1.549,1.733,2.459,2.458l4.192-1.993c0.648,0.347,1.334,0.633,2.05,0.851l1.557,4.377c0.571,0.064,1.148,0.104,1.737,0.104c0.588,0,1.165-0.04,1.736-0.104l1.558-4.377c0.715-0.218,1.399-0.504,2.049-0.851l4.193,1.993c0.909-0.725,1.733-1.549,2.458-2.458l-1.993-4.193c0.347-0.647,0.633-1.334,0.851-2.049L31.229,17.736zM16,20.871c-2.69,0-4.872-2.182-4.872-4.871c0-2.69,2.182-4.872,4.872-4.872c2.689,0,4.871,2.182,4.871,4.872C20.871,18.689,18.689,20.871,16,20.871z"></path><title>Link options.</title></g></g></g></g><g   id="j_60" ><path  stroke="#707070" d="M 720 1699 L 866 1797 C 871.3333333333333 1801 877.3333333333333 1803.3333333333333 884 1804 L 2376 1998 C 2382.6666666666665 1998.6666666666665 2389 2000.333333333333 2395 2003 L 2536 2059" id="v-794" stroke-width="2" stroke-dasharray="30 30" fill="none" style="opacity: 1;"></path><path  fill="black" stroke="black" d="M 0 0 0 0" transform="matrix(0.827946149706889,0.5608076079954136,-0.5608076079954136,0.827946149706889,720.4600219726562,1699)"></path><path  fill="#707070" stroke="#707070" d="M 20 0 L 0 10 L 20 20 z" id="v-796" transform="matrix(-0.9284767079069659,-0.37139063379983417,0.37139063379983417,-0.9284767079069659,2532.286192772321,2068.284806229568)" style="opacity: 1;"></path><path  d="M 720 1699 L 866 1797 C 871.3333333333333 1801 877.3333333333333 1803.3333333333333 884 1804 L 2376 1998 C 2382.6666666666665 1998.6666666666665 2389 2000.333333333333 2395 2003 L 2536 2059" id="v-795" fill="none" style="cursor: auto; pointer-events: visiblepainted;"></path><g ><g id="v-785"  label-idx="0" cursor="move" transform="matrix(1,0,0,1,1618.120849609375,1899.4554443359375)" style="cursor: default; opacity: 1;"><rect joint-selector="rect" id="v-789" fill="#ffffff" rx="3" ry="3" pointer-events="none" width="162.1736602783203" height="147.59857940673828" transform="matrix(1,0,0,1,-81.1,-73.8)"></rect><text joint-selector="text" id="v-788" font-size="24px" xml:space="preserve" y="0.8em" fill="#707070" text-anchor="middle" pointer-events="none" font-family="Open Sans" font-weight="normal" transform="matrix(1,0,0,1,0,-67.5)"><tspan dy="0" >Безопасное</tspan><tspan dy="1.2em" x="0" >сохранение</tspan><tspan dy="1.2em" x="0" >статических</tspan><tspan dy="1.2em" x="0" >файлов</tspan><tspan dy="1.2em" x="0" >пользователя</tspan></text></g><g id="v-786"  label-idx="1" cursor="move" transform="matrix(1,0,0,1,1618.120849609375,1986.4554443359375)" style="cursor: default; opacity: 1;"><rect joint-selector="rect" id="v-791" fill="#ffffff" rx="3" ry="3" pointer-events="none" width="52.57535934448242" height="23.14183807373047" transform="matrix(1,0,0,1,-26.3,-11.6)"></rect><text joint-selector="text" id="v-790" font-size="17px" xml:space="preserve" y="0.8em" fill="#707070" text-anchor="middle" pointer-events="none" font-family="Open Sans" font-weight="normal" transform="matrix(1,0,0,1,0,-6.7)"><tspan dy="0" >[HTTP]</tspan></text></g><g id="v-787"  label-idx="2" cursor="move" transform="matrix(1,0,0,1,1608.120849609375,1995.7054443359375)" style="cursor: default; opacity: 1;"><rect joint-selector="rect" id="v-793" fill="#ffffff" rx="3" ry="3"  width="0" height="0" transform="matrix(1,0,0,1,0,0)" display="none"></rect><text joint-selector="text" id="v-792" fill="#000000" font-size="14" text-anchor="middle" pointer-events="none"></text></g></g><g  display="none" style="display: none;"><g  transform="translate(874, 1803)" id="v-941"><circle  idx="0" r="10"></circle><path  idx="0" d="M16,5.333c-7.732,0-14,4.701-14,10.5c0,1.982,0.741,3.833,2.016,5.414L2,25.667l5.613-1.441c2.339,1.317,5.237,2.107,8.387,2.107c7.732,0,14-4.701,14-10.5C30,10.034,23.732,5.333,16,5.333z" transform="translate(5, -33)"></path><path  idx="0" transform="scale(.8) translate(9.5, -37)" d="M24.778,21.419 19.276,15.917 24.777,10.415 21.949,7.585 16.447,13.087 10.945,7.585 8.117,10.415 13.618,15.917 8.116,21.419 10.946,24.248 16.447,18.746 21.948,24.248z"><title>Remove vertex.</title></path></g><g  transform="translate(2386, 1999)" id="v-942"><circle  idx="1" r="10"></circle><path  idx="1" d="M16,5.333c-7.732,0-14,4.701-14,10.5c0,1.982,0.741,3.833,2.016,5.414L2,25.667l5.613-1.441c2.339,1.317,5.237,2.107,8.387,2.107c7.732,0,14-4.701,14-10.5C30,10.034,23.732,5.333,16,5.333z" transform="translate(5, -33)"></path><path  idx="1" transform="scale(.8) translate(9.5, -37)" d="M24.778,21.419 19.276,15.917 24.777,10.415 21.949,7.585 16.447,13.087 10.945,7.585 8.117,10.415 13.618,15.917 8.116,21.419 10.946,24.248 16.447,18.746 21.948,24.248z"><title>Remove vertex.</title></path></g></g><g  id="v-798" display="none"><g  id="v-783"><path  end="source" d="M 26 0 L 0 13 L 26 26 z"></path></g><g  id="v-784"><path  end="target" d="M 26 0 L 0 13 L 26 26 z"></path></g></g><g  id="v-797" display="none"><g  id="v-780" transform="translate(753.2118528071271, 1721.2928875006744) "><g  event="remove"><circle r="11"></circle><path transform="scale(.8) translate(-16, -16)" d="M24.778,21.419 19.276,15.917 24.777,10.415 21.949,7.585 16.447,13.087 10.945,7.585 8.117,10.415 13.618,15.917 8.116,21.419 10.946,24.248 16.447,18.746 21.948,24.248z"></path><title>Remove link.</title></g><g  event="link:options"><circle r="11" transform="translate(25)"></circle><path fill="white" transform="scale(.55) translate(29, -16)" d="M31.229,17.736c0.064-0.571,0.104-1.148,0.104-1.736s-0.04-1.166-0.104-1.737l-4.377-1.557c-0.218-0.716-0.504-1.401-0.851-2.05l1.993-4.192c-0.725-0.91-1.549-1.734-2.458-2.459l-4.193,1.994c-0.647-0.347-1.334-0.632-2.049-0.849l-1.558-4.378C17.165,0.708,16.588,0.667,16,0.667s-1.166,0.041-1.737,0.105L12.707,5.15c-0.716,0.217-1.401,0.502-2.05,0.849L6.464,4.005C5.554,4.73,4.73,5.554,4.005,6.464l1.994,4.192c-0.347,0.648-0.632,1.334-0.849,2.05l-4.378,1.557C0.708,14.834,0.667,15.412,0.667,16s0.041,1.165,0.105,1.736l4.378,1.558c0.217,0.715,0.502,1.401,0.849,2.049l-1.994,4.193c0.725,0.909,1.549,1.733,2.459,2.458l4.192-1.993c0.648,0.347,1.334,0.633,2.05,0.851l1.557,4.377c0.571,0.064,1.148,0.104,1.737,0.104c0.588,0,1.165-0.04,1.736-0.104l1.558-4.377c0.715-0.218,1.399-0.504,2.049-0.851l4.193,1.993c0.909-0.725,1.733-1.549,2.458-2.458l-1.993-4.193c0.347-0.647,0.633-1.334,0.851-2.049L31.229,17.736zM16,20.871c-2.69,0-4.872-2.182-4.872-4.871c0-2.69,2.182-4.872,4.872-4.872c2.689,0,4.871,2.182,4.871,4.872C20.871,18.689,18.689,20.871,16,20.871z"></path><title>Link options.</title></g></g></g></g><g   id="j_61" ><path  stroke="#707070" d="M 858 599 L 867 799" id="v-814" stroke-width="2" stroke-dasharray="30 30" fill="none" style="opacity: 1;"></path><path  fill="black" stroke="black" d="M 0 0 0 0" transform="matrix(0.045403133823646066,0.998968745977066,-0.998968745977066,0.045403133823646066,858.0900268554688,599)"></path><path  fill="#707070" stroke="#707070" d="M 20 0 L 0 10 L 20 20 z" id="v-816" transform="matrix(-0.04540300080291054,-0.9989687520228502,0.9989687520228502,-0.04540300080291054,857.190294636238,799.4540324696638)" style="opacity: 1;"></path><path  d="M 858 599 L 867 799" id="v-815" fill="none" style="cursor: auto; pointer-events: visiblepainted;"></path><g ><g id="v-805"  label-idx="0" cursor="move" transform="matrix(1,0,0,1,862.5,699)" style="cursor: default; opacity: 1;"><rect joint-selector="rect" id="v-809" fill="#ffffff" rx="3" ry="3" pointer-events="none" width="165.17486572265625" height="32.3985710144043" transform="matrix(1,0,0,1,-82.6,-16.2)"></rect><text joint-selector="text" id="v-808" font-size="24px" xml:space="preserve" y="0.8em" fill="#707070" text-anchor="middle" pointer-events="none" font-family="Open Sans" font-weight="normal" transform="matrix(1,0,0,1,0,-9.9)"><tspan dy="0" >HTTP-запросы</tspan></text></g><g id="v-806"  label-idx="1" cursor="move" transform="matrix(1,0,0,1,862.5,726)" style="cursor: default; opacity: 1;"><rect joint-selector="rect" id="v-811" fill="#ffffff" rx="3" ry="3" pointer-events="none" width="139.4295654296875" height="23.14183807373047" transform="matrix(1,0,0,1,-69.7,-11.6)"></rect><text joint-selector="text" id="v-810" font-size="17px" xml:space="preserve" y="0.8em" fill="#707070" text-anchor="middle" pointer-events="none" font-family="Open Sans" font-weight="normal" transform="matrix(1,0,0,1,0,-6.7)"><tspan dy="0" >[HTTPS, REST API]</tspan></text></g><g id="v-807"  label-idx="2" cursor="move" transform="matrix(1,0,0,1,852.5,735.25)" style="cursor: default; opacity: 1;"><rect joint-selector="rect" id="v-813" fill="#ffffff" rx="3" ry="3"  width="0" height="0" transform="matrix(1,0,0,1,0,0)" display="none"></rect><text joint-selector="text" id="v-812" fill="#000000" font-size="14" text-anchor="middle" pointer-events="none"></text></g></g><g  display="none" style="display: none;"></g><g  id="v-818" display="none"><g  id="v-803"><path  end="source" d="M 26 0 L 0 13 L 26 26 z"></path></g><g  id="v-804"><path  end="target" d="M 26 0 L 0 13 L 26 26 z"></path></g></g><g  id="v-817" display="none"><g  id="v-802" transform="translate(859.7981802632593, 638.9595614057614) "><g  event="remove"><circle r="11"></circle><path transform="scale(.8) translate(-16, -16)" d="M24.778,21.419 19.276,15.917 24.777,10.415 21.949,7.585 16.447,13.087 10.945,7.585 8.117,10.415 13.618,15.917 8.116,21.419 10.946,24.248 16.447,18.746 21.948,24.248z"></path><title>Remove link.</title></g><g  event="link:options"><circle r="11" transform="translate(25)"></circle><path fill="white" transform="scale(.55) translate(29, -16)" d="M31.229,17.736c0.064-0.571,0.104-1.148,0.104-1.736s-0.04-1.166-0.104-1.737l-4.377-1.557c-0.218-0.716-0.504-1.401-0.851-2.05l1.993-4.192c-0.725-0.91-1.549-1.734-2.458-2.459l-4.193,1.994c-0.647-0.347-1.334-0.632-2.049-0.849l-1.558-4.378C17.165,0.708,16.588,0.667,16,0.667s-1.166,0.041-1.737,0.105L12.707,5.15c-0.716,0.217-1.401,0.502-2.05,0.849L6.464,4.005C5.554,4.73,4.73,5.554,4.005,6.464l1.994,4.192c-0.347,0.648-0.632,1.334-0.849,2.05l-4.378,1.557C0.708,14.834,0.667,15.412,0.667,16s0.041,1.165,0.105,1.736l4.378,1.558c0.217,0.715,0.502,1.401,0.849,2.049l-1.994,4.193c0.725,0.909,1.549,1.733,2.459,2.458l4.192-1.993c0.648,0.347,1.334,0.633,2.05,0.851l1.557,4.377c0.571,0.064,1.148,0.104,1.737,0.104c0.588,0,1.165-0.04,1.736-0.104l1.558-4.377c0.715-0.218,1.399-0.504,2.049-0.851l4.193,1.993c0.909-0.725,1.733-1.549,2.458-2.458l-1.993-4.193c0.347-0.647,0.633-1.334,0.851-2.049L31.229,17.736zM16,20.871c-2.69,0-4.872-2.182-4.872-4.871c0-2.69,2.182-4.872,4.872-4.872c2.689,0,4.871,2.182,4.871,4.872C20.871,18.689,18.689,20.871,16,20.871z"></path><title>Link options.</title></g></g></g></g><g   id="j_62" ><path  stroke="#707070" d="M 3732 2299 L 3878 2397 C 3883.333333333333 2401 3889 2404.333333333333 3895 2407 L 4374 2640" id="v-835" stroke-width="2" stroke-dasharray="30 30" fill="none" style="opacity: 1;"></path><path  fill="black" stroke="black" d="M 0 0 0 0" transform="matrix(0.827946149706889,0.5608076079954136,-0.5608076079954136,0.827946149706889,3732.4599609375,2299)"></path><path  fill="#707070" stroke="#707070" d="M 20 0 L 0 10 L 20 20 z" id="v-837" transform="matrix(-0.899666447380202,-0.436577923695514,0.436577923695514,-0.899666447380202,4369.634303205597,2648.8067796482574)" style="opacity: 1;"></path><path  d="M 3732 2299 L 3878 2397 C 3883.333333333333 2401 3889 2404.333333333333 3895 2407 L 4374 2640" id="v-836" fill="none" style="cursor: auto; pointer-events: visiblepainted;"></path><g ><g id="v-826"  label-idx="0" cursor="move" transform="matrix(1,0,0,1,4046.55126953125,2480.71923828125)" style="cursor: default; opacity: 1;"><rect joint-selector="rect" id="v-830" fill="#ffffff" rx="3" ry="3" pointer-events="none" width="170.38177490234375" height="118.79857635498047" transform="matrix(1,0,0,1,-85.2,-59.4)"></rect><text joint-selector="text" id="v-829" font-size="24px" xml:space="preserve" y="0.8em" fill="#707070" text-anchor="middle" pointer-events="none" font-family="Open Sans" font-weight="normal" transform="matrix(1,0,0,1,0,-53.1)"><tspan dy="0" >Получение</tspan><tspan dy="1.2em" x="0" >оптимальных</tspan><tspan dy="1.2em" x="0" >конфигураций</tspan><tspan dy="1.2em" x="0" >лестниц</tspan></text></g><g id="v-827"  label-idx="1" cursor="move" transform="matrix(1,0,0,1,4046.55126953125,2552.71923828125)" style="cursor: default; opacity: 1;"><rect joint-selector="rect" id="v-832" fill="#ffffff" rx="3" ry="3" pointer-events="none" width="52.57535934448242" height="23.14183807373047" transform="matrix(1,0,0,1,-26.3,-11.6)"></rect><text joint-selector="text" id="v-831" font-size="17px" xml:space="preserve" y="0.8em" fill="#707070" text-anchor="middle" pointer-events="none" font-family="Open Sans" font-weight="normal" transform="matrix(1,0,0,1,0,-6.7)"><tspan dy="0" >[HTTP]</tspan></text></g><g id="v-828"  label-idx="2" cursor="move" transform="matrix(1,0,0,1,4036.55126953125,2561.96923828125)" style="cursor: default; opacity: 1;"><rect joint-selector="rect" id="v-834" fill="#ffffff" rx="3" ry="3"  width="0" height="0" transform="matrix(1,0,0,1,0,0)" display="none"></rect><text joint-selector="text" id="v-833" fill="#000000" font-size="14" text-anchor="middle" pointer-events="none"></text></g></g><g  display="none" style="display: none;"><g  transform="translate(3886, 2403)" id="v-943"><circle  idx="0" r="10"></circle><path  idx="0" d="M16,5.333c-7.732,0-14,4.701-14,10.5c0,1.982,0.741,3.833,2.016,5.414L2,25.667l5.613-1.441c2.339,1.317,5.237,2.107,8.387,2.107c7.732,0,14-4.701,14-10.5C30,10.034,23.732,5.333,16,5.333z" transform="translate(5, -33)"></path><path  idx="0" transform="scale(.8) translate(9.5, -37)" d="M24.778,21.419 19.276,15.917 24.777,10.415 21.949,7.585 16.447,13.087 10.945,7.585 8.117,10.415 13.618,15.917 8.116,21.419 10.946,24.248 16.447,18.746 21.948,24.248z"><title>Remove vertex.</title></path></g></g><g  id="v-839" display="none"><g  id="v-824"><path  end="source" d="M 26 0 L 0 13 L 26 26 z"></path></g><g  id="v-825"><path  end="target" d="M 26 0 L 0 13 L 26 26 z"></path></g></g><g  id="v-838" display="none"><g  id="v-822" transform="translate(3765.2118528071273, 2321.292887500674) "><g  event="remove"><circle r="11"></circle><path transform="scale(.8) translate(-16, -16)" d="M24.778,21.419 19.276,15.917 24.777,10.415 21.949,7.585 16.447,13.087 10.945,7.585 8.117,10.415 13.618,15.917 8.116,21.419 10.946,24.248 16.447,18.746 21.948,24.248z"></path><title>Remove link.</title></g><g  event="link:options"><circle r="11" transform="translate(25)"></circle><path fill="white" transform="scale(.55) translate(29, -16)" d="M31.229,17.736c0.064-0.571,0.104-1.148,0.104-1.736s-0.04-1.166-0.104-1.737l-4.377-1.557c-0.218-0.716-0.504-1.401-0.851-2.05l1.993-4.192c-0.725-0.91-1.549-1.734-2.458-2.459l-4.193,1.994c-0.647-0.347-1.334-0.632-2.049-0.849l-1.558-4.378C17.165,0.708,16.588,0.667,16,0.667s-1.166,0.041-1.737,0.105L12.707,5.15c-0.716,0.217-1.401,0.502-2.05,0.849L6.464,4.005C5.554,4.73,4.73,5.554,4.005,6.464l1.994,4.192c-0.347,0.648-0.632,1.334-0.849,2.05l-4.378,1.557C0.708,14.834,0.667,15.412,0.667,16s0.041,1.165,0.105,1.736l4.378,1.558c0.217,0.715,0.502,1.401,0.849,2.049l-1.994,4.193c0.725,0.909,1.549,1.733,2.459,2.458l4.192-1.993c0.648,0.347,1.334,0.633,2.05,0.851l1.557,4.377c0.571,0.064,1.148,0.104,1.737,0.104c0.588,0,1.165-0.04,1.736-0.104l1.558-4.377c0.715-0.218,1.399-0.504,2.049-0.851l4.193,1.993c0.909-0.725,1.733-1.549,2.458-2.458l-1.993-4.193c0.347-0.647,0.633-1.334,0.851-2.049L31.229,17.736zM16,20.871c-2.69,0-4.872-2.182-4.872-4.871c0-2.69,2.182-4.872,4.872-4.872c2.689,0,4.871,2.182,4.871,4.872C20.871,18.689,18.689,20.871,16,20.871z"></path><title>Link options.</title></g></g></g></g><g   id="j_63" ><path  stroke="#707070" d="M 720 1699 L 866 1797 C 871.3333333333333 1801 877.3333333333333 1804 884 1806 L 1786 2081" id="v-856" stroke-width="2" stroke-dasharray="30 30" fill="none" style="opacity: 1;"></path><path  fill="black" stroke="black" d="M 0 0 0 0" transform="matrix(0.827946149706889,0.5608076079954136,-0.5608076079954136,0.827946149706889,720.4600219726562,1699)"></path><path  fill="#707070" stroke="#707070" d="M 20 0 L 0 10 L 20 20 z" id="v-858" transform="matrix(-0.9566841537227414,-0.29112785853607653,0.29112785853607653,-0.9566841537227414,1783.0886684206166,2090.0967724663383)" style="opacity: 1;"></path><path  d="M 720 1699 L 866 1797 C 871.3333333333333 1801 877.3333333333333 1804 884 1806 L 1786 2081" id="v-857" fill="none" style="cursor: auto; pointer-events: visiblepainted;"></path><g ><g id="v-847"  label-idx="0" cursor="move" transform="matrix(1,0,0,1,1241.22900390625,1914.9112548828125)" style="cursor: default; opacity: 1;"><rect joint-selector="rect" id="v-851" fill="#ffffff" rx="3" ry="3" pointer-events="none" width="193.59593200683594" height="89.99857330322266" transform="matrix(1,0,0,1,-96.8,-45)"></rect><text joint-selector="text" id="v-850" font-size="24px" xml:space="preserve" y="0.8em" fill="#707070" text-anchor="middle" pointer-events="none" font-family="Open Sans" font-weight="normal" transform="matrix(1,0,0,1,0,-38.7)"><tspan dy="0" >Отправка</tspan><tspan dy="1.2em" x="0" >уведомлений по</tspan><tspan dy="1.2em" x="0" >email</tspan></text></g><g id="v-848"  label-idx="1" cursor="move" transform="matrix(1,0,0,1,1241.22900390625,1971.9112548828125)" style="cursor: default; opacity: 1;"><rect joint-selector="rect" id="v-853" fill="#ffffff" rx="3" ry="3" pointer-events="none" width="55.287296295166016" height="23.14183807373047" transform="matrix(1,0,0,1,-27.6,-11.6)"></rect><text joint-selector="text" id="v-852" font-size="17px" xml:space="preserve" y="0.8em" fill="#707070" text-anchor="middle" pointer-events="none" font-family="Open Sans" font-weight="normal" transform="matrix(1,0,0,1,0,-6.7)"><tspan dy="0" >[SMTP]</tspan></text></g><g id="v-849"  label-idx="2" cursor="move" transform="matrix(1,0,0,1,1231.22900390625,1981.1612548828125)" style="cursor: default; opacity: 1;"><rect joint-selector="rect" id="v-855" fill="#ffffff" rx="3" ry="3"  width="0" height="0" transform="matrix(1,0,0,1,0,0)" display="none"></rect><text joint-selector="text" id="v-854" fill="#000000" font-size="14" text-anchor="middle" pointer-events="none"></text></g></g><g  display="none" style="display: none;"><g  transform="translate(874, 1803)" id="v-944"><circle  idx="0" r="10"></circle><path  idx="0" d="M16,5.333c-7.732,0-14,4.701-14,10.5c0,1.982,0.741,3.833,2.016,5.414L2,25.667l5.613-1.441c2.339,1.317,5.237,2.107,8.387,2.107c7.732,0,14-4.701,14-10.5C30,10.034,23.732,5.333,16,5.333z" transform="translate(5, -33)"></path><path  idx="0" transform="scale(.8) translate(9.5, -37)" d="M24.778,21.419 19.276,15.917 24.777,10.415 21.949,7.585 16.447,13.087 10.945,7.585 8.117,10.415 13.618,15.917 8.116,21.419 10.946,24.248 16.447,18.746 21.948,24.248z"><title>Remove vertex.</title></path></g></g><g  id="v-860" display="none"><g  id="v-845"><path  end="source" d="M 26 0 L 0 13 L 26 26 z"></path></g><g  id="v-846"><path  end="target" d="M 26 0 L 0 13 L 26 26 z"></path></g></g><g  id="v-859" display="none"><g  id="v-843" transform="translate(753.2118528071271, 1721.2928875006744) "><g  event="remove"><circle r="11"></circle><path transform="scale(.8) translate(-16, -16)" d="M24.778,21.419 19.276,15.917 24.777,10.415 21.949,7.585 16.447,13.087 10.945,7.585 8.117,10.415 13.618,15.917 8.116,21.419 10.946,24.248 16.447,18.746 21.948,24.248z"></path><title>Remove link.</title></g><g  event="link:options"><circle r="11" transform="translate(25)"></circle><path fill="white" transform="scale(.55) translate(29, -16)" d="M31.229,17.736c0.064-0.571,0.104-1.148,0.104-1.736s-0.04-1.166-0.104-1.737l-4.377-1.557c-0.218-0.716-0.504-1.401-0.851-2.05l1.993-4.192c-0.725-0.91-1.549-1.734-2.458-2.459l-4.193,1.994c-0.647-0.347-1.334-0.632-2.049-0.849l-1.558-4.378C17.165,0.708,16.588,0.667,16,0.667s-1.166,0.041-1.737,0.105L12.707,5.15c-0.716,0.217-1.401,0.502-2.05,0.849L6.464,4.005C5.554,4.73,4.73,5.554,4.005,6.464l1.994,4.192c-0.347,0.648-0.632,1.334-0.849,2.05l-4.378,1.557C0.708,14.834,0.667,15.412,0.667,16s0.041,1.165,0.105,1.736l4.378,1.558c0.217,0.715,0.502,1.401,0.849,2.049l-1.994,4.193c0.725,0.909,1.549,1.733,2.459,2.458l4.192-1.993c0.648,0.347,1.334,0.633,2.05,0.851l1.557,4.377c0.571,0.064,1.148,0.104,1.737,0.104c0.588,0,1.165-0.04,1.736-0.104l1.558-4.377c0.715-0.218,1.399-0.504,2.049-0.851l4.193,1.993c0.909-0.725,1.733-1.549,2.458-2.458l-1.993-4.193c0.347-0.647,0.633-1.334,0.851-2.049L31.229,17.736zM16,20.871c-2.69,0-4.872-2.182-4.872-4.871c0-2.69,2.182-4.872,4.872-4.872c2.689,0,4.871,2.182,4.871,4.872C20.871,18.689,18.689,20.871,16,20.871z"></path><title>Link options.</title></g></g></g></g><g   id="j_64" ><path  stroke="#707070" d="M 780 1099 L 593 1399" id="v-876" stroke-width="2" stroke-dasharray="30 30" fill="none" style="opacity: 1;"></path><path  fill="black" stroke="black" d="M 0 0 0 0" transform="matrix(-0.5299989865422611,0.8479982749181604,-0.8479982749181604,-0.5299989865422611,780.25,1099)"></path><path  fill="#707070" stroke="#707070" d="M 20 0 L 0 10 L 20 20 z" id="v-878" transform="matrix(0.5299987607066414,-0.847998416065398,0.847998416065398,0.5299987607066414,584.2700160252483,1393.7000160848374)" style="opacity: 1;"></path><path  d="M 780 1099 L 593 1399" id="v-877" fill="none" style="cursor: auto; pointer-events: visiblepainted;"></path><g ><g id="v-867"  label-idx="0" cursor="move" transform="matrix(1,0,0,1,686.5,1249)" style="cursor: default; opacity: 1;"><rect joint-selector="rect" id="v-871" fill="#ffffff" rx="3" ry="3" pointer-events="none" width="166.0065155029297" height="61.198577880859375" transform="matrix(1,0,0,1,-83,-30.6)"></rect><text joint-selector="text" id="v-870" font-size="24px" xml:space="preserve" y="0.8em" fill="#707070" text-anchor="middle" pointer-events="none" font-family="Open Sans" font-weight="normal" transform="matrix(1,0,0,1,0,-24.3)"><tspan dy="0" >Получение</tspan><tspan dy="1.2em" x="0" >данных для UI</tspan></text></g><g id="v-868"  label-idx="1" cursor="move" transform="matrix(1,0,0,1,686.5,1291)" style="cursor: default; opacity: 1;"><rect joint-selector="rect" id="v-873" fill="#ffffff" rx="3" ry="3" pointer-events="none" width="79.83934020996094" height="23.14183807373047" transform="matrix(1,0,0,1,-39.9,-11.6)"></rect><text joint-selector="text" id="v-872" font-size="17px" xml:space="preserve" y="0.8em" fill="#707070" text-anchor="middle" pointer-events="none" font-family="Open Sans" font-weight="normal" transform="matrix(1,0,0,1,0,-6.7)"><tspan dy="0" >[REST API]</tspan></text></g><g id="v-869"  label-idx="2" cursor="move" transform="matrix(1,0,0,1,676.5,1300.25)" style="cursor: default; opacity: 1;"><rect joint-selector="rect" id="v-875" fill="#ffffff" rx="3" ry="3"  width="0" height="0" transform="matrix(1,0,0,1,0,0)" display="none"></rect><text joint-selector="text" id="v-874" fill="#000000" font-size="14" text-anchor="middle" pointer-events="none"></text></g></g><g  display="none" style="display: none;"></g><g  id="v-880" display="none"><g  id="v-865"><path  end="source" d="M 26 0 L 0 13 L 26 26 z"></path></g><g  id="v-866"><path  end="target" d="M 26 0 L 0 13 L 26 26 z"></path></g></g><g  id="v-879" display="none"><g  id="v-864" transform="translate(758.8407411961142, 1132.9453349794958) "><g  event="remove"><circle r="11"></circle><path transform="scale(.8) translate(-16, -16)" d="M24.778,21.419 19.276,15.917 24.777,10.415 21.949,7.585 16.447,13.087 10.945,7.585 8.117,10.415 13.618,15.917 8.116,21.419 10.946,24.248 16.447,18.746 21.948,24.248z"></path><title>Remove link.</title></g><g  event="link:options"><circle r="11" transform="translate(25)"></circle><path fill="white" transform="scale(.55) translate(29, -16)" d="M31.229,17.736c0.064-0.571,0.104-1.148,0.104-1.736s-0.04-1.166-0.104-1.737l-4.377-1.557c-0.218-0.716-0.504-1.401-0.851-2.05l1.993-4.192c-0.725-0.91-1.549-1.734-2.458-2.459l-4.193,1.994c-0.647-0.347-1.334-0.632-2.049-0.849l-1.558-4.378C17.165,0.708,16.588,0.667,16,0.667s-1.166,0.041-1.737,0.105L12.707,5.15c-0.716,0.217-1.401,0.502-2.05,0.849L6.464,4.005C5.554,4.73,4.73,5.554,4.005,6.464l1.994,4.192c-0.347,0.648-0.632,1.334-0.849,2.05l-4.378,1.557C0.708,14.834,0.667,15.412,0.667,16s0.041,1.165,0.105,1.736l4.378,1.558c0.217,0.715,0.502,1.401,0.849,2.049l-1.994,4.193c0.725,0.909,1.549,1.733,2.459,2.458l4.192-1.993c0.648,0.347,1.334,0.633,2.05,0.851l1.557,4.377c0.571,0.064,1.148,0.104,1.737,0.104c0.588,0,1.165-0.04,1.736-0.104l1.558-4.377c0.715-0.218,1.399-0.504,2.049-0.851l4.193,1.993c0.909-0.725,1.733-1.549,2.458-2.458l-1.993-4.193c0.347-0.647,0.633-1.334,0.851-2.049L31.229,17.736zM16,20.871c-2.69,0-4.872-2.182-4.872-4.871c0-2.69,2.182-4.872,4.872-4.872c2.689,0,4.871,2.182,4.871,4.872C20.871,18.689,18.689,20.871,16,20.871z"></path><title>Link options.</title></g></g></g></g><g   id="j_65" ><path  stroke="#707070" d="M 1474 1587 L 3876 1997 C 3882.6666666666665 1998.333333333333 3889 2000.333333333333 3895 2003 L 4036 2059" id="v-897" stroke-width="2" stroke-dasharray="30 30" fill="none" style="opacity: 1;"></path><path  fill="black" stroke="black" d="M 0 0 0 0" transform="matrix(0.9857503137272279,0.168215097380323,-0.168215097380323,0.9857503137272279,1474,1587.4000244140625)"></path><path  fill="#707070" stroke="#707070" d="M 20 0 L 0 10 L 20 20 z" id="v-899" transform="matrix(-0.9284767079069659,-0.37139063379983417,0.37139063379983417,-0.9284767079069659,4032.286192772321,2068.284806229568)" style="opacity: 1;"></path><path  d="M 1474 1587 L 3876 1997 C 3882.6666666666665 1998.333333333333 3889 2000.333333333333 3895 2003 L 4036 2059" id="v-898" fill="none" style="cursor: auto; pointer-events: visiblepainted;"></path><g ><g id="v-888"  label-idx="0" cursor="move" transform="matrix(1,0,0,1,2759.614501953125,1806.4429931640625)" style="cursor: default; opacity: 1;"><rect joint-selector="rect" id="v-892" fill="#ffffff" rx="3" ry="3" pointer-events="none" width="166.0065155029297" height="118.79857635498047" transform="matrix(1,0,0,1,-83,-59.4)"></rect><text joint-selector="text" id="v-891" font-size="24px" xml:space="preserve" y="0.8em" fill="#707070" text-anchor="middle" pointer-events="none" font-family="Open Sans" font-weight="normal" transform="matrix(1,0,0,1,0,-53.1)"><tspan dy="0" >Получение</tspan><tspan dy="1.2em" x="0" >типовых</tspan><tspan dy="1.2em" x="0" >строительных</tspan><tspan dy="1.2em" x="0" >расчетов</tspan></text></g><g id="v-889"  label-idx="1" cursor="move" transform="matrix(1,0,0,1,2759.614501953125,1878.4429931640625)" style="cursor: default; opacity: 1;"><rect joint-selector="rect" id="v-894" fill="#ffffff" rx="3" ry="3" pointer-events="none" width="124.42353057861328" height="23.14183807373047" transform="matrix(1,0,0,1,-62.2,-11.6)"></rect><text joint-selector="text" id="v-893" font-size="17px" xml:space="preserve" y="0.8em" fill="#707070" text-anchor="middle" pointer-events="none" font-family="Open Sans" font-weight="normal" transform="matrix(1,0,0,1,0,-6.7)"><tspan dy="0" >[WEB-SOCKETS]</tspan></text></g><g id="v-890"  label-idx="2" cursor="move" transform="matrix(1,0,0,1,2749.614501953125,1887.6929931640625)" style="cursor: default; opacity: 1;"><rect joint-selector="rect" id="v-896" fill="#ffffff" rx="3" ry="3"  width="0" height="0" transform="matrix(1,0,0,1,0,0)" display="none"></rect><text joint-selector="text" id="v-895" fill="#000000" font-size="14" text-anchor="middle" pointer-events="none"></text></g></g><g  display="none" style="display: none;"><g  transform="translate(3886, 1999)" id="v-945"><circle  idx="0" r="10"></circle><path  idx="0" d="M16,5.333c-7.732,0-14,4.701-14,10.5c0,1.982,0.741,3.833,2.016,5.414L2,25.667l5.613-1.441c2.339,1.317,5.237,2.107,8.387,2.107c7.732,0,14-4.701,14-10.5C30,10.034,23.732,5.333,16,5.333z" transform="translate(5, -33)"></path><path  idx="0" transform="scale(.8) translate(9.5, -37)" d="M24.778,21.419 19.276,15.917 24.777,10.415 21.949,7.585 16.447,13.087 10.945,7.585 8.117,10.415 13.618,15.917 8.116,21.419 10.946,24.248 16.447,18.746 21.948,24.248z"><title>Remove vertex.</title></path></g></g><g  id="v-901" display="none"><g  id="v-886"><path  end="source" d="M 26 0 L 0 13 L 26 26 z"></path></g><g  id="v-887"><path  end="target" d="M 26 0 L 0 13 L 26 26 z"></path></g></g><g  id="v-900" display="none"><g  id="v-884" transform="translate(1513.4297226720244, 1593.7303023711615) "><g  event="remove"><circle r="11"></circle><path transform="scale(.8) translate(-16, -16)" d="M24.778,21.419 19.276,15.917 24.777,10.415 21.949,7.585 16.447,13.087 10.945,7.585 8.117,10.415 13.618,15.917 8.116,21.419 10.946,24.248 16.447,18.746 21.948,24.248z"></path><title>Remove link.</title></g><g  event="link:options"><circle r="11" transform="translate(25)"></circle><path fill="white" transform="scale(.55) translate(29, -16)" d="M31.229,17.736c0.064-0.571,0.104-1.148,0.104-1.736s-0.04-1.166-0.104-1.737l-4.377-1.557c-0.218-0.716-0.504-1.401-0.851-2.05l1.993-4.192c-0.725-0.91-1.549-1.734-2.458-2.459l-4.193,1.994c-0.647-0.347-1.334-0.632-2.049-0.849l-1.558-4.378C17.165,0.708,16.588,0.667,16,0.667s-1.166,0.041-1.737,0.105L12.707,5.15c-0.716,0.217-1.401,0.502-2.05,0.849L6.464,4.005C5.554,4.73,4.73,5.554,4.005,6.464l1.994,4.192c-0.347,0.648-0.632,1.334-0.849,2.05l-4.378,1.557C0.708,14.834,0.667,15.412,0.667,16s0.041,1.165,0.105,1.736l4.378,1.558c0.217,0.715,0.502,1.401,0.849,2.049l-1.994,4.193c0.725,0.909,1.549,1.733,2.459,2.458l4.192-1.993c0.648,0.347,1.334,0.633,2.05,0.851l1.557,4.377c0.571,0.064,1.148,0.104,1.737,0.104c0.588,0,1.165-0.04,1.736-0.104l1.558-4.377c0.715-0.218,1.399-0.504,2.049-0.851l4.193,1.993c0.909-0.725,1.733-1.549,2.458-2.458l-1.993-4.193c0.347-0.647,0.633-1.334,0.851-2.049L31.229,17.736zM16,20.871c-2.69,0-4.872-2.182-4.872-4.871c0-2.69,2.182-4.872,4.872-4.872c2.689,0,4.871,2.182,4.871,4.872C20.871,18.689,18.689,20.871,16,20.871z"></path><title>Link options.</title></g></g></g></g><g   id="j_66" ><path  stroke="#707070" d="M 1474 1603 L 3126 1997 C 3132.6666666666665 1998.333333333333 3139 2000.333333333333 3145 2003 L 3286 2059" id="v-918" stroke-width="2" stroke-dasharray="30 30" fill="none" style="opacity: 1;"></path><path  fill="black" stroke="black" d="M 0 0 0 0" transform="matrix(0.9727236376062299,0.2319670770650519,-0.2319670770650519,0.9727236376062299,1474,1602.6600341796875)"></path><path  fill="#707070" stroke="#707070" d="M 20 0 L 0 10 L 20 20 z" id="v-920" transform="matrix(-0.9284767079069659,-0.37139063379983417,0.37139063379983417,-0.9284767079069659,3282.286192772321,2068.284806229568)" style="opacity: 1;"></path><path  d="M 1474 1603 L 3126 1997 C 3132.6666666666665 1998.333333333333 3139 2000.333333333333 3145 2003 L 3286 2059" id="v-919" fill="none" style="cursor: auto; pointer-events: visiblepainted;"></path><g ><g id="v-909"  label-idx="0" cursor="move" transform="matrix(1,0,0,1,2383.496337890625,1819.913818359375)" style="cursor: default; opacity: 1;"><rect joint-selector="rect" id="v-913" fill="#ffffff" rx="3" ry="3" pointer-events="none" width="168.24838256835938" height="89.99857330322266" transform="matrix(1,0,0,1,-84.1,-45)"></rect><text joint-selector="text" id="v-912" font-size="24px" xml:space="preserve" y="0.8em" fill="#707070" text-anchor="middle" pointer-events="none" font-family="Open Sans" font-weight="normal" transform="matrix(1,0,0,1,0,-38.7)"><tspan dy="0" >Получение</tspan><tspan dy="1.2em" x="0" >проектов 3D и</tspan><tspan dy="1.2em" x="0" >чертежей</tspan></text></g><g id="v-910"  label-idx="1" cursor="move" transform="matrix(1,0,0,1,2383.496337890625,1876.913818359375)" style="cursor: default; opacity: 1;"><rect joint-selector="rect" id="v-915" fill="#ffffff" rx="3" ry="3" pointer-events="none" width="124.42353057861328" height="23.14183807373047" transform="matrix(1,0,0,1,-62.2,-11.6)"></rect><text joint-selector="text" id="v-914" font-size="17px" xml:space="preserve" y="0.8em" fill="#707070" text-anchor="middle" pointer-events="none" font-family="Open Sans" font-weight="normal" transform="matrix(1,0,0,1,0,-6.7)"><tspan dy="0" >[WEB-SOCKETS]</tspan></text></g><g id="v-911"  label-idx="2" cursor="move" transform="matrix(1,0,0,1,2373.496337890625,1886.163818359375)" style="cursor: default; opacity: 1;"><rect joint-selector="rect" id="v-917" fill="#ffffff" rx="3" ry="3"  width="0" height="0" transform="matrix(1,0,0,1,0,0)" display="none"></rect><text joint-selector="text" id="v-916" fill="#000000" font-size="14" text-anchor="middle" pointer-events="none"></text></g></g><g  display="none" style="display: none;"><g  transform="translate(3136, 1999)" id="v-946"><circle  idx="0" r="10"></circle><path  idx="0" d="M16,5.333c-7.732,0-14,4.701-14,10.5c0,1.982,0.741,3.833,2.016,5.414L2,25.667l5.613-1.441c2.339,1.317,5.237,2.107,8.387,2.107c7.732,0,14-4.701,14-10.5C30,10.034,23.732,5.333,16,5.333z" transform="translate(5, -33)"></path><path  idx="0" transform="scale(.8) translate(9.5, -37)" d="M24.778,21.419 19.276,15.917 24.777,10.415 21.949,7.585 16.447,13.087 10.945,7.585 8.117,10.415 13.618,15.917 8.116,21.419 10.946,24.248 16.447,18.746 21.948,24.248z"><title>Remove vertex.</title></path></g></g><g  id="v-922" display="none"><g  id="v-907"><path  end="source" d="M 26 0 L 0 13 L 26 26 z"></path></g><g  id="v-908"><path  end="target" d="M 26 0 L 0 13 L 26 26 z"></path></g></g><g  id="v-921" display="none"><g  id="v-905" transform="translate(1512.9087078231114, 1612.2796797108388) "><g  event="remove"><circle r="11"></circle><path transform="scale(.8) translate(-16, -16)" d="M24.778,21.419 19.276,15.917 24.777,10.415 21.949,7.585 16.447,13.087 10.945,7.585 8.117,10.415 13.618,15.917 8.116,21.419 10.946,24.248 16.447,18.746 21.948,24.248z"></path><title>Remove link.</title></g><g  event="link:options"><circle r="11" transform="translate(25)"></circle><path fill="white" transform="scale(.55) translate(29, -16)" d="M31.229,17.736c0.064-0.571,0.104-1.148,0.104-1.736s-0.04-1.166-0.104-1.737l-4.377-1.557c-0.218-0.716-0.504-1.401-0.851-2.05l1.993-4.192c-0.725-0.91-1.549-1.734-2.458-2.459l-4.193,1.994c-0.647-0.347-1.334-0.632-2.049-0.849l-1.558-4.378C17.165,0.708,16.588,0.667,16,0.667s-1.166,0.041-1.737,0.105L12.707,5.15c-0.716,0.217-1.401,0.502-2.05,0.849L6.464,4.005C5.554,4.73,4.73,5.554,4.005,6.464l1.994,4.192c-0.347,0.648-0.632,1.334-0.849,2.05l-4.378,1.557C0.708,14.834,0.667,15.412,0.667,16s0.041,1.165,0.105,1.736l4.378,1.558c0.217,0.715,0.502,1.401,0.849,2.049l-1.994,4.193c0.725,0.909,1.549,1.733,2.459,2.458l4.192-1.993c0.648,0.347,1.334,0.633,2.05,0.851l1.557,4.377c0.571,0.064,1.148,0.104,1.737,0.104c0.588,0,1.165-0.04,1.736-0.104l1.558-4.377c0.715-0.218,1.399-0.504,2.049-0.851l4.193,1.993c0.909-0.725,1.733-1.549,2.458-2.458l-1.993-4.193c0.347-0.647,0.633-1.334,0.851-2.049L31.229,17.736zM16,20.871c-2.69,0-4.872-2.182-4.872-4.871c0-2.69,2.182-4.872,4.872-4.872c2.689,0,4.871,2.182,4.871,4.872C20.871,18.689,18.689,20.871,16,20.871z"></path><title>Link options.</title></g></g></g></g></g><g ></g><g ></g><g ></g></g></svg>