<svg xmlns="http://www.w3.org/2000/svg" xmlns:xlink="http://www.w3.org/1999/xlink" version="1.1" viewBox="0 0 2250 2122" style="background: #ffffff"><defs joint-selector="defs"></defs><g joint-selector="layers"  transform="matrix(1,0,0,1,0,0)"><g ></g><g ><g   id="j_105"  transform="translate(20,2077)"><g id="v-1329"><text  id="v-1330" font-size="22px" xml:space="preserve" y="0.8em" font-weight="normal" text-anchor="start" fill="#aaaaaa" pointer-events="none" font-family="Open Sans"><tspan dy="0" >Monday, January 20, 2025 at 8:05 PM Eastern European Standard Time</tspan></text></g></g><g   id="j_104"  transform="translate(20,2046)"><g id="v-1327"><text  id="v-1328" font-size="22px" xml:space="preserve" y="0.8em" font-weight="normal" text-anchor="start" fill="#aaaaaa" pointer-events="none" font-family="Open Sans"><tspan dy="0" >Сайт KALK.PRO - Схема развертывания в production окружении</tspan></text></g></g><g   id="j_103"  transform="translate(20,2002)"><g id="v-1325"><text  id="v-1326" font-size="36px" xml:space="preserve" y="0.8em" font-weight="normal" text-anchor="start" fill="#000000" pointer-events="none" font-family="Open Sans"><tspan dy="0" >[Deployment] Онлайн-сервис автоматизации строительных расчетов - Production</tspan></text></g></g><g   id="j_94"  transform="translate(485,200)" style=""><g  id="v-1215" style="opacity: 1;"><rect  id="v-1216" width="1280" height="1722" rx="10" ry="10" fill="#ffffff" stroke="#888888" stroke-width="1" pointer-events="none" style="stroke: rgb(136, 136, 136);"></rect><text  id="v-1217" font-size="24px" xml:space="preserve" y="1683" font-weight="normal" text-anchor="start" pointer-events="visible" font-family="Open Sans" fill="#000000" transform="matrix(1,0,0,1,15,0)" style="fill: rgb(0, 0, 0);"><tspan dy="0" >FirstVDS</tspan></text><text  id="v-1218" font-size="17px" xml:space="preserve" y="1707" font-weight="normal" text-anchor="start" pointer-events="visible" font-family="Open Sans" fill="#000000" transform="matrix(1,0,0,1,15,0)" style="fill: rgb(0, 0, 0);"><tspan dy="0" >[Deployment Node]</tspan></text><text  id="v-1219" font-size="40px" xml:space="preserve" display="none" y="1707" font-weight="normal" fill="#000000" text-anchor="end" pointer-events="visible" font-family="Open Sans" transform="matrix(1,0,0,1,1265,0)"><tspan dy="0" style="fill-opacity: 0; stroke-opacity: 0;" >-</tspan></text><image  id="v-1220" pointer-events="visible"></image></g></g><g   id="j_95"  transform="translate(505,220)" style=""><g  id="v-1221" style="opacity: 1;"><rect  id="v-1222" width="1240" height="1611" rx="10" ry="10" fill="#ffffff" stroke="#888888" stroke-width="1" pointer-events="none" style="stroke: rgb(136, 136, 136);"></rect><text  id="v-1223" font-size="24px" xml:space="preserve" y="1572" font-weight="normal" text-anchor="start" pointer-events="visible" font-family="Open Sans" fill="#000000" transform="matrix(1,0,0,1,15,0)" style="fill: rgb(0, 0, 0);"><tspan dy="0" >WEB-SERVER</tspan></text><text  id="v-1224" font-size="17px" xml:space="preserve" y="1596" font-weight="normal" text-anchor="start" pointer-events="visible" font-family="Open Sans" fill="#000000" transform="matrix(1,0,0,1,15,0)" style="fill: rgb(0, 0, 0);"><tspan dy="0" >[Deployment Node: VPS KVM]</tspan></text><text  id="v-1225" font-size="40px" xml:space="preserve" display="none" y="1596" font-weight="normal" fill="#000000" text-anchor="end" pointer-events="visible" font-family="Open Sans" transform="matrix(1,0,0,1,1225,0)"><tspan dy="0" style="fill-opacity: 0; stroke-opacity: 0;" >-</tspan></text><image  id="v-1226" pointer-events="visible"></image></g></g><g   id="j_90"  transform="translate(525,1440)" style=""><g  id="v-1171" style="opacity: 1;"><path  d="M 0,30 a 225,30 0,0,0 450 0 a 225,30 0,0,0 -450 0 l 0,240 a 225,30 0,0,0 450 0 l 0,-240" id="v-1172" stroke="#78a8d8" stroke-width="2" pointer-events="visiblePainted" fill="#85bbf0" style="fill: rgb(133, 187, 240); stroke: rgb(120, 168, 216);"></path><rect  id="v-1173" stroke-width="0" pointer-events="visiblePainted" fill="none" stroke="none" width="450" height="270" x="0" y="30"></rect><text  id="v-1174" font-size="34" xml:space="preserve" y="0.8em" font-weight="bold" text-anchor="middle" pointer-events="visible" font-family="Open Sans" fill="#ffffff" transform="matrix(1,0,0,1,225,128.1)" style="fill: rgb(255, 255, 255);"><tspan dy="0" >БД db_kalkpro</tspan></text><text  id="v-1175" font-size="17" xml:space="preserve" y="0.8em" text-anchor="middle" font-family="Open Sans" fill="#ffffff" transform="matrix(1,0,0,1,225,170.6)" style="fill: rgb(255, 255, 255);"><tspan dy="0" >[Container: MySQL]</tspan></text><text  id="v-1176" font-size="24" xml:space="preserve" y="0.8em" text-anchor="middle" font-family="Open Sans" fill="#ffffff" transform="matrix(1,0,0,1,225,201.9)" style="fill: rgb(255, 255, 255);"><tspan dy="0" >db: db_kalkpro (MariaDB 10.11.4)</tspan></text><g  id="v-1177" font-weight="normal" text-anchor="middle" color="#ffffff" transform="matrix(1,0,0,1,222.5,241.9)" display="none" style="fill: rgb(255, 255, 255);"><g ></g><g ></g><g ></g><g ></g></g><image  id="v-1178"></image></g></g><g   id="j_89"  transform="translate(900,240)" style=""><g  id="v-1161" style="opacity: 1;"><rect  id="v-1162" rx="20" ry="20" stroke="#3c7fc0" stroke-width="2" pointer-events="visiblePainted" fill="#438dd5" width="450" height="300" style="fill: rgb(67, 141, 213); stroke: rgb(60, 127, 192);"></rect><text  id="v-1163" font-size="34" xml:space="preserve" y="0.8em" font-weight="bold" text-anchor="middle" pointer-events="visible" font-family="Open Sans" fill="#ffffff" transform="matrix(1,0,0,1,225,83.1)" style="fill: rgb(255, 255, 255);"><tspan dy="0" >Веб-сервер</tspan></text><text  id="v-1164" font-size="17" xml:space="preserve" y="0.8em" text-anchor="middle" font-family="Open Sans" fill="#ffffff" transform="matrix(1,0,0,1,225,125.6)" style="fill: rgb(255, 255, 255);"><tspan dy="0" >[Container: nginx/1.22.1 + php-fpm]</tspan></text><text  id="v-1165" font-size="24" xml:space="preserve" y="0.8em" text-anchor="middle" font-family="Open Sans" fill="#ffffff" transform="matrix(1,0,0,1,225,156.9)" style="fill: rgb(255, 255, 255);"><tspan dy="0" >Веб-сервер (nginx/1.22.1 +</tspan><tspan dy="1.2em" x="0" >php-fpm)</tspan></text><g  id="v-1166" color="#ffffff" transform="matrix(1,0,0,1,210,226.9)" display="none" style="fill: rgb(255, 255, 255);"><g ></g><g ></g><g ></g><g  transform="translate(5 0)"><svg xmlns="http://www.w3.org/2000/svg" width="20" height="20" fill="currentColor" viewBox="0 0 16 16"><path d="M6.354 5.5H4a3 3 0 0 0 0 6h3a3 3 0 0 0 2.83-4H9c-.086 0-.17.01-.25.031A2 2 0 0 1 7 10.5H4a2 2 0 1 1 0-4h1.535c.218-.376.495-.714.82-1z"></path><path d="M9 5.5a3 3 0 0 0-2.83 4h1.098A2 2 0 0 1 9 6.5h3a2 2 0 1 1 0 4h-1.535a4.02 4.02 0 0 1-.82 1H12a3 3 0 1 0 0-6H9z"></path></svg></g></g><image  id="v-1167"></image></g></g><g   id="j_92"  transform="translate(1275,840)" style=""><g  id="v-1202" style="opacity: 1;"><rect  id="v-1203" rx="20" ry="20" stroke="#3c7fc0" stroke-width="2" pointer-events="visiblePainted" fill="#438dd5" width="450" height="300" style="fill: rgb(67, 141, 213); stroke: rgb(60, 127, 192);"></rect><text  id="v-1204" font-size="34" xml:space="preserve" y="0.8em" font-weight="bold" text-anchor="middle" pointer-events="visible" font-family="Open Sans" fill="#ffffff" transform="matrix(1,0,0,1,225,76.9)" style="fill: rgb(255, 255, 255);"><tspan dy="0" >Backend-приложение</tspan><tspan dy="1.2em" x="0" >KALK.PRO</tspan></text><text  id="v-1205" font-size="17" xml:space="preserve" y="0.8em" text-anchor="middle" font-family="Open Sans" fill="#ffffff" transform="matrix(1,0,0,1,225,161.9)" style="fill: rgb(255, 255, 255);"><tspan dy="0" >[Container: php 7.3.33, UMI.CMS]</tspan></text><text  id="v-1206" font-size="24" xml:space="preserve" y="0.8em" text-anchor="middle" font-family="Open Sans" fill="#ffffff" transform="matrix(1,0,0,1,225,193.1)" style="fill: rgb(255, 255, 255);"><tspan dy="0" >Бэкенд приложение (PHP 7.3.33)</tspan></text><g  id="v-1207" color="#ffffff" transform="matrix(1,0,0,1,210,233.1)" display="none" style="fill: rgb(255, 255, 255);"><g ></g><g ></g><g ></g><g  transform="translate(5 0)"><svg xmlns="http://www.w3.org/2000/svg" width="20" height="20" fill="currentColor" viewBox="0 0 16 16"><path d="M6.354 5.5H4a3 3 0 0 0 0 6h3a3 3 0 0 0 2.83-4H9c-.086 0-.17.01-.25.031A2 2 0 0 1 7 10.5H4a2 2 0 1 1 0-4h1.535c.218-.376.495-.714.82-1z"></path><path d="M9 5.5a3 3 0 0 0-2.83 4h1.098A2 2 0 0 1 9 6.5h3a2 2 0 1 1 0 4h-1.535a4.02 4.02 0 0 1-.82 1H12a3 3 0 1 0 0-6H9z"></path></svg></g></g><image  id="v-1208"></image></g></g><g   id="j_88"  transform="translate(525,840)" style=""><g  id="v-1148" style="opacity: 1;"><rect  id="v-1149" rx="20" ry="20" stroke="#3c7fc0" stroke-width="2" pointer-events="visiblePainted" fill="#438dd5" width="450" height="300" style="fill: rgb(67, 141, 213); stroke: rgb(60, 127, 192);"></rect><text  id="v-1150" font-size="34" xml:space="preserve" y="0.8em" font-weight="bold" text-anchor="middle" pointer-events="visible" font-family="Open Sans" fill="#ffffff" transform="matrix(1,0,0,1,225,61.9)" style="fill: rgb(255, 255, 255);"><tspan dy="0" >Набор фронтенд</tspan><tspan dy="1.2em" x="0" >приложений</tspan></text><text  id="v-1151" font-size="17" xml:space="preserve" y="0.8em" text-anchor="middle" font-family="Open Sans" fill="#ffffff" transform="matrix(1,0,0,1,225,146.9)" style="fill: rgb(255, 255, 255);"><tspan dy="0" >[Container: php 7.3.33, ReactJS]</tspan></text><text  id="v-1152" font-size="24" xml:space="preserve" y="0.8em" text-anchor="middle" font-family="Open Sans" fill="#ffffff" transform="matrix(1,0,0,1,225,178.1)" style="fill: rgb(255, 255, 255);"><tspan dy="0" >Фронтенд приложения (HTML,</tspan><tspan dy="1.2em" x="0" >ReactJS, PHP 7.3.33)</tspan></text><g  id="v-1153" color="#ffffff" transform="matrix(1,0,0,1,210,248.1)" display="none" style="fill: rgb(255, 255, 255);"><g ></g><g ></g><g ></g><g  transform="translate(5 0)"><svg xmlns="http://www.w3.org/2000/svg" width="20" height="20" fill="currentColor" viewBox="0 0 16 16"><path d="M6.354 5.5H4a3 3 0 0 0 0 6h3a3 3 0 0 0 2.83-4H9c-.086 0-.17.01-.25.031A2 2 0 0 1 7 10.5H4a2 2 0 1 1 0-4h1.535c.218-.376.495-.714.82-1z"></path><path d="M9 5.5a3 3 0 0 0-2.83 4h1.098A2 2 0 0 1 9 6.5h3a2 2 0 1 1 0 4h-1.535a4.02 4.02 0 0 1-.82 1H12a3 3 0 1 0 0-6H9z"></path></svg></g></g><image  id="v-1154"></image></g></g><g   id="j_91"  transform="translate(1275,1440)" style=""><g  id="v-1185" style="opacity: 1;"><rect  id="v-1186" rx="10" ry="10" stroke="#78a8d8" stroke-width="2" pointer-events="visiblePainted" fill="#85bbf0" x="10" y="0" width="150" height="75" style="fill: rgb(133, 187, 240); stroke: rgb(120, 168, 216);"></rect><rect  id="v-1187" rx="5" ry="5" stroke="#78a8d8" stroke-width="2" pointer-events="visiblePainted" fill="#85bbf0" x="0" y="37.5" width="450" height="262.5" style="fill: rgb(133, 187, 240); stroke: rgb(120, 168, 216);"></rect><text  id="v-1188" font-size="34" xml:space="preserve" y="0.8em" font-weight="bold" text-anchor="middle" pointer-events="visible" font-family="Open Sans" fill="#ffffff" transform="matrix(1,0,0,1,225,65.6)" style="fill: rgb(255, 255, 255);"><tspan dy="0" >Статические файлы для</tspan><tspan dy="1.2em" x="0" >сайта</tspan></text><text  id="v-1189" font-size="17" xml:space="preserve" y="0.8em" text-anchor="middle" font-family="Open Sans" fill="#ffffff" transform="matrix(1,0,0,1,225,150.6)" style="fill: rgb(255, 255, 255);"><tspan dy="0" >[Container]</tspan></text><text  id="v-1190" font-size="24" xml:space="preserve" y="0.8em" text-anchor="middle" font-family="Open Sans" fill="#ffffff" transform="matrix(1,0,0,1,225,181.9)" style="fill: rgb(255, 255, 255);"><tspan dy="0" >Файловая директория с правами</tspan><tspan dy="1.2em" x="0" >только на чтение, 20Gb (Debian</tspan><tspan dy="1.2em" x="0" >11, ext4)</tspan></text><g  id="v-1191" font-weight="normal" text-anchor="middle" color="#ffffff" transform="matrix(1,0,0,1,222.5,281.9)" display="none" style="fill: rgb(255, 255, 255);"><g ></g><g ></g><g ></g><g ></g></g><image  id="v-1192"></image></g></g><g   id="j_99" ><path  stroke="#707070" d="M 1500 1140 L 1500 1440" id="v-1260" stroke-width="2" stroke-dasharray="30 30" fill="none" style="opacity: 1;"></path><path  fill="black" stroke="black" d="M 0 0 0 0" transform="matrix(6.123233995736766e-17,1,-1,6.123233995736766e-17,1500,1140)"></path><path  fill="#707070" stroke="#707070" d="M 20 0 L 0 10 L 20 20 z" id="v-1262" transform="matrix(-1.8369701987210297e-16,-1,1,-1.8369701987210297e-16,1490,1440)" style="opacity: 1;"></path><path  d="M 1500 1140 L 1500 1440" id="v-1261" fill="none" style="cursor: auto; pointer-events: visiblepainted;"></path><g ><g id="v-1251"  label-idx="0" cursor="move" transform="matrix(1,0,0,1,1500,1290)" style="cursor: default; opacity: 1;"><rect joint-selector="rect" id="v-1255" fill="#ffffff" rx="3" ry="3" pointer-events="none" width="158.62115478515625" height="90.50681686401367" transform="matrix(1,0,0,1,-79.3,-45.2)"></rect><text joint-selector="text" id="v-1254" font-size="24px" xml:space="preserve" y="0.8em" fill="#707070" text-anchor="middle" pointer-events="none" font-family="Open Sans" font-weight="normal" transform="matrix(1,0,0,1,0,-38.1)"><tspan dy="0" >Хранилище</tspan><tspan dy="1.2em" x="0" >статических</tspan><tspan dy="1.2em" x="0" >файлов сайта</tspan></text></g><g id="v-1252"  label-idx="1" cursor="move" transform="matrix(1,0,0,1,1500,1347)" style="cursor: default; opacity: 1;"><rect joint-selector="rect" id="v-1257" fill="#ffffff" rx="3" ry="3" pointer-events="none" width="29.230510711669922" height="23.03477191925049" transform="matrix(1,0,0,1,-14.6,-11.5)"></rect><text joint-selector="text" id="v-1256" font-size="17px" xml:space="preserve" y="0.8em" fill="#707070" text-anchor="middle" pointer-events="none" font-family="Open Sans" font-weight="normal" transform="matrix(1,0,0,1,0,-7)"><tspan dy="0" >[FS]</tspan></text></g><g id="v-1253"  label-idx="2" cursor="move" transform="matrix(1,0,0,1,1490,1356.25)" style="cursor: default; opacity: 1;"><rect joint-selector="rect" id="v-1259" fill="#ffffff" rx="3" ry="3"  width="0" height="0" transform="matrix(1,0,0,1,0,0)" display="none"></rect><text joint-selector="text" id="v-1258" fill="#000000" font-size="14" text-anchor="middle" pointer-events="none"></text></g></g><g  display="none" style="display: none;"></g><g  id="v-1264" display="none"><g  id="v-1249"><path  end="source" d="M 26 0 L 0 13 L 26 26 z"></path></g><g  id="v-1250"><path  end="target" d="M 26 0 L 0 13 L 26 26 z"></path></g></g><g  id="v-1263" display="none"><g  id="v-1248" transform="translate(1500, 1180) "><g  event="remove"><circle r="11"></circle><path transform="scale(.8) translate(-16, -16)" d="M24.778,21.419 19.276,15.917 24.777,10.415 21.949,7.585 16.447,13.087 10.945,7.585 8.117,10.415 13.618,15.917 8.116,21.419 10.946,24.248 16.447,18.746 21.948,24.248z"></path><title>Remove link.</title></g><g  event="link:options"><circle r="11" transform="translate(25)"></circle><path fill="white" transform="scale(.55) translate(29, -16)" d="M31.229,17.736c0.064-0.571,0.104-1.148,0.104-1.736s-0.04-1.166-0.104-1.737l-4.377-1.557c-0.218-0.716-0.504-1.401-0.851-2.05l1.993-4.192c-0.725-0.91-1.549-1.734-2.458-2.459l-4.193,1.994c-0.647-0.347-1.334-0.632-2.049-0.849l-1.558-4.378C17.165,0.708,16.588,0.667,16,0.667s-1.166,0.041-1.737,0.105L12.707,5.15c-0.716,0.217-1.401,0.502-2.05,0.849L6.464,4.005C5.554,4.73,4.73,5.554,4.005,6.464l1.994,4.192c-0.347,0.648-0.632,1.334-0.849,2.05l-4.378,1.557C0.708,14.834,0.667,15.412,0.667,16s0.041,1.165,0.105,1.736l4.378,1.558c0.217,0.715,0.502,1.401,0.849,2.049l-1.994,4.193c0.725,0.909,1.549,1.733,2.459,2.458l4.192-1.993c0.648,0.347,1.334,0.633,2.05,0.851l1.557,4.377c0.571,0.064,1.148,0.104,1.737,0.104c0.588,0,1.165-0.04,1.736-0.104l1.558-4.377c0.715-0.218,1.399-0.504,2.049-0.851l4.193,1.993c0.909-0.725,1.733-1.549,2.458-2.458l-1.993-4.193c0.347-0.647,0.633-1.334,0.851-2.049L31.229,17.736zM16,20.871c-2.69,0-4.872-2.182-4.872-4.871c0-2.69,2.182-4.872,4.872-4.872c2.689,0,4.871,2.182,4.871,4.872C20.871,18.689,18.689,20.871,16,20.871z"></path><title>Link options.</title></g></g></g></g><g   id="j_100" ><path  stroke="#707070" d="M 1313 1140 L 938 1440" id="v-1274" stroke-width="2" stroke-dasharray="30 30" fill="none" style="opacity: 1;"></path><path  fill="black" stroke="black" d="M 0 0 0 0" transform="matrix(-0.7808688416748546,0.6246950072646418,-0.6246950072646418,-0.7808688416748546,1312.5,1140)"></path><path  fill="#707070" stroke="#707070" d="M 20 0 L 0 10 L 20 20 z" id="v-1276" transform="matrix(0.7808686753084834,-0.6246952152225711,0.6246952152225711,0.7808686753084834,931.253076915002,1432.1913171569533)" style="opacity: 1;"></path><path  d="M 1313 1140 L 938 1440" id="v-1275" fill="none" style="cursor: auto; pointer-events: visiblepainted;"></path><g ><g id="v-1268"  label-idx="0" cursor="move" transform="matrix(1,0,0,1,1125.5,1290)" style="cursor: default; opacity: 1;"><rect joint-selector="rect" id="v-1271" fill="#ffffff" rx="3" ry="3" pointer-events="none" width="0" height="0" transform="matrix(1,0,0,1,0,0)"></rect><text joint-selector="text" id="v-1270" font-size="24px" xml:space="preserve" display="none" y="0.8em" fill="#707070" text-anchor="middle" pointer-events="none" font-family="Open Sans" font-weight="normal"><tspan dy="0" style="fill-opacity: 0; stroke-opacity: 0;" >-</tspan></text></g><g id="v-1269"  label-idx="1" cursor="move" transform="matrix(1,0,0,1,1115.5,1302)" style="cursor: default; opacity: 1;"><rect joint-selector="rect" id="v-1273" fill="#ffffff" rx="3" ry="3"  width="0" height="0" transform="matrix(1,0,0,1,0,0)" display="none"></rect><text joint-selector="text" id="v-1272" fill="#000000" font-size="14" text-anchor="middle" pointer-events="none"></text></g></g><g  display="none" style="display: none;"></g><g  id="v-1278" display="none"><g  id="v-1266"><path  end="source" d="M 26 0 L 0 13 L 26 26 z"></path></g><g  id="v-1267"><path  end="target" d="M 26 0 L 0 13 L 26 26 z"></path></g></g><g  id="v-1277" display="none"><g  id="v-1265" transform="translate(1281.7652476222788, 1164.987801902177) "><g  event="remove"><circle r="11"></circle><path transform="scale(.8) translate(-16, -16)" d="M24.778,21.419 19.276,15.917 24.777,10.415 21.949,7.585 16.447,13.087 10.945,7.585 8.117,10.415 13.618,15.917 8.116,21.419 10.946,24.248 16.447,18.746 21.948,24.248z"></path><title>Remove link.</title></g><g  event="link:options"><circle r="11" transform="translate(25)"></circle><path fill="white" transform="scale(.55) translate(29, -16)" d="M31.229,17.736c0.064-0.571,0.104-1.148,0.104-1.736s-0.04-1.166-0.104-1.737l-4.377-1.557c-0.218-0.716-0.504-1.401-0.851-2.05l1.993-4.192c-0.725-0.91-1.549-1.734-2.458-2.459l-4.193,1.994c-0.647-0.347-1.334-0.632-2.049-0.849l-1.558-4.378C17.165,0.708,16.588,0.667,16,0.667s-1.166,0.041-1.737,0.105L12.707,5.15c-0.716,0.217-1.401,0.502-2.05,0.849L6.464,4.005C5.554,4.73,4.73,5.554,4.005,6.464l1.994,4.192c-0.347,0.648-0.632,1.334-0.849,2.05l-4.378,1.557C0.708,14.834,0.667,15.412,0.667,16s0.041,1.165,0.105,1.736l4.378,1.558c0.217,0.715,0.502,1.401,0.849,2.049l-1.994,4.193c0.725,0.909,1.549,1.733,2.459,2.458l4.192-1.993c0.648,0.347,1.334,0.633,2.05,0.851l1.557,4.377c0.571,0.064,1.148,0.104,1.737,0.104c0.588,0,1.165-0.04,1.736-0.104l1.558-4.377c0.715-0.218,1.399-0.504,2.049-0.851l4.193,1.993c0.909-0.725,1.733-1.549,2.458-2.458l-1.993-4.193c0.347-0.647,0.633-1.334,0.851-2.049L31.229,17.736zM16,20.871c-2.69,0-4.872-2.182-4.872-4.871c0-2.69,2.182-4.872,4.872-4.872c2.689,0,4.871,2.182,4.871,4.872C20.871,18.689,18.689,20.871,16,20.871z"></path><title>Link options.</title></g></g></g></g><g   id="j_101" ><path  stroke="#707070" d="M 1031 540 L 844 840" id="v-1294" stroke-width="2" stroke-dasharray="30 30" fill="none" style="opacity: 1;"></path><path  fill="black" stroke="black" d="M 0 0 0 0" transform="matrix(-0.5299989865422612,0.8479982749181605,-0.8479982749181605,-0.5299989865422612,1031.25,540)"></path><path  fill="#707070" stroke="#707070" d="M 20 0 L 0 10 L 20 20 z" id="v-1296" transform="matrix(0.5299987607066415,-0.8479984160653982,0.8479984160653982,0.5299987607066415,835.2700160252483,834.7000160848376)" style="opacity: 1;"></path><path  d="M 1031 540 L 844 840" id="v-1295" fill="none" style="cursor: auto; pointer-events: visiblepainted;"></path><g ><g id="v-1285"  label-idx="0" cursor="move" transform="matrix(1,0,0,1,937.5,690)" style="cursor: default; opacity: 1;"><rect joint-selector="rect" id="v-1289" fill="#ffffff" rx="3" ry="3" pointer-events="none" width="178.2109832763672" height="32.90682029724121" transform="matrix(1,0,0,1,-89.1,-16.4)"></rect><text joint-selector="text" id="v-1288" font-size="24px" xml:space="preserve" y="0.8em" fill="#707070" text-anchor="middle" pointer-events="none" font-family="Open Sans" font-weight="normal" transform="matrix(1,0,0,1,0,-9.3)"><tspan dy="0" >UI приложения</tspan></text></g><g id="v-1286"  label-idx="1" cursor="move" transform="matrix(1,0,0,1,937.5,717)" style="cursor: default; opacity: 1;"><rect joint-selector="rect" id="v-1291" fill="#ffffff" rx="3" ry="3" pointer-events="none" width="61.93165969848633" height="23.03477191925049" transform="matrix(1,0,0,1,-31,-11.5)"></rect><text joint-selector="text" id="v-1290" font-size="17px" xml:space="preserve" y="0.8em" fill="#707070" text-anchor="middle" pointer-events="none" font-family="Open Sans" font-weight="normal" transform="matrix(1,0,0,1,0,-7)"><tspan dy="0" >[HTTPS]</tspan></text></g><g id="v-1287"  label-idx="2" cursor="move" transform="matrix(1,0,0,1,927.5,726.25)" style="cursor: default; opacity: 1;"><rect joint-selector="rect" id="v-1293" fill="#ffffff" rx="3" ry="3"  width="0" height="0" transform="matrix(1,0,0,1,0,0)" display="none"></rect><text joint-selector="text" id="v-1292" fill="#000000" font-size="14" text-anchor="middle" pointer-events="none"></text></g></g><g  display="none" style="display: none;"></g><g  id="v-1298" display="none"><g  id="v-1283"><path  end="source" d="M 26 0 L 0 13 L 26 26 z"></path></g><g  id="v-1284"><path  end="target" d="M 26 0 L 0 13 L 26 26 z"></path></g></g><g  id="v-1297" display="none"><g  id="v-1282" transform="translate(1009.8407411961142, 573.9453349794959) "><g  event="remove"><circle r="11"></circle><path transform="scale(.8) translate(-16, -16)" d="M24.778,21.419 19.276,15.917 24.777,10.415 21.949,7.585 16.447,13.087 10.945,7.585 8.117,10.415 13.618,15.917 8.116,21.419 10.946,24.248 16.447,18.746 21.948,24.248z"></path><title>Remove link.</title></g><g  event="link:options"><circle r="11" transform="translate(25)"></circle><path fill="white" transform="scale(.55) translate(29, -16)" d="M31.229,17.736c0.064-0.571,0.104-1.148,0.104-1.736s-0.04-1.166-0.104-1.737l-4.377-1.557c-0.218-0.716-0.504-1.401-0.851-2.05l1.993-4.192c-0.725-0.91-1.549-1.734-2.458-2.459l-4.193,1.994c-0.647-0.347-1.334-0.632-2.049-0.849l-1.558-4.378C17.165,0.708,16.588,0.667,16,0.667s-1.166,0.041-1.737,0.105L12.707,5.15c-0.716,0.217-1.401,0.502-2.05,0.849L6.464,4.005C5.554,4.73,4.73,5.554,4.005,6.464l1.994,4.192c-0.347,0.648-0.632,1.334-0.849,2.05l-4.378,1.557C0.708,14.834,0.667,15.412,0.667,16s0.041,1.165,0.105,1.736l4.378,1.558c0.217,0.715,0.502,1.401,0.849,2.049l-1.994,4.193c0.725,0.909,1.549,1.733,2.459,2.458l4.192-1.993c0.648,0.347,1.334,0.633,2.05,0.851l1.557,4.377c0.571,0.064,1.148,0.104,1.737,0.104c0.588,0,1.165-0.04,1.736-0.104l1.558-4.377c0.715-0.218,1.399-0.504,2.049-0.851l4.193,1.993c0.909-0.725,1.733-1.549,2.458-2.458l-1.993-4.193c0.347-0.647,0.633-1.334,0.851-2.049L31.229,17.736zM16,20.871c-2.69,0-4.872-2.182-4.872-4.871c0-2.69,2.182-4.872,4.872-4.872c2.689,0,4.871,2.182,4.871,4.872C20.871,18.689,18.689,20.871,16,20.871z"></path><title>Link options.</title></g></g></g></g><g   id="j_102" ><path  stroke="#707070" d="M 1219 540 L 1406 840" id="v-1314" stroke-width="2" stroke-dasharray="30 30" fill="none" style="opacity: 1;"></path><path  fill="black" stroke="black" d="M 0 0 0 0" transform="matrix(0.52999893008336,0.8479983102049754,-0.8479983102049754,0.52999893008336,1218.75,540)"></path><path  fill="#707070" stroke="#707070" d="M 20 0 L 0 10 L 20 20 z" id="v-1316" transform="matrix(-0.5299989865422614,-0.8479982749181603,0.8479982749181603,-0.5299989865422614,1397.769958288116,845.2999921458542)" style="opacity: 1;"></path><path  d="M 1219 540 L 1406 840" id="v-1315" fill="none" style="cursor: auto; pointer-events: visiblepainted;"></path><g ><g id="v-1305"  label-idx="0" cursor="move" transform="matrix(1,0,0,1,1312.5,690)" style="cursor: default; opacity: 1;"><rect joint-selector="rect" id="v-1309" fill="#ffffff" rx="3" ry="3" pointer-events="none" width="165.92234802246094" height="61.70682144165039" transform="matrix(1,0,0,1,-83,-30.8)"></rect><text joint-selector="text" id="v-1308" font-size="24px" xml:space="preserve" y="0.8em" fill="#707070" text-anchor="middle" pointer-events="none" font-family="Open Sans" font-weight="normal" transform="matrix(1,0,0,1,0,-23.7)"><tspan dy="0" >Получение</tspan><tspan dy="1.2em" x="0" >данных для UI</tspan></text></g><g id="v-1306"  label-idx="1" cursor="move" transform="matrix(1,0,0,1,1312.5,732)" style="cursor: default; opacity: 1;"><rect joint-selector="rect" id="v-1311" fill="#ffffff" rx="3" ry="3" pointer-events="none" width="79.87615966796875" height="23.03477191925049" transform="matrix(1,0,0,1,-39.9,-11.5)"></rect><text joint-selector="text" id="v-1310" font-size="17px" xml:space="preserve" y="0.8em" fill="#707070" text-anchor="middle" pointer-events="none" font-family="Open Sans" font-weight="normal" transform="matrix(1,0,0,1,0,-7)"><tspan dy="0" >[REST API]</tspan></text></g><g id="v-1307"  label-idx="2" cursor="move" transform="matrix(1,0,0,1,1302.5,741.25)" style="cursor: default; opacity: 1;"><rect joint-selector="rect" id="v-1313" fill="#ffffff" rx="3" ry="3"  width="0" height="0" transform="matrix(1,0,0,1,0,0)" display="none"></rect><text joint-selector="text" id="v-1312" fill="#000000" font-size="14" text-anchor="middle" pointer-events="none"></text></g></g><g  display="none" style="display: none;"></g><g  id="v-1318" display="none"><g  id="v-1303"><path  end="source" d="M 26 0 L 0 13 L 26 26 z"></path></g><g  id="v-1304"><path  end="target" d="M 26 0 L 0 13 L 26 26 z"></path></g></g><g  id="v-1317" display="none"><g  id="v-1302" transform="translate(1240.159258803886, 573.9453349794959) "><g  event="remove"><circle r="11"></circle><path transform="scale(.8) translate(-16, -16)" d="M24.778,21.419 19.276,15.917 24.777,10.415 21.949,7.585 16.447,13.087 10.945,7.585 8.117,10.415 13.618,15.917 8.116,21.419 10.946,24.248 16.447,18.746 21.948,24.248z"></path><title>Remove link.</title></g><g  event="link:options"><circle r="11" transform="translate(25)"></circle><path fill="white" transform="scale(.55) translate(29, -16)" d="M31.229,17.736c0.064-0.571,0.104-1.148,0.104-1.736s-0.04-1.166-0.104-1.737l-4.377-1.557c-0.218-0.716-0.504-1.401-0.851-2.05l1.993-4.192c-0.725-0.91-1.549-1.734-2.458-2.459l-4.193,1.994c-0.647-0.347-1.334-0.632-2.049-0.849l-1.558-4.378C17.165,0.708,16.588,0.667,16,0.667s-1.166,0.041-1.737,0.105L12.707,5.15c-0.716,0.217-1.401,0.502-2.05,0.849L6.464,4.005C5.554,4.73,4.73,5.554,4.005,6.464l1.994,4.192c-0.347,0.648-0.632,1.334-0.849,2.05l-4.378,1.557C0.708,14.834,0.667,15.412,0.667,16s0.041,1.165,0.105,1.736l4.378,1.558c0.217,0.715,0.502,1.401,0.849,2.049l-1.994,4.193c0.725,0.909,1.549,1.733,2.459,2.458l4.192-1.993c0.648,0.347,1.334,0.633,2.05,0.851l1.557,4.377c0.571,0.064,1.148,0.104,1.737,0.104c0.588,0,1.165-0.04,1.736-0.104l1.558-4.377c0.715-0.218,1.399-0.504,2.049-0.851l4.193,1.993c0.909-0.725,1.733-1.549,2.458-2.458l-1.993-4.193c0.347-0.647,0.633-1.334,0.851-2.049L31.229,17.736zM16,20.871c-2.69,0-4.872-2.182-4.872-4.871c0-2.69,2.182-4.872,4.872-4.872c2.689,0,4.871,2.182,4.871,4.872C20.871,18.689,18.689,20.871,16,20.871z"></path><title>Link options.</title></g></g></g></g></g><g ></g><g ></g><g ></g></g></svg>