<svg xmlns="http://www.w3.org/2000/svg" xmlns:xlink="http://www.w3.org/1999/xlink" version="1.1" viewBox="0 0 1640 2023" style="background: #ffffff"><defs joint-selector="defs"></defs><g joint-selector="layers"  transform="matrix(1,0,0,1,0,0)"><g ></g><g ><g   id="j_108"  transform="translate(20,1978)"><g id="v-1123"><text  id="v-1124" font-size="22px" xml:space="preserve" y="0.8em" font-weight="normal" text-anchor="start" fill="#aaaaaa" pointer-events="none" font-family="Open Sans"><tspan dy="0" >Thursday, January 23, 2025 at 3:24 PM Eastern European Standard Time</tspan></text></g></g><g   id="j_107"  transform="translate(20,1947)"><g id="v-1121"><text  id="v-1122" font-size="22px" xml:space="preserve" y="0.8em" font-weight="normal" text-anchor="start" fill="#aaaaaa" pointer-events="none" font-family="Open Sans"><tspan dy="0" >Простые калькуляторы</tspan></text></g></g><g   id="j_106"  transform="translate(20,1903)"><g id="v-1119"><text  id="v-1120" font-size="36px" xml:space="preserve" y="0.8em" font-weight="normal" text-anchor="start" fill="#000000" pointer-events="none" font-family="Open Sans"><tspan dy="0" >[Container] Сервис простых расчетов</tspan></text></g></g><g   id="j_96"  transform="translate(969,200)" style=""><g  id="v-974" style="opacity: 1;"><rect  id="v-975" rx="20" ry="20" stroke="#0f5eaa" stroke-width="2" pointer-events="visiblePainted" fill="#1168bd" width="450" height="300" style="fill: rgb(17, 104, 189); stroke: rgb(15, 94, 170);"></rect><text  id="v-976" font-size="34" xml:space="preserve" y="0.8em" font-weight="bold" text-anchor="middle" pointer-events="visible" font-family="Open Sans" fill="#ffffff" transform="matrix(1,0,0,1,225,55.6)" style="fill: rgb(255, 255, 255);"><tspan dy="0" >Онлайн-сервис</tspan><tspan dy="1.2em" x="0" >автоматизации</tspan><tspan dy="1.2em" x="0" >строительных расчетов</tspan></text><text  id="v-977" font-size="17" xml:space="preserve" y="0.8em" text-anchor="middle" font-family="Open Sans" fill="#ffffff" transform="matrix(1,0,0,1,225,183.1)" style="fill: rgb(255, 255, 255);"><tspan dy="0" >[Software System]</tspan></text><text  id="v-978" font-size="24" xml:space="preserve" y="0.8em" text-anchor="middle" font-family="Open Sans" fill="#ffffff" transform="matrix(1,0,0,1,225,214.4)" style="fill: rgb(255, 255, 255);"><tspan dy="0" >KALK.PRO</tspan></text><g  id="v-979" color="#ffffff" transform="matrix(1,0,0,1,222.5,254.4)" display="none" style="fill: rgb(255, 255, 255);"><g ></g><g ></g><g ></g><g ></g></g><image  id="v-980"></image></g></g><g   id="j_98"  transform="translate(199,780)" style=""><g id="v-992"><rect  id="v-993" width="1240" height="1043" rx="0" ry="0" fill="#ffffff" stroke="#0f5eaa" stroke-width="1" stroke-dasharray="20,20" pointer-events="none"></rect><text  id="v-994" font-size="40px" xml:space="preserve" y="988" font-weight="normal" fill="#0f5eaa" text-anchor="start" pointer-events="visible" font-family="Open Sans" transform="matrix(1,0,0,1,15,0)"><tspan dy="0" >Сервис простых расчетов</tspan></text><text  id="v-995" font-size="33px" xml:space="preserve" y="1028" font-weight="normal" fill="#0f5eaa" text-anchor="start" pointer-events="visible" font-family="Open Sans" transform="matrix(1,0,0,1,15,0)"><tspan dy="0" >[Software System]</tspan></text><image  id="v-996" pointer-events="visible"></image></g></g><g   id="j_97"  transform="translate(219,1400)" style=""><g  id="v-984" style="opacity: 1;"><path  d="M 0,30 a 225,30 0,0,0 450 0 a 225,30 0,0,0 -450 0 l 0,240 a 225,30 0,0,0 450 0 l 0,-240" id="v-985" stroke="#78a8d8" stroke-width="2" pointer-events="visiblePainted" fill="#85bbf0" style="fill: rgb(133, 187, 240); stroke: rgb(120, 168, 216);"></path><rect  id="v-986" stroke-width="0" pointer-events="visiblePainted" fill="none" stroke="none" width="450" height="270" x="0" y="30"></rect><text  id="v-987" font-size="34" xml:space="preserve" y="0.8em" font-weight="bold" text-anchor="middle" pointer-events="visible" font-family="Open Sans" fill="#ffffff" transform="matrix(1,0,0,1,225,128.1)" style="fill: rgb(255, 255, 255);"><tspan dy="0" >БД db_sinode</tspan></text><text  id="v-988" font-size="17" xml:space="preserve" y="0.8em" text-anchor="middle" font-family="Open Sans" fill="#ffffff" transform="matrix(1,0,0,1,225,170.6)" style="fill: rgb(255, 255, 255);"><tspan dy="0" >[Container: MySQL]</tspan></text><text  id="v-989" font-size="24" xml:space="preserve" y="0.8em" text-anchor="middle" font-family="Open Sans" fill="#ffffff" transform="matrix(1,0,0,1,225,201.9)" style="fill: rgb(255, 255, 255);"><tspan dy="0" >База данных панели управления</tspan></text><g  id="v-990" font-weight="normal" text-anchor="middle" color="#ffffff" transform="matrix(1,0,0,1,222.5,241.9)" display="none" style="fill: rgb(255, 255, 255);"><g ></g><g ></g><g ></g><g ></g></g><image  id="v-991"></image></g></g><g   id="j_99"  transform="translate(969,800)" style=""><g  id="v-1000" style="opacity: 1;"><rect  id="v-1001" rx="20" ry="20" stroke="#3c7fc0" stroke-width="2" pointer-events="visiblePainted" fill="#438dd5" width="450" height="300" style="fill: rgb(67, 141, 213); stroke: rgb(60, 127, 192);"></rect><text  id="v-1002" font-size="34" xml:space="preserve" y="0.8em" font-weight="bold" text-anchor="middle" pointer-events="visible" font-family="Open Sans" fill="#ffffff" transform="matrix(1,0,0,1,225,113.1)" style="fill: rgb(255, 255, 255);"><tspan dy="0" >Веб-сервер</tspan></text><text  id="v-1003" font-size="17" xml:space="preserve" y="0.8em" text-anchor="middle" font-family="Open Sans" fill="#ffffff" transform="matrix(1,0,0,1,225,155.6)" style="fill: rgb(255, 255, 255);"><tspan dy="0" >[Container: nginx/1.22.1 + php-fpm]</tspan></text><text  id="v-1004" font-size="24" xml:space="preserve" display="none" y="0.8em" text-anchor="middle" font-family="Open Sans" fill="#ffffff" transform="matrix(1,0,0,1,225,186.9)" style="fill: rgb(255, 255, 255);"><tspan dy="0" style="fill-opacity: 0; stroke-opacity: 0;" >-</tspan></text><g  id="v-1005" color="#ffffff" transform="matrix(1,0,0,1,210,196.9)" display="none" style="fill: rgb(255, 255, 255);"><g ></g><g ></g><g ></g><g  transform="translate(5 0)"><svg xmlns="http://www.w3.org/2000/svg" width="20" height="20" fill="currentColor" viewBox="0 0 16 16"><path d="M6.354 5.5H4a3 3 0 0 0 0 6h3a3 3 0 0 0 2.83-4H9c-.086 0-.17.01-.25.031A2 2 0 0 1 7 10.5H4a2 2 0 1 1 0-4h1.535c.218-.376.495-.714.82-1z"></path><path d="M9 5.5a3 3 0 0 0-2.83 4h1.098A2 2 0 0 1 9 6.5h3a2 2 0 1 1 0 4h-1.535a4.02 4.02 0 0 1-.82 1H12a3 3 0 1 0 0-6H9z"></path></svg></g></g><image  id="v-1006"></image></g></g><g   id="j_100"  transform="translate(219,800)" style=""><g  id="v-1016" style="opacity: 1;"><rect  id="v-1017" rx="20" ry="20" stroke="#3c7fc0" stroke-width="2" pointer-events="visiblePainted" fill="#438dd5" width="450" height="300" style="fill: rgb(67, 141, 213); stroke: rgb(60, 127, 192);"></rect><text  id="v-1018" font-size="34" xml:space="preserve" y="0.8em" font-weight="bold" text-anchor="middle" pointer-events="visible" font-family="Open Sans" fill="#ffffff" transform="matrix(1,0,0,1,225,46.9)" style="fill: rgb(255, 255, 255);"><tspan dy="0" >Панель управления</tspan><tspan dy="1.2em" x="0" >калькуляторами</tspan></text><text  id="v-1019" font-size="17" xml:space="preserve" y="0.8em" text-anchor="middle" font-family="Open Sans" fill="#ffffff" transform="matrix(1,0,0,1,225,131.9)" style="fill: rgb(255, 255, 255);"><tspan dy="0" >[Container: php 7.4, WordPress, CFF Plugin]</tspan></text><text  id="v-1020" font-size="24" xml:space="preserve" y="0.8em" text-anchor="middle" font-family="Open Sans" fill="#ffffff" transform="matrix(1,0,0,1,225,163.1)" style="fill: rgb(255, 255, 255);"><tspan dy="0" >Панель управления для создания</tspan><tspan dy="1.2em" x="0" >калькуляторов на базе WP plugin</tspan><tspan dy="1.2em" x="0" >Calculated Fields Form.</tspan></text><g  id="v-1021" color="#ffffff" transform="matrix(1,0,0,1,222.5,263.1)" display="none" style="fill: rgb(255, 255, 255);"><g ></g><g ></g><g ></g><g ></g></g><image  id="v-1022"></image></g></g><g   id="j_101"  transform="translate(969,1400)" style=""><g  id="v-1032" style="opacity: 1;"><rect  id="v-1033" rx="20" ry="20" stroke="#3c7fc0" stroke-width="2" pointer-events="visiblePainted" fill="#438dd5" width="450" height="300" style="fill: rgb(67, 141, 213); stroke: rgb(60, 127, 192);"></rect><text  id="v-1034" font-size="34" xml:space="preserve" y="0.8em" font-weight="bold" text-anchor="middle" pointer-events="visible" font-family="Open Sans" fill="#ffffff" transform="matrix(1,0,0,1,225,31.9)" style="fill: rgb(255, 255, 255);"><tspan dy="0" >Готовые сборки</tspan><tspan dy="1.2em" x="0" >калькуляторов</tspan></text><text  id="v-1035" font-size="17" xml:space="preserve" y="0.8em" text-anchor="middle" font-family="Open Sans" fill="#ffffff" transform="matrix(1,0,0,1,225,116.9)" style="fill: rgb(255, 255, 255);"><tspan dy="0" >[Container: php 7.4, web-sockets]</tspan></text><text  id="v-1036" font-size="24" xml:space="preserve" y="0.8em" text-anchor="middle" font-family="Open Sans" fill="#ffffff" transform="matrix(1,0,0,1,225,148.1)" style="fill: rgb(255, 255, 255);"><tspan dy="0" >Контроллер сборки</tspan><tspan dy="1.2em" x="0" >калькуляторов на JS для передачи</tspan><tspan dy="1.2em" x="0" >их в бинарном виде через сокет</tspan><tspan dy="1.2em" x="0" >на основной сайт KALK.PRO</tspan></text><g  id="v-1037" color="#ffffff" transform="matrix(1,0,0,1,222.5,278.1)" display="none" style="fill: rgb(255, 255, 255);"><g ></g><g ></g><g ></g><g ></g></g><image  id="v-1038"></image></g></g><g   id="j_102" ><path  stroke="#707070" d="M 444 1100 L 444 1400" id="v-1051" stroke-width="2" stroke-dasharray="30 30" fill="none" style="opacity: 1;"></path><path  fill="black" stroke="black" d="M 0 0 0 0" transform="matrix(6.123233995736766e-17,1,-1,6.123233995736766e-17,444,1100)"></path><path  fill="#707070" stroke="#707070" d="M 20 0 L 0 10 L 20 20 z" id="v-1053" transform="matrix(-1.8369701987210297e-16,-1,1,-1.8369701987210297e-16,434,1400)" style="opacity: 1;"></path><path  d="M 444 1100 L 444 1400" id="v-1052" fill="none" style="cursor: auto; pointer-events: visiblepainted;"></path><g ><g id="v-1045"  label-idx="0" cursor="move" transform="matrix(1,0,0,1,444,1250)" style="cursor: default; opacity: 1;"><rect joint-selector="rect" id="v-1048" fill="#ffffff" rx="3" ry="3" pointer-events="none" width="187.6559295654297" height="89.95674514770508" transform="matrix(1,0,0,1,-93.8,-45)"></rect><text joint-selector="text" id="v-1047" font-size="24px" xml:space="preserve" y="0.8em" fill="#707070" text-anchor="middle" pointer-events="none" font-family="Open Sans" font-weight="normal" transform="matrix(1,0,0,1,0,-38.9)"><tspan dy="0" >Исходный код и</tspan><tspan dy="1.2em" x="0" >конфигурации</tspan><tspan dy="1.2em" x="0" >калькуляторов</tspan></text></g><g id="v-1046"  label-idx="1" cursor="move" transform="matrix(1,0,0,1,434,1307)" style="cursor: default; opacity: 1;"><rect joint-selector="rect" id="v-1050" fill="#ffffff" rx="3" ry="3"  width="0" height="0" transform="matrix(1,0,0,1,0,0)" display="none"></rect><text joint-selector="text" id="v-1049" fill="#000000" font-size="14" text-anchor="middle" pointer-events="none"></text></g></g><g  display="none" style="display: none;"></g><g  id="v-1055" display="none"><g  id="v-1043"><path  end="source" d="M 26 0 L 0 13 L 26 26 z"></path></g><g  id="v-1044"><path  end="target" d="M 26 0 L 0 13 L 26 26 z"></path></g></g><g  id="v-1054" display="none"><g  id="v-1042" transform="translate(444, 1140) "><g  event="remove"><circle r="11"></circle><path transform="scale(.8) translate(-16, -16)" d="M24.778,21.419 19.276,15.917 24.777,10.415 21.949,7.585 16.447,13.087 10.945,7.585 8.117,10.415 13.618,15.917 8.116,21.419 10.946,24.248 16.447,18.746 21.948,24.248z"></path><title>Remove link.</title></g><g  event="link:options"><circle r="11" transform="translate(25)"></circle><path fill="white" transform="scale(.55) translate(29, -16)" d="M31.229,17.736c0.064-0.571,0.104-1.148,0.104-1.736s-0.04-1.166-0.104-1.737l-4.377-1.557c-0.218-0.716-0.504-1.401-0.851-2.05l1.993-4.192c-0.725-0.91-1.549-1.734-2.458-2.459l-4.193,1.994c-0.647-0.347-1.334-0.632-2.049-0.849l-1.558-4.378C17.165,0.708,16.588,0.667,16,0.667s-1.166,0.041-1.737,0.105L12.707,5.15c-0.716,0.217-1.401,0.502-2.05,0.849L6.464,4.005C5.554,4.73,4.73,5.554,4.005,6.464l1.994,4.192c-0.347,0.648-0.632,1.334-0.849,2.05l-4.378,1.557C0.708,14.834,0.667,15.412,0.667,16s0.041,1.165,0.105,1.736l4.378,1.558c0.217,0.715,0.502,1.401,0.849,2.049l-1.994,4.193c0.725,0.909,1.549,1.733,2.459,2.458l4.192-1.993c0.648,0.347,1.334,0.633,2.05,0.851l1.557,4.377c0.571,0.064,1.148,0.104,1.737,0.104c0.588,0,1.165-0.04,1.736-0.104l1.558-4.377c0.715-0.218,1.399-0.504,2.049-0.851l4.193,1.993c0.909-0.725,1.733-1.549,2.458-2.458l-1.993-4.193c0.347-0.647,0.633-1.334,0.851-2.049L31.229,17.736zM16,20.871c-2.69,0-4.872-2.182-4.872-4.871c0-2.69,2.182-4.872,4.872-4.872c2.689,0,4.871,2.182,4.871,4.872C20.871,18.689,18.689,20.871,16,20.871z"></path><title>Link options.</title></g></g></g></g><g   id="j_103" ><path  stroke="#707070" d="M 632 1100 L 1007 1400" id="v-1071" stroke-width="2" stroke-dasharray="30 30" fill="none" style="opacity: 1;"></path><path  fill="black" stroke="black" d="M 0 0 0 0" transform="matrix(0.7808688000832672,0.624695059254128,-0.624695059254128,0.7808688000832672,631.5,1100)"></path><path  fill="#707070" stroke="#707070" d="M 20 0 L 0 10 L 20 20 z" id="v-1073" transform="matrix(-0.7808688416748548,-0.6246950072646416,0.6246950072646416,-0.7808688416748548,1000.2530225237896,1407.8086902472076)" style="opacity: 1;"></path><path  d="M 632 1100 L 1007 1400" id="v-1072" fill="none" style="cursor: auto; pointer-events: visiblepainted;"></path><g ><g id="v-1062"  label-idx="0" cursor="move" transform="matrix(1,0,0,1,819.5,1250)" style="cursor: default; opacity: 1;"><rect joint-selector="rect" id="v-1066" fill="#ffffff" rx="3" ry="3" pointer-events="none" width="193.61289978027344" height="233.95677185058594" transform="matrix(1,0,0,1,-96.8,-117)"></rect><text joint-selector="text" id="v-1065" font-size="24px" xml:space="preserve" y="0.8em" fill="#707070" text-anchor="middle" pointer-events="none" font-family="Open Sans" font-weight="normal" transform="matrix(1,0,0,1,0,-110.9)"><tspan dy="0" >Периодически</tspan><tspan dy="1.2em" x="0" >выгружает</tspan><tspan dy="1.2em" x="0" >бинарные</tspan><tspan dy="1.2em" x="0" >сборки</tspan><tspan dy="1.2em" x="0" >калькуляторов в</tspan><tspan dy="1.2em" x="0" >публичную</tspan><tspan dy="1.2em" x="0" >директорию на</tspan><tspan dy="1.2em" x="0" >сайте</tspan></text></g><g id="v-1063"  label-idx="1" cursor="move" transform="matrix(1,0,0,1,819.5,1382)" style="cursor: default; opacity: 1;"><rect joint-selector="rect" id="v-1068" fill="#ffffff" rx="3" ry="3" pointer-events="none" width="29.21339225769043" height="23.915854454040527" transform="matrix(1,0,0,1,-14.6,-12)"></rect><text joint-selector="text" id="v-1067" font-size="17px" xml:space="preserve" y="0.8em" fill="#707070" text-anchor="middle" pointer-events="none" font-family="Open Sans" font-weight="normal" transform="matrix(1,0,0,1,0,-7.3)"><tspan dy="0" >[FS]</tspan></text></g><g id="v-1064"  label-idx="2" cursor="move" transform="matrix(1,0,0,1,809.5,1391.25)" style="cursor: default; opacity: 1;"><rect joint-selector="rect" id="v-1070" fill="#ffffff" rx="3" ry="3"  width="0" height="0" transform="matrix(1,0,0,1,0,0)" display="none"></rect><text joint-selector="text" id="v-1069" fill="#000000" font-size="14" text-anchor="middle" pointer-events="none"></text></g></g><g  display="none" style="display: none;"></g><g  id="v-1075" display="none"><g  id="v-1060"><path  end="source" d="M 26 0 L 0 13 L 26 26 z"></path></g><g  id="v-1061"><path  end="target" d="M 26 0 L 0 13 L 26 26 z"></path></g></g><g  id="v-1074" display="none"><g  id="v-1059" transform="translate(663.2347523777212, 1124.9878019021771) "><g  event="remove"><circle r="11"></circle><path transform="scale(.8) translate(-16, -16)" d="M24.778,21.419 19.276,15.917 24.777,10.415 21.949,7.585 16.447,13.087 10.945,7.585 8.117,10.415 13.618,15.917 8.116,21.419 10.946,24.248 16.447,18.746 21.948,24.248z"></path><title>Remove link.</title></g><g  event="link:options"><circle r="11" transform="translate(25)"></circle><path fill="white" transform="scale(.55) translate(29, -16)" d="M31.229,17.736c0.064-0.571,0.104-1.148,0.104-1.736s-0.04-1.166-0.104-1.737l-4.377-1.557c-0.218-0.716-0.504-1.401-0.851-2.05l1.993-4.192c-0.725-0.91-1.549-1.734-2.458-2.459l-4.193,1.994c-0.647-0.347-1.334-0.632-2.049-0.849l-1.558-4.378C17.165,0.708,16.588,0.667,16,0.667s-1.166,0.041-1.737,0.105L12.707,5.15c-0.716,0.217-1.401,0.502-2.05,0.849L6.464,4.005C5.554,4.73,4.73,5.554,4.005,6.464l1.994,4.192c-0.347,0.648-0.632,1.334-0.849,2.05l-4.378,1.557C0.708,14.834,0.667,15.412,0.667,16s0.041,1.165,0.105,1.736l4.378,1.558c0.217,0.715,0.502,1.401,0.849,2.049l-1.994,4.193c0.725,0.909,1.549,1.733,2.459,2.458l4.192-1.993c0.648,0.347,1.334,0.633,2.05,0.851l1.557,4.377c0.571,0.064,1.148,0.104,1.737,0.104c0.588,0,1.165-0.04,1.736-0.104l1.558-4.377c0.715-0.218,1.399-0.504,2.049-0.851l4.193,1.993c0.909-0.725,1.733-1.549,2.458-2.458l-1.993-4.193c0.347-0.647,0.633-1.334,0.851-2.049L31.229,17.736zM16,20.871c-2.69,0-4.872-2.182-4.872-4.871c0-2.69,2.182-4.872,4.872-4.872c2.689,0,4.871,2.182,4.871,4.872C20.871,18.689,18.689,20.871,16,20.871z"></path><title>Link options.</title></g></g></g></g><g   id="j_104" ><path  stroke="#707070" d="M 1194 1100 L 1194 1400" id="v-1091" stroke-width="2" stroke-dasharray="30 30" fill="none" style="opacity: 1;"></path><path  fill="black" stroke="black" d="M 0 0 0 0" transform="matrix(6.123233995736766e-17,1,-1,6.123233995736766e-17,1194,1100)"></path><path  fill="#707070" stroke="#707070" d="M 20 0 L 0 10 L 20 20 z" id="v-1093" transform="matrix(-1.8369701987210297e-16,-1,1,-1.8369701987210297e-16,1184,1400)" style="opacity: 1;"></path><path  d="M 1194 1100 L 1194 1400" id="v-1092" fill="none" style="cursor: auto; pointer-events: visiblepainted;"></path><g ><g id="v-1082"  label-idx="0" cursor="move" transform="matrix(1,0,0,1,1194,1250)" style="cursor: default; opacity: 1;"><rect joint-selector="rect" id="v-1086" fill="#ffffff" rx="3" ry="3" pointer-events="none" width="173.60975646972656" height="176.3567352294922" transform="matrix(1,0,0,1,-86.8,-88.2)"></rect><text joint-selector="text" id="v-1085" font-size="24px" xml:space="preserve" y="0.8em" fill="#707070" text-anchor="middle" pointer-events="none" font-family="Open Sans" font-weight="normal" transform="matrix(1,0,0,1,0,-82.1)"><tspan dy="0" >Запрашиавет</tspan><tspan dy="1.2em" x="0" >код для</tspan><tspan dy="1.2em" x="0" >отображения</tspan><tspan dy="1.2em" x="0" >калькуляторов</tspan><tspan dy="1.2em" x="0" >на стороне</tspan><tspan dy="1.2em" x="0" >клиента</tspan></text></g><g id="v-1083"  label-idx="1" cursor="move" transform="matrix(1,0,0,1,1194,1352)" style="cursor: default; opacity: 1;"><rect joint-selector="rect" id="v-1088" fill="#ffffff" rx="3" ry="3" pointer-events="none" width="108.80834197998047" height="23.915854454040527" transform="matrix(1,0,0,1,-54.4,-12)"></rect><text joint-selector="text" id="v-1087" font-size="17px" xml:space="preserve" y="0.8em" fill="#707070" text-anchor="middle" pointer-events="none" font-family="Open Sans" font-weight="normal" transform="matrix(1,0,0,1,0,-7.3)"><tspan dy="0" >[web-sockets]</tspan></text></g><g id="v-1084"  label-idx="2" cursor="move" transform="matrix(1,0,0,1,1184,1361.25)" style="cursor: default; opacity: 1;"><rect joint-selector="rect" id="v-1090" fill="#ffffff" rx="3" ry="3"  width="0" height="0" transform="matrix(1,0,0,1,0,0)" display="none"></rect><text joint-selector="text" id="v-1089" fill="#000000" font-size="14" text-anchor="middle" pointer-events="none"></text></g></g><g  display="none" style="display: none;"></g><g  id="v-1095" display="none"><g  id="v-1080"><path  end="source" d="M 26 0 L 0 13 L 26 26 z"></path></g><g  id="v-1081"><path  end="target" d="M 26 0 L 0 13 L 26 26 z"></path></g></g><g  id="v-1094" display="none"><g  id="v-1079" transform="translate(1194, 1140) "><g  event="remove"><circle r="11"></circle><path transform="scale(.8) translate(-16, -16)" d="M24.778,21.419 19.276,15.917 24.777,10.415 21.949,7.585 16.447,13.087 10.945,7.585 8.117,10.415 13.618,15.917 8.116,21.419 10.946,24.248 16.447,18.746 21.948,24.248z"></path><title>Remove link.</title></g><g  event="link:options"><circle r="11" transform="translate(25)"></circle><path fill="white" transform="scale(.55) translate(29, -16)" d="M31.229,17.736c0.064-0.571,0.104-1.148,0.104-1.736s-0.04-1.166-0.104-1.737l-4.377-1.557c-0.218-0.716-0.504-1.401-0.851-2.05l1.993-4.192c-0.725-0.91-1.549-1.734-2.458-2.459l-4.193,1.994c-0.647-0.347-1.334-0.632-2.049-0.849l-1.558-4.378C17.165,0.708,16.588,0.667,16,0.667s-1.166,0.041-1.737,0.105L12.707,5.15c-0.716,0.217-1.401,0.502-2.05,0.849L6.464,4.005C5.554,4.73,4.73,5.554,4.005,6.464l1.994,4.192c-0.347,0.648-0.632,1.334-0.849,2.05l-4.378,1.557C0.708,14.834,0.667,15.412,0.667,16s0.041,1.165,0.105,1.736l4.378,1.558c0.217,0.715,0.502,1.401,0.849,2.049l-1.994,4.193c0.725,0.909,1.549,1.733,2.459,2.458l4.192-1.993c0.648,0.347,1.334,0.633,2.05,0.851l1.557,4.377c0.571,0.064,1.148,0.104,1.737,0.104c0.588,0,1.165-0.04,1.736-0.104l1.558-4.377c0.715-0.218,1.399-0.504,2.049-0.851l4.193,1.993c0.909-0.725,1.733-1.549,2.458-2.458l-1.993-4.193c0.347-0.647,0.633-1.334,0.851-2.049L31.229,17.736zM16,20.871c-2.69,0-4.872-2.182-4.872-4.871c0-2.69,2.182-4.872,4.872-4.872c2.689,0,4.871,2.182,4.871,4.872C20.871,18.689,18.689,20.871,16,20.871z"></path><title>Link options.</title></g></g></g></g><g   id="j_105" ><path  stroke="#707070" d="M 1194 500 L 1194 800" id="v-1111" stroke-width="2" stroke-dasharray="30 30" fill="none" style="opacity: 1;"></path><path  fill="black" stroke="black" d="M 0 0 0 0" transform="matrix(6.123233995736766e-17,1,-1,6.123233995736766e-17,1194,500)"></path><path  fill="#707070" stroke="#707070" d="M 20 0 L 0 10 L 20 20 z" id="v-1113" transform="matrix(-1.8369701987210297e-16,-1,1,-1.8369701987210297e-16,1184,800)" style="opacity: 1;"></path><path  d="M 1194 500 L 1194 800" id="v-1112" fill="none" style="cursor: auto; pointer-events: visiblepainted;"></path><g ><g id="v-1102"  label-idx="0" cursor="move" transform="matrix(1,0,0,1,1194,650)" style="cursor: default; opacity: 1;"><rect joint-selector="rect" id="v-1106" fill="#ffffff" rx="3" ry="3" pointer-events="none" width="159.7174530029297" height="61.15674591064453" transform="matrix(1,0,0,1,-79.9,-30.6)"></rect><text joint-selector="text" id="v-1105" font-size="24px" xml:space="preserve" y="0.8em" fill="#707070" text-anchor="middle" pointer-events="none" font-family="Open Sans" font-weight="normal" transform="matrix(1,0,0,1,0,-24.5)"><tspan dy="0" >Получить код</tspan><tspan dy="1.2em" x="0" >калькулятора</tspan></text></g><g id="v-1103"  label-idx="1" cursor="move" transform="matrix(1,0,0,1,1194,692)" style="cursor: default; opacity: 1;"><rect joint-selector="rect" id="v-1108" fill="#ffffff" rx="3" ry="3" pointer-events="none" width="108.80834197998047" height="23.915854454040527" transform="matrix(1,0,0,1,-54.4,-12)"></rect><text joint-selector="text" id="v-1107" font-size="17px" xml:space="preserve" y="0.8em" fill="#707070" text-anchor="middle" pointer-events="none" font-family="Open Sans" font-weight="normal" transform="matrix(1,0,0,1,0,-7.3)"><tspan dy="0" >[web-sockets]</tspan></text></g><g id="v-1104"  label-idx="2" cursor="move" transform="matrix(1,0,0,1,1184,701.25)" style="cursor: default; opacity: 1;"><rect joint-selector="rect" id="v-1110" fill="#ffffff" rx="3" ry="3"  width="0" height="0" transform="matrix(1,0,0,1,0,0)" display="none"></rect><text joint-selector="text" id="v-1109" fill="#000000" font-size="14" text-anchor="middle" pointer-events="none"></text></g></g><g  display="none" style="display: none;"></g><g  id="v-1115" display="none"><g  id="v-1100"><path  end="source" d="M 26 0 L 0 13 L 26 26 z"></path></g><g  id="v-1101"><path  end="target" d="M 26 0 L 0 13 L 26 26 z"></path></g></g><g  id="v-1114" display="none"><g  id="v-1099" transform="translate(1194, 540) "><g  event="remove"><circle r="11"></circle><path transform="scale(.8) translate(-16, -16)" d="M24.778,21.419 19.276,15.917 24.777,10.415 21.949,7.585 16.447,13.087 10.945,7.585 8.117,10.415 13.618,15.917 8.116,21.419 10.946,24.248 16.447,18.746 21.948,24.248z"></path><title>Remove link.</title></g><g  event="link:options"><circle r="11" transform="translate(25)"></circle><path fill="white" transform="scale(.55) translate(29, -16)" d="M31.229,17.736c0.064-0.571,0.104-1.148,0.104-1.736s-0.04-1.166-0.104-1.737l-4.377-1.557c-0.218-0.716-0.504-1.401-0.851-2.05l1.993-4.192c-0.725-0.91-1.549-1.734-2.458-2.459l-4.193,1.994c-0.647-0.347-1.334-0.632-2.049-0.849l-1.558-4.378C17.165,0.708,16.588,0.667,16,0.667s-1.166,0.041-1.737,0.105L12.707,5.15c-0.716,0.217-1.401,0.502-2.05,0.849L6.464,4.005C5.554,4.73,4.73,5.554,4.005,6.464l1.994,4.192c-0.347,0.648-0.632,1.334-0.849,2.05l-4.378,1.557C0.708,14.834,0.667,15.412,0.667,16s0.041,1.165,0.105,1.736l4.378,1.558c0.217,0.715,0.502,1.401,0.849,2.049l-1.994,4.193c0.725,0.909,1.549,1.733,2.459,2.458l4.192-1.993c0.648,0.347,1.334,0.633,2.05,0.851l1.557,4.377c0.571,0.064,1.148,0.104,1.737,0.104c0.588,0,1.165-0.04,1.736-0.104l1.558-4.377c0.715-0.218,1.399-0.504,2.049-0.851l4.193,1.993c0.909-0.725,1.733-1.549,2.458-2.458l-1.993-4.193c0.347-0.647,0.633-1.334,0.851-2.049L31.229,17.736zM16,20.871c-2.69,0-4.872-2.182-4.872-4.871c0-2.69,2.182-4.872,4.872-4.872c2.689,0,4.871,2.182,4.871,4.872C20.871,18.689,18.689,20.871,16,20.871z"></path><title>Link options.</title></g></g></g></g></g><g ></g><g ></g><g ></g></g></svg>