<svg xmlns="http://www.w3.org/2000/svg" xmlns:xlink="http://www.w3.org/1999/xlink" contentStyleType="text/css" height="384px" preserveAspectRatio="none" style="width:714px;height:384px;background:#FFFFFF;" version="1.1" viewBox="0 0 714 384" width="714px" zoomAndPan="magnify"><defs/><g><!--class requests--><g id="elem_requests"><rect codeLine="2" fill="#F1F1F1" height="163.418" id="requests" rx="2.5" ry="2.5" style="stroke:#181818;stroke-width:0.5;" width="501.3369" x="62.6" y="214.44"/><ellipse cx="279.8495" cy="230.44" fill="#ADD1B2" rx="11" ry="11" style="stroke:#181818;stroke-width:1.0;"/><path d="M283.9638,236.44 L276.244,236.44 L276.244,224.0469 L283.9638,224.0469 L283.9638,226.2051 L278.6928,226.2051 L278.6928,228.878 L283.4657,228.878 L283.4657,231.0362 L278.6928,231.0362 L278.6928,234.2818 L283.9638,234.2818 Z " fill="#000000"/><text fill="#000000" font-family="sans-serif" font-size="14" lengthAdjust="spacing" textLength="58.3379" x="300.3495" y="235.731">requests</text><line style="stroke:#181818;stroke-width:0.5;" x1="63.6" x2="562.9369" y1="246.44" y2="246.44"/><ellipse cx="73.6" cy="260.1841" fill="#000000" rx="3" ry="3" style="stroke:#000000;stroke-width:1.0;"/><text fill="#000000" font-family="sans-serif" font-size="14" lengthAdjust="spacing" textLength="165.5117" x="82.6" y="263.9752">id : SERIAL PRIMARY KEY</text><line style="stroke:#181818;stroke-width:1.0;" x1="63.6" x2="562.9369" y1="270.9283" y2="270.9283"/><ellipse cx="73.6" cy="284.6724" fill="#000000" rx="3" ry="3" style="stroke:#000000;stroke-width:1.0;"/><text fill="#000000" font-family="sans-serif" font-size="14" lengthAdjust="spacing" textLength="193.7783" x="82.6" y="288.4634">user_id : INTEGER NOT NULL</text><ellipse cx="73.6" cy="301.1607" fill="#000000" rx="3" ry="3" style="stroke:#000000;stroke-width:1.0;"/><text fill="#000000" font-family="sans-serif" font-size="14" lengthAdjust="spacing" textLength="475.3369" x="82.6" y="304.9517">status : ENUM VARCHAR ('new', 'processing', 'ready', 'send') NOT NULL</text><ellipse cx="73.6" cy="317.649" fill="#000000" rx="3" ry="3" style="stroke:#000000;stroke-width:1.0;"/><text fill="#000000" font-family="sans-serif" font-size="14" lengthAdjust="spacing" textLength="208.0176" x="82.6" y="321.44">request_data : JSON NOT NULL</text><ellipse cx="73.6" cy="334.1373" fill="#000000" rx="3" ry="3" style="stroke:#000000;stroke-width:1.0;"/><text fill="#000000" font-family="sans-serif" font-size="14" lengthAdjust="spacing" textLength="192.1719" x="82.6" y="337.9283">progress_percent : DECIMAL</text><ellipse cx="73.6" cy="350.6255" fill="#000000" rx="3" ry="3" style="stroke:#000000;stroke-width:1.0;"/><text fill="#000000" font-family="sans-serif" font-size="14" lengthAdjust="spacing" textLength="389.6621" x="82.6" y="354.4166">create_time : TIMESTAMP DEFAULT CURRENT_TIMESTAMP</text><ellipse cx="73.6" cy="367.1138" fill="#000000" rx="3" ry="3" style="stroke:#000000;stroke-width:1.0;"/><text fill="#000000" font-family="sans-serif" font-size="14" lengthAdjust="spacing" textLength="395.2744" x="82.6" y="370.9048">update_time : TIMESTAMP DEFAULT CURRENT_TIMESTAMP</text></g><!--class optimal_configurations--><g id="elem_optimal_configurations"><rect codeLine="13" fill="#F1F1F1" height="80.9766" id="optimal_configurations" rx="2.5" ry="2.5" style="stroke:#181818;stroke-width:0.5;" width="244.5449" x="7" y="31.73"/><ellipse cx="47.0932" cy="47.73" fill="#ADD1B2" rx="11" ry="11" style="stroke:#181818;stroke-width:1.0;"/><path d="M51.2075,53.73 L43.4877,53.73 L43.4877,41.3369 L51.2075,41.3369 L51.2075,43.4951 L45.9365,43.4951 L45.9365,46.168 L50.7094,46.168 L50.7094,48.3262 L45.9365,48.3262 L45.9365,51.5718 L51.2075,51.5718 Z " fill="#000000"/><text fill="#000000" font-family="sans-serif" font-size="14" lengthAdjust="spacing" textLength="156.7822" x="66.6695" y="53.021">optimal_configurations</text><line style="stroke:#181818;stroke-width:0.5;" x1="8" x2="250.5449" y1="63.73" y2="63.73"/><ellipse cx="18" cy="77.4741" fill="#000000" rx="3" ry="3" style="stroke:#000000;stroke-width:1.0;"/><text fill="#000000" font-family="sans-serif" font-size="14" lengthAdjust="spacing" textLength="215.626" x="27" y="81.2652">request_id : INTEGER NOT NULL</text><line style="stroke:#181818;stroke-width:1.0;" x1="8" x2="250.5449" y1="88.2183" y2="88.2183"/><ellipse cx="18" cy="101.9624" fill="#000000" rx="3" ry="3" style="stroke:#000000;stroke-width:1.0;"/><text fill="#000000" font-family="sans-serif" font-size="14" lengthAdjust="spacing" textLength="218.5449" x="27" y="105.7534">configurations : JSON NOT NULL</text></g><!--class users--><g id="elem_users"><rect codeLine="20" fill="#F1F1F1" height="130.4414" id="users" rx="2.5" ry="2.5" style="stroke:#181818;stroke-width:0.5;" width="421.2744" x="286.64" y="7"/><ellipse cx="474.7821" cy="23" fill="#ADD1B2" rx="11" ry="11" style="stroke:#181818;stroke-width:1.0;"/><path d="M478.8963,29 L471.1766,29 L471.1766,16.6069 L478.8963,16.6069 L478.8963,18.7651 L473.6254,18.7651 L473.6254,21.438 L478.3983,21.438 L478.3983,23.5962 L473.6254,23.5962 L473.6254,26.8418 L478.8963,26.8418 Z " fill="#000000"/><text fill="#000000" font-family="sans-serif" font-size="14" lengthAdjust="spacing" textLength="36.4902" x="495.2821" y="28.291">users</text><line style="stroke:#181818;stroke-width:0.5;" x1="287.64" x2="706.9144" y1="39" y2="39"/><ellipse cx="297.64" cy="52.7441" fill="#000000" rx="3" ry="3" style="stroke:#000000;stroke-width:1.0;"/><text fill="#000000" font-family="sans-serif" font-size="14" lengthAdjust="spacing" textLength="227.3154" x="306.64" y="56.5352">id : INTEGER SERIAL PRIMARY KEY</text><line style="stroke:#181818;stroke-width:1.0;" x1="287.64" x2="706.9144" y1="63.4883" y2="63.4883"/><ellipse cx="297.64" cy="77.2324" fill="#000000" rx="3" ry="3" style="stroke:#000000;stroke-width:1.0;"/><text fill="#000000" font-family="sans-serif" font-size="14" lengthAdjust="spacing" textLength="319.9287" x="306.64" y="81.0234">email : VARCHAR(128) NOT NULL PRIMARY KEY</text><ellipse cx="297.64" cy="93.7207" fill="#000000" rx="3" ry="3" style="stroke:#000000;stroke-width:1.0;"/><text fill="#000000" font-family="sans-serif" font-size="14" lengthAdjust="spacing" textLength="395.2744" x="306.64" y="97.5117">update_time : TIMESTAMP DEFAULT CURRENT_TIMESTAMP</text><ellipse cx="297.64" cy="110.209" fill="#000000" rx="3" ry="3" style="stroke:#000000;stroke-width:1.0;"/><text fill="#000000" font-family="sans-serif" font-size="14" lengthAdjust="spacing" textLength="289.208" x="306.64" y="114">acl_max_simultaneous_requests : INTEGER</text><ellipse cx="297.64" cy="126.6973" fill="#000000" rx="3" ry="3" style="stroke:#000000;stroke-width:1.0;"/><text fill="#000000" font-family="sans-serif" font-size="14" lengthAdjust="spacing" textLength="288.4834" x="306.64" y="130.4883">acl_available_calculations_count : INTEGER</text></g><!--link optimal_configurations to requests--><g id="link_optimal_configurations_requests"><path codeLine="18" d="M167.4859,119.3087 C190.7659,147.3887 212.5142,173.6212 241.0242,208.0112 " fill="none" id="optimal_configurations-requests" style="stroke:#181818;stroke-width:1.0;"/><line style="stroke:#181818;stroke-width:1.0;" x1="167.4859" x2="156.2213" y1="119.3087" y2="113.15"/><line style="stroke:#181818;stroke-width:1.0;" x1="167.4859" x2="168.5387" y1="119.3087" y2="113.15"/><line style="stroke:#181818;stroke-width:1.0;" x1="167.4859" x2="162.38" y1="119.3087" y2="113.15"/><line style="stroke:#181818;stroke-width:1.0;" x1="241.0242" x2="250.7491" y1="208.0112" y2="210.3407"/><line style="stroke:#181818;stroke-width:1.0;" x1="241.0242" x2="241.5109" y1="208.0112" y2="217.9993"/><line style="stroke:#181818;stroke-width:1.0;" x1="241.0242" x2="246.13" y1="208.0112" y2="214.17"/><line style="stroke:#181818;stroke-width:1.0;" x1="242.8272" x2="236.6684" y1="203.9186" y2="209.0244"/><text fill="#000000" font-family="sans-serif" font-size="13" lengthAdjust="spacing" textLength="65.9839" x="222.27" y="181.0084">request_id</text></g><!--link users to requests--><g id="link_users_requests"><path codeLine="28" d="M438.694,143.8686 C418.854,167.7986 406.307,182.9422 385.407,208.1422 " fill="none" id="users-requests" style="stroke:#181818;stroke-width:1.0;"/><line style="stroke:#181818;stroke-width:1.0;" x1="438.694" x2="437.6414" y1="143.8686" y2="137.71"/><line style="stroke:#181818;stroke-width:1.0;" x1="438.694" x2="449.9586" y1="143.8686" y2="137.71"/><line style="stroke:#181818;stroke-width:1.0;" x1="438.694" x2="443.8" y1="143.8686" y2="137.71"/><line style="stroke:#181818;stroke-width:1.0;" x1="385.407" x2="384.9183" y1="208.1422" y2="218.1303"/><line style="stroke:#181818;stroke-width:1.0;" x1="385.407" x2="375.6817" y1="208.1422" y2="210.4697"/><line style="stroke:#181818;stroke-width:1.0;" x1="385.407" x2="380.3" y1="208.1422" y2="214.3"/><line style="stroke:#181818;stroke-width:1.0;" x1="389.7627" x2="383.6049" y1="209.1563" y2="204.0493"/><text fill="#000000" font-family="sans-serif" font-size="13" lengthAdjust="spacing" textLength="65.9839" x="417.29" y="181.0084">request_id</text></g><!--SRC=[dL9DJyCm3BttLqIxT21wW1FQhHe12cqtPItIJb5epHIfJKkJ0DFeVoVh1uN2G92Je_TiFpyRXE9gYoOLF6gGIauGawZ_e9s5p3lcAPgX5IQUwwCbyGANhD4jNZUWuxGSBQ6Y3T4B8to52GeN4GfZtszngPZIqi0uZ0DqvvBvjKlGr1RmR9yWkwoA1AJaOhF_LS3IxJwG85BxQ5IgaqTJffWfUBDQX2E6gRQfJ3bQGfM0K8PrWUT6U8Sdfe42gdWE1egy0AyYDrWQqgKR-n6QnuJWCABlI3TZcVunhROiw1mkIfF7CfeKue5lTCKKBqJhz_TGxtu_xc5p-nsCyiVMrDQ1HhNZlEw6hS_Gq7BGlrzmAxU9Fjr6h-gN6u6SySpGk-rFJy_EXzr-oVg7tKqQIpAQinSgUQupnGGKMj8FmtLY1p9xChBOVGOqOLcYizOLOv9kBgVdrrOx-4zklG40]--></g></svg>