<svg xmlns="http://www.w3.org/2000/svg" xmlns:xlink="http://www.w3.org/1999/xlink" contentStyleType="text/css" height="384px" preserveAspectRatio="none" style="width:808px;height:384px;background:#FFFFFF;" version="1.1" viewBox="0 0 808 384" width="808px" zoomAndPan="magnify"><defs/><g><!--class requests--><g id="elem_requests"><rect codeLine="2" fill="#F1F1F1" height="179.9063" id="requests" rx="2.5" ry="2.5" style="stroke:#181818;stroke-width:0.5;" width="430.7559" x="7" y="197.95"/><ellipse cx="188.959" cy="213.95" fill="#ADD1B2" rx="11" ry="11" style="stroke:#181818;stroke-width:1.0;"/><path d="M193.0732,219.95 L185.3535,219.95 L185.3535,207.5569 L193.0732,207.5569 L193.0732,209.7151 L187.8022,209.7151 L187.8022,212.388 L192.5752,212.388 L192.5752,214.5462 L187.8022,214.5462 L187.8022,217.7918 L193.0732,217.7918 Z " fill="#000000"/><text fill="#000000" font-family="sans-serif" font-size="14" lengthAdjust="spacing" textLength="58.3379" x="209.459" y="219.241">requests</text><line style="stroke:#181818;stroke-width:0.5;" x1="8" x2="436.7559" y1="229.95" y2="229.95"/><ellipse cx="18" cy="243.6941" fill="#000000" rx="3" ry="3" style="stroke:#000000;stroke-width:1.0;"/><text fill="#000000" font-family="sans-serif" font-size="14" lengthAdjust="spacing" textLength="165.5117" x="27" y="247.4852">id : SERIAL PRIMARY KEY</text><line style="stroke:#181818;stroke-width:1.0;" x1="8" x2="436.7559" y1="254.4383" y2="254.4383"/><ellipse cx="18" cy="268.1824" fill="#000000" rx="3" ry="3" style="stroke:#000000;stroke-width:1.0;"/><text fill="#000000" font-family="sans-serif" font-size="14" lengthAdjust="spacing" textLength="262.0557" x="27" y="271.9734">user_email : VARCHAR(128) NOT NULL</text><ellipse cx="18" cy="284.6707" fill="#000000" rx="3" ry="3" style="stroke:#000000;stroke-width:1.0;"/><text fill="#000000" font-family="sans-serif" font-size="14" lengthAdjust="spacing" textLength="273.1709" x="27" y="288.4617">calculation_id : VARCHAR(36) NOT NULL</text><ellipse cx="18" cy="301.159" fill="#000000" rx="3" ry="3" style="stroke:#000000;stroke-width:1.0;"/><text fill="#000000" font-family="sans-serif" font-size="14" lengthAdjust="spacing" textLength="404.7559" x="27" y="304.95">status : ENUM ('new', 'processing', 'ready', 'send') NOT NULL</text><ellipse cx="18" cy="317.6473" fill="#000000" rx="3" ry="3" style="stroke:#000000;stroke-width:1.0;"/><text fill="#000000" font-family="sans-serif" font-size="14" lengthAdjust="spacing" textLength="208.0176" x="27" y="321.4383">request_data : JSON NOT NULL</text><ellipse cx="18" cy="334.1355" fill="#000000" rx="3" ry="3" style="stroke:#000000;stroke-width:1.0;"/><text fill="#000000" font-family="sans-serif" font-size="14" lengthAdjust="spacing" textLength="192.1719" x="27" y="337.9266">progress_percent : DECIMAL</text><ellipse cx="18" cy="350.6238" fill="#000000" rx="3" ry="3" style="stroke:#000000;stroke-width:1.0;"/><text fill="#000000" font-family="sans-serif" font-size="14" lengthAdjust="spacing" textLength="389.6621" x="27" y="354.4148">create_time : TIMESTAMP DEFAULT CURRENT_TIMESTAMP</text><ellipse cx="18" cy="367.1121" fill="#000000" rx="3" ry="3" style="stroke:#000000;stroke-width:1.0;"/><text fill="#000000" font-family="sans-serif" font-size="14" lengthAdjust="spacing" textLength="395.2744" x="27" y="370.9031">update_time : TIMESTAMP DEFAULT CURRENT_TIMESTAMP</text></g><!--class optimal_configurations--><g id="elem_optimal_configurations"><rect codeLine="14" fill="#F1F1F1" height="80.9766" id="optimal_configurations" rx="2.5" ry="2.5" style="stroke:#181818;stroke-width:0.5;" width="244.5449" x="100.11" y="23.49"/><ellipse cx="140.2032" cy="39.49" fill="#ADD1B2" rx="11" ry="11" style="stroke:#181818;stroke-width:1.0;"/><path d="M144.3175,45.49 L136.5977,45.49 L136.5977,33.0969 L144.3175,33.0969 L144.3175,35.2551 L139.0465,35.2551 L139.0465,37.928 L143.8194,37.928 L143.8194,40.0862 L139.0465,40.0862 L139.0465,43.3318 L144.3175,43.3318 Z " fill="#000000"/><text fill="#000000" font-family="sans-serif" font-size="14" lengthAdjust="spacing" textLength="156.7822" x="159.7795" y="44.781">optimal_configurations</text><line style="stroke:#181818;stroke-width:0.5;" x1="101.11" x2="343.6549" y1="55.49" y2="55.49"/><ellipse cx="111.11" cy="69.2341" fill="#000000" rx="3" ry="3" style="stroke:#000000;stroke-width:1.0;"/><text fill="#000000" font-family="sans-serif" font-size="14" lengthAdjust="spacing" textLength="215.626" x="120.11" y="73.0252">request_id : INTEGER NOT NULL</text><line style="stroke:#181818;stroke-width:1.0;" x1="101.11" x2="343.6549" y1="79.9783" y2="79.9783"/><ellipse cx="111.11" cy="93.7224" fill="#000000" rx="3" ry="3" style="stroke:#000000;stroke-width:1.0;"/><text fill="#000000" font-family="sans-serif" font-size="14" lengthAdjust="spacing" textLength="218.5449" x="120.11" y="97.5134">configurations : JSON NOT NULL</text></g><!--class user_acl--><g id="elem_user_acl"><rect codeLine="21" fill="#F1F1F1" height="113.9531" id="user_acl" rx="2.5" ry="2.5" style="stroke:#181818;stroke-width:0.5;" width="421.2744" x="379.74" y="7"/><ellipse cx="558.4758" cy="23" fill="#ADD1B2" rx="11" ry="11" style="stroke:#181818;stroke-width:1.0;"/><path d="M562.5901,29 L554.8704,29 L554.8704,16.6069 L562.5901,16.6069 L562.5901,18.7651 L557.3191,18.7651 L557.3191,21.438 L562.0921,21.438 L562.0921,23.5962 L557.3191,23.5962 L557.3191,26.8418 L562.5901,26.8418 Z " fill="#000000"/><text fill="#000000" font-family="sans-serif" font-size="14" lengthAdjust="spacing" textLength="55.3027" x="578.9758" y="28.291">user_acl</text><line style="stroke:#181818;stroke-width:0.5;" x1="380.74" x2="800.0144" y1="39" y2="39"/><ellipse cx="390.74" cy="52.7441" fill="#000000" rx="3" ry="3" style="stroke:#000000;stroke-width:1.0;"/><text fill="#000000" font-family="sans-serif" font-size="14" lengthAdjust="spacing" textLength="356.2822" x="399.74" y="56.5352">user_email : VARCHAR(128) NOT NULL PRIMARY KEY</text><line style="stroke:#181818;stroke-width:1.0;" x1="380.74" x2="800.0144" y1="63.4883" y2="63.4883"/><ellipse cx="390.74" cy="77.2324" fill="#000000" rx="3" ry="3" style="stroke:#000000;stroke-width:1.0;"/><text fill="#000000" font-family="sans-serif" font-size="14" lengthAdjust="spacing" textLength="395.2744" x="399.74" y="81.0234">update_time : TIMESTAMP DEFAULT CURRENT_TIMESTAMP</text><ellipse cx="390.74" cy="93.7207" fill="#000000" rx="3" ry="3" style="stroke:#000000;stroke-width:1.0;"/><text fill="#000000" font-family="sans-serif" font-size="14" lengthAdjust="spacing" textLength="263.2588" x="399.74" y="97.5117">max_simultaneous_requests : INTEGER</text><ellipse cx="390.74" cy="110.209" fill="#000000" rx="3" ry="3" style="stroke:#000000;stroke-width:1.0;"/><text fill="#000000" font-family="sans-serif" font-size="14" lengthAdjust="spacing" textLength="262.5342" x="399.74" y="114">available_calculations_count : INTEGER</text></g><!--link optimal_configurations to requests--><g id="link_optimal_configurations_requests"><path codeLine="19" d="M222.38,112.91 C222.38,138.74 222.38,157.44 222.38,189.6 " fill="none" id="optimal_configurations-requests" style="stroke:#181818;stroke-width:1.0;"/><line style="stroke:#181818;stroke-width:1.0;" x1="222.38" x2="214.38" y1="112.91" y2="104.91"/><line style="stroke:#181818;stroke-width:1.0;" x1="222.38" x2="230.38" y1="112.91" y2="104.91"/><line style="stroke:#181818;stroke-width:1.0;" x1="222.38" x2="222.38" y1="112.91" y2="104.91"/><line style="stroke:#181818;stroke-width:1.0;" x1="222.38" x2="228.38" y1="189.6" y2="197.6"/><line style="stroke:#181818;stroke-width:1.0;" x1="222.38" x2="216.38" y1="189.6" y2="197.6"/><line style="stroke:#181818;stroke-width:1.0;" x1="222.38" x2="222.38" y1="189.6" y2="197.6"/><line style="stroke:#181818;stroke-width:1.0;" x1="226.38" x2="218.38" y1="187.6" y2="187.6"/><text fill="#000000" font-family="sans-serif" font-size="13" lengthAdjust="spacing" textLength="72.6108" x="223.38" y="164.5184">request_ids</text></g><!--SRC=[bP9TIyCm58Rl-ol2RZh5NgWWubsPKQjjDx9Ms5M8xN44-cMJg6FklvkbZPl58UjLmtdErtjUg2INApHguKs1a6A4c43sWTOEqjyfpz4DccCI-26QaI3ooG8zuOK9Ubx7A04jXPBnGhFFFfay-6HyVd5zWk9fWk8q33ikOqMc2YPvNL5JrxANLqDKI2QLq0YEqmYDtGe-t3FaDcsTWH2yMcvVBR1yjVqHKENki4I_2SsPPBhGutmQ3mXTRTdgShI1DeDAQkeMJ_IETbxTG0ALl0GTIe88pnC_ccdepa_314rIGd2Sq9z8BqUJ7vcsSHpeZr4tEeyLDAkhLxvKhL6hEytV8NiekwuHDeWJV8_9xttjkGRvGsaspe566y_xMkyCSeDsBSLk0MC6bXLcPFkmG_xlbCCcErfLarQoJofugGh9AgYLe7lpzofr87lNKx6N0kYUJONMG1bZM7RZV0C0]--></g></svg>