<svg xmlns="http://www.w3.org/2000/svg" xmlns:xlink="http://www.w3.org/1999/xlink" version="1.1" viewBox="0 0 1680 1522" style="background: #ffffff"><defs joint-selector="defs"></defs><g joint-selector="layers"  transform="matrix(1,0,0,1,0,0)"><g ></g><g ><g   id="j_124"  transform="translate(20,1477)"><g id="v-1278"><text  id="v-1279" font-size="22px" xml:space="preserve" y="0.8em" font-weight="normal" text-anchor="start" fill="#aaaaaa" pointer-events="none" font-family="Open Sans"><tspan dy="0" >Thursday, January 23, 2025 at 3:24 PM Eastern European Standard Time</tspan></text></g></g><g   id="j_123"  transform="translate(20,1446)"><g id="v-1276"><text  id="v-1277" font-size="22px" xml:space="preserve" y="0.8em" font-weight="normal" text-anchor="start" fill="#aaaaaa" pointer-events="none" font-family="Open Sans"><tspan dy="0" >Простые калькуляторы</tspan></text></g></g><g   id="j_122"  transform="translate(20,1402)"><g id="v-1274"><text  id="v-1275" font-size="36px" xml:space="preserve" y="0.8em" font-weight="normal" text-anchor="start" fill="#000000" pointer-events="none" font-family="Open Sans"><tspan dy="0" >[Deployment] Сервис простых расчетов - Production</tspan></text></g></g><g   id="j_114"  transform="translate(200,200)" style=""><g  id="v-1184" style="opacity: 1;"><rect  id="v-1185" width="1280" height="1122" rx="10" ry="10" fill="#ffffff" stroke="#888888" stroke-width="1" pointer-events="none" style="stroke: rgb(136, 136, 136);"></rect><text  id="v-1186" font-size="24px" xml:space="preserve" y="1083" font-weight="normal" text-anchor="start" pointer-events="visible" font-family="Open Sans" fill="#000000" transform="matrix(1,0,0,1,15,0)" style="fill: rgb(0, 0, 0);"><tspan dy="0" >FirstVDS</tspan></text><text  id="v-1187" font-size="17px" xml:space="preserve" y="1107" font-weight="normal" text-anchor="start" pointer-events="visible" font-family="Open Sans" fill="#000000" transform="matrix(1,0,0,1,15,0)" style="fill: rgb(0, 0, 0);"><tspan dy="0" >[Deployment Node]</tspan></text><text  id="v-1188" font-size="40px" xml:space="preserve" display="none" y="1107" font-weight="normal" fill="#000000" text-anchor="end" pointer-events="visible" font-family="Open Sans" transform="matrix(1,0,0,1,1265,0)"><tspan dy="0" style="fill-opacity: 0; stroke-opacity: 0;" >-</tspan></text><image  id="v-1189" pointer-events="visible"></image></g></g><g   id="j_115"  transform="translate(220,220)" style=""><g  id="v-1190" style="opacity: 1;"><rect  id="v-1191" width="1240" height="1011" rx="10" ry="10" fill="#ffffff" stroke="#888888" stroke-width="1" pointer-events="none" style="stroke: rgb(136, 136, 136);"></rect><text  id="v-1192" font-size="24px" xml:space="preserve" y="972" font-weight="normal" text-anchor="start" pointer-events="visible" font-family="Open Sans" fill="#000000" transform="matrix(1,0,0,1,15,0)" style="fill: rgb(0, 0, 0);"><tspan dy="0" >SINODE-1</tspan></text><text  id="v-1193" font-size="17px" xml:space="preserve" y="996" font-weight="normal" text-anchor="start" pointer-events="visible" font-family="Open Sans" fill="#000000" transform="matrix(1,0,0,1,15,0)" style="fill: rgb(0, 0, 0);"><tspan dy="0" >[Deployment Node: VPS KVM]</tspan></text><text  id="v-1194" font-size="40px" xml:space="preserve" display="none" y="996" font-weight="normal" fill="#000000" text-anchor="end" pointer-events="visible" font-family="Open Sans" transform="matrix(1,0,0,1,1225,0)"><tspan dy="0" style="fill-opacity: 0; stroke-opacity: 0;" >-</tspan></text><image  id="v-1195" pointer-events="visible"></image></g></g><g   id="j_110"  transform="translate(990,240)" style=""><g  id="v-1147" style="opacity: 1;"><rect  id="v-1148" rx="20" ry="20" stroke="#3c7fc0" stroke-width="2" pointer-events="visiblePainted" fill="#438dd5" width="450" height="300" style="fill: rgb(67, 141, 213); stroke: rgb(60, 127, 192);"></rect><text  id="v-1149" font-size="34" xml:space="preserve" y="0.8em" font-weight="bold" text-anchor="middle" pointer-events="visible" font-family="Open Sans" fill="#ffffff" transform="matrix(1,0,0,1,225,76.9)" style="fill: rgb(255, 255, 255);"><tspan dy="0" >Панель управления</tspan><tspan dy="1.2em" x="0" >калькуляторами</tspan></text><text  id="v-1150" font-size="17" xml:space="preserve" y="0.8em" text-anchor="middle" font-family="Open Sans" fill="#ffffff" transform="matrix(1,0,0,1,225,161.9)" style="fill: rgb(255, 255, 255);"><tspan dy="0" >[Container: php 7.4, WordPress, CFF Plugin]</tspan></text><text  id="v-1151" font-size="24" xml:space="preserve" y="0.8em" text-anchor="middle" font-family="Open Sans" fill="#ffffff" transform="matrix(1,0,0,1,225,193.1)" style="fill: rgb(255, 255, 255);"><tspan dy="0" >WordPress + CFF Plugin</tspan></text><g  id="v-1152" color="#ffffff" transform="matrix(1,0,0,1,222.5,233.1)" display="none" style="fill: rgb(255, 255, 255);"><g ></g><g ></g><g ></g><g ></g></g><image  id="v-1153"></image></g></g><g   id="j_111"  transform="translate(240,240)" style=""><g  id="v-1160" style="opacity: 1;"><rect  id="v-1161" rx="20" ry="20" stroke="#3c7fc0" stroke-width="2" pointer-events="visiblePainted" fill="#438dd5" width="450" height="300" style="fill: rgb(67, 141, 213); stroke: rgb(60, 127, 192);"></rect><text  id="v-1162" font-size="34" xml:space="preserve" y="0.8em" font-weight="bold" text-anchor="middle" pointer-events="visible" font-family="Open Sans" fill="#ffffff" transform="matrix(1,0,0,1,225,98.1)" style="fill: rgb(255, 255, 255);"><tspan dy="0" >Веб-сервер</tspan></text><text  id="v-1163" font-size="17" xml:space="preserve" y="0.8em" text-anchor="middle" font-family="Open Sans" fill="#ffffff" transform="matrix(1,0,0,1,225,140.6)" style="fill: rgb(255, 255, 255);"><tspan dy="0" >[Container: nginx/1.22.1 + php-fpm]</tspan></text><text  id="v-1164" font-size="24" xml:space="preserve" y="0.8em" text-anchor="middle" font-family="Open Sans" fill="#ffffff" transform="matrix(1,0,0,1,225,171.9)" style="fill: rgb(255, 255, 255);"><tspan dy="0" >Веб-сервер (nginx/1.18 + php-fpm)</tspan></text><g  id="v-1165" color="#ffffff" transform="matrix(1,0,0,1,210,211.9)" display="none" style="fill: rgb(255, 255, 255);"><g ></g><g ></g><g ></g><g  transform="translate(5 0)"><svg xmlns="http://www.w3.org/2000/svg" width="20" height="20" fill="currentColor" viewBox="0 0 16 16"><path d="M6.354 5.5H4a3 3 0 0 0 0 6h3a3 3 0 0 0 2.83-4H9c-.086 0-.17.01-.25.031A2 2 0 0 1 7 10.5H4a2 2 0 1 1 0-4h1.535c.218-.376.495-.714.82-1z"></path><path d="M9 5.5a3 3 0 0 0-2.83 4h1.098A2 2 0 0 1 9 6.5h3a2 2 0 1 1 0 4h-1.535a4.02 4.02 0 0 1-.82 1H12a3 3 0 1 0 0-6H9z"></path></svg></g></g><image  id="v-1166"></image></g></g><g   id="j_109"  transform="translate(240,840)" style=""><g  id="v-1134" style="opacity: 1;"><rect  id="v-1135" rx="20" ry="20" stroke="#3c7fc0" stroke-width="2" pointer-events="visiblePainted" fill="#438dd5" width="450" height="300" style="fill: rgb(67, 141, 213); stroke: rgb(60, 127, 192);"></rect><text  id="v-1136" font-size="34" xml:space="preserve" y="0.8em" font-weight="bold" text-anchor="middle" pointer-events="visible" font-family="Open Sans" fill="#ffffff" transform="matrix(1,0,0,1,225,61.9)" style="fill: rgb(255, 255, 255);"><tspan dy="0" >Готовые сборки</tspan><tspan dy="1.2em" x="0" >калькуляторов</tspan></text><text  id="v-1137" font-size="17" xml:space="preserve" y="0.8em" text-anchor="middle" font-family="Open Sans" fill="#ffffff" transform="matrix(1,0,0,1,225,146.9)" style="fill: rgb(255, 255, 255);"><tspan dy="0" >[Container: php 7.4, web-sockets]</tspan></text><text  id="v-1138" font-size="24" xml:space="preserve" y="0.8em" text-anchor="middle" font-family="Open Sans" fill="#ffffff" transform="matrix(1,0,0,1,225,178.1)" style="fill: rgb(255, 255, 255);"><tspan dy="0" >Контроллер сборки</tspan><tspan dy="1.2em" x="0" >калькуляторов на JS</tspan></text><g  id="v-1139" color="#ffffff" transform="matrix(1,0,0,1,222.5,248.1)" display="none" style="fill: rgb(255, 255, 255);"><g ></g><g ></g><g ></g><g ></g></g><image  id="v-1140"></image></g></g><g   id="j_112"  transform="translate(990,840)" style=""><g  id="v-1170" style="opacity: 1;"><path  d="M 0,30 a 225,30 0,0,0 450 0 a 225,30 0,0,0 -450 0 l 0,240 a 225,30 0,0,0 450 0 l 0,-240" id="v-1171" stroke="#78a8d8" stroke-width="2" pointer-events="visiblePainted" fill="#85bbf0" style="fill: rgb(133, 187, 240); stroke: rgb(120, 168, 216);"></path><rect  id="v-1172" stroke-width="0" pointer-events="visiblePainted" fill="none" stroke="none" width="450" height="270" x="0" y="30"></rect><text  id="v-1173" font-size="34" xml:space="preserve" y="0.8em" font-weight="bold" text-anchor="middle" pointer-events="visible" font-family="Open Sans" fill="#ffffff" transform="matrix(1,0,0,1,225,128.1)" style="fill: rgb(255, 255, 255);"><tspan dy="0" >БД db_sinode</tspan></text><text  id="v-1174" font-size="17" xml:space="preserve" y="0.8em" text-anchor="middle" font-family="Open Sans" fill="#ffffff" transform="matrix(1,0,0,1,225,170.6)" style="fill: rgb(255, 255, 255);"><tspan dy="0" >[Container: MySQL]</tspan></text><text  id="v-1175" font-size="24" xml:space="preserve" y="0.8em" text-anchor="middle" font-family="Open Sans" fill="#ffffff" transform="matrix(1,0,0,1,225,201.9)" style="fill: rgb(255, 255, 255);"><tspan dy="0" >db: db_sinode (MariaDB 10.5.26)</tspan></text><g  id="v-1176" font-weight="normal" text-anchor="middle" color="#ffffff" transform="matrix(1,0,0,1,222.5,241.9)" display="none" style="fill: rgb(255, 255, 255);"><g ></g><g ></g><g ></g><g ></g></g><image  id="v-1177"></image></g></g><g   id="j_119" ><path  stroke="#707070" d="M 1028 540 L 653 840" id="v-1229" stroke-width="2" stroke-dasharray="30 30" fill="none" style="opacity: 1;"></path><path  fill="black" stroke="black" d="M 0 0 0 0" transform="matrix(-0.7808688416748545,0.6246950072646417,-0.6246950072646417,-0.7808688416748545,1027.5,540)"></path><path  fill="#707070" stroke="#707070" d="M 20 0 L 0 10 L 20 20 z" id="v-1231" transform="matrix(0.7808686753084833,-0.624695215222571,0.624695215222571,0.7808686753084833,646.2530769150019,832.1913171569535)" style="opacity: 1;"></path><path  d="M 1028 540 L 653 840" id="v-1230" fill="none" style="cursor: auto; pointer-events: visiblepainted;"></path><g ><g id="v-1220"  label-idx="0" cursor="move" transform="matrix(1,0,0,1,840.5,690)" style="cursor: default; opacity: 1;"><rect joint-selector="rect" id="v-1224" fill="#ffffff" rx="3" ry="3" pointer-events="none" width="193.68984985351562" height="234.4108657836914" transform="matrix(1,0,0,1,-96.8,-117.2)"></rect><text joint-selector="text" id="v-1223" font-size="24px" xml:space="preserve" y="0.8em" fill="#707070" text-anchor="middle" pointer-events="none" font-family="Open Sans" font-weight="normal" transform="matrix(1,0,0,1,0,-111)"><tspan dy="0" >Периодически</tspan><tspan dy="1.2em" x="0" >выгружает</tspan><tspan dy="1.2em" x="0" >бинарные</tspan><tspan dy="1.2em" x="0" >сборки</tspan><tspan dy="1.2em" x="0" >калькуляторов в</tspan><tspan dy="1.2em" x="0" >публичную</tspan><tspan dy="1.2em" x="0" >директорию на</tspan><tspan dy="1.2em" x="0" >сайте</tspan></text></g><g id="v-1221"  label-idx="1" cursor="move" transform="matrix(1,0,0,1,840.5,822)" style="cursor: default; opacity: 1;"><rect joint-selector="rect" id="v-1226" fill="#ffffff" rx="3" ry="3" pointer-events="none" width="29.2221622467041" height="23.285118103027344" transform="matrix(1,0,0,1,-14.6,-11.6)"></rect><text joint-selector="text" id="v-1225" font-size="17px" xml:space="preserve" y="0.8em" fill="#707070" text-anchor="middle" pointer-events="none" font-family="Open Sans" font-weight="normal" transform="matrix(1,0,0,1,0,-7.2)"><tspan dy="0" >[FS]</tspan></text></g><g id="v-1222"  label-idx="2" cursor="move" transform="matrix(1,0,0,1,830.5,831.25)" style="cursor: default; opacity: 1;"><rect joint-selector="rect" id="v-1228" fill="#ffffff" rx="3" ry="3"  width="0" height="0" transform="matrix(1,0,0,1,0,0)" display="none"></rect><text joint-selector="text" id="v-1227" fill="#000000" font-size="14" text-anchor="middle" pointer-events="none"></text></g></g><g  display="none" style="display: none;"></g><g  id="v-1233" display="none"><g  id="v-1218"><path  end="source" d="M 26 0 L 0 13 L 26 26 z"></path></g><g  id="v-1219"><path  end="target" d="M 26 0 L 0 13 L 26 26 z"></path></g></g><g  id="v-1232" display="none"><g  id="v-1217" transform="translate(996.7652476222788, 564.987801902177) "><g  event="remove"><circle r="11"></circle><path transform="scale(.8) translate(-16, -16)" d="M24.778,21.419 19.276,15.917 24.777,10.415 21.949,7.585 16.447,13.087 10.945,7.585 8.117,10.415 13.618,15.917 8.116,21.419 10.946,24.248 16.447,18.746 21.948,24.248z"></path><title>Remove link.</title></g><g  event="link:options"><circle r="11" transform="translate(25)"></circle><path fill="white" transform="scale(.55) translate(29, -16)" d="M31.229,17.736c0.064-0.571,0.104-1.148,0.104-1.736s-0.04-1.166-0.104-1.737l-4.377-1.557c-0.218-0.716-0.504-1.401-0.851-2.05l1.993-4.192c-0.725-0.91-1.549-1.734-2.458-2.459l-4.193,1.994c-0.647-0.347-1.334-0.632-2.049-0.849l-1.558-4.378C17.165,0.708,16.588,0.667,16,0.667s-1.166,0.041-1.737,0.105L12.707,5.15c-0.716,0.217-1.401,0.502-2.05,0.849L6.464,4.005C5.554,4.73,4.73,5.554,4.005,6.464l1.994,4.192c-0.347,0.648-0.632,1.334-0.849,2.05l-4.378,1.557C0.708,14.834,0.667,15.412,0.667,16s0.041,1.165,0.105,1.736l4.378,1.558c0.217,0.715,0.502,1.401,0.849,2.049l-1.994,4.193c0.725,0.909,1.549,1.733,2.459,2.458l4.192-1.993c0.648,0.347,1.334,0.633,2.05,0.851l1.557,4.377c0.571,0.064,1.148,0.104,1.737,0.104c0.588,0,1.165-0.04,1.736-0.104l1.558-4.377c0.715-0.218,1.399-0.504,2.049-0.851l4.193,1.993c0.909-0.725,1.733-1.549,2.458-2.458l-1.993-4.193c0.347-0.647,0.633-1.334,0.851-2.049L31.229,17.736zM16,20.871c-2.69,0-4.872-2.182-4.872-4.871c0-2.69,2.182-4.872,4.872-4.872c2.689,0,4.871,2.182,4.871,4.872C20.871,18.689,18.689,20.871,16,20.871z"></path><title>Link options.</title></g></g></g></g><g   id="j_120" ><path  stroke="#707070" d="M 465 540 L 465 840" id="v-1249" stroke-width="2" stroke-dasharray="30 30" fill="none" style="opacity: 1;"></path><path  fill="black" stroke="black" d="M 0 0 0 0" transform="matrix(6.123233995736765e-17,0.9999999999999999,-0.9999999999999999,6.123233995736765e-17,465,540)"></path><path  fill="#707070" stroke="#707070" d="M 20 0 L 0 10 L 20 20 z" id="v-1251" transform="matrix(-1.8369701987210294e-16,-0.9999999999999999,0.9999999999999999,-1.8369701987210294e-16,454.99999999999994,840.0000000000001)" style="opacity: 1;"></path><path  d="M 465 540 L 465 840" id="v-1250" fill="none" style="cursor: auto; pointer-events: visiblepainted;"></path><g ><g id="v-1240"  label-idx="0" cursor="move" transform="matrix(1,0,0,1,465,690)" style="cursor: default; opacity: 1;"><rect joint-selector="rect" id="v-1244" fill="#ffffff" rx="3" ry="3" pointer-events="none" width="173.67919921875" height="176.81084442138672" transform="matrix(1,0,0,1,-86.8,-88.4)"></rect><text joint-selector="text" id="v-1243" font-size="24px" xml:space="preserve" y="0.8em" fill="#707070" text-anchor="middle" pointer-events="none" font-family="Open Sans" font-weight="normal" transform="matrix(1,0,0,1,0,-82.2)"><tspan dy="0" >Запрашиавет</tspan><tspan dy="1.2em" x="0" >код для</tspan><tspan dy="1.2em" x="0" >отображения</tspan><tspan dy="1.2em" x="0" >калькуляторов</tspan><tspan dy="1.2em" x="0" >на стороне</tspan><tspan dy="1.2em" x="0" >клиента</tspan></text></g><g id="v-1241"  label-idx="1" cursor="move" transform="matrix(1,0,0,1,465,792)" style="cursor: default; opacity: 1;"><rect joint-selector="rect" id="v-1246" fill="#ffffff" rx="3" ry="3" pointer-events="none" width="108.8182373046875" height="23.285118103027344" transform="matrix(1,0,0,1,-54.4,-11.6)"></rect><text joint-selector="text" id="v-1245" font-size="17px" xml:space="preserve" y="0.8em" fill="#707070" text-anchor="middle" pointer-events="none" font-family="Open Sans" font-weight="normal" transform="matrix(1,0,0,1,0,-7.2)"><tspan dy="0" >[web-sockets]</tspan></text></g><g id="v-1242"  label-idx="2" cursor="move" transform="matrix(1,0,0,1,455,801.25)" style="cursor: default; opacity: 1;"><rect joint-selector="rect" id="v-1248" fill="#ffffff" rx="3" ry="3"  width="0" height="0" transform="matrix(1,0,0,1,0,0)" display="none"></rect><text joint-selector="text" id="v-1247" fill="#000000" font-size="14" text-anchor="middle" pointer-events="none"></text></g></g><g  display="none" style="display: none;"></g><g  id="v-1253" display="none"><g  id="v-1238"><path  end="source" d="M 26 0 L 0 13 L 26 26 z"></path></g><g  id="v-1239"><path  end="target" d="M 26 0 L 0 13 L 26 26 z"></path></g></g><g  id="v-1252" display="none"><g  id="v-1237" transform="translate(465, 580) "><g  event="remove"><circle r="11"></circle><path transform="scale(.8) translate(-16, -16)" d="M24.778,21.419 19.276,15.917 24.777,10.415 21.949,7.585 16.447,13.087 10.945,7.585 8.117,10.415 13.618,15.917 8.116,21.419 10.946,24.248 16.447,18.746 21.948,24.248z"></path><title>Remove link.</title></g><g  event="link:options"><circle r="11" transform="translate(25)"></circle><path fill="white" transform="scale(.55) translate(29, -16)" d="M31.229,17.736c0.064-0.571,0.104-1.148,0.104-1.736s-0.04-1.166-0.104-1.737l-4.377-1.557c-0.218-0.716-0.504-1.401-0.851-2.05l1.993-4.192c-0.725-0.91-1.549-1.734-2.458-2.459l-4.193,1.994c-0.647-0.347-1.334-0.632-2.049-0.849l-1.558-4.378C17.165,0.708,16.588,0.667,16,0.667s-1.166,0.041-1.737,0.105L12.707,5.15c-0.716,0.217-1.401,0.502-2.05,0.849L6.464,4.005C5.554,4.73,4.73,5.554,4.005,6.464l1.994,4.192c-0.347,0.648-0.632,1.334-0.849,2.05l-4.378,1.557C0.708,14.834,0.667,15.412,0.667,16s0.041,1.165,0.105,1.736l4.378,1.558c0.217,0.715,0.502,1.401,0.849,2.049l-1.994,4.193c0.725,0.909,1.549,1.733,2.459,2.458l4.192-1.993c0.648,0.347,1.334,0.633,2.05,0.851l1.557,4.377c0.571,0.064,1.148,0.104,1.737,0.104c0.588,0,1.165-0.04,1.736-0.104l1.558-4.377c0.715-0.218,1.399-0.504,2.049-0.851l4.193,1.993c0.909-0.725,1.733-1.549,2.458-2.458l-1.993-4.193c0.347-0.647,0.633-1.334,0.851-2.049L31.229,17.736zM16,20.871c-2.69,0-4.872-2.182-4.872-4.871c0-2.69,2.182-4.872,4.872-4.872c2.689,0,4.871,2.182,4.871,4.872C20.871,18.689,18.689,20.871,16,20.871z"></path><title>Link options.</title></g></g></g></g><g   id="j_121" ><path  stroke="#707070" d="M 1215 540 L 1215 840" id="v-1266" stroke-width="2" stroke-dasharray="30 30" fill="none" style="opacity: 1;"></path><path  fill="black" stroke="black" d="M 0 0 0 0" transform="matrix(6.123233995736765e-17,0.9999999999999999,-0.9999999999999999,6.123233995736765e-17,1215,540)"></path><path  fill="#707070" stroke="#707070" d="M 20 0 L 0 10 L 20 20 z" id="v-1268" transform="matrix(-1.8369701987210294e-16,-0.9999999999999999,0.9999999999999999,-1.8369701987210294e-16,1205,840.0000000000001)" style="opacity: 1;"></path><path  d="M 1215 540 L 1215 840" id="v-1267" fill="none" style="cursor: auto; pointer-events: visiblepainted;"></path><g ><g id="v-1260"  label-idx="0" cursor="move" transform="matrix(1,0,0,1,1215,690)" style="cursor: default; opacity: 1;"><rect joint-selector="rect" id="v-1263" fill="#ffffff" rx="3" ry="3" pointer-events="none" width="187.7197265625" height="90.41085433959961" transform="matrix(1,0,0,1,-93.9,-45.2)"></rect><text joint-selector="text" id="v-1262" font-size="24px" xml:space="preserve" y="0.8em" fill="#707070" text-anchor="middle" pointer-events="none" font-family="Open Sans" font-weight="normal" transform="matrix(1,0,0,1,0,-39)"><tspan dy="0" >Исходный код и</tspan><tspan dy="1.2em" x="0" >конфигурации</tspan><tspan dy="1.2em" x="0" >калькуляторов</tspan></text></g><g id="v-1261"  label-idx="1" cursor="move" transform="matrix(1,0,0,1,1205,747)" style="cursor: default; opacity: 1;"><rect joint-selector="rect" id="v-1265" fill="#ffffff" rx="3" ry="3"  width="0" height="0" transform="matrix(1,0,0,1,0,0)" display="none"></rect><text joint-selector="text" id="v-1264" fill="#000000" font-size="14" text-anchor="middle" pointer-events="none"></text></g></g><g  display="none" style="display: none;"></g><g  id="v-1270" display="none"><g  id="v-1258"><path  end="source" d="M 26 0 L 0 13 L 26 26 z"></path></g><g  id="v-1259"><path  end="target" d="M 26 0 L 0 13 L 26 26 z"></path></g></g><g  id="v-1269" display="none"><g  id="v-1257" transform="translate(1215, 580) "><g  event="remove"><circle r="11"></circle><path transform="scale(.8) translate(-16, -16)" d="M24.778,21.419 19.276,15.917 24.777,10.415 21.949,7.585 16.447,13.087 10.945,7.585 8.117,10.415 13.618,15.917 8.116,21.419 10.946,24.248 16.447,18.746 21.948,24.248z"></path><title>Remove link.</title></g><g  event="link:options"><circle r="11" transform="translate(25)"></circle><path fill="white" transform="scale(.55) translate(29, -16)" d="M31.229,17.736c0.064-0.571,0.104-1.148,0.104-1.736s-0.04-1.166-0.104-1.737l-4.377-1.557c-0.218-0.716-0.504-1.401-0.851-2.05l1.993-4.192c-0.725-0.91-1.549-1.734-2.458-2.459l-4.193,1.994c-0.647-0.347-1.334-0.632-2.049-0.849l-1.558-4.378C17.165,0.708,16.588,0.667,16,0.667s-1.166,0.041-1.737,0.105L12.707,5.15c-0.716,0.217-1.401,0.502-2.05,0.849L6.464,4.005C5.554,4.73,4.73,5.554,4.005,6.464l1.994,4.192c-0.347,0.648-0.632,1.334-0.849,2.05l-4.378,1.557C0.708,14.834,0.667,15.412,0.667,16s0.041,1.165,0.105,1.736l4.378,1.558c0.217,0.715,0.502,1.401,0.849,2.049l-1.994,4.193c0.725,0.909,1.549,1.733,2.459,2.458l4.192-1.993c0.648,0.347,1.334,0.633,2.05,0.851l1.557,4.377c0.571,0.064,1.148,0.104,1.737,0.104c0.588,0,1.165-0.04,1.736-0.104l1.558-4.377c0.715-0.218,1.399-0.504,2.049-0.851l4.193,1.993c0.909-0.725,1.733-1.549,2.458-2.458l-1.993-4.193c0.347-0.647,0.633-1.334,0.851-2.049L31.229,17.736zM16,20.871c-2.69,0-4.872-2.182-4.872-4.871c0-2.69,2.182-4.872,4.872-4.872c2.689,0,4.871,2.182,4.871,4.872C20.871,18.689,18.689,20.871,16,20.871z"></path><title>Link options.</title></g></g></g></g></g><g ></g><g ></g><g ></g></g></svg>