<svg xmlns="http://www.w3.org/2000/svg" xmlns:xlink="http://www.w3.org/1999/xlink" version="1.1" viewBox="0 0 1367 3223" style="background: #ffffff"><defs joint-selector="defs"></defs><g joint-selector="layers"  transform="matrix(1,0,0,1,0,0)"><g ></g><g ><g   id="j_23"  transform="translate(20,3178)"><g id="v-276"><text  id="v-277" font-size="22px" xml:space="preserve" y="0.8em" font-weight="normal" text-anchor="start" fill="#aaaaaa" pointer-events="none" font-family="Open Sans"><tspan dy="0" >Thursday, January 23, 2025 at 3:28 PM Eastern European Standard Time</tspan></text></g></g><g   id="j_22"  transform="translate(20,3147)"><g id="v-274"><text  id="v-275" font-size="22px" xml:space="preserve" y="0.8em" font-weight="normal" text-anchor="start" fill="#aaaaaa" pointer-events="none" font-family="Open Sans"><tspan dy="0" >Калькуляторы металлопроката</tspan></text></g></g><g   id="j_21"  transform="translate(20,3103)"><g id="v-272"><text  id="v-273" font-size="36px" xml:space="preserve" y="0.8em" font-weight="normal" text-anchor="start" fill="#000000" pointer-events="none" font-family="Open Sans"><tspan dy="0" >[Container] Сервис расчета металлопроката</tspan></text></g></g><g   id="j_10"  transform="translate(537,200)" style=""><g  id="v-114" style="opacity: 1;"><rect  x="0" y="160" width="400" height="240" rx="70" id="v-116" stroke="#b8b8b8" stroke-width="2" pointer-events="visiblePainted" fill="#cccccc" style="fill: rgb(204, 204, 204); stroke: rgb(184, 184, 184);"></rect><circle  cx="200" cy="88.88888888888889" r="88.88888888888889" id="v-115" stroke="#b8b8b8" stroke-width="2" pointer-events="visiblePainted" fill="#cccccc" style="fill: rgb(204, 204, 204); stroke: rgb(184, 184, 184);"></circle><line  x1="80" y1="266.6666666666667" x2="80" y2="400" id="v-122" stroke="#b8b8b8" stroke-width="2" style="stroke: rgb(184, 184, 184);"></line><line  x1="320" y1="266.6666666666667" x2="320" y2="400" id="v-123" stroke="#b8b8b8" stroke-width="2" style="stroke: rgb(184, 184, 184);"></line><text  id="v-117" font-size="34" xml:space="preserve" y="0.8em" font-weight="bold" text-anchor="middle" pointer-events="visible" font-family="Open Sans" fill="#ffffff" transform="matrix(1,0,0,1,200,221.9)" style="fill: rgb(255, 255, 255);"><tspan dy="0" >Пользователь</tspan><tspan dy="1.2em" x="0" >(посетитель сайта)</tspan></text><text  id="v-118" font-size="17" xml:space="preserve" y="0.8em" text-anchor="middle" font-family="Open Sans" fill="#ffffff" transform="matrix(1,0,0,1,200,306.9)" style="fill: rgb(255, 255, 255);"><tspan dy="0" >[Person]</tspan></text><text  id="v-119" font-size="24" xml:space="preserve" display="none" y="0.8em" text-anchor="middle" font-family="Open Sans" fill="#ffffff" transform="matrix(1,0,0,1,200,338.1)" style="fill: rgb(255, 255, 255);"><tspan dy="0" style="fill-opacity: 0; stroke-opacity: 0;" >-</tspan></text><g  id="v-120" font-weight="normal" text-anchor="middle" color="#ffffff" transform="matrix(1,0,0,1,197.5,348.1)" display="none" style="fill: rgb(255, 255, 255);"><g ></g><g ></g><g ></g><g ></g></g><image  id="v-121"></image></g></g><g   id="j_11"  transform="translate(199,800)" style=""><g  id="v-127" style="opacity: 1;"><rect  id="v-128" rx="20" ry="20" stroke="#0f5eaa" stroke-width="2" pointer-events="visiblePainted" fill="#1168bd" width="450" height="300" style="fill: rgb(17, 104, 189); stroke: rgb(15, 94, 170);"></rect><text  id="v-129" font-size="34" xml:space="preserve" y="0.8em" font-weight="bold" text-anchor="middle" pointer-events="visible" font-family="Open Sans" fill="#ffffff" transform="matrix(1,0,0,1,225,55.6)" style="fill: rgb(255, 255, 255);"><tspan dy="0" >Онлайн-сервис</tspan><tspan dy="1.2em" x="0" >автоматизации</tspan><tspan dy="1.2em" x="0" >строительных расчетов</tspan></text><text  id="v-130" font-size="17" xml:space="preserve" y="0.8em" text-anchor="middle" font-family="Open Sans" fill="#ffffff" transform="matrix(1,0,0,1,225,183.1)" style="fill: rgb(255, 255, 255);"><tspan dy="0" >[Software System]</tspan></text><text  id="v-131" font-size="24" xml:space="preserve" y="0.8em" text-anchor="middle" font-family="Open Sans" fill="#ffffff" transform="matrix(1,0,0,1,225,214.4)" style="fill: rgb(255, 255, 255);"><tspan dy="0" >KALK.PRO</tspan></text><g  id="v-132" color="#ffffff" transform="matrix(1,0,0,1,222.5,254.4)" display="none" style="fill: rgb(255, 255, 255);"><g ></g><g ></g><g ></g><g ></g></g><image  id="v-133"></image></g></g><g   id="j_13"  transform="translate(517,1380)" style=""><g id="v-145"><rect  id="v-146" width="490" height="1643" rx="0" ry="0" fill="#ffffff" stroke="#0f5eaa" stroke-width="1" stroke-dasharray="20,20" pointer-events="none"></rect><text  id="v-147" font-size="40px" xml:space="preserve" y="1588" font-weight="normal" fill="#0f5eaa" text-anchor="start" pointer-events="visible" font-family="Open Sans" transform="matrix(1,0,0,1,15,0)"><tspan dy="0" >Сервис расчета металлопроката</tspan></text><text  id="v-148" font-size="33px" xml:space="preserve" y="1628" font-weight="normal" fill="#0f5eaa" text-anchor="start" pointer-events="visible" font-family="Open Sans" transform="matrix(1,0,0,1,15,0)"><tspan dy="0" >[Software System]</tspan></text><image  id="v-149" pointer-events="visible"></image></g></g><g   id="j_12"  transform="translate(537,2600)" style=""><g  id="v-137" style="opacity: 1;"><path  d="M 0,30 a 225,30 0,0,0 450 0 a 225,30 0,0,0 -450 0 l 0,240 a 225,30 0,0,0 450 0 l 0,-240" id="v-138" stroke="#78a8d8" stroke-width="2" pointer-events="visiblePainted" fill="#85bbf0" style="fill: rgb(133, 187, 240); stroke: rgb(120, 168, 216);"></path><rect  id="v-139" stroke-width="0" pointer-events="visiblePainted" fill="none" stroke="none" width="450" height="270" x="0" y="30"></rect><text  id="v-140" font-size="34" xml:space="preserve" y="0.8em" font-weight="bold" text-anchor="middle" pointer-events="visible" font-family="Open Sans" fill="#ffffff" transform="matrix(1,0,0,1,225,128.1)" style="fill: rgb(255, 255, 255);"><tspan dy="0" >БД db_metalcalcru</tspan></text><text  id="v-141" font-size="17" xml:space="preserve" y="0.8em" text-anchor="middle" font-family="Open Sans" fill="#ffffff" transform="matrix(1,0,0,1,225,170.6)" style="fill: rgb(255, 255, 255);"><tspan dy="0" >[Container: MySQL]</tspan></text><text  id="v-142" font-size="24" xml:space="preserve" y="0.8em" text-anchor="middle" font-family="Open Sans" fill="#ffffff" transform="matrix(1,0,0,1,225,201.9)" style="fill: rgb(255, 255, 255);"><tspan dy="0" >База данных сайта</tspan></text><g  id="v-143" font-weight="normal" text-anchor="middle" color="#ffffff" transform="matrix(1,0,0,1,222.5,241.9)" display="none" style="fill: rgb(255, 255, 255);"><g ></g><g ></g><g ></g><g ></g></g><image  id="v-144"></image></g></g><g   id="j_14"  transform="translate(537,1400)" style=""><g  id="v-153" style="opacity: 1;"><rect  id="v-154" rx="20" ry="20" stroke="#3c7fc0" stroke-width="2" pointer-events="visiblePainted" fill="#438dd5" width="450" height="300" style="fill: rgb(67, 141, 213); stroke: rgb(60, 127, 192);"></rect><text  id="v-155" font-size="34" xml:space="preserve" y="0.8em" font-weight="bold" text-anchor="middle" pointer-events="visible" font-family="Open Sans" fill="#ffffff" transform="matrix(1,0,0,1,225,113.1)" style="fill: rgb(255, 255, 255);"><tspan dy="0" >Веб-сервер</tspan></text><text  id="v-156" font-size="17" xml:space="preserve" y="0.8em" text-anchor="middle" font-family="Open Sans" fill="#ffffff" transform="matrix(1,0,0,1,225,155.6)" style="fill: rgb(255, 255, 255);"><tspan dy="0" >[Container: nginx/1.22.1 + php-fpm]</tspan></text><text  id="v-157" font-size="24" xml:space="preserve" display="none" y="0.8em" text-anchor="middle" font-family="Open Sans" fill="#ffffff" transform="matrix(1,0,0,1,225,186.9)" style="fill: rgb(255, 255, 255);"><tspan dy="0" style="fill-opacity: 0; stroke-opacity: 0;" >-</tspan></text><g  id="v-158" color="#ffffff" transform="matrix(1,0,0,1,210,196.9)" display="none" style="fill: rgb(255, 255, 255);"><g ></g><g ></g><g ></g><g  transform="translate(5 0)"><svg xmlns="http://www.w3.org/2000/svg" width="20" height="20" fill="currentColor" viewBox="0 0 16 16"><path d="M6.354 5.5H4a3 3 0 0 0 0 6h3a3 3 0 0 0 2.83-4H9c-.086 0-.17.01-.25.031A2 2 0 0 1 7 10.5H4a2 2 0 1 1 0-4h1.535c.218-.376.495-.714.82-1z"></path><path d="M9 5.5a3 3 0 0 0-2.83 4h1.098A2 2 0 0 1 9 6.5h3a2 2 0 1 1 0 4h-1.535a4.02 4.02 0 0 1-.82 1H12a3 3 0 1 0 0-6H9z"></path></svg></g></g><image  id="v-159"></image></g></g><g   id="j_15"  transform="translate(537,2000)" style=""><g  id="v-169" style="opacity: 1;"><rect  id="v-170" rx="20" ry="20" stroke="#3c7fc0" stroke-width="2" pointer-events="visiblePainted" fill="#438dd5" width="450" height="300" style="fill: rgb(67, 141, 213); stroke: rgb(60, 127, 192);"></rect><text  id="v-171" font-size="34" xml:space="preserve" y="0.8em" font-weight="bold" text-anchor="middle" pointer-events="visible" font-family="Open Sans" fill="#ffffff" transform="matrix(1,0,0,1,225,46.9)" style="fill: rgb(255, 255, 255);"><tspan dy="0" >Сайт-справочник по</tspan><tspan dy="1.2em" x="0" >металлопрокату</tspan></text><text  id="v-172" font-size="17" xml:space="preserve" y="0.8em" text-anchor="middle" font-family="Open Sans" fill="#ffffff" transform="matrix(1,0,0,1,225,131.9)" style="fill: rgb(255, 255, 255);"><tspan dy="0" >[Container: php 7.4, UMI.CMS, ReactJS]</tspan></text><text  id="v-173" font-size="24" xml:space="preserve" y="0.8em" text-anchor="middle" font-family="Open Sans" fill="#ffffff" transform="matrix(1,0,0,1,225,163.1)" style="fill: rgb(255, 255, 255);"><tspan dy="0" >Панель управления</tspan><tspan dy="1.2em" x="0" >номенклатурным каталогом</tspan><tspan dy="1.2em" x="0" >характеристик металлопроката</tspan></text><g  id="v-174" color="#ffffff" transform="matrix(1,0,0,1,222.5,263.1)" display="none" style="fill: rgb(255, 255, 255);"><g ></g><g ></g><g ></g><g ></g></g><image  id="v-175"></image></g></g><g   id="j_16" ><path  stroke="#707070" d="M 762 2300 L 762 2600" id="v-188" stroke-width="2" stroke-dasharray="30 30" fill="none" style="opacity: 1;"></path><path  fill="black" stroke="black" d="M 0 0 0 0" transform="matrix(6.123233995736766e-17,1,-1,6.123233995736766e-17,762,2300)"></path><path  fill="#707070" stroke="#707070" d="M 20 0 L 0 10 L 20 20 z" id="v-190" transform="matrix(-1.8369701987210297e-16,-1,1,-1.8369701987210297e-16,752,2600)" style="opacity: 1;"></path><path  d="M 762 2300 L 762 2600" id="v-189" fill="none" style="cursor: auto; pointer-events: visiblepainted;"></path><g ><g id="v-182"  label-idx="0" cursor="move" transform="matrix(1,0,0,1,762,2450)" style="cursor: default; opacity: 1;"><rect joint-selector="rect" id="v-185" fill="#ffffff" rx="3" ry="3" pointer-events="none" width="191.87326049804688" height="146.5490951538086" transform="matrix(1,0,0,1,-95.9,-73.2)"></rect><text joint-selector="text" id="v-184" font-size="24px" xml:space="preserve" y="0.8em" fill="#707070" text-anchor="middle" pointer-events="none" font-family="Open Sans" font-weight="normal" transform="matrix(1,0,0,1,0,-67.8)"><tspan dy="0" >Номенклатра</tspan><tspan dy="1.2em" x="0" >металлопроката</tspan><tspan dy="1.2em" x="0" >с характеристик</tspan><tspan dy="1.2em" x="0" >ами. Контент</tspan><tspan dy="1.2em" x="0" >сайта.</tspan></text></g><g id="v-183"  label-idx="1" cursor="move" transform="matrix(1,0,0,1,752,2537)" style="cursor: default; opacity: 1;"><rect joint-selector="rect" id="v-187" fill="#ffffff" rx="3" ry="3"  width="0" height="0" transform="matrix(1,0,0,1,0,0)" display="none"></rect><text joint-selector="text" id="v-186" fill="#000000" font-size="14" text-anchor="middle" pointer-events="none"></text></g></g><g  display="none" style="display: none;"></g><g  id="v-192" display="none"><g  id="v-180"><path  end="source" d="M 26 0 L 0 13 L 26 26 z"></path></g><g  id="v-181"><path  end="target" d="M 26 0 L 0 13 L 26 26 z"></path></g></g><g  id="v-191" display="none"><g  id="v-179" transform="translate(762, 2340) "><g  event="remove"><circle r="11"></circle><path transform="scale(.8) translate(-16, -16)" d="M24.778,21.419 19.276,15.917 24.777,10.415 21.949,7.585 16.447,13.087 10.945,7.585 8.117,10.415 13.618,15.917 8.116,21.419 10.946,24.248 16.447,18.746 21.948,24.248z"></path><title>Remove link.</title></g><g  event="link:options"><circle r="11" transform="translate(25)"></circle><path fill="white" transform="scale(.55) translate(29, -16)" d="M31.229,17.736c0.064-0.571,0.104-1.148,0.104-1.736s-0.04-1.166-0.104-1.737l-4.377-1.557c-0.218-0.716-0.504-1.401-0.851-2.05l1.993-4.192c-0.725-0.91-1.549-1.734-2.458-2.459l-4.193,1.994c-0.647-0.347-1.334-0.632-2.049-0.849l-1.558-4.378C17.165,0.708,16.588,0.667,16,0.667s-1.166,0.041-1.737,0.105L12.707,5.15c-0.716,0.217-1.401,0.502-2.05,0.849L6.464,4.005C5.554,4.73,4.73,5.554,4.005,6.464l1.994,4.192c-0.347,0.648-0.632,1.334-0.849,2.05l-4.378,1.557C0.708,14.834,0.667,15.412,0.667,16s0.041,1.165,0.105,1.736l4.378,1.558c0.217,0.715,0.502,1.401,0.849,2.049l-1.994,4.193c0.725,0.909,1.549,1.733,2.459,2.458l4.192-1.993c0.648,0.347,1.334,0.633,2.05,0.851l1.557,4.377c0.571,0.064,1.148,0.104,1.737,0.104c0.588,0,1.165-0.04,1.736-0.104l1.558-4.377c0.715-0.218,1.399-0.504,2.049-0.851l4.193,1.993c0.909-0.725,1.733-1.549,2.458-2.458l-1.993-4.193c0.347-0.647,0.633-1.334,0.851-2.049L31.229,17.736zM16,20.871c-2.69,0-4.872-2.182-4.872-4.871c0-2.69,2.182-4.872,4.872-4.872c2.689,0,4.871,2.182,4.871,4.872C20.871,18.689,18.689,20.871,16,20.871z"></path><title>Link options.</title></g></g></g></g><g   id="j_17" ><path  stroke="#707070" d="M 509 1100 L 678 1400" id="v-205" stroke-width="2" stroke-dasharray="30 30" fill="none" style="opacity: 1;"></path><path  fill="black" stroke="black" d="M 0 0 0 0" transform="matrix(0.49081270696473833,0.8712651070035721,-0.8712651070035721,0.49081270696473833,508.5,1100)"></path><path  fill="#707070" stroke="#707070" d="M 20 0 L 0 10 L 20 20 z" id="v-207" transform="matrix(-0.490812706964738,-0.8712651070035723,0.8712651070035723,-0.490812706964738,668.7873339097679,1404.9081316553081)" style="opacity: 1;"></path><path  d="M 509 1100 L 678 1400" id="v-206" fill="none" style="cursor: auto; pointer-events: visiblepainted;"></path><g ><g id="v-196"  label-idx="0" cursor="move" transform="matrix(1,0,0,1,593.5,1250)" style="cursor: default; opacity: 1;"><rect joint-selector="rect" id="v-200" fill="#ffffff" rx="3" ry="3" pointer-events="none" width="148.45335388183594" height="31.349095344543457" transform="matrix(1,0,0,1,-74.2,-15.6)"></rect><text joint-selector="text" id="v-199" font-size="24px" xml:space="preserve" y="0.8em" fill="#707070" text-anchor="middle" pointer-events="none" font-family="Open Sans" font-weight="normal" transform="matrix(1,0,0,1,0,-10.2)"><tspan dy="0" >HTML iFrame</tspan></text></g><g id="v-197"  label-idx="1" cursor="move" transform="matrix(1,0,0,1,593.5,1277)" style="cursor: default; opacity: 1;"><rect joint-selector="rect" id="v-202" fill="#ffffff" rx="3" ry="3" pointer-events="none" width="61.92845916748047" height="22.3922119140625" transform="matrix(1,0,0,1,-31,-11.2)"></rect><text joint-selector="text" id="v-201" font-size="17px" xml:space="preserve" y="0.8em" fill="#707070" text-anchor="middle" pointer-events="none" font-family="Open Sans" font-weight="normal" transform="matrix(1,0,0,1,0,-6.9)"><tspan dy="0" >[HTTPS]</tspan></text></g><g id="v-198"  label-idx="2" cursor="move" transform="matrix(1,0,0,1,583.5,1286.25)" style="cursor: default; opacity: 1;"><rect joint-selector="rect" id="v-204" fill="#ffffff" rx="3" ry="3"  width="0" height="0" transform="matrix(1,0,0,1,0,0)" display="none"></rect><text joint-selector="text" id="v-203" fill="#000000" font-size="14" text-anchor="middle" pointer-events="none"></text></g></g><g  display="none" style="display: none;"></g><g  id="v-209" display="none"><g  id="v-194"><path  end="source" d="M 26 0 L 0 13 L 26 26 z"></path></g><g  id="v-195"><path  end="target" d="M 26 0 L 0 13 L 26 26 z"></path></g></g><g  id="v-208" display="none"><g  id="v-193" transform="translate(528.6325073670772, 1134.8506047936282) "><g  event="remove"><circle r="11"></circle><path transform="scale(.8) translate(-16, -16)" d="M24.778,21.419 19.276,15.917 24.777,10.415 21.949,7.585 16.447,13.087 10.945,7.585 8.117,10.415 13.618,15.917 8.116,21.419 10.946,24.248 16.447,18.746 21.948,24.248z"></path><title>Remove link.</title></g><g  event="link:options"><circle r="11" transform="translate(25)"></circle><path fill="white" transform="scale(.55) translate(29, -16)" d="M31.229,17.736c0.064-0.571,0.104-1.148,0.104-1.736s-0.04-1.166-0.104-1.737l-4.377-1.557c-0.218-0.716-0.504-1.401-0.851-2.05l1.993-4.192c-0.725-0.91-1.549-1.734-2.458-2.459l-4.193,1.994c-0.647-0.347-1.334-0.632-2.049-0.849l-1.558-4.378C17.165,0.708,16.588,0.667,16,0.667s-1.166,0.041-1.737,0.105L12.707,5.15c-0.716,0.217-1.401,0.502-2.05,0.849L6.464,4.005C5.554,4.73,4.73,5.554,4.005,6.464l1.994,4.192c-0.347,0.648-0.632,1.334-0.849,2.05l-4.378,1.557C0.708,14.834,0.667,15.412,0.667,16s0.041,1.165,0.105,1.736l4.378,1.558c0.217,0.715,0.502,1.401,0.849,2.049l-1.994,4.193c0.725,0.909,1.549,1.733,2.459,2.458l4.192-1.993c0.648,0.347,1.334,0.633,2.05,0.851l1.557,4.377c0.571,0.064,1.148,0.104,1.737,0.104c0.588,0,1.165-0.04,1.736-0.104l1.558-4.377c0.715-0.218,1.399-0.504,2.049-0.851l4.193,1.993c0.909-0.725,1.733-1.549,2.458-2.458l-1.993-4.193c0.347-0.647,0.633-1.334,0.851-2.049L31.229,17.736zM16,20.871c-2.69,0-4.872-2.182-4.872-4.871c0-2.69,2.182-4.872,4.872-4.872c2.689,0,4.871,2.182,4.871,4.872C20.871,18.689,18.689,20.871,16,20.871z"></path><title>Link options.</title></g></g></g></g><g   id="j_18" ><path  stroke="#707070" d="M 762 1700 L 762 2000" id="v-222" stroke-width="2" stroke-dasharray="30 30" fill="none" style="opacity: 1;"></path><path  fill="black" stroke="black" d="M 0 0 0 0" transform="matrix(6.123233995736766e-17,1,-1,6.123233995736766e-17,762,1700)"></path><path  fill="#707070" stroke="#707070" d="M 20 0 L 0 10 L 20 20 z" id="v-224" transform="matrix(-1.8369701987210297e-16,-1,1,-1.8369701987210297e-16,752,2000)" style="opacity: 1;"></path><path  d="M 762 1700 L 762 2000" id="v-223" fill="none" style="cursor: auto; pointer-events: visiblepainted;"></path><g ><g id="v-213"  label-idx="0" cursor="move" transform="matrix(1,0,0,1,762,1850)" style="cursor: default; opacity: 1;"><rect joint-selector="rect" id="v-217" fill="#ffffff" rx="3" ry="3" pointer-events="none" width="0" height="0" transform="matrix(1,0,0,1,0,0)"></rect><text joint-selector="text" id="v-216" font-size="24px" xml:space="preserve" display="none" y="0.8em" fill="#707070" text-anchor="middle" pointer-events="none" font-family="Open Sans" font-weight="normal"><tspan dy="0" style="fill-opacity: 0; stroke-opacity: 0;" >-</tspan></text></g><g id="v-214"  label-idx="1" cursor="move" transform="matrix(1,0,0,1,762,1862)" style="cursor: default; opacity: 1;"><rect joint-selector="rect" id="v-219" fill="#ffffff" rx="3" ry="3" pointer-events="none" width="61.92845916748047" height="22.3922119140625" transform="matrix(1,0,0,1,-31,-11.2)"></rect><text joint-selector="text" id="v-218" font-size="17px" xml:space="preserve" y="0.8em" fill="#707070" text-anchor="middle" pointer-events="none" font-family="Open Sans" font-weight="normal" transform="matrix(1,0,0,1,0,-6.9)"><tspan dy="0" >[HTTPS]</tspan></text></g><g id="v-215"  label-idx="2" cursor="move" transform="matrix(1,0,0,1,752,1871.25)" style="cursor: default; opacity: 1;"><rect joint-selector="rect" id="v-221" fill="#ffffff" rx="3" ry="3"  width="0" height="0" transform="matrix(1,0,0,1,0,0)" display="none"></rect><text joint-selector="text" id="v-220" fill="#000000" font-size="14" text-anchor="middle" pointer-events="none"></text></g></g><g  display="none" style="display: none;"></g><g  id="v-226" display="none"><g  id="v-211"><path  end="source" d="M 26 0 L 0 13 L 26 26 z"></path></g><g  id="v-212"><path  end="target" d="M 26 0 L 0 13 L 26 26 z"></path></g></g><g  id="v-225" display="none"><g  id="v-210" transform="translate(762, 1740.0000000000002) "><g  event="remove"><circle r="11"></circle><path transform="scale(.8) translate(-16, -16)" d="M24.778,21.419 19.276,15.917 24.777,10.415 21.949,7.585 16.447,13.087 10.945,7.585 8.117,10.415 13.618,15.917 8.116,21.419 10.946,24.248 16.447,18.746 21.948,24.248z"></path><title>Remove link.</title></g><g  event="link:options"><circle r="11" transform="translate(25)"></circle><path fill="white" transform="scale(.55) translate(29, -16)" d="M31.229,17.736c0.064-0.571,0.104-1.148,0.104-1.736s-0.04-1.166-0.104-1.737l-4.377-1.557c-0.218-0.716-0.504-1.401-0.851-2.05l1.993-4.192c-0.725-0.91-1.549-1.734-2.458-2.459l-4.193,1.994c-0.647-0.347-1.334-0.632-2.049-0.849l-1.558-4.378C17.165,0.708,16.588,0.667,16,0.667s-1.166,0.041-1.737,0.105L12.707,5.15c-0.716,0.217-1.401,0.502-2.05,0.849L6.464,4.005C5.554,4.73,4.73,5.554,4.005,6.464l1.994,4.192c-0.347,0.648-0.632,1.334-0.849,2.05l-4.378,1.557C0.708,14.834,0.667,15.412,0.667,16s0.041,1.165,0.105,1.736l4.378,1.558c0.217,0.715,0.502,1.401,0.849,2.049l-1.994,4.193c0.725,0.909,1.549,1.733,2.459,2.458l4.192-1.993c0.648,0.347,1.334,0.633,2.05,0.851l1.557,4.377c0.571,0.064,1.148,0.104,1.737,0.104c0.588,0,1.165-0.04,1.736-0.104l1.558-4.377c0.715-0.218,1.399-0.504,2.049-0.851l4.193,1.993c0.909-0.725,1.733-1.549,2.458-2.458l-1.993-4.193c0.347-0.647,0.633-1.334,0.851-2.049L31.229,17.736zM16,20.871c-2.69,0-4.872-2.182-4.872-4.871c0-2.69,2.182-4.872,4.872-4.872c2.689,0,4.871,2.182,4.871,4.872C20.871,18.689,18.689,20.871,16,20.871z"></path><title>Link options.</title></g></g></g></g><g   id="j_19" ><path  stroke="#707070" d="M 768 600 L 797 790 C 798.3333333333333 796.6666666666665 799 803.3333333333333 799 810 L 799 1090 C 799 1096.6666666666665 798.6666666666666 1103.3333333333333 798 1110 L 774 1400" id="v-244" stroke-width="2" stroke-dasharray="30 30" fill="none" style="opacity: 1;"></path><path  fill="black" stroke="black" d="M 0 0 0 0" transform="matrix(0.15317090257603586,0.9881997139263108,-0.9881997139263108,0.15317090257603586,768,600)"></path><path  fill="#707070" stroke="#707070" d="M 20 0 L 0 10 L 20 20 z" id="v-246" transform="matrix(0.0819567695529434,-0.9966358853284613,0.9966358853284613,0.0819567695529434,764.3636706191547,1399.1804825640052)" style="opacity: 1;"></path><path  d="M 768 600 L 797 790 C 798.3333333333333 796.6666666666665 799 803.3333333333333 799 810 L 799 1090 C 799 1096.6666666666665 798.6666666666666 1103.3333333333333 798 1110 L 774 1400" id="v-245" fill="none" style="cursor: auto; pointer-events: visiblepainted;"></path><g ><g id="v-235"  label-idx="0" cursor="move" transform="matrix(1,0,0,1,799,999.3466186523438)" style="cursor: default; opacity: 1;"><rect joint-selector="rect" id="v-239" fill="#ffffff" rx="3" ry="3" pointer-events="none" width="135.75277709960938" height="60.14909362792969" transform="matrix(1,0,0,1,-67.9,-30)"></rect><text joint-selector="text" id="v-238" font-size="24px" xml:space="preserve" y="0.8em" fill="#707070" text-anchor="middle" pointer-events="none" font-family="Open Sans" font-weight="normal" transform="matrix(1,0,0,1,0,-24.6)"><tspan dy="0" >Посещение</tspan><tspan dy="1.2em" x="0" >сайта</tspan></text></g><g id="v-236"  label-idx="1" cursor="move" transform="matrix(1,0,0,1,799,1041.3466796875)" style="cursor: default; opacity: 1;"><rect joint-selector="rect" id="v-241" fill="#ffffff" rx="3" ry="3" pointer-events="none" width="61.92845916748047" height="22.3922119140625" transform="matrix(1,0,0,1,-31,-11.2)"></rect><text joint-selector="text" id="v-240" font-size="17px" xml:space="preserve" y="0.8em" fill="#707070" text-anchor="middle" pointer-events="none" font-family="Open Sans" font-weight="normal" transform="matrix(1,0,0,1,0,-6.9)"><tspan dy="0" >[HTTPS]</tspan></text></g><g id="v-237"  label-idx="2" cursor="move" transform="matrix(1,0,0,1,789,1050.5966796875)" style="cursor: default; opacity: 1;"><rect joint-selector="rect" id="v-243" fill="#ffffff" rx="3" ry="3"  width="0" height="0" transform="matrix(1,0,0,1,0,0)" display="none"></rect><text joint-selector="text" id="v-242" fill="#000000" font-size="14" text-anchor="middle" pointer-events="none"></text></g></g><g  display="none" style="display: none;"><g  transform="translate(799, 800)" id="v-278"><circle  idx="0" r="10"></circle><path  idx="0" d="M16,5.333c-7.732,0-14,4.701-14,10.5c0,1.982,0.741,3.833,2.016,5.414L2,25.667l5.613-1.441c2.339,1.317,5.237,2.107,8.387,2.107c7.732,0,14-4.701,14-10.5C30,10.034,23.732,5.333,16,5.333z" transform="translate(5, -33)"></path><path  idx="0" transform="scale(.8) translate(9.5, -37)" d="M24.778,21.419 19.276,15.917 24.777,10.415 21.949,7.585 16.447,13.087 10.945,7.585 8.117,10.415 13.618,15.917 8.116,21.419 10.946,24.248 16.447,18.746 21.948,24.248z"><title>Remove vertex.</title></path></g><g  transform="translate(799, 1100)" id="v-279"><circle  idx="1" r="10"></circle><path  idx="1" d="M16,5.333c-7.732,0-14,4.701-14,10.5c0,1.982,0.741,3.833,2.016,5.414L2,25.667l5.613-1.441c2.339,1.317,5.237,2.107,8.387,2.107c7.732,0,14-4.701,14-10.5C30,10.034,23.732,5.333,16,5.333z" transform="translate(5, -33)"></path><path  idx="1" transform="scale(.8) translate(9.5, -37)" d="M24.778,21.419 19.276,15.917 24.777,10.415 21.949,7.585 16.447,13.087 10.945,7.585 8.117,10.415 13.618,15.917 8.116,21.419 10.946,24.248 16.447,18.746 21.948,24.248z"><title>Remove vertex.</title></path></g></g><g  id="v-248" display="none"><g  id="v-233"><path  end="source" d="M 26 0 L 0 13 L 26 26 z"></path></g><g  id="v-234"><path  end="target" d="M 26 0 L 0 13 L 26 26 z"></path></g></g><g  id="v-247" display="none"><g  id="v-230" transform="translate(774.0353667423692, 639.5420579672468) "><g  event="remove"><circle r="11"></circle><path transform="scale(.8) translate(-16, -16)" d="M24.778,21.419 19.276,15.917 24.777,10.415 21.949,7.585 16.447,13.087 10.945,7.585 8.117,10.415 13.618,15.917 8.116,21.419 10.946,24.248 16.447,18.746 21.948,24.248z"></path><title>Remove link.</title></g><g  event="link:options"><circle r="11" transform="translate(25)"></circle><path fill="white" transform="scale(.55) translate(29, -16)" d="M31.229,17.736c0.064-0.571,0.104-1.148,0.104-1.736s-0.04-1.166-0.104-1.737l-4.377-1.557c-0.218-0.716-0.504-1.401-0.851-2.05l1.993-4.192c-0.725-0.91-1.549-1.734-2.458-2.459l-4.193,1.994c-0.647-0.347-1.334-0.632-2.049-0.849l-1.558-4.378C17.165,0.708,16.588,0.667,16,0.667s-1.166,0.041-1.737,0.105L12.707,5.15c-0.716,0.217-1.401,0.502-2.05,0.849L6.464,4.005C5.554,4.73,4.73,5.554,4.005,6.464l1.994,4.192c-0.347,0.648-0.632,1.334-0.849,2.05l-4.378,1.557C0.708,14.834,0.667,15.412,0.667,16s0.041,1.165,0.105,1.736l4.378,1.558c0.217,0.715,0.502,1.401,0.849,2.049l-1.994,4.193c0.725,0.909,1.549,1.733,2.459,2.458l4.192-1.993c0.648,0.347,1.334,0.633,2.05,0.851l1.557,4.377c0.571,0.064,1.148,0.104,1.737,0.104c0.588,0,1.165-0.04,1.736-0.104l1.558-4.377c0.715-0.218,1.399-0.504,2.049-0.851l4.193,1.993c0.909-0.725,1.733-1.549,2.458-2.458l-1.993-4.193c0.347-0.647,0.633-1.334,0.851-2.049L31.229,17.736zM16,20.871c-2.69,0-4.872-2.182-4.872-4.871c0-2.69,2.182-4.872,4.872-4.872c2.689,0,4.871,2.182,4.871,4.872C20.871,18.689,18.689,20.871,16,20.871z"></path><title>Link options.</title></g></g></g></g><g   id="j_20" ><path  stroke="#707070" d="M 623 600 L 509 800" id="v-264" stroke-width="2" stroke-dasharray="30 30" fill="none" style="opacity: 1;"></path><path  fill="black" stroke="black" d="M 0 0 0 0" transform="matrix(-0.49461252715201837,0.8691135990101029,-0.8691135990101029,-0.49461252715201837,623.1799926757812,600)"></path><path  fill="#707070" stroke="#707070" d="M 20 0 L 0 10 L 20 20 z" id="v-266" transform="matrix(0.49461241142253803,-0.869113664871737,0.869113664871737,0.49461241142253803,500.66889158080727,795.0538504251169)" style="opacity: 1;"></path><path  d="M 623 600 L 509 800" id="v-265" fill="none" style="cursor: auto; pointer-events: visiblepainted;"></path><g ><g id="v-255"  label-idx="0" cursor="move" transform="matrix(1,0,0,1,566,700)" style="cursor: default; opacity: 1;"><rect joint-selector="rect" id="v-259" fill="#ffffff" rx="3" ry="3" pointer-events="none" width="195.9318389892578" height="117.74908828735352" transform="matrix(1,0,0,1,-98,-58.8)"></rect><text joint-selector="text" id="v-258" font-size="24px" xml:space="preserve" y="0.8em" fill="#707070" text-anchor="middle" pointer-events="none" font-family="Open Sans" font-weight="normal" transform="matrix(1,0,0,1,0,-53.4)"><tspan dy="0" >Работа с веб-инт</tspan><tspan dy="1.2em" x="0" >ерфейсом</tspan><tspan dy="1.2em" x="0" >(расчеты,</tspan><tspan dy="1.2em" x="0" >проекты)</tspan></text></g><g id="v-256"  label-idx="1" cursor="move" transform="matrix(1,0,0,1,566,772)" style="cursor: default; opacity: 1;"><rect joint-selector="rect" id="v-261" fill="#ffffff" rx="3" ry="3" pointer-events="none" width="61.92845916748047" height="22.3922119140625" transform="matrix(1,0,0,1,-31,-11.2)"></rect><text joint-selector="text" id="v-260" font-size="17px" xml:space="preserve" y="0.8em" fill="#707070" text-anchor="middle" pointer-events="none" font-family="Open Sans" font-weight="normal" transform="matrix(1,0,0,1,0,-6.9)"><tspan dy="0" >[HTTPS]</tspan></text></g><g id="v-257"  label-idx="2" cursor="move" transform="matrix(1,0,0,1,556,781.25)" style="cursor: default; opacity: 1;"><rect joint-selector="rect" id="v-263" fill="#ffffff" rx="3" ry="3"  width="0" height="0" transform="matrix(1,0,0,1,0,0)" display="none"></rect><text joint-selector="text" id="v-262" fill="#000000" font-size="14" text-anchor="middle" pointer-events="none"></text></g></g><g  display="none" style="display: none;"></g><g  id="v-268" display="none"><g  id="v-253"><path  end="source" d="M 26 0 L 0 13 L 26 26 z"></path></g><g  id="v-254"><path  end="target" d="M 26 0 L 0 13 L 26 26 z"></path></g></g><g  id="v-267" display="none"><g  id="v-252" transform="translate(603.1918782396073, 634.7510908077064) "><g  event="remove"><circle r="11"></circle><path transform="scale(.8) translate(-16, -16)" d="M24.778,21.419 19.276,15.917 24.777,10.415 21.949,7.585 16.447,13.087 10.945,7.585 8.117,10.415 13.618,15.917 8.116,21.419 10.946,24.248 16.447,18.746 21.948,24.248z"></path><title>Remove link.</title></g><g  event="link:options"><circle r="11" transform="translate(25)"></circle><path fill="white" transform="scale(.55) translate(29, -16)" d="M31.229,17.736c0.064-0.571,0.104-1.148,0.104-1.736s-0.04-1.166-0.104-1.737l-4.377-1.557c-0.218-0.716-0.504-1.401-0.851-2.05l1.993-4.192c-0.725-0.91-1.549-1.734-2.458-2.459l-4.193,1.994c-0.647-0.347-1.334-0.632-2.049-0.849l-1.558-4.378C17.165,0.708,16.588,0.667,16,0.667s-1.166,0.041-1.737,0.105L12.707,5.15c-0.716,0.217-1.401,0.502-2.05,0.849L6.464,4.005C5.554,4.73,4.73,5.554,4.005,6.464l1.994,4.192c-0.347,0.648-0.632,1.334-0.849,2.05l-4.378,1.557C0.708,14.834,0.667,15.412,0.667,16s0.041,1.165,0.105,1.736l4.378,1.558c0.217,0.715,0.502,1.401,0.849,2.049l-1.994,4.193c0.725,0.909,1.549,1.733,2.459,2.458l4.192-1.993c0.648,0.347,1.334,0.633,2.05,0.851l1.557,4.377c0.571,0.064,1.148,0.104,1.737,0.104c0.588,0,1.165-0.04,1.736-0.104l1.558-4.377c0.715-0.218,1.399-0.504,2.049-0.851l4.193,1.993c0.909-0.725,1.733-1.549,2.458-2.458l-1.993-4.193c0.347-0.647,0.633-1.334,0.851-2.049L31.229,17.736zM16,20.871c-2.69,0-4.872-2.182-4.872-4.871c0-2.69,2.182-4.872,4.872-4.872c2.689,0,4.871,2.182,4.871,4.872C20.871,18.689,18.689,20.871,16,20.871z"></path><title>Link options.</title></g></g></g></g></g><g ></g><g ></g><g ></g></g></svg>