<svg xmlns="http://www.w3.org/2000/svg" xmlns:xlink="http://www.w3.org/1999/xlink" version="1.1" viewBox="0 0 3140 2043" style="background: #ffffff"><defs joint-selector="defs"></defs><g joint-selector="layers"  transform="matrix(1,0,0,1,0,0)"><g ></g><g ><g   id="j_141"  transform="translate(20,1998)"><g id="v-1556"><text  id="v-1557" font-size="22px" xml:space="preserve" y="0.8em" font-weight="normal" text-anchor="start" fill="#aaaaaa" pointer-events="none" font-family="Open Sans"><tspan dy="0" >Wednesday, March 5, 2025 at 6:50 PM Eastern European Standard Time</tspan></text></g></g><g   id="j_140"  transform="translate(20,1967)"><g id="v-1554"><text  id="v-1555" font-size="22px" xml:space="preserve" y="0.8em" font-weight="normal" text-anchor="start" fill="#aaaaaa" pointer-events="none" font-family="Open Sans"><tspan dy="0" >Подбор оптимальной конф. лестницы</tspan></text></g></g><g   id="j_139"  transform="translate(20,1923)"><g id="v-1552"><text  id="v-1553" font-size="36px" xml:space="preserve" y="0.8em" font-weight="normal" text-anchor="start" fill="#000000" pointer-events="none" font-family="Open Sans"><tspan dy="0" >[Container] Сервис подбора оптимальной конфигурации лестницы</tspan></text></g></g><g   id="j_128"  transform="translate(199,200)" style=""><g id="v-1387"><rect  id="v-1388" width="2740" height="1643" rx="0" ry="0" fill="#ffffff" stroke="#0f5eaa" stroke-width="1" stroke-dasharray="20,20" pointer-events="none"></rect><text  id="v-1389" font-size="40px" xml:space="preserve" y="1588" font-weight="normal" fill="#0f5eaa" text-anchor="start" pointer-events="visible" font-family="Open Sans" transform="matrix(1,0,0,1,15,0)"><tspan dy="0" >Сервис подбора оптимальной конфигурации лестницы</tspan></text><text  id="v-1390" font-size="33px" xml:space="preserve" y="1628" font-weight="normal" fill="#0f5eaa" text-anchor="start" pointer-events="visible" font-family="Open Sans" transform="matrix(1,0,0,1,15,0)"><tspan dy="0" >[Software System]</tspan></text><image  id="v-1391" pointer-events="visible"></image></g></g><g   id="j_127"  transform="translate(969,820)" style=""><g  id="v-1380" style="opacity: 1;"><rect  id="v-1381" rx="20" ry="20" stroke="#3c7fc0" stroke-width="2" pointer-events="visiblePainted" fill="#438dd5" width="450" height="300" style="fill: rgb(67, 141, 213); stroke: rgb(60, 127, 192);"></rect><text  id="v-1382" font-size="34" xml:space="preserve" y="0.8em" font-weight="bold" text-anchor="middle" pointer-events="visible" font-family="Open Sans" fill="#ffffff" transform="matrix(1,0,0,1,225,46.9)" style="fill: rgb(255, 255, 255);"><tspan dy="0" >Калькулятор:</tspan><tspan dy="1.2em" x="0" >Г-образная лестница</tspan></text><text  id="v-1383" font-size="17" xml:space="preserve" y="0.8em" text-anchor="middle" font-family="Open Sans" fill="#ffffff" transform="matrix(1,0,0,1,225,131.9)" style="fill: rgb(255, 255, 255);"><tspan dy="0" >[Container: Python]</tspan></text><text  id="v-1384" font-size="24" xml:space="preserve" y="0.8em" text-anchor="middle" font-family="Open Sans" fill="#ffffff" transform="matrix(1,0,0,1,225,163.1)" style="fill: rgb(255, 255, 255);"><tspan dy="0" >Подбор оптимальной</tspan><tspan dy="1.2em" x="0" >конфигурации лестницы по</tspan><tspan dy="1.2em" x="0" >заданным параметрам проема</tspan></text><g  id="v-1385" color="#ffffff" transform="matrix(1,0,0,1,222.5,263.1)" display="none" style="fill: rgb(255, 255, 255);"><g ></g><g ></g><g ></g><g ></g></g><image  id="v-1386"></image></g></g><g   id="j_129"  transform="translate(219,820)" style=""><g  id="v-1398" style="opacity: 1;"><rect  id="v-1399" rx="20" ry="20" stroke="#3c7fc0" stroke-width="2" pointer-events="visiblePainted" fill="#438dd5" width="450" height="300" style="fill: rgb(67, 141, 213); stroke: rgb(60, 127, 192);"></rect><text  id="v-1400" font-size="34" xml:space="preserve" y="0.8em" font-weight="bold" text-anchor="middle" pointer-events="visible" font-family="Open Sans" fill="#ffffff" transform="matrix(1,0,0,1,225,46.9)" style="fill: rgb(255, 255, 255);"><tspan dy="0" >Калькулятор:</tspan><tspan dy="1.2em" x="0" >П-образная лестница</tspan></text><text  id="v-1401" font-size="17" xml:space="preserve" y="0.8em" text-anchor="middle" font-family="Open Sans" fill="#ffffff" transform="matrix(1,0,0,1,225,131.9)" style="fill: rgb(255, 255, 255);"><tspan dy="0" >[Container: Python]</tspan></text><text  id="v-1402" font-size="24" xml:space="preserve" y="0.8em" text-anchor="middle" font-family="Open Sans" fill="#ffffff" transform="matrix(1,0,0,1,225,163.1)" style="fill: rgb(255, 255, 255);"><tspan dy="0" >Подбор оптимальной</tspan><tspan dy="1.2em" x="0" >конфигурации лестницы по</tspan><tspan dy="1.2em" x="0" >заданным параметрам проема</tspan></text><g  id="v-1403" color="#ffffff" transform="matrix(1,0,0,1,222.5,263.1)" display="none" style="fill: rgb(255, 255, 255);"><g ></g><g ></g><g ></g><g ></g></g><image  id="v-1404"></image></g></g><g   id="j_130"  transform="translate(1344,1420)" style=""><g  id="v-1411" style="opacity: 1;"><path  d="M 0,30 a 225,30 0,0,0 450 0 a 225,30 0,0,0 -450 0 l 0,240 a 225,30 0,0,0 450 0 l 0,-240" id="v-1412" stroke="#78a8d8" stroke-width="2" pointer-events="visiblePainted" fill="#85bbf0" style="fill: rgb(133, 187, 240); stroke: rgb(120, 168, 216);"></path><rect  id="v-1413" stroke-width="0" pointer-events="visiblePainted" fill="none" stroke="none" width="450" height="270" x="0" y="30"></rect><text  id="v-1414" font-size="34" xml:space="preserve" y="0.8em" font-weight="bold" text-anchor="middle" pointer-events="visible" font-family="Open Sans" fill="#ffffff" transform="matrix(1,0,0,1,225,113.1)" style="fill: rgb(255, 255, 255);"><tspan dy="0" >postgres-optistairs</tspan></text><text  id="v-1415" font-size="17" xml:space="preserve" y="0.8em" text-anchor="middle" font-family="Open Sans" fill="#ffffff" transform="matrix(1,0,0,1,225,155.6)" style="fill: rgb(255, 255, 255);"><tspan dy="0" >[Container: PostgreSQL]</tspan></text><text  id="v-1416" font-size="24" xml:space="preserve" y="0.8em" text-anchor="middle" font-family="Open Sans" fill="#ffffff" transform="matrix(1,0,0,1,225,186.9)" style="fill: rgb(255, 255, 255);"><tspan dy="0" >База данных с рассчитанными</tspan><tspan dy="1.2em" x="0" >конфигурациями</tspan></text><g  id="v-1417" font-weight="normal" text-anchor="middle" color="#ffffff" transform="matrix(1,0,0,1,222.5,256.9)" display="none" style="fill: rgb(255, 255, 255);"><g ></g><g ></g><g ></g><g ></g></g><image  id="v-1418"></image></g></g><g   id="j_131"  transform="translate(2469,220)" style=""><g  id="v-1419" style="opacity: 1;"><rect  id="v-1420" rx="20" ry="20" stroke="#3c7fc0" stroke-width="2" pointer-events="visiblePainted" fill="#438dd5" width="450" height="300" style="fill: rgb(67, 141, 213); stroke: rgb(60, 127, 192);"></rect><text  id="v-1421" font-size="34" xml:space="preserve" y="0.8em" font-weight="bold" text-anchor="middle" pointer-events="visible" font-family="Open Sans" fill="#ffffff" transform="matrix(1,0,0,1,225,113.1)" style="fill: rgb(255, 255, 255);"><tspan dy="0" >Балансировщик</tspan></text><text  id="v-1422" font-size="17" xml:space="preserve" y="0.8em" text-anchor="middle" font-family="Open Sans" fill="#ffffff" transform="matrix(1,0,0,1,225,155.6)" style="fill: rgb(255, 255, 255);"><tspan dy="0" >[Container: Ingress nginx]</tspan></text><text  id="v-1423" font-size="24" xml:space="preserve" display="none" y="0.8em" text-anchor="middle" font-family="Open Sans" fill="#ffffff" transform="matrix(1,0,0,1,225,186.9)" style="fill: rgb(255, 255, 255);"><tspan dy="0" style="fill-opacity: 0; stroke-opacity: 0;" >-</tspan></text><g  id="v-1424" color="#ffffff" transform="matrix(1,0,0,1,210,196.9)" display="none" style="fill: rgb(255, 255, 255);"><g ></g><g ></g><g ></g><g  transform="translate(5 0)"><svg xmlns="http://www.w3.org/2000/svg" width="20" height="20" fill="currentColor" viewBox="0 0 16 16"><path d="M6.354 5.5H4a3 3 0 0 0 0 6h3a3 3 0 0 0 2.83-4H9c-.086 0-.17.01-.25.031A2 2 0 0 1 7 10.5H4a2 2 0 1 1 0-4h1.535c.218-.376.495-.714.82-1z"></path><path d="M9 5.5a3 3 0 0 0-2.83 4h1.098A2 2 0 0 1 9 6.5h3a2 2 0 1 1 0 4h-1.535a4.02 4.02 0 0 1-.82 1H12a3 3 0 1 0 0-6H9z"></path></svg></g></g><image  id="v-1425"></image></g></g><g   id="j_132"  transform="translate(2469,820)" style=""><g  id="v-1429" style="opacity: 1;"><rect  id="v-1430" rx="20" ry="20" stroke="#3c7fc0" stroke-width="2" pointer-events="visiblePainted" fill="#438dd5" width="450" height="300" style="fill: rgb(67, 141, 213); stroke: rgb(60, 127, 192);"></rect><text  id="v-1431" font-size="34" xml:space="preserve" y="0.8em" font-weight="bold" text-anchor="middle" pointer-events="visible" font-family="Open Sans" fill="#ffffff" transform="matrix(1,0,0,1,225,91.9)" style="fill: rgb(255, 255, 255);"><tspan dy="0" >Менеджер обработки</tspan><tspan dy="1.2em" x="0" >запросов</tspan></text><text  id="v-1432" font-size="17" xml:space="preserve" y="0.8em" text-anchor="middle" font-family="Open Sans" fill="#ffffff" transform="matrix(1,0,0,1,225,176.9)" style="fill: rgb(255, 255, 255);"><tspan dy="0" >[Container: Python]</tspan></text><text  id="v-1433" font-size="24" xml:space="preserve" display="none" y="0.8em" text-anchor="middle" font-family="Open Sans" fill="#ffffff" transform="matrix(1,0,0,1,225,208.1)" style="fill: rgb(255, 255, 255);"><tspan dy="0" style="fill-opacity: 0; stroke-opacity: 0;" >-</tspan></text><g  id="v-1434" color="#ffffff" transform="matrix(1,0,0,1,222.5,218.1)" display="none" style="fill: rgb(255, 255, 255);"><g ></g><g ></g><g ></g><g ></g></g><image  id="v-1435"></image></g></g><g   id="j_133"  transform="translate(1719,820)" style=""><g  id="v-1442" style="opacity: 1;"><rect  id="v-1443" rx="20" ry="20" stroke="#3c7fc0" stroke-width="2" pointer-events="visiblePainted" fill="#438dd5" width="450" height="300" style="fill: rgb(67, 141, 213); stroke: rgb(60, 127, 192);"></rect><text  id="v-1444" font-size="34" xml:space="preserve" y="0.8em" font-weight="bold" text-anchor="middle" pointer-events="visible" font-family="Open Sans" fill="#ffffff" transform="matrix(1,0,0,1,225,46.9)" style="fill: rgb(255, 255, 255);"><tspan dy="0" >Калькулятор: Прямая</tspan><tspan dy="1.2em" x="0" >лестница</tspan></text><text  id="v-1445" font-size="17" xml:space="preserve" y="0.8em" text-anchor="middle" font-family="Open Sans" fill="#ffffff" transform="matrix(1,0,0,1,225,131.9)" style="fill: rgb(255, 255, 255);"><tspan dy="0" >[Container: Python]</tspan></text><text  id="v-1446" font-size="24" xml:space="preserve" y="0.8em" text-anchor="middle" font-family="Open Sans" fill="#ffffff" transform="matrix(1,0,0,1,225,163.1)" style="fill: rgb(255, 255, 255);"><tspan dy="0" >Подбор оптимальной</tspan><tspan dy="1.2em" x="0" >конфигурации лестницы по</tspan><tspan dy="1.2em" x="0" >заданным параметрам проема</tspan></text><g  id="v-1447" color="#ffffff" transform="matrix(1,0,0,1,222.5,263.1)" display="none" style="fill: rgb(255, 255, 255);"><g ></g><g ></g><g ></g><g ></g></g><image  id="v-1448"></image></g></g><g   id="j_134" ><path  stroke="#707070" d="M 2469 1090 L 1794 1450" id="v-1464" stroke-width="2" stroke-dasharray="30 30" fill="none" style="opacity: 1;"></path><path  fill="black" stroke="black" d="M 0 0 0 0" transform="matrix(-0.8823528789936014,0.47058835188697895,-0.47058835188697895,-0.8823528789936014,2469,1090)"></path><path  fill="#707070" stroke="#707070" d="M 20 0 L 0 10 L 20 20 z" id="v-1466" transform="matrix(0.8823530043188289,-0.4705881169021767,0.4705881169021767,0.8823530043188289,1789.294075115915,1441.176418508646)" style="opacity: 1;"></path><path  d="M 2469 1090 L 1794 1450" id="v-1465" fill="none" style="cursor: auto; pointer-events: visiblepainted;"></path><g ><g id="v-1455"  label-idx="0" cursor="move" transform="matrix(1,0,0,1,2131.5,1270)" style="cursor: default; opacity: 1;"><rect joint-selector="rect" id="v-1459" fill="#ffffff" rx="3" ry="3" pointer-events="none" width="190.57669067382812" height="147.87664794921875" transform="matrix(1,0,0,1,-95.3,-74)"></rect><text joint-selector="text" id="v-1458" font-size="24px" xml:space="preserve" y="0.8em" fill="#707070" text-anchor="middle" pointer-events="none" font-family="Open Sans" font-weight="normal" transform="matrix(1,0,0,1,0,-67.6)"><tspan dy="0" >Создание</tspan><tspan dy="1.2em" x="0" >запросов на</tspan><tspan dy="1.2em" x="0" >расчет.</tspan><tspan dy="1.2em" x="0" >Получение</tspan><tspan dy="1.2em" x="0" >статуса запроса.</tspan></text></g><g id="v-1456"  label-idx="1" cursor="move" transform="matrix(1,0,0,1,2131.5,1357)" style="cursor: default; opacity: 1;"><rect joint-selector="rect" id="v-1461" fill="#ffffff" rx="3" ry="3" pointer-events="none" width="53.54350662231445" height="24.152295112609863" transform="matrix(1,0,0,1,-26.8,-12.1)"></rect><text joint-selector="text" id="v-1460" font-size="17px" xml:space="preserve" y="0.8em" fill="#707070" text-anchor="middle" pointer-events="none" font-family="Open Sans" font-weight="normal" transform="matrix(1,0,0,1,0,-7.2)"><tspan dy="0" >[pgsql]</tspan></text></g><g id="v-1457"  label-idx="2" cursor="move" transform="matrix(1,0,0,1,2121.5,1366.25)" style="cursor: default; opacity: 1;"><rect joint-selector="rect" id="v-1463" fill="#ffffff" rx="3" ry="3"  width="0" height="0" transform="matrix(1,0,0,1,0,0)" display="none"></rect><text joint-selector="text" id="v-1462" fill="#000000" font-size="14" text-anchor="middle" pointer-events="none"></text></g></g><g  display="none" style="display: none;"></g><g  id="v-1468" display="none"><g  id="v-1453"><path  end="source" d="M 26 0 L 0 13 L 26 26 z"></path></g><g  id="v-1454"><path  end="target" d="M 26 0 L 0 13 L 26 26 z"></path></g></g><g  id="v-1467" display="none"><g  id="v-1452" transform="translate(2433.7058823529414, 1108.8235294117646) "><g  event="remove"><circle r="11"></circle><path transform="scale(.8) translate(-16, -16)" d="M24.778,21.419 19.276,15.917 24.777,10.415 21.949,7.585 16.447,13.087 10.945,7.585 8.117,10.415 13.618,15.917 8.116,21.419 10.946,24.248 16.447,18.746 21.948,24.248z"></path><title>Remove link.</title></g><g  event="link:options"><circle r="11" transform="translate(25)"></circle><path fill="white" transform="scale(.55) translate(29, -16)" d="M31.229,17.736c0.064-0.571,0.104-1.148,0.104-1.736s-0.04-1.166-0.104-1.737l-4.377-1.557c-0.218-0.716-0.504-1.401-0.851-2.05l1.993-4.192c-0.725-0.91-1.549-1.734-2.458-2.459l-4.193,1.994c-0.647-0.347-1.334-0.632-2.049-0.849l-1.558-4.378C17.165,0.708,16.588,0.667,16,0.667s-1.166,0.041-1.737,0.105L12.707,5.15c-0.716,0.217-1.401,0.502-2.05,0.849L6.464,4.005C5.554,4.73,4.73,5.554,4.005,6.464l1.994,4.192c-0.347,0.648-0.632,1.334-0.849,2.05l-4.378,1.557C0.708,14.834,0.667,15.412,0.667,16s0.041,1.165,0.105,1.736l4.378,1.558c0.217,0.715,0.502,1.401,0.849,2.049l-1.994,4.193c0.725,0.909,1.549,1.733,2.459,2.458l4.192-1.993c0.648,0.347,1.334,0.633,2.05,0.851l1.557,4.377c0.571,0.064,1.148,0.104,1.737,0.104c0.588,0,1.165-0.04,1.736-0.104l1.558-4.377c0.715-0.218,1.399-0.504,2.049-0.851l4.193,1.993c0.909-0.725,1.733-1.549,2.458-2.458l-1.993-4.193c0.347-0.647,0.633-1.334,0.851-2.049L31.229,17.736zM16,20.871c-2.69,0-4.872-2.182-4.872-4.871c0-2.69,2.182-4.872,4.872-4.872c2.689,0,4.871,2.182,4.871,4.872C20.871,18.689,18.689,20.871,16,20.871z"></path><title>Link options.</title></g></g></g></g><g   id="j_135" ><path  stroke="#707070" d="M 1288 1120 L 1475 1420" id="v-1484" stroke-width="2" stroke-dasharray="30 30" fill="none" style="opacity: 1;"></path><path  fill="black" stroke="black" d="M 0 0 0 0" transform="matrix(0.52999893008336,0.8479983102049754,-0.8479983102049754,0.52999893008336,1287.75,1120)"></path><path  fill="#707070" stroke="#707070" d="M 20 0 L 0 10 L 20 20 z" id="v-1486" transform="matrix(-0.5299989865422614,-0.8479982749181603,0.8479982749181603,-0.5299989865422614,1466.769958288116,1425.2999921458543)" style="opacity: 1;"></path><path  d="M 1288 1120 L 1475 1420" id="v-1485" fill="none" style="cursor: auto; pointer-events: visiblepainted;"></path><g ><g id="v-1475"  label-idx="0" cursor="move" transform="matrix(1,0,0,1,1381.5,1270)" style="cursor: default; opacity: 1;"><rect joint-selector="rect" id="v-1479" fill="#ffffff" rx="3" ry="3" pointer-events="none" width="170.3535919189453" height="176.6766357421875" transform="matrix(1,0,0,1,-85.2,-88.4)"></rect><text joint-selector="text" id="v-1478" font-size="24px" xml:space="preserve" y="0.8em" fill="#707070" text-anchor="middle" pointer-events="none" font-family="Open Sans" font-weight="normal" transform="matrix(1,0,0,1,0,-82)"><tspan dy="0" >Получение</tspan><tspan dy="1.2em" x="0" >параметров</tspan><tspan dy="1.2em" x="0" >расчёта и</tspan><tspan dy="1.2em" x="0" >запись</tspan><tspan dy="1.2em" x="0" >подобранных</tspan><tspan dy="1.2em" x="0" >конфигураций</tspan></text></g><g id="v-1476"  label-idx="1" cursor="move" transform="matrix(1,0,0,1,1381.5,1372)" style="cursor: default; opacity: 1;"><rect joint-selector="rect" id="v-1481" fill="#ffffff" rx="3" ry="3" pointer-events="none" width="53.54350662231445" height="24.152295112609863" transform="matrix(1,0,0,1,-26.8,-12.1)"></rect><text joint-selector="text" id="v-1480" font-size="17px" xml:space="preserve" y="0.8em" fill="#707070" text-anchor="middle" pointer-events="none" font-family="Open Sans" font-weight="normal" transform="matrix(1,0,0,1,0,-7.2)"><tspan dy="0" >[pgsql]</tspan></text></g><g id="v-1477"  label-idx="2" cursor="move" transform="matrix(1,0,0,1,1371.5,1381.25)" style="cursor: default; opacity: 1;"><rect joint-selector="rect" id="v-1483" fill="#ffffff" rx="3" ry="3"  width="0" height="0" transform="matrix(1,0,0,1,0,0)" display="none"></rect><text joint-selector="text" id="v-1482" fill="#000000" font-size="14" text-anchor="middle" pointer-events="none"></text></g></g><g  display="none" style="display: none;"></g><g  id="v-1488" display="none"><g  id="v-1473"><path  end="source" d="M 26 0 L 0 13 L 26 26 z"></path></g><g  id="v-1474"><path  end="target" d="M 26 0 L 0 13 L 26 26 z"></path></g></g><g  id="v-1487" display="none"><g  id="v-1472" transform="translate(1309.1592588038857, 1153.9453349794958) "><g  event="remove"><circle r="11"></circle><path transform="scale(.8) translate(-16, -16)" d="M24.778,21.419 19.276,15.917 24.777,10.415 21.949,7.585 16.447,13.087 10.945,7.585 8.117,10.415 13.618,15.917 8.116,21.419 10.946,24.248 16.447,18.746 21.948,24.248z"></path><title>Remove link.</title></g><g  event="link:options"><circle r="11" transform="translate(25)"></circle><path fill="white" transform="scale(.55) translate(29, -16)" d="M31.229,17.736c0.064-0.571,0.104-1.148,0.104-1.736s-0.04-1.166-0.104-1.737l-4.377-1.557c-0.218-0.716-0.504-1.401-0.851-2.05l1.993-4.192c-0.725-0.91-1.549-1.734-2.458-2.459l-4.193,1.994c-0.647-0.347-1.334-0.632-2.049-0.849l-1.558-4.378C17.165,0.708,16.588,0.667,16,0.667s-1.166,0.041-1.737,0.105L12.707,5.15c-0.716,0.217-1.401,0.502-2.05,0.849L6.464,4.005C5.554,4.73,4.73,5.554,4.005,6.464l1.994,4.192c-0.347,0.648-0.632,1.334-0.849,2.05l-4.378,1.557C0.708,14.834,0.667,15.412,0.667,16s0.041,1.165,0.105,1.736l4.378,1.558c0.217,0.715,0.502,1.401,0.849,2.049l-1.994,4.193c0.725,0.909,1.549,1.733,2.459,2.458l4.192-1.993c0.648,0.347,1.334,0.633,2.05,0.851l1.557,4.377c0.571,0.064,1.148,0.104,1.737,0.104c0.588,0,1.165-0.04,1.736-0.104l1.558-4.377c0.715-0.218,1.399-0.504,2.049-0.851l4.193,1.993c0.909-0.725,1.733-1.549,2.458-2.458l-1.993-4.193c0.347-0.647,0.633-1.334,0.851-2.049L31.229,17.736zM16,20.871c-2.69,0-4.872-2.182-4.872-4.871c0-2.69,2.182-4.872,4.872-4.872c2.689,0,4.871,2.182,4.871,4.872C20.871,18.689,18.689,20.871,16,20.871z"></path><title>Link options.</title></g></g></g></g><g   id="j_136" ><path  stroke="#707070" d="M 1850 1120 L 1663 1420" id="v-1504" stroke-width="2" stroke-dasharray="30 30" fill="none" style="opacity: 1;"></path><path  fill="black" stroke="black" d="M 0 0 0 0" transform="matrix(-0.5299989865422612,0.8479982749181605,-0.8479982749181605,-0.5299989865422612,1850.25,1120)"></path><path  fill="#707070" stroke="#707070" d="M 20 0 L 0 10 L 20 20 z" id="v-1506" transform="matrix(0.5299987607066415,-0.8479984160653982,0.8479984160653982,0.5299987607066415,1654.2700770604047,1414.7000160848377)" style="opacity: 1;"></path><path  d="M 1850 1120 L 1663 1420" id="v-1505" fill="none" style="cursor: auto; pointer-events: visiblepainted;"></path><g ><g id="v-1495"  label-idx="0" cursor="move" transform="matrix(1,0,0,1,1756.5,1270)" style="cursor: default; opacity: 1;"><rect joint-selector="rect" id="v-1499" fill="#ffffff" rx="3" ry="3" pointer-events="none" width="170.3535919189453" height="176.6766357421875" transform="matrix(1,0,0,1,-85.2,-88.4)"></rect><text joint-selector="text" id="v-1498" font-size="24px" xml:space="preserve" y="0.8em" fill="#707070" text-anchor="middle" pointer-events="none" font-family="Open Sans" font-weight="normal" transform="matrix(1,0,0,1,0,-82)"><tspan dy="0" >Получение</tspan><tspan dy="1.2em" x="0" >параметров</tspan><tspan dy="1.2em" x="0" >расчёта и</tspan><tspan dy="1.2em" x="0" >запись</tspan><tspan dy="1.2em" x="0" >подобранных</tspan><tspan dy="1.2em" x="0" >конфигураций</tspan></text></g><g id="v-1496"  label-idx="1" cursor="move" transform="matrix(1,0,0,1,1756.5,1372)" style="cursor: default; opacity: 1;"><rect joint-selector="rect" id="v-1501" fill="#ffffff" rx="3" ry="3" pointer-events="none" width="53.54350662231445" height="24.152295112609863" transform="matrix(1,0,0,1,-26.8,-12.1)"></rect><text joint-selector="text" id="v-1500" font-size="17px" xml:space="preserve" y="0.8em" fill="#707070" text-anchor="middle" pointer-events="none" font-family="Open Sans" font-weight="normal" transform="matrix(1,0,0,1,0,-7.2)"><tspan dy="0" >[pgsql]</tspan></text></g><g id="v-1497"  label-idx="2" cursor="move" transform="matrix(1,0,0,1,1746.5,1381.25)" style="cursor: default; opacity: 1;"><rect joint-selector="rect" id="v-1503" fill="#ffffff" rx="3" ry="3"  width="0" height="0" transform="matrix(1,0,0,1,0,0)" display="none"></rect><text joint-selector="text" id="v-1502" fill="#000000" font-size="14" text-anchor="middle" pointer-events="none"></text></g></g><g  display="none" style="display: none;"></g><g  id="v-1508" display="none"><g  id="v-1493"><path  end="source" d="M 26 0 L 0 13 L 26 26 z"></path></g><g  id="v-1494"><path  end="target" d="M 26 0 L 0 13 L 26 26 z"></path></g></g><g  id="v-1507" display="none"><g  id="v-1492" transform="translate(1828.8407411961143, 1153.9453349794958) "><g  event="remove"><circle r="11"></circle><path transform="scale(.8) translate(-16, -16)" d="M24.778,21.419 19.276,15.917 24.777,10.415 21.949,7.585 16.447,13.087 10.945,7.585 8.117,10.415 13.618,15.917 8.116,21.419 10.946,24.248 16.447,18.746 21.948,24.248z"></path><title>Remove link.</title></g><g  event="link:options"><circle r="11" transform="translate(25)"></circle><path fill="white" transform="scale(.55) translate(29, -16)" d="M31.229,17.736c0.064-0.571,0.104-1.148,0.104-1.736s-0.04-1.166-0.104-1.737l-4.377-1.557c-0.218-0.716-0.504-1.401-0.851-2.05l1.993-4.192c-0.725-0.91-1.549-1.734-2.458-2.459l-4.193,1.994c-0.647-0.347-1.334-0.632-2.049-0.849l-1.558-4.378C17.165,0.708,16.588,0.667,16,0.667s-1.166,0.041-1.737,0.105L12.707,5.15c-0.716,0.217-1.401,0.502-2.05,0.849L6.464,4.005C5.554,4.73,4.73,5.554,4.005,6.464l1.994,4.192c-0.347,0.648-0.632,1.334-0.849,2.05l-4.378,1.557C0.708,14.834,0.667,15.412,0.667,16s0.041,1.165,0.105,1.736l4.378,1.558c0.217,0.715,0.502,1.401,0.849,2.049l-1.994,4.193c0.725,0.909,1.549,1.733,2.459,2.458l4.192-1.993c0.648,0.347,1.334,0.633,2.05,0.851l1.557,4.377c0.571,0.064,1.148,0.104,1.737,0.104c0.588,0,1.165-0.04,1.736-0.104l1.558-4.377c0.715-0.218,1.399-0.504,2.049-0.851l4.193,1.993c0.909-0.725,1.733-1.549,2.458-2.458l-1.993-4.193c0.347-0.647,0.633-1.334,0.851-2.049L31.229,17.736zM16,20.871c-2.69,0-4.872-2.182-4.872-4.871c0-2.69,2.182-4.872,4.872-4.872c2.689,0,4.871,2.182,4.871,4.872C20.871,18.689,18.689,20.871,16,20.871z"></path><title>Link options.</title></g></g></g></g><g   id="j_137" ><path  stroke="#707070" d="M 669 1090 L 1344 1450" id="v-1524" stroke-width="2" stroke-dasharray="30 30" fill="none" style="opacity: 1;"></path><path  fill="black" stroke="black" d="M 0 0 0 0" transform="matrix(0.882352941656223,0.47058823439458186,-0.47058823439458186,0.882352941656223,669,1090)"></path><path  fill="#707070" stroke="#707070" d="M 20 0 L 0 10 L 20 20 z" id="v-1526" transform="matrix(-0.8823528789936015,-0.47058835188697873,0.47058835188697873,-0.8823528789936015,1339.2941589429413,1458.8234796916183)" style="opacity: 1;"></path><path  d="M 669 1090 L 1344 1450" id="v-1525" fill="none" style="cursor: auto; pointer-events: visiblepainted;"></path><g ><g id="v-1515"  label-idx="0" cursor="move" transform="matrix(1,0,0,1,1006.5,1270)" style="cursor: default; opacity: 1;"><rect joint-selector="rect" id="v-1519" fill="#ffffff" rx="3" ry="3" pointer-events="none" width="170.3535919189453" height="176.6766357421875" transform="matrix(1,0,0,1,-85.2,-88.4)"></rect><text joint-selector="text" id="v-1518" font-size="24px" xml:space="preserve" y="0.8em" fill="#707070" text-anchor="middle" pointer-events="none" font-family="Open Sans" font-weight="normal" transform="matrix(1,0,0,1,0,-82)"><tspan dy="0" >Получение</tspan><tspan dy="1.2em" x="0" >параметров</tspan><tspan dy="1.2em" x="0" >расчёта и</tspan><tspan dy="1.2em" x="0" >запись</tspan><tspan dy="1.2em" x="0" >подобранных</tspan><tspan dy="1.2em" x="0" >конфигураций</tspan></text></g><g id="v-1516"  label-idx="1" cursor="move" transform="matrix(1,0,0,1,1006.5,1372)" style="cursor: default; opacity: 1;"><rect joint-selector="rect" id="v-1521" fill="#ffffff" rx="3" ry="3" pointer-events="none" width="53.54350662231445" height="24.152295112609863" transform="matrix(1,0,0,1,-26.8,-12.1)"></rect><text joint-selector="text" id="v-1520" font-size="17px" xml:space="preserve" y="0.8em" fill="#707070" text-anchor="middle" pointer-events="none" font-family="Open Sans" font-weight="normal" transform="matrix(1,0,0,1,0,-7.2)"><tspan dy="0" >[pgsql]</tspan></text></g><g id="v-1517"  label-idx="2" cursor="move" transform="matrix(1,0,0,1,996.5,1381.25)" style="cursor: default; opacity: 1;"><rect joint-selector="rect" id="v-1523" fill="#ffffff" rx="3" ry="3"  width="0" height="0" transform="matrix(1,0,0,1,0,0)" display="none"></rect><text joint-selector="text" id="v-1522" fill="#000000" font-size="14" text-anchor="middle" pointer-events="none"></text></g></g><g  display="none" style="display: none;"></g><g  id="v-1528" display="none"><g  id="v-1513"><path  end="source" d="M 26 0 L 0 13 L 26 26 z"></path></g><g  id="v-1514"><path  end="target" d="M 26 0 L 0 13 L 26 26 z"></path></g></g><g  id="v-1527" display="none"><g  id="v-1512" transform="translate(704.2941176470588, 1108.8235294117646) "><g  event="remove"><circle r="11"></circle><path transform="scale(.8) translate(-16, -16)" d="M24.778,21.419 19.276,15.917 24.777,10.415 21.949,7.585 16.447,13.087 10.945,7.585 8.117,10.415 13.618,15.917 8.116,21.419 10.946,24.248 16.447,18.746 21.948,24.248z"></path><title>Remove link.</title></g><g  event="link:options"><circle r="11" transform="translate(25)"></circle><path fill="white" transform="scale(.55) translate(29, -16)" d="M31.229,17.736c0.064-0.571,0.104-1.148,0.104-1.736s-0.04-1.166-0.104-1.737l-4.377-1.557c-0.218-0.716-0.504-1.401-0.851-2.05l1.993-4.192c-0.725-0.91-1.549-1.734-2.458-2.459l-4.193,1.994c-0.647-0.347-1.334-0.632-2.049-0.849l-1.558-4.378C17.165,0.708,16.588,0.667,16,0.667s-1.166,0.041-1.737,0.105L12.707,5.15c-0.716,0.217-1.401,0.502-2.05,0.849L6.464,4.005C5.554,4.73,4.73,5.554,4.005,6.464l1.994,4.192c-0.347,0.648-0.632,1.334-0.849,2.05l-4.378,1.557C0.708,14.834,0.667,15.412,0.667,16s0.041,1.165,0.105,1.736l4.378,1.558c0.217,0.715,0.502,1.401,0.849,2.049l-1.994,4.193c0.725,0.909,1.549,1.733,2.459,2.458l4.192-1.993c0.648,0.347,1.334,0.633,2.05,0.851l1.557,4.377c0.571,0.064,1.148,0.104,1.737,0.104c0.588,0,1.165-0.04,1.736-0.104l1.558-4.377c0.715-0.218,1.399-0.504,2.049-0.851l4.193,1.993c0.909-0.725,1.733-1.549,2.458-2.458l-1.993-4.193c0.347-0.647,0.633-1.334,0.851-2.049L31.229,17.736zM16,20.871c-2.69,0-4.872-2.182-4.872-4.871c0-2.69,2.182-4.872,4.872-4.872c2.689,0,4.871,2.182,4.871,4.872C20.871,18.689,18.689,20.871,16,20.871z"></path><title>Link options.</title></g></g></g></g><g   id="j_138" ><path  stroke="#707070" d="M 2694 520 L 2694 820" id="v-1544" stroke-width="2" stroke-dasharray="30 30" fill="none" style="opacity: 1;"></path><path  fill="black" stroke="black" d="M 0 0 0 0" transform="matrix(6.123233995736766e-17,1,-1,6.123233995736766e-17,2694,520)"></path><path  fill="#707070" stroke="#707070" d="M 20 0 L 0 10 L 20 20 z" id="v-1546" transform="matrix(-1.8369701987210297e-16,-1,1,-1.8369701987210297e-16,2684,820)" style="opacity: 1;"></path><path  d="M 2694 520 L 2694 820" id="v-1545" fill="none" style="cursor: auto; pointer-events: visiblepainted;"></path><g ><g id="v-1535"  label-idx="0" cursor="move" transform="matrix(1,0,0,1,2694,670)" style="cursor: default; opacity: 1;"><rect joint-selector="rect" id="v-1539" fill="#ffffff" rx="3" ry="3" pointer-events="none" width="192.70777893066406" height="90.27664184570312" transform="matrix(1,0,0,1,-96.4,-45.2)"></rect><text joint-selector="text" id="v-1538" font-size="24px" xml:space="preserve" y="0.8em" fill="#707070" text-anchor="middle" pointer-events="none" font-family="Open Sans" font-weight="normal" transform="matrix(1,0,0,1,0,-38.8)"><tspan dy="0" >Маршрутизация</tspan><tspan dy="1.2em" x="0" >запросов с</tspan><tspan dy="1.2em" x="0" >внешнего IP</tspan></text></g><g id="v-1536"  label-idx="1" cursor="move" transform="matrix(1,0,0,1,2694,727)" style="cursor: default; opacity: 1;"><rect joint-selector="rect" id="v-1541" fill="#ffffff" rx="3" ry="3" pointer-events="none" width="52.588958740234375" height="24.152295112609863" transform="matrix(1,0,0,1,-26.3,-12.1)"></rect><text joint-selector="text" id="v-1540" font-size="17px" xml:space="preserve" y="0.8em" fill="#707070" text-anchor="middle" pointer-events="none" font-family="Open Sans" font-weight="normal" transform="matrix(1,0,0,1,0,-7.2)"><tspan dy="0" >[HTTP]</tspan></text></g><g id="v-1537"  label-idx="2" cursor="move" transform="matrix(1,0,0,1,2684,736.25)" style="cursor: default; opacity: 1;"><rect joint-selector="rect" id="v-1543" fill="#ffffff" rx="3" ry="3"  width="0" height="0" transform="matrix(1,0,0,1,0,0)" display="none"></rect><text joint-selector="text" id="v-1542" fill="#000000" font-size="14" text-anchor="middle" pointer-events="none"></text></g></g><g  display="none" style="display: none;"></g><g  id="v-1548" display="none"><g  id="v-1533"><path  end="source" d="M 26 0 L 0 13 L 26 26 z"></path></g><g  id="v-1534"><path  end="target" d="M 26 0 L 0 13 L 26 26 z"></path></g></g><g  id="v-1547" display="none"><g  id="v-1532" transform="translate(2694, 560) "><g  event="remove"><circle r="11"></circle><path transform="scale(.8) translate(-16, -16)" d="M24.778,21.419 19.276,15.917 24.777,10.415 21.949,7.585 16.447,13.087 10.945,7.585 8.117,10.415 13.618,15.917 8.116,21.419 10.946,24.248 16.447,18.746 21.948,24.248z"></path><title>Remove link.</title></g><g  event="link:options"><circle r="11" transform="translate(25)"></circle><path fill="white" transform="scale(.55) translate(29, -16)" d="M31.229,17.736c0.064-0.571,0.104-1.148,0.104-1.736s-0.04-1.166-0.104-1.737l-4.377-1.557c-0.218-0.716-0.504-1.401-0.851-2.05l1.993-4.192c-0.725-0.91-1.549-1.734-2.458-2.459l-4.193,1.994c-0.647-0.347-1.334-0.632-2.049-0.849l-1.558-4.378C17.165,0.708,16.588,0.667,16,0.667s-1.166,0.041-1.737,0.105L12.707,5.15c-0.716,0.217-1.401,0.502-2.05,0.849L6.464,4.005C5.554,4.73,4.73,5.554,4.005,6.464l1.994,4.192c-0.347,0.648-0.632,1.334-0.849,2.05l-4.378,1.557C0.708,14.834,0.667,15.412,0.667,16s0.041,1.165,0.105,1.736l4.378,1.558c0.217,0.715,0.502,1.401,0.849,2.049l-1.994,4.193c0.725,0.909,1.549,1.733,2.459,2.458l4.192-1.993c0.648,0.347,1.334,0.633,2.05,0.851l1.557,4.377c0.571,0.064,1.148,0.104,1.737,0.104c0.588,0,1.165-0.04,1.736-0.104l1.558-4.377c0.715-0.218,1.399-0.504,2.049-0.851l4.193,1.993c0.909-0.725,1.733-1.549,2.458-2.458l-1.993-4.193c0.347-0.647,0.633-1.334,0.851-2.049L31.229,17.736zM16,20.871c-2.69,0-4.872-2.182-4.872-4.871c0-2.69,2.182-4.872,4.872-4.872c2.689,0,4.871,2.182,4.871,4.872C20.871,18.689,18.689,20.871,16,20.871z"></path><title>Link options.</title></g></g></g></g></g><g ></g><g ></g><g ></g></g></svg>