<svg xmlns="http://www.w3.org/2000/svg" xmlns:xlink="http://www.w3.org/1999/xlink" version="1.1" viewBox="0 0 1404 1300" style="background: #ffffff"><defs><style>@import url(https://fonts.googleapis.com/css?family=Open+Sans:400,700);</style></defs><defs joint-selector="defs"></defs><g joint-selector="layers"  transform="matrix(1,0,0,1,0,0)"><g ></g><g ><!--z-index:-9--><!--z-index:-8--><!--z-index:-7--><!--z-index:-6--><!--z-index:-5--><!--z-index:-4--><!--z-index:-3--><!--z-index:-2--><!--z-index:-1--><!--z-index:0--><!--z-index:1--><!--z-index:2--><!--z-index:3--><!--z-index:4--><!--z-index:5--><!--z-index:6--><!--z-index:7--><g   id="j_214"  transform="translate(20,1263.6)"><g id="v-3553"><text  id="v-3554" font-size="22px" xml:space="preserve" y="0.8em" font-weight="normal" text-anchor="start" fill="#aaaaaa" pointer-events="none" display="block" font-family="Open Sans"><tspan dy="0" >Friday, April 4, 2025 at 3:25 PM Eastern European Standard Time</tspan></text></g></g><!--z-index:8--><g   id="j_213"  transform="translate(20,1237.1999999999998)"><g id="v-3551"><text  id="v-3552" font-size="22px" xml:space="preserve" y="0.8em" font-weight="normal" text-anchor="start" fill="#aaaaaa" pointer-events="none" display="block" font-family="Open Sans"><tspan dy="0" >Подбор оптимальной конф. лестницы - Контекстная диаграмма</tspan></text></g></g><!--z-index:9--><g   id="j_212"  transform="translate(20,1193.9999999999998)"><g id="v-3549"><text  id="v-3550" font-size="36px" xml:space="preserve" y="0.8em" font-weight="normal" text-anchor="start" fill="#000000" pointer-events="none" display="block" font-family="Open Sans"><tspan dy="0" >[System Context] Сервис подбора оптимальной конфигурации лестницы</tspan></text></g></g><!--z-index:10--><g   id="j_215"  transform="translate(474,152)" style=""><g  id="v-3555" style="opacity: 1;"><rect  id="v-3556" rx="20" ry="20" stroke="#0f5eaa" stroke-width="2" pointer-events="visiblePainted" fill="#1168bd" width="450" height="300" style="fill: rgb(17, 104, 189); stroke: rgb(15, 94, 170);"></rect><text  id="v-3557" font-size="34" xml:space="preserve" y="0.8em" font-weight="bold" text-anchor="middle" pointer-events="visible" font-family="Open Sans" fill="#ffffff" transform="matrix(1,0,0,1,225,102.5)" style="fill: rgb(255, 255, 255);"><tspan dy="0" >API Gateway</tspan></text><text  id="v-3558" font-size="17" xml:space="preserve" y="0.8em" text-anchor="middle" font-family="Open Sans" fill="#ffffff" transform="matrix(1,0,0,1,225,143.3)" style="fill: rgb(255, 255, 255);"><tspan dy="0" >[Software System]</tspan></text><text  id="v-3559" font-size="24" xml:space="preserve" y="0.8em" text-anchor="middle" font-family="Open Sans" fill="#ffffff" transform="matrix(1,0,0,1,225,173.7)" style="fill: rgb(255, 255, 255);"><tspan dy="0" >API Gateway</tspan></text><g  id="v-3560" color="#ffffff" transform="matrix(1,0,0,1,222.5,268)" display="none" style="fill: rgb(255, 255, 255);"><g ></g><g ></g><g ></g><g ></g></g><image  id="v-3561"></image></g></g><!--z-index:11--><g   id="j_216"  transform="translate(474,752)" style=""><g  id="v-3568" style="opacity: 1;"><rect  id="v-3569" rx="20" ry="20" stroke="#0f5eaa" stroke-width="2" pointer-events="visiblePainted" fill="#1168bd" width="450" height="300" style="fill: rgb(17, 104, 189); stroke: rgb(15, 94, 170);"></rect><text  id="v-3570" font-size="34" xml:space="preserve" y="0.8em" font-weight="bold" text-anchor="middle" pointer-events="visible" font-family="Open Sans" fill="#ffffff" transform="matrix(1,0,0,1,225,26.9)" style="fill: rgb(255, 255, 255);"><tspan dy="0" >Сервис подбора</tspan><tspan dy="1.2em" x="0" >оптимальной</tspan><tspan dy="1.2em" x="0" >конфигурации</tspan><tspan dy="1.2em" x="0" >лестницы</tspan></text><text  id="v-3571" font-size="17" xml:space="preserve" y="0.8em" text-anchor="middle" font-family="Open Sans" fill="#ffffff" transform="matrix(1,0,0,1,225,190.1)" style="fill: rgb(255, 255, 255);"><tspan dy="0" >[Software System]</tspan></text><text  id="v-3572" font-size="24" xml:space="preserve" y="0.8em" text-anchor="middle" font-family="Open Sans" fill="#ffffff" transform="matrix(1,0,0,1,225,220.5)" style="fill: rgb(255, 255, 255);"><tspan dy="0" >Сервис подбора оптимальной</tspan><tspan dy="1.2em" x="0" >конфигурации лестницы</tspan></text><g  id="v-3573" color="#ffffff" transform="matrix(1,0,0,1,197.5,268)" display="none" style="fill: rgb(255, 255, 255);"><g  transform="translate(5 0)"><svg xmlns="http://www.w3.org/2000/svg" width="20" height="20" fill="currentColor" viewBox="0 0 16 16"><path fill-rule="evenodd" d="M6.5 12a5.5 5.5 0 1 0 0-11 5.5 5.5 0 0 0 0 11zM13 6.5a6.5 6.5 0 1 1-13 0 6.5 6.5 0 0 1 13 0z"></path><path d="M10.344 11.742c.03.04.062.078.098.115l3.85 3.85a1 1 0 0 0 1.415-1.414l-3.85-3.85a1.007 1.007 0 0 0-.115-.1 6.538 6.538 0 0 1-1.398 1.4z"></path><path fill-rule="evenodd" d="M6.5 3a.5.5 0 0 1 .5.5V6h2.5a.5.5 0 0 1 0 1H7v2.5a.5.5 0 0 1-1 0V7H3.5a.5.5 0 0 1 0-1H6V3.5a.5.5 0 0 1 .5-.5z"></path></svg></g><g ></g><g  transform="translate(30 0)"><svg xmlns="http://www.w3.org/2000/svg" width="20" height="20" fill="currentColor" viewBox="0 0 16 16"><path d="M5 10.5a.5.5 0 0 1 .5-.5h2a.5.5 0 0 1 0 1h-2a.5.5 0 0 1-.5-.5zm0-2a.5.5 0 0 1 .5-.5h5a.5.5 0 0 1 0 1h-5a.5.5 0 0 1-.5-.5zm0-2a.5.5 0 0 1 .5-.5h5a.5.5 0 0 1 0 1h-5a.5.5 0 0 1-.5-.5zm0-2a.5.5 0 0 1 .5-.5h5a.5.5 0 0 1 0 1h-5a.5.5 0 0 1-.5-.5z"></path><path d="M3 0h10a2 2 0 0 1 2 2v12a2 2 0 0 1-2 2H3a2 2 0 0 1-2-2v-1h1v1a1 1 0 0 0 1 1h10a1 1 0 0 0 1-1V2a1 1 0 0 0-1-1H3a1 1 0 0 0-1 1v1H1V2a2 2 0 0 1 2-2z"></path><path d="M1 5v-.5a.5.5 0 0 1 1 0V5h.5a.5.5 0 0 1 0 1h-2a.5.5 0 0 1 0-1H1zm0 3v-.5a.5.5 0 0 1 1 0V8h.5a.5.5 0 0 1 0 1h-2a.5.5 0 0 1 0-1H1zm0 3v-.5a.5.5 0 0 1 1 0v.5h.5a.5.5 0 0 1 0 1h-2a.5.5 0 0 1 0-1H1z"></path></svg></g><g ></g></g><image  id="v-3574"></image></g></g><!--z-index:12--><g   id="j_217" ><path  stroke="#059e05" d="M 699 452 L 699 592 C 699 598.6666666666666 699 605.3333333333333 699 612 L 699 752" id="v-3591" stroke-width="2" stroke-dasharray="30 30" fill="none" style="opacity: 1;"></path><path  fill="black" stroke="black" d="M 0 0 0 0" transform="matrix(6.123233995736766e-17,1,-1,6.123233995736766e-17,699,452)"></path><path  fill="#059e05" stroke="#059e05" d="M 20 0 L 0 10 L 20 20 z" id="v-3593" transform="matrix(-1.8369701987210297e-16,-1,1,-1.8369701987210297e-16,689,752)" style="opacity: 1;"></path><path  d="M 699 452 L 699 592 C 699 598.6666666666666 699 605.3333333333333 699 612 L 699 752" id="v-3592" fill="none" style="cursor: auto; pointer-events: visiblepainted;"></path><g ><g id="v-3582"  label-idx="0" cursor="move" transform="matrix(1,0,0,1,699,602)" style="cursor: default; opacity: 1;"><rect joint-selector="rect" id="v-3586" fill="#ffffff" rx="3" ry="3" pointer-events="none" width="198.5897216796875" height="176.54398345947266" transform="matrix(1,0,0,1,-99.3,-88.3)"></rect><text joint-selector="text" id="v-3585" font-size="24px" xml:space="preserve" y="0.8em" fill="#059e05" text-anchor="middle" pointer-events="none" font-family="Open Sans" font-weight="normal" transform="matrix(1,0,0,1,0,-82)"><tspan dy="0" >Размещение</tspan><tspan dy="1.2em" x="0" >запроса на</tspan><tspan dy="1.2em" x="0" >расчёт. POST: /a</tspan><tspan dy="1.2em" x="0" >pi/</tspan><tspan dy="1.2em" x="0" >{stair-type}/reque</tspan><tspan dy="1.2em" x="0" >st</tspan></text></g><g id="v-3583"  label-idx="1" cursor="move" transform="matrix(1,0,0,1,699,700.4000244140625)" style="cursor: default; opacity: 1;"><rect joint-selector="rect" id="v-3588" fill="#ffffff" rx="3" ry="3" pointer-events="none" width="79.86192321777344" height="23.74830722808838" transform="matrix(1,0,0,1,-39.9,-11.9)"></rect><text joint-selector="text" id="v-3587" font-size="17px" xml:space="preserve" y="0.8em" fill="#059e05" text-anchor="middle" pointer-events="none" font-family="Open Sans" font-weight="normal" transform="matrix(1,0,0,1,0,-7)"><tspan dy="0" >[REST API]</tspan></text></g><g id="v-3584"  label-idx="2" cursor="move" transform="matrix(1,0,0,1,689,708.7999877929688)" style="cursor: default; opacity: 1;"><rect joint-selector="rect" id="v-3590" fill="#ffffff" rx="3" ry="3"  width="0" height="0" transform="matrix(1,0,0,1,0,0)" display="none"></rect><text joint-selector="text" id="v-3589" fill="#000000" font-size="14" text-anchor="middle" pointer-events="none"></text></g></g><g  display="none" style="display: none;"><g  transform="translate(699, 602)" id="v-3638"><circle  idx="0" r="10"></circle><path  idx="0" d="M16,5.333c-7.732,0-14,4.701-14,10.5c0,1.982,0.741,3.833,2.016,5.414L2,25.667l5.613-1.441c2.339,1.317,5.237,2.107,8.387,2.107c7.732,0,14-4.701,14-10.5C30,10.034,23.732,5.333,16,5.333z" transform="translate(5, -33)"></path><path  idx="0" transform="scale(.8) translate(9.5, -37)" d="M24.778,21.419 19.276,15.917 24.777,10.415 21.949,7.585 16.447,13.087 10.945,7.585 8.117,10.415 13.618,15.917 8.116,21.419 10.946,24.248 16.447,18.746 21.948,24.248z"><title>Remove vertex.</title></path></g></g><g  id="v-3595" display="none"><g  id="v-3580"><path  end="source" d="M 26 0 L 0 13 L 26 26 z"></path></g><g  id="v-3581"><path  end="target" d="M 26 0 L 0 13 L 26 26 z"></path></g></g><g  id="v-3594" display="none"><g  id="v-3578" transform="translate(699, 492) "><g  event="remove"><circle r="11"></circle><path transform="scale(.8) translate(-16, -16)" d="M24.778,21.419 19.276,15.917 24.777,10.415 21.949,7.585 16.447,13.087 10.945,7.585 8.117,10.415 13.618,15.917 8.116,21.419 10.946,24.248 16.447,18.746 21.948,24.248z"></path><title>Remove link.</title></g><g  event="link:options"><circle r="11" transform="translate(25)"></circle><path fill="white" transform="scale(.55) translate(29, -16)" d="M31.229,17.736c0.064-0.571,0.104-1.148,0.104-1.736s-0.04-1.166-0.104-1.737l-4.377-1.557c-0.218-0.716-0.504-1.401-0.851-2.05l1.993-4.192c-0.725-0.91-1.549-1.734-2.458-2.459l-4.193,1.994c-0.647-0.347-1.334-0.632-2.049-0.849l-1.558-4.378C17.165,0.708,16.588,0.667,16,0.667s-1.166,0.041-1.737,0.105L12.707,5.15c-0.716,0.217-1.401,0.502-2.05,0.849L6.464,4.005C5.554,4.73,4.73,5.554,4.005,6.464l1.994,4.192c-0.347,0.648-0.632,1.334-0.849,2.05l-4.378,1.557C0.708,14.834,0.667,15.412,0.667,16s0.041,1.165,0.105,1.736l4.378,1.558c0.217,0.715,0.502,1.401,0.849,2.049l-1.994,4.193c0.725,0.909,1.549,1.733,2.459,2.458l4.192-1.993c0.648,0.347,1.334,0.633,2.05,0.851l1.557,4.377c0.571,0.064,1.148,0.104,1.737,0.104c0.588,0,1.165-0.04,1.736-0.104l1.558-4.377c0.715-0.218,1.399-0.504,2.049-0.851l4.193,1.993c0.909-0.725,1.733-1.549,2.458-2.458l-1.993-4.193c0.347-0.647,0.633-1.334,0.851-2.049L31.229,17.736zM16,20.871c-2.69,0-4.872-2.182-4.872-4.871c0-2.69,2.182-4.872,4.872-4.872c2.689,0,4.871,2.182,4.871,4.872C20.871,18.689,18.689,20.871,16,20.871z"></path><title>Link options.</title></g></g></g></g><!--z-index:13--><g   id="j_218" ><path  stroke="#0d38ea" d="M 774 452 L 845 593 C 847.6666666666666 599 847.6666666666666 605 845 611 L 774 752" id="v-3612" stroke-width="2" stroke-dasharray="30 30" fill="none" style="opacity: 1;"></path><path  fill="black" stroke="black" d="M 0 0 0 0" transform="matrix(0.4472136088532365,0.8944271843232765,-0.8944271843232765,0.4472136088532365,774,452)"></path><path  fill="#0d38ea" stroke="#0d38ea" d="M 20 0 L 0 10 L 20 20 z" id="v-3614" transform="matrix(0.4472137875035034,-0.8944270949981173,0.8944270949981173,0.4472137875035034,765.0556981085775,747.5278581726024)" style="opacity: 1;"></path><path  d="M 774 452 L 845 593 C 847.6666666666666 599 847.6666666666666 605 845 611 L 774 752" id="v-3613" fill="none" style="cursor: auto; pointer-events: visiblepainted;"></path><g ><g id="v-3603"  label-idx="0" cursor="move" transform="matrix(1,0,0,1,847,602)" style="cursor: default; opacity: 1;"><rect joint-selector="rect" id="v-3607" fill="#ffffff" rx="3" ry="3" pointer-events="none" width="198.23239135742188" height="176.54398345947266" transform="matrix(1,0,0,1,-99.1,-88.3)"></rect><text joint-selector="text" id="v-3606" font-size="24px" xml:space="preserve" y="0.8em" fill="#0d38ea" text-anchor="middle" pointer-events="none" font-family="Open Sans" font-weight="normal" transform="matrix(1,0,0,1,0,-82)"><tspan dy="0" >Получение</tspan><tspan dy="1.2em" x="0" >статуса и</tspan><tspan dy="1.2em" x="0" >результата</tspan><tspan dy="1.2em" x="0" >расчёта. GET: /ap</tspan><tspan dy="1.2em" x="0" >i/</tspan><tspan dy="1.2em" x="0" >requests-statuses</tspan></text></g><g id="v-3604"  label-idx="1" cursor="move" transform="matrix(1,0,0,1,847,700.4000244140625)" style="cursor: default; opacity: 1;"><rect joint-selector="rect" id="v-3609" fill="#ffffff" rx="3" ry="3" pointer-events="none" width="79.86192321777344" height="23.74830722808838" transform="matrix(1,0,0,1,-39.9,-11.9)"></rect><text joint-selector="text" id="v-3608" font-size="17px" xml:space="preserve" y="0.8em" fill="#0d38ea" text-anchor="middle" pointer-events="none" font-family="Open Sans" font-weight="normal" transform="matrix(1,0,0,1,0,-7)"><tspan dy="0" >[REST API]</tspan></text></g><g id="v-3605"  label-idx="2" cursor="move" transform="matrix(1,0,0,1,837,708.7999877929688)" style="cursor: default; opacity: 1;"><rect joint-selector="rect" id="v-3611" fill="#ffffff" rx="3" ry="3"  width="0" height="0" transform="matrix(1,0,0,1,0,0)" display="none"></rect><text joint-selector="text" id="v-3610" fill="#000000" font-size="14" text-anchor="middle" pointer-events="none"></text></g></g><g  display="none" style="display: none;"><g  transform="translate(849, 602)" id="v-3639"><circle  idx="0" r="10"></circle><path  idx="0" d="M16,5.333c-7.732,0-14,4.701-14,10.5c0,1.982,0.741,3.833,2.016,5.414L2,25.667l5.613-1.441c2.339,1.317,5.237,2.107,8.387,2.107c7.732,0,14-4.701,14-10.5C30,10.034,23.732,5.333,16,5.333z" transform="translate(5, -33)"></path><path  idx="0" transform="scale(.8) translate(9.5, -37)" d="M24.778,21.419 19.276,15.917 24.777,10.415 21.949,7.585 16.447,13.087 10.945,7.585 8.117,10.415 13.618,15.917 8.116,21.419 10.946,24.248 16.447,18.746 21.948,24.248z"><title>Remove vertex.</title></path></g></g><g  id="v-3616" display="none"><g  id="v-3601"><path  end="source" d="M 26 0 L 0 13 L 26 26 z"></path></g><g  id="v-3602"><path  end="target" d="M 26 0 L 0 13 L 26 26 z"></path></g></g><g  id="v-3615" display="none"><g  id="v-3599" transform="translate(791.9898231581151, 487.7262685252707) "><g  event="remove"><circle r="11"></circle><path transform="scale(.8) translate(-16, -16)" d="M24.778,21.419 19.276,15.917 24.777,10.415 21.949,7.585 16.447,13.087 10.945,7.585 8.117,10.415 13.618,15.917 8.116,21.419 10.946,24.248 16.447,18.746 21.948,24.248z"></path><title>Remove link.</title></g><g  event="link:options"><circle r="11" transform="translate(25)"></circle><path fill="white" transform="scale(.55) translate(29, -16)" d="M31.229,17.736c0.064-0.571,0.104-1.148,0.104-1.736s-0.04-1.166-0.104-1.737l-4.377-1.557c-0.218-0.716-0.504-1.401-0.851-2.05l1.993-4.192c-0.725-0.91-1.549-1.734-2.458-2.459l-4.193,1.994c-0.647-0.347-1.334-0.632-2.049-0.849l-1.558-4.378C17.165,0.708,16.588,0.667,16,0.667s-1.166,0.041-1.737,0.105L12.707,5.15c-0.716,0.217-1.401,0.502-2.05,0.849L6.464,4.005C5.554,4.73,4.73,5.554,4.005,6.464l1.994,4.192c-0.347,0.648-0.632,1.334-0.849,2.05l-4.378,1.557C0.708,14.834,0.667,15.412,0.667,16s0.041,1.165,0.105,1.736l4.378,1.558c0.217,0.715,0.502,1.401,0.849,2.049l-1.994,4.193c0.725,0.909,1.549,1.733,2.459,2.458l4.192-1.993c0.648,0.347,1.334,0.633,2.05,0.851l1.557,4.377c0.571,0.064,1.148,0.104,1.737,0.104c0.588,0,1.165-0.04,1.736-0.104l1.558-4.377c0.715-0.218,1.399-0.504,2.049-0.851l4.193,1.993c0.909-0.725,1.733-1.549,2.458-2.458l-1.993-4.193c0.347-0.647,0.633-1.334,0.851-2.049L31.229,17.736zM16,20.871c-2.69,0-4.872-2.182-4.872-4.871c0-2.69,2.182-4.872,4.872-4.872c2.689,0,4.871,2.182,4.871,4.872C20.871,18.689,18.689,20.871,16,20.871z"></path><title>Link options.</title></g></g></g></g><!--z-index:14--><g   id="j_219" ><path  stroke="#0d38ea" d="M 624 452 L 553 593 C 550.3333333333333 599 550.3333333333333 605 553 611 L 624 752" id="v-3633" stroke-width="2" stroke-dasharray="30 30" fill="none" style="opacity: 1;"></path><path  fill="black" stroke="black" d="M 0 0 0 0" transform="matrix(-0.4472135493031434,0.8944272140983217,-0.8944272140983217,-0.4472135493031434,624,452)"></path><path  fill="#0d38ea" stroke="#0d38ea" d="M 20 0 L 0 10 L 20 20 z" id="v-3635" transform="matrix(-0.4472135493031436,-0.8944272140983216,0.8944272140983216,-0.4472135493031436,615.0557564184545,756.4721327316709)" style="opacity: 1;"></path><path  d="M 624 452 L 553 593 C 550.3333333333333 599 550.3333333333333 605 553 611 L 624 752" id="v-3634" fill="none" style="cursor: auto; pointer-events: visiblepainted;"></path><g ><g id="v-3624"  label-idx="0" cursor="move" transform="matrix(1,0,0,1,551,602)" style="cursor: default; opacity: 1;"><rect joint-selector="rect" id="v-3628" fill="#ffffff" rx="3" ry="3" pointer-events="none" width="188.0898895263672" height="176.54398345947266" transform="matrix(1,0,0,1,-94,-88.3)"></rect><text joint-selector="text" id="v-3627" font-size="24px" xml:space="preserve" y="0.8em" fill="#0d38ea" text-anchor="middle" pointer-events="none" font-family="Open Sans" font-weight="normal" transform="matrix(1,0,0,1,0,-82)"><tspan dy="0" >Установить</tspan><tspan dy="1.2em" x="0" >параметры</tspan><tspan dy="1.2em" x="0" >доступа</tspan><tspan dy="1.2em" x="0" >пользователя к</tspan><tspan dy="1.2em" x="0" >расчётам. POST:</tspan><tspan dy="1.2em" x="0" >/api/user-acl</tspan></text></g><g id="v-3625"  label-idx="1" cursor="move" transform="matrix(1,0,0,1,551,700.4000244140625)" style="cursor: default; opacity: 1;"><rect joint-selector="rect" id="v-3630" fill="#ffffff" rx="3" ry="3" pointer-events="none" width="79.86192321777344" height="23.74830722808838" transform="matrix(1,0,0,1,-39.9,-11.9)"></rect><text joint-selector="text" id="v-3629" font-size="17px" xml:space="preserve" y="0.8em" fill="#0d38ea" text-anchor="middle" pointer-events="none" font-family="Open Sans" font-weight="normal" transform="matrix(1,0,0,1,0,-7)"><tspan dy="0" >[REST API]</tspan></text></g><g id="v-3626"  label-idx="2" cursor="move" transform="matrix(1,0,0,1,541,708.7999877929688)" style="cursor: default; opacity: 1;"><rect joint-selector="rect" id="v-3632" fill="#ffffff" rx="3" ry="3"  width="0" height="0" transform="matrix(1,0,0,1,0,0)" display="none"></rect><text joint-selector="text" id="v-3631" fill="#000000" font-size="14" text-anchor="middle" pointer-events="none"></text></g></g><g  display="none" style="display: none;"><g  transform="translate(549, 602)" id="v-3640"><circle  idx="0" r="10"></circle><path  idx="0" d="M16,5.333c-7.732,0-14,4.701-14,10.5c0,1.982,0.741,3.833,2.016,5.414L2,25.667l5.613-1.441c2.339,1.317,5.237,2.107,8.387,2.107c7.732,0,14-4.701,14-10.5C30,10.034,23.732,5.333,16,5.333z" transform="translate(5, -33)"></path><path  idx="0" transform="scale(.8) translate(9.5, -37)" d="M24.778,21.419 19.276,15.917 24.777,10.415 21.949,7.585 16.447,13.087 10.945,7.585 8.117,10.415 13.618,15.917 8.116,21.419 10.946,24.248 16.447,18.746 21.948,24.248z"><title>Remove vertex.</title></path></g></g><g  id="v-3637" display="none"><g  id="v-3622"><path  end="source" d="M 26 0 L 0 13 L 26 26 z"></path></g><g  id="v-3623"><path  end="target" d="M 26 0 L 0 13 L 26 26 z"></path></g></g><g  id="v-3636" display="none"><g  id="v-3620" transform="translate(606.010176841885, 487.7262685252707) "><g  event="remove"><circle r="11"></circle><path transform="scale(.8) translate(-16, -16)" d="M24.778,21.419 19.276,15.917 24.777,10.415 21.949,7.585 16.447,13.087 10.945,7.585 8.117,10.415 13.618,15.917 8.116,21.419 10.946,24.248 16.447,18.746 21.948,24.248z"></path><title>Remove link.</title></g><g  event="link:options"><circle r="11" transform="translate(25)"></circle><path fill="white" transform="scale(.55) translate(29, -16)" d="M31.229,17.736c0.064-0.571,0.104-1.148,0.104-1.736s-0.04-1.166-0.104-1.737l-4.377-1.557c-0.218-0.716-0.504-1.401-0.851-2.05l1.993-4.192c-0.725-0.91-1.549-1.734-2.458-2.459l-4.193,1.994c-0.647-0.347-1.334-0.632-2.049-0.849l-1.558-4.378C17.165,0.708,16.588,0.667,16,0.667s-1.166,0.041-1.737,0.105L12.707,5.15c-0.716,0.217-1.401,0.502-2.05,0.849L6.464,4.005C5.554,4.73,4.73,5.554,4.005,6.464l1.994,4.192c-0.347,0.648-0.632,1.334-0.849,2.05l-4.378,1.557C0.708,14.834,0.667,15.412,0.667,16s0.041,1.165,0.105,1.736l4.378,1.558c0.217,0.715,0.502,1.401,0.849,2.049l-1.994,4.193c0.725,0.909,1.549,1.733,2.459,2.458l4.192-1.993c0.648,0.347,1.334,0.633,2.05,0.851l1.557,4.377c0.571,0.064,1.148,0.104,1.737,0.104c0.588,0,1.165-0.04,1.736-0.104l1.558-4.377c0.715-0.218,1.399-0.504,2.049-0.851l4.193,1.993c0.909-0.725,1.733-1.549,2.458-2.458l-1.993-4.193c0.347-0.647,0.633-1.334,0.851-2.049L31.229,17.736zM16,20.871c-2.69,0-4.872-2.182-4.872-4.871c0-2.69,2.182-4.872,4.872-4.872c2.689,0,4.871,2.182,4.871,4.872C20.871,18.689,18.689,20.871,16,20.871z"></path><title>Link options.</title></g></g></g></g><!--z-index:15--><!--z-index:16--><!--z-index:17--><!--z-index:18--><!--z-index:19--><!--z-index:20--><!--z-index:21--><!--z-index:22--><!--z-index:23--><!--z-index:24--><!--z-index:25--><!--z-index:26--><!--z-index:27--><!--z-index:28--><!--z-index:29--><!--z-index:30--><!--z-index:31--><!--z-index:32--><!--z-index:33--><!--z-index:34--><!--z-index:35--><!--z-index:36--><!--z-index:37--><!--z-index:38--><!--z-index:39--><!--z-index:40--><!--z-index:41--><!--z-index:42--><!--z-index:43--><!--z-index:44--><!--z-index:45--><!--z-index:46--><!--z-index:47--><!--z-index:48--><!--z-index:49--><!--z-index:50--><!--z-index:51--><!--z-index:52--><!--z-index:53--><!--z-index:54--><!--z-index:55--><!--z-index:56--><!--z-index:57--><!--z-index:58--><!--z-index:59--><!--z-index:60--><!--z-index:61--><!--z-index:62--><!--z-index:63--><!--z-index:64--><!--z-index:65--><!--z-index:66--><!--z-index:67--><!--z-index:68--><!--z-index:69--><!--z-index:70--><!--z-index:71--><!--z-index:72--><!--z-index:73--><!--z-index:74--><!--z-index:75--><!--z-index:76--><!--z-index:77--><!--z-index:78--><!--z-index:79--><!--z-index:80--><!--z-index:81--><!--z-index:82--><!--z-index:83--><!--z-index:84--><!--z-index:85--><!--z-index:86--><!--z-index:87--><!--z-index:88--><!--z-index:89--><!--z-index:90--><!--z-index:91--><!--z-index:92--><!--z-index:93--><!--z-index:94--><!--z-index:95--><!--z-index:96--><!--z-index:97--><!--z-index:98--><!--z-index:99--><!--z-index:100--><!--z-index:101--><!--z-index:102--><!--z-index:103--><!--z-index:104--><!--z-index:105--></g><g ></g><g ></g><g ></g></g></svg>