<svg xmlns="http://www.w3.org/2000/svg" xmlns:xlink="http://www.w3.org/1999/xlink" version="1.1" viewBox="0 0 1404 1300" style="background: #ffffff"><defs><style>@import url(https://fonts.googleapis.com/css?family=Open+Sans:400,700);</style></defs><defs joint-selector="defs"></defs><g joint-selector="layers"  transform="matrix(1,0,0,1,0,0)"><g ></g><g ><!--z-index:-9--><!--z-index:-8--><!--z-index:-7--><!--z-index:-6--><!--z-index:-5--><!--z-index:-4--><!--z-index:-3--><!--z-index:-2--><!--z-index:-1--><!--z-index:0--><!--z-index:1--><!--z-index:2--><!--z-index:3--><!--z-index:4--><!--z-index:5--><!--z-index:6--><g   id="j_50"  transform="translate(20,1263.6)"><g id="v-751"><text  id="v-752" font-size="22px" xml:space="preserve" y="0.8em" font-weight="normal" text-anchor="start" fill="#aaaaaa" pointer-events="none" display="block" font-family="Open Sans"><tspan dy="0" >Saturday, March 15, 2025 at 7:21 PM Eastern European Standard Time</tspan></text></g></g><!--z-index:7--><g   id="j_49"  transform="translate(20,1237.1999999999998)"><g id="v-749"><text  id="v-750" font-size="22px" xml:space="preserve" y="0.8em" font-weight="normal" text-anchor="start" fill="#aaaaaa" pointer-events="none" display="block" font-family="Open Sans"><tspan dy="0" >Подбор оптимальной конф. лестницы - Контекстная диаграмма</tspan></text></g></g><!--z-index:8--><g   id="j_48"  transform="translate(20,1193.9999999999998)"><g id="v-747"><text  id="v-748" font-size="36px" xml:space="preserve" y="0.8em" font-weight="normal" text-anchor="start" fill="#000000" pointer-events="none" display="block" font-family="Open Sans"><tspan dy="0" >[System Context] Сервис подбора оптимальной конфигурации лестницы</tspan></text></g></g><!--z-index:9--><g   id="j_51"  transform="translate(470,151)" style=""><g  id="v-756" style="opacity: 1;"><rect  id="v-757" rx="20" ry="20" stroke="#0f5eaa" stroke-width="2" pointer-events="visiblePainted" fill="#1168bd" width="450" height="300" style="fill: rgb(17, 104, 189); stroke: rgb(15, 94, 170);"></rect><text  id="v-758" font-size="34" xml:space="preserve" y="0.8em" font-weight="bold" text-anchor="middle" pointer-events="visible" font-family="Open Sans" fill="#ffffff" transform="matrix(1,0,0,1,225,61.7)" style="fill: rgb(255, 255, 255);"><tspan dy="0" >Онлайн-сервис</tspan><tspan dy="1.2em" x="0" >автоматизации</tspan><tspan dy="1.2em" x="0" >строительных расчетов</tspan></text><text  id="v-759" font-size="17" xml:space="preserve" y="0.8em" text-anchor="middle" font-family="Open Sans" fill="#ffffff" transform="matrix(1,0,0,1,225,184.1)" style="fill: rgb(255, 255, 255);"><tspan dy="0" >[Software System]</tspan></text><text  id="v-760" font-size="24" xml:space="preserve" y="0.8em" text-anchor="middle" font-family="Open Sans" fill="#ffffff" transform="matrix(1,0,0,1,225,214.5)" style="fill: rgb(255, 255, 255);"><tspan dy="0" >KALK.PRO</tspan></text><g  id="v-761" color="#ffffff" transform="matrix(1,0,0,1,222.5,268)" display="none" style="fill: rgb(255, 255, 255);"><g ></g><g ></g><g ></g><g ></g></g><image  id="v-762"></image></g></g><!--z-index:10--><g   id="j_52"  transform="translate(470,751)" style=""><g  id="v-769" style="opacity: 1;"><rect  id="v-770" rx="20" ry="20" stroke="#0f5eaa" stroke-width="2" pointer-events="visiblePainted" fill="#1168bd" width="450" height="300" style="fill: rgb(17, 104, 189); stroke: rgb(15, 94, 170);"></rect><text  id="v-771" font-size="34" xml:space="preserve" y="0.8em" font-weight="bold" text-anchor="middle" pointer-events="visible" font-family="Open Sans" fill="#ffffff" transform="matrix(1,0,0,1,225,26.9)" style="fill: rgb(255, 255, 255);"><tspan dy="0" >Сервис подбора</tspan><tspan dy="1.2em" x="0" >оптимальной</tspan><tspan dy="1.2em" x="0" >конфигурации</tspan><tspan dy="1.2em" x="0" >лестницы</tspan></text><text  id="v-772" font-size="17" xml:space="preserve" y="0.8em" text-anchor="middle" font-family="Open Sans" fill="#ffffff" transform="matrix(1,0,0,1,225,190.1)" style="fill: rgb(255, 255, 255);"><tspan dy="0" >[Software System]</tspan></text><text  id="v-773" font-size="24" xml:space="preserve" y="0.8em" text-anchor="middle" font-family="Open Sans" fill="#ffffff" transform="matrix(1,0,0,1,225,220.5)" style="fill: rgb(255, 255, 255);"><tspan dy="0" >Сервис подбора оптимальной</tspan><tspan dy="1.2em" x="0" >конфигурации лестницы</tspan></text><g  id="v-774" color="#ffffff" transform="matrix(1,0,0,1,197.5,268)" display="none" style="fill: rgb(255, 255, 255);"><g  transform="translate(5 0)"><svg xmlns="http://www.w3.org/2000/svg" width="20" height="20" fill="currentColor" viewBox="0 0 16 16"><path fill-rule="evenodd" d="M6.5 12a5.5 5.5 0 1 0 0-11 5.5 5.5 0 0 0 0 11zM13 6.5a6.5 6.5 0 1 1-13 0 6.5 6.5 0 0 1 13 0z"></path><path d="M10.344 11.742c.03.04.062.078.098.115l3.85 3.85a1 1 0 0 0 1.415-1.414l-3.85-3.85a1.007 1.007 0 0 0-.115-.1 6.538 6.538 0 0 1-1.398 1.4z"></path><path fill-rule="evenodd" d="M6.5 3a.5.5 0 0 1 .5.5V6h2.5a.5.5 0 0 1 0 1H7v2.5a.5.5 0 0 1-1 0V7H3.5a.5.5 0 0 1 0-1H6V3.5a.5.5 0 0 1 .5-.5z"></path></svg></g><g ></g><g  transform="translate(30 0)"><svg xmlns="http://www.w3.org/2000/svg" width="20" height="20" fill="currentColor" viewBox="0 0 16 16"><path d="M5 10.5a.5.5 0 0 1 .5-.5h2a.5.5 0 0 1 0 1h-2a.5.5 0 0 1-.5-.5zm0-2a.5.5 0 0 1 .5-.5h5a.5.5 0 0 1 0 1h-5a.5.5 0 0 1-.5-.5zm0-2a.5.5 0 0 1 .5-.5h5a.5.5 0 0 1 0 1h-5a.5.5 0 0 1-.5-.5zm0-2a.5.5 0 0 1 .5-.5h5a.5.5 0 0 1 0 1h-5a.5.5 0 0 1-.5-.5z"></path><path d="M3 0h10a2 2 0 0 1 2 2v12a2 2 0 0 1-2 2H3a2 2 0 0 1-2-2v-1h1v1a1 1 0 0 0 1 1h10a1 1 0 0 0 1-1V2a1 1 0 0 0-1-1H3a1 1 0 0 0-1 1v1H1V2a2 2 0 0 1 2-2z"></path><path d="M1 5v-.5a.5.5 0 0 1 1 0V5h.5a.5.5 0 0 1 0 1h-2a.5.5 0 0 1 0-1H1zm0 3v-.5a.5.5 0 0 1 1 0V8h.5a.5.5 0 0 1 0 1h-2a.5.5 0 0 1 0-1H1zm0 3v-.5a.5.5 0 0 1 1 0v.5h.5a.5.5 0 0 1 0 1h-2a.5.5 0 0 1 0-1H1z"></path></svg></g><g ></g></g><image  id="v-775"></image></g></g><!--z-index:11--><g   id="j_53" ><path  stroke="#059e05" d="M 620 451 L 549 592 C 546.3333333333333 598 546.3333333333333 604 549 610 L 620 751" id="v-791" stroke-width="2" stroke-dasharray="30 30" fill="none" style="opacity: 1;"></path><path  fill="black" stroke="black" d="M 0 0 0 0" transform="matrix(-0.4472135493031434,0.8944272140983217,-0.8944272140983217,-0.4472135493031434,620,451)"></path><path  fill="#059e05" stroke="#059e05" d="M 20 0 L 0 10 L 20 20 z" id="v-793" transform="matrix(-0.4472135493031436,-0.8944272140983216,0.8944272140983216,-0.4472135493031436,611.0557564184545,755.4721327316709)" style="opacity: 1;"></path><path  d="M 620 451 L 549 592 C 546.3333333333333 598 546.3333333333333 604 549 610 L 620 751" id="v-792" fill="none" style="cursor: auto; pointer-events: visiblepainted;"></path><g ><g id="v-782"  label-idx="0" cursor="move" transform="matrix(1,0,0,1,547,601)" style="cursor: default; opacity: 1;"><rect joint-selector="rect" id="v-786" fill="#ffffff" rx="3" ry="3" pointer-events="none" width="149.37722778320312" height="148.1445083618164" transform="matrix(1,0,0,1,-74.7,-74.1)"></rect><text joint-selector="text" id="v-785" font-size="24px" xml:space="preserve" y="0.8em" fill="#059e05" text-anchor="middle" pointer-events="none" font-family="Open Sans" font-weight="normal" transform="matrix(1,0,0,1,0,-67.5)"><tspan dy="0" >Размещение</tspan><tspan dy="1.2em" x="0" >запроса на</tspan><tspan dy="1.2em" x="0" >расчёт.</tspan><tspan dy="1.2em" x="0" >Получение</tspan><tspan dy="1.2em" x="0" >расчёта.</tspan></text></g><g id="v-783"  label-idx="1" cursor="move" transform="matrix(1,0,0,1,547,685)" style="cursor: default; opacity: 1;"><rect joint-selector="rect" id="v-788" fill="#ffffff" rx="3" ry="3" pointer-events="none" width="79.8848876953125" height="23.150203704833984" transform="matrix(1,0,0,1,-39.9,-11.6)"></rect><text joint-selector="text" id="v-787" font-size="17px" xml:space="preserve" y="0.8em" fill="#059e05" text-anchor="middle" pointer-events="none" font-family="Open Sans" font-weight="normal" transform="matrix(1,0,0,1,0,-7.4)"><tspan dy="0" >[REST API]</tspan></text></g><g id="v-784"  label-idx="2" cursor="move" transform="matrix(1,0,0,1,537,693.4000244140625)" style="cursor: default; opacity: 1;"><rect joint-selector="rect" id="v-790" fill="#ffffff" rx="3" ry="3"  width="0" height="0" transform="matrix(1,0,0,1,0,0)" display="none"></rect><text joint-selector="text" id="v-789" fill="#000000" font-size="14" text-anchor="middle" pointer-events="none"></text></g></g><g  display="none" style="display: none;"><g  transform="translate(545, 601)" id="v-818"><circle  idx="0" r="10"></circle><path  idx="0" d="M16,5.333c-7.732,0-14,4.701-14,10.5c0,1.982,0.741,3.833,2.016,5.414L2,25.667l5.613-1.441c2.339,1.317,5.237,2.107,8.387,2.107c7.732,0,14-4.701,14-10.5C30,10.034,23.732,5.333,16,5.333z" transform="translate(5, -33)"></path><path  idx="0" transform="scale(.8) translate(9.5, -37)" d="M24.778,21.419 19.276,15.917 24.777,10.415 21.949,7.585 16.447,13.087 10.945,7.585 8.117,10.415 13.618,15.917 8.116,21.419 10.946,24.248 16.447,18.746 21.948,24.248z"><title>Remove vertex.</title></path></g></g><g  id="v-795" display="none"><g  id="v-780"><path  end="source" d="M 26 0 L 0 13 L 26 26 z"></path></g><g  id="v-781"><path  end="target" d="M 26 0 L 0 13 L 26 26 z"></path></g></g><g  id="v-794" display="none"><g  id="v-779" transform="translate(602.010176841885, 486.7262685252707) "><g  event="remove"><circle r="11"></circle><path transform="scale(.8) translate(-16, -16)" d="M24.778,21.419 19.276,15.917 24.777,10.415 21.949,7.585 16.447,13.087 10.945,7.585 8.117,10.415 13.618,15.917 8.116,21.419 10.946,24.248 16.447,18.746 21.948,24.248z"></path><title>Remove link.</title></g><g  event="link:options"><circle r="11" transform="translate(25)"></circle><path fill="white" transform="scale(.55) translate(29, -16)" d="M31.229,17.736c0.064-0.571,0.104-1.148,0.104-1.736s-0.04-1.166-0.104-1.737l-4.377-1.557c-0.218-0.716-0.504-1.401-0.851-2.05l1.993-4.192c-0.725-0.91-1.549-1.734-2.458-2.459l-4.193,1.994c-0.647-0.347-1.334-0.632-2.049-0.849l-1.558-4.378C17.165,0.708,16.588,0.667,16,0.667s-1.166,0.041-1.737,0.105L12.707,5.15c-0.716,0.217-1.401,0.502-2.05,0.849L6.464,4.005C5.554,4.73,4.73,5.554,4.005,6.464l1.994,4.192c-0.347,0.648-0.632,1.334-0.849,2.05l-4.378,1.557C0.708,14.834,0.667,15.412,0.667,16s0.041,1.165,0.105,1.736l4.378,1.558c0.217,0.715,0.502,1.401,0.849,2.049l-1.994,4.193c0.725,0.909,1.549,1.733,2.459,2.458l4.192-1.993c0.648,0.347,1.334,0.633,2.05,0.851l1.557,4.377c0.571,0.064,1.148,0.104,1.737,0.104c0.588,0,1.165-0.04,1.736-0.104l1.558-4.377c0.715-0.218,1.399-0.504,2.049-0.851l4.193,1.993c0.909-0.725,1.733-1.549,2.458-2.458l-1.993-4.193c0.347-0.647,0.633-1.334,0.851-2.049L31.229,17.736zM16,20.871c-2.69,0-4.872-2.182-4.872-4.871c0-2.69,2.182-4.872,4.872-4.872c2.689,0,4.871,2.182,4.871,4.872C20.871,18.689,18.689,20.871,16,20.871z"></path><title>Link options.</title></g></g></g></g><!--z-index:12--><g   id="j_54" ><path  stroke="#0d38ea" d="M 770 451 L 841 592 C 843.6666666666665 598 843.6666666666665 604 841 610 L 770 751" id="v-811" stroke-width="2" stroke-dasharray="30 30" fill="none" style="opacity: 1;"></path><path  fill="black" stroke="black" d="M 0 0 0 0" transform="matrix(0.4472136088532365,0.8944271843232765,-0.8944271843232765,0.4472136088532365,770,451)"></path><path  fill="#0d38ea" stroke="#0d38ea" d="M 20 0 L 0 10 L 20 20 z" id="v-813" transform="matrix(0.4472137875035034,-0.8944270949981173,0.8944270949981173,0.4472137875035034,761.0556981085775,746.5278581726024)" style="opacity: 1;"></path><path  d="M 770 451 L 841 592 C 843.6666666666665 598 843.6666666666665 604 841 610 L 770 751" id="v-812" fill="none" style="cursor: auto; pointer-events: visiblepainted;"></path><g ><g id="v-802"  label-idx="0" cursor="move" transform="matrix(1,0,0,1,843,601)" style="cursor: default; opacity: 1;"><rect joint-selector="rect" id="v-806" fill="#ffffff" rx="3" ry="3" pointer-events="none" width="180.77748107910156" height="148.1445083618164" transform="matrix(1,0,0,1,-90.4,-74.1)"></rect><text joint-selector="text" id="v-805" font-size="24px" xml:space="preserve" y="0.8em" fill="#0d38ea" text-anchor="middle" pointer-events="none" font-family="Open Sans" font-weight="normal" transform="matrix(1,0,0,1,0,-67.5)"><tspan dy="0" >Установить</tspan><tspan dy="1.2em" x="0" >параметры</tspan><tspan dy="1.2em" x="0" >доступа</tspan><tspan dy="1.2em" x="0" >пользователя к</tspan><tspan dy="1.2em" x="0" >расчётам.</tspan></text></g><g id="v-803"  label-idx="1" cursor="move" transform="matrix(1,0,0,1,843,685)" style="cursor: default; opacity: 1;"><rect joint-selector="rect" id="v-808" fill="#ffffff" rx="3" ry="3" pointer-events="none" width="79.8848876953125" height="23.150203704833984" transform="matrix(1,0,0,1,-39.9,-11.6)"></rect><text joint-selector="text" id="v-807" font-size="17px" xml:space="preserve" y="0.8em" fill="#0d38ea" text-anchor="middle" pointer-events="none" font-family="Open Sans" font-weight="normal" transform="matrix(1,0,0,1,0,-7.4)"><tspan dy="0" >[REST API]</tspan></text></g><g id="v-804"  label-idx="2" cursor="move" transform="matrix(1,0,0,1,833,693.4000244140625)" style="cursor: default; opacity: 1;"><rect joint-selector="rect" id="v-810" fill="#ffffff" rx="3" ry="3"  width="0" height="0" transform="matrix(1,0,0,1,0,0)" display="none"></rect><text joint-selector="text" id="v-809" fill="#000000" font-size="14" text-anchor="middle" pointer-events="none"></text></g></g><g  display="none" style="display: none;"><g  transform="translate(845, 601)" id="v-819"><circle  idx="0" r="10"></circle><path  idx="0" d="M16,5.333c-7.732,0-14,4.701-14,10.5c0,1.982,0.741,3.833,2.016,5.414L2,25.667l5.613-1.441c2.339,1.317,5.237,2.107,8.387,2.107c7.732,0,14-4.701,14-10.5C30,10.034,23.732,5.333,16,5.333z" transform="translate(5, -33)"></path><path  idx="0" transform="scale(.8) translate(9.5, -37)" d="M24.778,21.419 19.276,15.917 24.777,10.415 21.949,7.585 16.447,13.087 10.945,7.585 8.117,10.415 13.618,15.917 8.116,21.419 10.946,24.248 16.447,18.746 21.948,24.248z"><title>Remove vertex.</title></path></g></g><g  id="v-815" display="none"><g  id="v-800"><path  end="source" d="M 26 0 L 0 13 L 26 26 z"></path></g><g  id="v-801"><path  end="target" d="M 26 0 L 0 13 L 26 26 z"></path></g></g><g  id="v-814" display="none"><g  id="v-799" transform="translate(787.9898231581151, 486.7262685252707) "><g  event="remove"><circle r="11"></circle><path transform="scale(.8) translate(-16, -16)" d="M24.778,21.419 19.276,15.917 24.777,10.415 21.949,7.585 16.447,13.087 10.945,7.585 8.117,10.415 13.618,15.917 8.116,21.419 10.946,24.248 16.447,18.746 21.948,24.248z"></path><title>Remove link.</title></g><g  event="link:options"><circle r="11" transform="translate(25)"></circle><path fill="white" transform="scale(.55) translate(29, -16)" d="M31.229,17.736c0.064-0.571,0.104-1.148,0.104-1.736s-0.04-1.166-0.104-1.737l-4.377-1.557c-0.218-0.716-0.504-1.401-0.851-2.05l1.993-4.192c-0.725-0.91-1.549-1.734-2.458-2.459l-4.193,1.994c-0.647-0.347-1.334-0.632-2.049-0.849l-1.558-4.378C17.165,0.708,16.588,0.667,16,0.667s-1.166,0.041-1.737,0.105L12.707,5.15c-0.716,0.217-1.401,0.502-2.05,0.849L6.464,4.005C5.554,4.73,4.73,5.554,4.005,6.464l1.994,4.192c-0.347,0.648-0.632,1.334-0.849,2.05l-4.378,1.557C0.708,14.834,0.667,15.412,0.667,16s0.041,1.165,0.105,1.736l4.378,1.558c0.217,0.715,0.502,1.401,0.849,2.049l-1.994,4.193c0.725,0.909,1.549,1.733,2.459,2.458l4.192-1.993c0.648,0.347,1.334,0.633,2.05,0.851l1.557,4.377c0.571,0.064,1.148,0.104,1.737,0.104c0.588,0,1.165-0.04,1.736-0.104l1.558-4.377c0.715-0.218,1.399-0.504,2.049-0.851l4.193,1.993c0.909-0.725,1.733-1.549,2.458-2.458l-1.993-4.193c0.347-0.647,0.633-1.334,0.851-2.049L31.229,17.736zM16,20.871c-2.69,0-4.872-2.182-4.872-4.871c0-2.69,2.182-4.872,4.872-4.872c2.689,0,4.871,2.182,4.871,4.872C20.871,18.689,18.689,20.871,16,20.871z"></path><title>Link options.</title></g></g></g></g><!--z-index:13--><!--z-index:14--><!--z-index:15--><!--z-index:16--><!--z-index:17--><!--z-index:18--><!--z-index:19--><!--z-index:20--><!--z-index:21--><!--z-index:22--><!--z-index:23--><!--z-index:24--><!--z-index:25--><!--z-index:26--><!--z-index:27--><!--z-index:28--><!--z-index:29--><!--z-index:30--><!--z-index:31--><!--z-index:32--><!--z-index:33--><!--z-index:34--><!--z-index:35--><!--z-index:36--><!--z-index:37--><!--z-index:38--><!--z-index:39--><!--z-index:40--><!--z-index:41--><!--z-index:42--><!--z-index:43--><!--z-index:44--><!--z-index:45--><!--z-index:46--><!--z-index:47--><!--z-index:48--><!--z-index:49--><!--z-index:50--><!--z-index:51--><!--z-index:52--><!--z-index:53--><!--z-index:54--><!--z-index:55--><!--z-index:56--><!--z-index:57--><!--z-index:58--><!--z-index:59--><!--z-index:60--><!--z-index:61--><!--z-index:62--><!--z-index:63--><!--z-index:64--><!--z-index:65--><!--z-index:66--><!--z-index:67--><!--z-index:68--><!--z-index:69--><!--z-index:70--><!--z-index:71--><!--z-index:72--><!--z-index:73--><!--z-index:74--><!--z-index:75--><!--z-index:76--><!--z-index:77--><!--z-index:78--><!--z-index:79--><!--z-index:80--><!--z-index:81--><!--z-index:82--><!--z-index:83--></g><g ></g><g ></g><g ></g></g></svg>