<svg xmlns="http://www.w3.org/2000/svg" xmlns:xlink="http://www.w3.org/1999/xlink" version="1.1" viewBox="0 0 1950 1311" style="background: #ffffff"><defs joint-selector="defs"></defs><g joint-selector="layers"  transform="matrix(1,0,0,1,0,0)"><g ></g><g ><g   id="j_126"  transform="translate(20,1266)"><g id="v-1372"><text  id="v-1373" font-size="22px" xml:space="preserve" y="0.8em" font-weight="normal" text-anchor="start" fill="#aaaaaa" pointer-events="none" font-family="Open Sans" display="block"><tspan dy="0" >Wednesday, March 5, 2025 at 6:50 PM Eastern European Standard Time</tspan></text></g></g><g   id="j_125"  transform="translate(20,1235)"><g id="v-1370"><text  id="v-1371" font-size="22px" xml:space="preserve" y="0.8em" font-weight="normal" text-anchor="start" fill="#aaaaaa" pointer-events="none" font-family="Open Sans" display="block"><tspan dy="0" >Подбор оптимальной конф. лестницы - Контекстная диаграмма</tspan></text></g></g><g   id="j_124"  transform="translate(20,1191)"><g id="v-1368"><text  id="v-1369" font-size="36px" xml:space="preserve" y="0.8em" font-weight="normal" text-anchor="start" fill="#000000" pointer-events="none" font-family="Open Sans" display="block"><tspan dy="0" >[System Context] Сервис подбора оптимальной конфигурации лестницы</tspan></text></g></g><g   id="j_121"  transform="translate(749,200)" style=""><g  id="v-1328" style="opacity: 1;"><rect  id="v-1329" rx="20" ry="20" stroke="#0f5eaa" stroke-width="2" pointer-events="visiblePainted" fill="#1168bd" width="450" height="300" style="fill: rgb(17, 104, 189); stroke: rgb(15, 94, 170);"></rect><text  id="v-1330" font-size="34" xml:space="preserve" y="0.8em" font-weight="bold" text-anchor="middle" pointer-events="visible" font-family="Open Sans" fill="#ffffff" transform="matrix(1,0,0,1,225,55.6)" style="fill: rgb(255, 255, 255);"><tspan dy="0" >Онлайн-сервис</tspan><tspan dy="1.2em" x="0" >автоматизации</tspan><tspan dy="1.2em" x="0" >строительных расчетов</tspan></text><text  id="v-1331" font-size="17" xml:space="preserve" y="0.8em" text-anchor="middle" font-family="Open Sans" fill="#ffffff" transform="matrix(1,0,0,1,225,183.1)" style="fill: rgb(255, 255, 255);"><tspan dy="0" >[Software System]</tspan></text><text  id="v-1332" font-size="24" xml:space="preserve" y="0.8em" text-anchor="middle" font-family="Open Sans" fill="#ffffff" transform="matrix(1,0,0,1,225,214.4)" style="fill: rgb(255, 255, 255);"><tspan dy="0" >KALK.PRO</tspan></text><g  id="v-1333" color="#ffffff" transform="matrix(1,0,0,1,222.5,254.4)" display="none" style="fill: rgb(255, 255, 255);"><g ></g><g ></g><g ></g><g ></g></g><image  id="v-1334"></image></g></g><g   id="j_122"  transform="translate(749,800)" style=""><g  id="v-1341" style="opacity: 1;"><rect  id="v-1342" rx="20" ry="20" stroke="#0f5eaa" stroke-width="2" pointer-events="visiblePainted" fill="#1168bd" width="450" height="300" style="fill: rgb(17, 104, 189); stroke: rgb(15, 94, 170);"></rect><text  id="v-1343" font-size="34" xml:space="preserve" y="0.8em" font-weight="bold" text-anchor="middle" pointer-events="visible" font-family="Open Sans" fill="#ffffff" transform="matrix(1,0,0,1,225,19.4)" style="fill: rgb(255, 255, 255);"><tspan dy="0" >Сервис подбора</tspan><tspan dy="1.2em" x="0" >оптимальной</tspan><tspan dy="1.2em" x="0" >конфигурации</tspan><tspan dy="1.2em" x="0" >лестницы</tspan></text><text  id="v-1344" font-size="17" xml:space="preserve" y="0.8em" text-anchor="middle" font-family="Open Sans" fill="#ffffff" transform="matrix(1,0,0,1,225,189.4)" style="fill: rgb(255, 255, 255);"><tspan dy="0" >[Software System]</tspan></text><text  id="v-1345" font-size="24" xml:space="preserve" y="0.8em" text-anchor="middle" font-family="Open Sans" fill="#ffffff" transform="matrix(1,0,0,1,225,220.6)" style="fill: rgb(255, 255, 255);"><tspan dy="0" >Сервис подбора оптимальной</tspan><tspan dy="1.2em" x="0" >конфигурации лестницы</tspan></text><g  id="v-1346" color="#ffffff" transform="matrix(1,0,0,1,210,290.6)" display="none" style="fill: rgb(255, 255, 255);"><g  transform="translate(5 0)"><svg xmlns="http://www.w3.org/2000/svg" width="20" height="20" fill="currentColor" viewBox="0 0 16 16"><path fill-rule="evenodd" d="M6.5 12a5.5 5.5 0 1 0 0-11 5.5 5.5 0 0 0 0 11zM13 6.5a6.5 6.5 0 1 1-13 0 6.5 6.5 0 0 1 13 0z"></path><path d="M10.344 11.742c.03.04.062.078.098.115l3.85 3.85a1 1 0 0 0 1.415-1.414l-3.85-3.85a1.007 1.007 0 0 0-.115-.1 6.538 6.538 0 0 1-1.398 1.4z"></path><path fill-rule="evenodd" d="M6.5 3a.5.5 0 0 1 .5.5V6h2.5a.5.5 0 0 1 0 1H7v2.5a.5.5 0 0 1-1 0V7H3.5a.5.5 0 0 1 0-1H6V3.5a.5.5 0 0 1 .5-.5z"></path></svg></g><g ></g><g ></g><g ></g></g><image  id="v-1347"></image></g></g><g   id="j_123" ><path  stroke="#707070" d="M 974 500 L 974 800" id="v-1363" stroke-width="2" stroke-dasharray="30 30" fill="none" style="opacity: 1;"></path><path  fill="black" stroke="black" d="M 0 0 0 0" transform="matrix(6.123233995736766e-17,1,-1,6.123233995736766e-17,974,500)"></path><path  fill="#707070" stroke="#707070" d="M 20 0 L 0 10 L 20 20 z" id="v-1365" transform="matrix(-1.8369701987210297e-16,-1,1,-1.8369701987210297e-16,964,800)" style="opacity: 1;"></path><path  d="M 974 500 L 974 800" id="v-1364" fill="none" style="cursor: auto; pointer-events: visiblepainted;"></path><g ><g id="v-1354"  label-idx="0" cursor="move" transform="matrix(1,0,0,1,974,650)" style="cursor: default; opacity: 1;"><rect joint-selector="rect" id="v-1358" fill="#ffffff" rx="3" ry="3" pointer-events="none" width="149.37353515625" height="148.0205841064453" transform="matrix(1,0,0,1,-74.7,-74)"></rect><text joint-selector="text" id="v-1357" font-size="24px" xml:space="preserve" y="0.8em" fill="#707070" text-anchor="middle" pointer-events="none" font-family="Open Sans" font-weight="normal" transform="matrix(1,0,0,1,0,-67.7)"><tspan dy="0" >Размещение</tspan><tspan dy="1.2em" x="0" >запроса на</tspan><tspan dy="1.2em" x="0" >расчёт.</tspan><tspan dy="1.2em" x="0" >Получение</tspan><tspan dy="1.2em" x="0" >расчёта.</tspan></text></g><g id="v-1355"  label-idx="1" cursor="move" transform="matrix(1,0,0,1,974,737)" style="cursor: default; opacity: 1;"><rect joint-selector="rect" id="v-1360" fill="#ffffff" rx="3" ry="3" pointer-events="none" width="79.85771942138672" height="22.79206943511963" transform="matrix(1,0,0,1,-39.9,-11.4)"></rect><text joint-selector="text" id="v-1359" font-size="17px" xml:space="preserve" y="0.8em" fill="#707070" text-anchor="middle" pointer-events="none" font-family="Open Sans" font-weight="normal" transform="matrix(1,0,0,1,0,-6.8)"><tspan dy="0" >[REST API]</tspan></text></g><g id="v-1356"  label-idx="2" cursor="move" transform="matrix(1,0,0,1,964,746.25)" style="cursor: default; opacity: 1;"><rect joint-selector="rect" id="v-1362" fill="#ffffff" rx="3" ry="3"  width="0" height="0" transform="matrix(1,0,0,1,0,0)" display="none"></rect><text joint-selector="text" id="v-1361" fill="#000000" font-size="14" text-anchor="middle" pointer-events="none"></text></g></g><g  display="none" style="display: none;"></g><g  id="v-1367" display="none"><g  id="v-1352"><path  end="source" d="M 26 0 L 0 13 L 26 26 z"></path></g><g  id="v-1353"><path  end="target" d="M 26 0 L 0 13 L 26 26 z"></path></g></g><g  id="v-1366" display="none"><g  id="v-1351" transform="translate(974, 540) "><g  event="remove"><circle r="11"></circle><path transform="scale(.8) translate(-16, -16)" d="M24.778,21.419 19.276,15.917 24.777,10.415 21.949,7.585 16.447,13.087 10.945,7.585 8.117,10.415 13.618,15.917 8.116,21.419 10.946,24.248 16.447,18.746 21.948,24.248z"></path><title>Remove link.</title></g><g  event="link:options"><circle r="11" transform="translate(25)"></circle><path fill="white" transform="scale(.55) translate(29, -16)" d="M31.229,17.736c0.064-0.571,0.104-1.148,0.104-1.736s-0.04-1.166-0.104-1.737l-4.377-1.557c-0.218-0.716-0.504-1.401-0.851-2.05l1.993-4.192c-0.725-0.91-1.549-1.734-2.458-2.459l-4.193,1.994c-0.647-0.347-1.334-0.632-2.049-0.849l-1.558-4.378C17.165,0.708,16.588,0.667,16,0.667s-1.166,0.041-1.737,0.105L12.707,5.15c-0.716,0.217-1.401,0.502-2.05,0.849L6.464,4.005C5.554,4.73,4.73,5.554,4.005,6.464l1.994,4.192c-0.347,0.648-0.632,1.334-0.849,2.05l-4.378,1.557C0.708,14.834,0.667,15.412,0.667,16s0.041,1.165,0.105,1.736l4.378,1.558c0.217,0.715,0.502,1.401,0.849,2.049l-1.994,4.193c0.725,0.909,1.549,1.733,2.459,2.458l4.192-1.993c0.648,0.347,1.334,0.633,2.05,0.851l1.557,4.377c0.571,0.064,1.148,0.104,1.737,0.104c0.588,0,1.165-0.04,1.736-0.104l1.558-4.377c0.715-0.218,1.399-0.504,2.049-0.851l4.193,1.993c0.909-0.725,1.733-1.549,2.458-2.458l-1.993-4.193c0.347-0.647,0.633-1.334,0.851-2.049L31.229,17.736zM16,20.871c-2.69,0-4.872-2.182-4.872-4.871c0-2.69,2.182-4.872,4.872-4.872c2.689,0,4.871,2.182,4.871,4.872C20.871,18.689,18.689,20.871,16,20.871z"></path><title>Link options.</title></g></g></g></g></g><g ></g><g ></g><g ></g></g></svg>