<svg xmlns="http://www.w3.org/2000/svg" xmlns:xlink="http://www.w3.org/1999/xlink" version="1.1" viewBox="0 0 1380 1900" style="background: #ffffff"><defs joint-selector="defs"></defs><g joint-selector="layers"  transform="matrix(1,0,0,1,0,0)"><g ></g><g ><g   id="j_9"  transform="translate(20,1855)"><g id="v-105"><text  id="v-106" font-size="22px" xml:space="preserve" y="0.8em" font-weight="normal" text-anchor="start" fill="#aaaaaa" pointer-events="none" font-family="Open Sans" display="block"><tspan dy="0" >Thursday, January 23, 2025 at 3:28 PM Eastern European Standard Time</tspan></text></g></g><g   id="j_8"  transform="translate(20,1824)"><g id="v-103"><text  id="v-104" font-size="22px" xml:space="preserve" y="0.8em" font-weight="normal" text-anchor="start" fill="#aaaaaa" pointer-events="none" font-family="Open Sans" display="block"><tspan dy="0" >Калькуляторы металлопроката - Контекстная диаграмма</tspan></text></g></g><g   id="j_7"  transform="translate(20,1780)"><g id="v-101"><text  id="v-102" font-size="36px" xml:space="preserve" y="0.8em" font-weight="normal" text-anchor="start" fill="#000000" pointer-events="none" font-family="Open Sans" display="block"><tspan dy="0" >[System Context] Сервис расчета металлопроката</tspan></text></g></g><g   id="j_1"  transform="translate(633,199)" style=""><g  id="v-6" style="opacity: 1;"><rect  x="0" y="160" width="400" height="240" rx="70" id="v-8" stroke="#b8b8b8" stroke-width="2" pointer-events="visiblePainted" fill="#cccccc" style="fill: rgb(204, 204, 204); stroke: rgb(184, 184, 184);"></rect><circle  cx="200" cy="88.88888888888889" r="88.88888888888889" id="v-7" stroke="#b8b8b8" stroke-width="2" pointer-events="visiblePainted" fill="#cccccc" style="fill: rgb(204, 204, 204); stroke: rgb(184, 184, 184);"></circle><line  x1="80" y1="266.6666666666667" x2="80" y2="400" id="v-14" stroke="#b8b8b8" stroke-width="2" style="stroke: rgb(184, 184, 184);"></line><line  x1="320" y1="266.6666666666667" x2="320" y2="400" id="v-15" stroke="#b8b8b8" stroke-width="2" style="stroke: rgb(184, 184, 184);"></line><text  id="v-9" font-size="34" xml:space="preserve" y="0.8em" font-weight="bold" text-anchor="middle" pointer-events="visible" font-family="Open Sans" fill="#ffffff" transform="matrix(1,0,0,1,200,221.9)" style="fill: rgb(255, 255, 255);"><tspan dy="0" >Пользователь</tspan><tspan dy="1.2em" x="0" >(посетитель сайта)</tspan></text><text  id="v-10" font-size="17" xml:space="preserve" y="0.8em" text-anchor="middle" font-family="Open Sans" fill="#ffffff" transform="matrix(1,0,0,1,200,306.9)" style="fill: rgb(255, 255, 255);"><tspan dy="0" >[Person]</tspan></text><text  id="v-11" font-size="24" xml:space="preserve" display="none" y="0.8em" text-anchor="middle" font-family="Open Sans" fill="#ffffff" transform="matrix(1,0,0,1,200,338.1)" style="fill: rgb(255, 255, 255);"><tspan dy="0" style="fill-opacity: 0; stroke-opacity: 0;" >-</tspan></text><g  id="v-12" font-weight="normal" text-anchor="middle" color="#ffffff" transform="matrix(1,0,0,1,197.5,348.1)" display="none" style="fill: rgb(255, 255, 255);"><g ></g><g ></g><g ></g><g ></g></g><image  id="v-13"></image></g></g><g   id="j_2"  transform="translate(295,799)" style=""><g  id="v-19" style="opacity: 1;"><rect  id="v-20" rx="20" ry="20" stroke="#0f5eaa" stroke-width="2" pointer-events="visiblePainted" fill="#1168bd" width="450" height="300" style="fill: rgb(17, 104, 189); stroke: rgb(15, 94, 170);"></rect><text  id="v-21" font-size="34" xml:space="preserve" y="0.8em" font-weight="bold" text-anchor="middle" pointer-events="visible" font-family="Open Sans" fill="#ffffff" transform="matrix(1,0,0,1,225,55.6)" style="fill: rgb(255, 255, 255);"><tspan dy="0" >Онлайн-сервис</tspan><tspan dy="1.2em" x="0" >автоматизации</tspan><tspan dy="1.2em" x="0" >строительных расчетов</tspan></text><text  id="v-22" font-size="17" xml:space="preserve" y="0.8em" text-anchor="middle" font-family="Open Sans" fill="#ffffff" transform="matrix(1,0,0,1,225,183.1)" style="fill: rgb(255, 255, 255);"><tspan dy="0" >[Software System]</tspan></text><text  id="v-23" font-size="24" xml:space="preserve" y="0.8em" text-anchor="middle" font-family="Open Sans" fill="#ffffff" transform="matrix(1,0,0,1,225,214.4)" style="fill: rgb(255, 255, 255);"><tspan dy="0" >KALK.PRO</tspan></text><g  id="v-24" color="#ffffff" transform="matrix(1,0,0,1,222.5,254.4)" display="none" style="fill: rgb(255, 255, 255);"><g ></g><g ></g><g ></g><g ></g></g><image  id="v-25"></image></g></g><g   id="j_3"  transform="translate(633,1399)" style=""><g  id="v-32" style="opacity: 1;"><rect  id="v-33" rx="20" ry="20" stroke="#0f5eaa" stroke-width="2" pointer-events="visiblePainted" fill="#1168bd" width="450" height="300" style="fill: rgb(17, 104, 189); stroke: rgb(15, 94, 170);"></rect><text  id="v-34" font-size="34" xml:space="preserve" y="0.8em" font-weight="bold" text-anchor="middle" pointer-events="visible" font-family="Open Sans" fill="#ffffff" transform="matrix(1,0,0,1,225,46.9)" style="fill: rgb(255, 255, 255);"><tspan dy="0" >Сервис расчета</tspan><tspan dy="1.2em" x="0" >металлопроката</tspan></text><text  id="v-35" font-size="17" xml:space="preserve" y="0.8em" text-anchor="middle" font-family="Open Sans" fill="#ffffff" transform="matrix(1,0,0,1,225,131.9)" style="fill: rgb(255, 255, 255);"><tspan dy="0" >[Software System]</tspan></text><text  id="v-36" font-size="24" xml:space="preserve" y="0.8em" text-anchor="middle" font-family="Open Sans" fill="#ffffff" transform="matrix(1,0,0,1,225,163.1)" style="fill: rgb(255, 255, 255);"><tspan dy="0" >Расчет изделий из</tspan><tspan dy="1.2em" x="0" >металлопроката. Справочник</tspan><tspan dy="1.2em" x="0" >ГОСТов по металлопрокату.</tspan></text><g  id="v-37" color="#ffffff" transform="matrix(1,0,0,1,210,263.1)" display="none" style="fill: rgb(255, 255, 255);"><g  transform="translate(5 0)"><svg xmlns="http://www.w3.org/2000/svg" width="20" height="20" fill="currentColor" viewBox="0 0 16 16"><path fill-rule="evenodd" d="M6.5 12a5.5 5.5 0 1 0 0-11 5.5 5.5 0 0 0 0 11zM13 6.5a6.5 6.5 0 1 1-13 0 6.5 6.5 0 0 1 13 0z"></path><path d="M10.344 11.742c.03.04.062.078.098.115l3.85 3.85a1 1 0 0 0 1.415-1.414l-3.85-3.85a1.007 1.007 0 0 0-.115-.1 6.538 6.538 0 0 1-1.398 1.4z"></path><path fill-rule="evenodd" d="M6.5 3a.5.5 0 0 1 .5.5V6h2.5a.5.5 0 0 1 0 1H7v2.5a.5.5 0 0 1-1 0V7H3.5a.5.5 0 0 1 0-1H6V3.5a.5.5 0 0 1 .5-.5z"></path></svg></g><g ></g><g ></g><g ></g></g><image  id="v-38"></image></g></g><g   id="j_4" ><path  stroke="#707070" d="M 605 1099 L 774 1399" id="v-54" stroke-width="2" stroke-dasharray="30 30" fill="none" style="opacity: 1;"></path><path  fill="black" stroke="black" d="M 0 0 0 0" transform="matrix(0.49081270696473833,0.8712651070035721,-0.8712651070035721,0.49081270696473833,604.5,1099)"></path><path  fill="#707070" stroke="#707070" d="M 20 0 L 0 10 L 20 20 z" id="v-56" transform="matrix(-0.490812706964738,-0.8712651070035723,0.8712651070035723,-0.490812706964738,764.7873339097678,1403.908131655308)" style="opacity: 1;"></path><path  d="M 605 1099 L 774 1399" id="v-55" fill="none" style="cursor: auto; pointer-events: visiblepainted;"></path><g ><g id="v-45"  label-idx="0" cursor="move" transform="matrix(1,0,0,1,689.5,1249)" style="cursor: default; opacity: 1;"><rect joint-selector="rect" id="v-49" fill="#ffffff" rx="3" ry="3" pointer-events="none" width="191.8923797607422" height="61.34353065490723" transform="matrix(1,0,0,1,-95.9,-30.7)"></rect><text joint-selector="text" id="v-48" font-size="24px" xml:space="preserve" y="0.8em" fill="#707070" text-anchor="middle" pointer-events="none" font-family="Open Sans" font-weight="normal" transform="matrix(1,0,0,1,0,-24.1)"><tspan dy="0" >Расчет</tspan><tspan dy="1.2em" x="0" >металлопроката</tspan></text></g><g id="v-46"  label-idx="1" cursor="move" transform="matrix(1,0,0,1,689.5,1291)" style="cursor: default; opacity: 1;"><rect joint-selector="rect" id="v-51" fill="#ffffff" rx="3" ry="3" pointer-events="none" width="65.84978485107422" height="23.05166244506836" transform="matrix(1,0,0,1,-32.9,-11.5)"></rect><text joint-selector="text" id="v-50" font-size="17px" xml:space="preserve" y="0.8em" fill="#707070" text-anchor="middle" pointer-events="none" font-family="Open Sans" font-weight="normal" transform="matrix(1,0,0,1,0,-7.5)"><tspan dy="0" >[iFrame]</tspan></text></g><g id="v-47"  label-idx="2" cursor="move" transform="matrix(1,0,0,1,679.5,1300.25)" style="cursor: default; opacity: 1;"><rect joint-selector="rect" id="v-53" fill="#ffffff" rx="3" ry="3"  width="0" height="0" transform="matrix(1,0,0,1,0,0)" display="none"></rect><text joint-selector="text" id="v-52" fill="#000000" font-size="14" text-anchor="middle" pointer-events="none"></text></g></g><g  display="none" style="display: none;"></g><g  id="v-58" display="none"><g  id="v-43"><path  end="source" d="M 26 0 L 0 13 L 26 26 z"></path></g><g  id="v-44"><path  end="target" d="M 26 0 L 0 13 L 26 26 z"></path></g></g><g  id="v-57" display="none"><g  id="v-42" transform="translate(624.6325073670772, 1133.8506047936282) "><g  event="remove"><circle r="11"></circle><path transform="scale(.8) translate(-16, -16)" d="M24.778,21.419 19.276,15.917 24.777,10.415 21.949,7.585 16.447,13.087 10.945,7.585 8.117,10.415 13.618,15.917 8.116,21.419 10.946,24.248 16.447,18.746 21.948,24.248z"></path><title>Remove link.</title></g><g  event="link:options"><circle r="11" transform="translate(25)"></circle><path fill="white" transform="scale(.55) translate(29, -16)" d="M31.229,17.736c0.064-0.571,0.104-1.148,0.104-1.736s-0.04-1.166-0.104-1.737l-4.377-1.557c-0.218-0.716-0.504-1.401-0.851-2.05l1.993-4.192c-0.725-0.91-1.549-1.734-2.458-2.459l-4.193,1.994c-0.647-0.347-1.334-0.632-2.049-0.849l-1.558-4.378C17.165,0.708,16.588,0.667,16,0.667s-1.166,0.041-1.737,0.105L12.707,5.15c-0.716,0.217-1.401,0.502-2.05,0.849L6.464,4.005C5.554,4.73,4.73,5.554,4.005,6.464l1.994,4.192c-0.347,0.648-0.632,1.334-0.849,2.05l-4.378,1.557C0.708,14.834,0.667,15.412,0.667,16s0.041,1.165,0.105,1.736l4.378,1.558c0.217,0.715,0.502,1.401,0.849,2.049l-1.994,4.193c0.725,0.909,1.549,1.733,2.459,2.458l4.192-1.993c0.648,0.347,1.334,0.633,2.05,0.851l1.557,4.377c0.571,0.064,1.148,0.104,1.737,0.104c0.588,0,1.165-0.04,1.736-0.104l1.558-4.377c0.715-0.218,1.399-0.504,2.049-0.851l4.193,1.993c0.909-0.725,1.733-1.549,2.458-2.458l-1.993-4.193c0.347-0.647,0.633-1.334,0.851-2.049L31.229,17.736zM16,20.871c-2.69,0-4.872-2.182-4.872-4.871c0-2.69,2.182-4.872,4.872-4.872c2.689,0,4.871,2.182,4.871,4.872C20.871,18.689,18.689,20.871,16,20.871z"></path><title>Link options.</title></g></g></g></g><g   id="j_5" ><path  stroke="#707070" d="M 864 599 L 893 789 C 894.3333333333333 795.6666666666666 895 802.3333333333333 895 809 L 895 1089 C 895 1095.6666666666665 894.6666666666666 1102.3333333333333 894 1109 L 870 1399" id="v-76" stroke-width="2" stroke-dasharray="30 30" fill="none" style="opacity: 1;"></path><path  fill="black" stroke="black" d="M 0 0 0 0" transform="matrix(0.15317090257603586,0.9881997139263108,-0.9881997139263108,0.15317090257603586,864,599)"></path><path  fill="#707070" stroke="#707070" d="M 20 0 L 0 10 L 20 20 z" id="v-78" transform="matrix(0.0819567695529434,-0.9966358853284613,0.9966358853284613,0.0819567695529434,860.3636706191547,1398.180482564005)" style="opacity: 1;"></path><path  d="M 864 599 L 893 789 C 894.3333333333333 795.6666666666666 895 802.3333333333333 895 809 L 895 1089 C 895 1095.6666666666665 894.6666666666666 1102.3333333333333 894 1109 L 870 1399" id="v-77" fill="none" style="cursor: auto; pointer-events: visiblepainted;"></path><g ><g id="v-67"  label-idx="0" cursor="move" transform="matrix(1,0,0,1,895,998.3466186523438)" style="cursor: default; opacity: 1;"><rect joint-selector="rect" id="v-71" fill="#ffffff" rx="3" ry="3" pointer-events="none" width="135.76751708984375" height="61.34353065490723" transform="matrix(1,0,0,1,-67.9,-30.7)"></rect><text joint-selector="text" id="v-70" font-size="24px" xml:space="preserve" y="0.8em" fill="#707070" text-anchor="middle" pointer-events="none" font-family="Open Sans" font-weight="normal" transform="matrix(1,0,0,1,0,-24.1)"><tspan dy="0" >Посещение</tspan><tspan dy="1.2em" x="0" >сайта</tspan></text></g><g id="v-68"  label-idx="1" cursor="move" transform="matrix(1,0,0,1,895,1040.3466796875)" style="cursor: default; opacity: 1;"><rect joint-selector="rect" id="v-73" fill="#ffffff" rx="3" ry="3" pointer-events="none" width="61.90896987915039" height="23.05166244506836" transform="matrix(1,0,0,1,-31,-11.5)"></rect><text joint-selector="text" id="v-72" font-size="17px" xml:space="preserve" y="0.8em" fill="#707070" text-anchor="middle" pointer-events="none" font-family="Open Sans" font-weight="normal" transform="matrix(1,0,0,1,0,-7.5)"><tspan dy="0" >[HTTPS]</tspan></text></g><g id="v-69"  label-idx="2" cursor="move" transform="matrix(1,0,0,1,885,1049.5966796875)" style="cursor: default; opacity: 1;"><rect joint-selector="rect" id="v-75" fill="#ffffff" rx="3" ry="3"  width="0" height="0" transform="matrix(1,0,0,1,0,0)" display="none"></rect><text joint-selector="text" id="v-74" fill="#000000" font-size="14" text-anchor="middle" pointer-events="none"></text></g></g><g  display="none" style="display: none;"><g  transform="translate(895, 799)" id="v-109"><circle  idx="0" r="10"></circle><path  idx="0" d="M16,5.333c-7.732,0-14,4.701-14,10.5c0,1.982,0.741,3.833,2.016,5.414L2,25.667l5.613-1.441c2.339,1.317,5.237,2.107,8.387,2.107c7.732,0,14-4.701,14-10.5C30,10.034,23.732,5.333,16,5.333z" transform="translate(5, -33)"></path><path  idx="0" transform="scale(.8) translate(9.5, -37)" d="M24.778,21.419 19.276,15.917 24.777,10.415 21.949,7.585 16.447,13.087 10.945,7.585 8.117,10.415 13.618,15.917 8.116,21.419 10.946,24.248 16.447,18.746 21.948,24.248z"><title>Remove vertex.</title></path></g><g  transform="translate(895, 1099)" id="v-110"><circle  idx="1" r="10"></circle><path  idx="1" d="M16,5.333c-7.732,0-14,4.701-14,10.5c0,1.982,0.741,3.833,2.016,5.414L2,25.667l5.613-1.441c2.339,1.317,5.237,2.107,8.387,2.107c7.732,0,14-4.701,14-10.5C30,10.034,23.732,5.333,16,5.333z" transform="translate(5, -33)"></path><path  idx="1" transform="scale(.8) translate(9.5, -37)" d="M24.778,21.419 19.276,15.917 24.777,10.415 21.949,7.585 16.447,13.087 10.945,7.585 8.117,10.415 13.618,15.917 8.116,21.419 10.946,24.248 16.447,18.746 21.948,24.248z"><title>Remove vertex.</title></path></g></g><g  id="v-80" display="none"><g  id="v-65"><path  end="source" d="M 26 0 L 0 13 L 26 26 z"></path></g><g  id="v-66"><path  end="target" d="M 26 0 L 0 13 L 26 26 z"></path></g></g><g  id="v-79" display="none"><g  id="v-62" transform="translate(870.0353667423692, 638.5420579672467) "><g  event="remove"><circle r="11"></circle><path transform="scale(.8) translate(-16, -16)" d="M24.778,21.419 19.276,15.917 24.777,10.415 21.949,7.585 16.447,13.087 10.945,7.585 8.117,10.415 13.618,15.917 8.116,21.419 10.946,24.248 16.447,18.746 21.948,24.248z"></path><title>Remove link.</title></g><g  event="link:options"><circle r="11" transform="translate(25)"></circle><path fill="white" transform="scale(.55) translate(29, -16)" d="M31.229,17.736c0.064-0.571,0.104-1.148,0.104-1.736s-0.04-1.166-0.104-1.737l-4.377-1.557c-0.218-0.716-0.504-1.401-0.851-2.05l1.993-4.192c-0.725-0.91-1.549-1.734-2.458-2.459l-4.193,1.994c-0.647-0.347-1.334-0.632-2.049-0.849l-1.558-4.378C17.165,0.708,16.588,0.667,16,0.667s-1.166,0.041-1.737,0.105L12.707,5.15c-0.716,0.217-1.401,0.502-2.05,0.849L6.464,4.005C5.554,4.73,4.73,5.554,4.005,6.464l1.994,4.192c-0.347,0.648-0.632,1.334-0.849,2.05l-4.378,1.557C0.708,14.834,0.667,15.412,0.667,16s0.041,1.165,0.105,1.736l4.378,1.558c0.217,0.715,0.502,1.401,0.849,2.049l-1.994,4.193c0.725,0.909,1.549,1.733,2.459,2.458l4.192-1.993c0.648,0.347,1.334,0.633,2.05,0.851l1.557,4.377c0.571,0.064,1.148,0.104,1.737,0.104c0.588,0,1.165-0.04,1.736-0.104l1.558-4.377c0.715-0.218,1.399-0.504,2.049-0.851l4.193,1.993c0.909-0.725,1.733-1.549,2.458-2.458l-1.993-4.193c0.347-0.647,0.633-1.334,0.851-2.049L31.229,17.736zM16,20.871c-2.69,0-4.872-2.182-4.872-4.871c0-2.69,2.182-4.872,4.872-4.872c2.689,0,4.871,2.182,4.871,4.872C20.871,18.689,18.689,20.871,16,20.871z"></path><title>Link options.</title></g></g></g></g><g   id="j_6" ><path  stroke="#707070" d="M 719 599 L 605 799" id="v-96" stroke-width="2" stroke-dasharray="30 30" fill="none" style="opacity: 1;"></path><path  fill="black" stroke="black" d="M 0 0 0 0" transform="matrix(-0.49461252715201837,0.8691135990101029,-0.8691135990101029,-0.49461252715201837,719.1799926757812,599)"></path><path  fill="#707070" stroke="#707070" d="M 20 0 L 0 10 L 20 20 z" id="v-98" transform="matrix(0.49461241142253803,-0.869113664871737,0.869113664871737,0.49461241142253803,596.6688915808073,794.0538504251168)" style="opacity: 1;"></path><path  d="M 719 599 L 605 799" id="v-97" fill="none" style="cursor: auto; pointer-events: visiblepainted;"></path><g ><g id="v-87"  label-idx="0" cursor="move" transform="matrix(1,0,0,1,662,699)" style="cursor: default; opacity: 1;"><rect joint-selector="rect" id="v-91" fill="#ffffff" rx="3" ry="3" pointer-events="none" width="195.98150634765625" height="118.94351959228516" transform="matrix(1,0,0,1,-98,-59.5)"></rect><text joint-selector="text" id="v-90" font-size="24px" xml:space="preserve" y="0.8em" fill="#707070" text-anchor="middle" pointer-events="none" font-family="Open Sans" font-weight="normal" transform="matrix(1,0,0,1,0,-52.9)"><tspan dy="0" >Работа с веб-инт</tspan><tspan dy="1.2em" x="0" >ерфейсом</tspan><tspan dy="1.2em" x="0" >(расчеты,</tspan><tspan dy="1.2em" x="0" >проекты)</tspan></text></g><g id="v-88"  label-idx="1" cursor="move" transform="matrix(1,0,0,1,662,771)" style="cursor: default; opacity: 1;"><rect joint-selector="rect" id="v-93" fill="#ffffff" rx="3" ry="3" pointer-events="none" width="61.90896987915039" height="23.05166244506836" transform="matrix(1,0,0,1,-31,-11.5)"></rect><text joint-selector="text" id="v-92" font-size="17px" xml:space="preserve" y="0.8em" fill="#707070" text-anchor="middle" pointer-events="none" font-family="Open Sans" font-weight="normal" transform="matrix(1,0,0,1,0,-7.5)"><tspan dy="0" >[HTTPS]</tspan></text></g><g id="v-89"  label-idx="2" cursor="move" transform="matrix(1,0,0,1,652,780.25)" style="cursor: default; opacity: 1;"><rect joint-selector="rect" id="v-95" fill="#ffffff" rx="3" ry="3"  width="0" height="0" transform="matrix(1,0,0,1,0,0)" display="none"></rect><text joint-selector="text" id="v-94" fill="#000000" font-size="14" text-anchor="middle" pointer-events="none"></text></g></g><g  display="none" style="display: none;"></g><g  id="v-100" display="none"><g  id="v-85"><path  end="source" d="M 26 0 L 0 13 L 26 26 z"></path></g><g  id="v-86"><path  end="target" d="M 26 0 L 0 13 L 26 26 z"></path></g></g><g  id="v-99" display="none"><g  id="v-84" transform="translate(699.1918782396073, 633.7510908077064) "><g  event="remove"><circle r="11"></circle><path transform="scale(.8) translate(-16, -16)" d="M24.778,21.419 19.276,15.917 24.777,10.415 21.949,7.585 16.447,13.087 10.945,7.585 8.117,10.415 13.618,15.917 8.116,21.419 10.946,24.248 16.447,18.746 21.948,24.248z"></path><title>Remove link.</title></g><g  event="link:options"><circle r="11" transform="translate(25)"></circle><path fill="white" transform="scale(.55) translate(29, -16)" d="M31.229,17.736c0.064-0.571,0.104-1.148,0.104-1.736s-0.04-1.166-0.104-1.737l-4.377-1.557c-0.218-0.716-0.504-1.401-0.851-2.05l1.993-4.192c-0.725-0.91-1.549-1.734-2.458-2.459l-4.193,1.994c-0.647-0.347-1.334-0.632-2.049-0.849l-1.558-4.378C17.165,0.708,16.588,0.667,16,0.667s-1.166,0.041-1.737,0.105L12.707,5.15c-0.716,0.217-1.401,0.502-2.05,0.849L6.464,4.005C5.554,4.73,4.73,5.554,4.005,6.464l1.994,4.192c-0.347,0.648-0.632,1.334-0.849,2.05l-4.378,1.557C0.708,14.834,0.667,15.412,0.667,16s0.041,1.165,0.105,1.736l4.378,1.558c0.217,0.715,0.502,1.401,0.849,2.049l-1.994,4.193c0.725,0.909,1.549,1.733,2.459,2.458l4.192-1.993c0.648,0.347,1.334,0.633,2.05,0.851l1.557,4.377c0.571,0.064,1.148,0.104,1.737,0.104c0.588,0,1.165-0.04,1.736-0.104l1.558-4.377c0.715-0.218,1.399-0.504,2.049-0.851l4.193,1.993c0.909-0.725,1.733-1.549,2.458-2.458l-1.993-4.193c0.347-0.647,0.633-1.334,0.851-2.049L31.229,17.736zM16,20.871c-2.69,0-4.872-2.182-4.872-4.871c0-2.69,2.182-4.872,4.872-4.872c2.689,0,4.871,2.182,4.871,4.872C20.871,18.689,18.689,20.871,16,20.871z"></path><title>Link options.</title></g></g></g></g></g><g ></g><g ></g><g ></g></g></svg>