<svg xmlns="http://www.w3.org/2000/svg" xmlns:xlink="http://www.w3.org/1999/xlink" version="1.1" viewBox="0 0 3260 1881" style="background: #ffffff"><defs joint-selector="defs"></defs><g joint-selector="layers"  transform="matrix(1,0,0,1,0,0)"><g ></g><g ><g   id="j_183"  transform="translate(20,1836)"><g id="v-1998"><text  id="v-1999" font-size="22px" xml:space="preserve" y="0.8em" font-weight="normal" text-anchor="start" fill="#aaaaaa" pointer-events="none" font-family="Open Sans"><tspan dy="0" >Wednesday, March 5, 2025 at 6:50 PM Eastern European Standard Time</tspan></text></g></g><g   id="j_182"  transform="translate(20,1805)"><g id="v-1996"><text  id="v-1997" font-size="22px" xml:space="preserve" y="0.8em" font-weight="normal" text-anchor="start" fill="#aaaaaa" pointer-events="none" font-family="Open Sans"><tspan dy="0" >Подбор оптимальной конф. лестницы</tspan></text></g></g><g   id="j_181"  transform="translate(20,1761)"><g id="v-1994"><text  id="v-1995" font-size="36px" xml:space="preserve" y="0.8em" font-weight="normal" text-anchor="start" fill="#000000" pointer-events="none" font-family="Open Sans"><tspan dy="0" >[Deployment] Сервис подбора оптимальной конфигурации лестницы - Production</tspan></text></g></g><g   id="j_175"  transform="translate(199,199)" style=""><g  id="v-1882" style="opacity: 1;"><rect  id="v-1883" width="2860" height="1481" rx="10" ry="10" fill="#ffffff" stroke="#888888" stroke-width="1" pointer-events="none" style="stroke: rgb(136, 136, 136);"></rect><text  id="v-1884" font-size="24px" xml:space="preserve" y="1442" font-weight="normal" text-anchor="start" pointer-events="visible" font-family="Open Sans" fill="#ffffff" transform="matrix(1,0,0,1,15,0)" style="fill: rgb(255, 255, 255);"><tspan dy="0" >CloRu</tspan></text><text  id="v-1885" font-size="17px" xml:space="preserve" y="1466" font-weight="normal" text-anchor="start" pointer-events="visible" font-family="Open Sans" fill="#ffffff" transform="matrix(1,0,0,1,15,0)" style="fill: rgb(255, 255, 255);"><tspan dy="0" >[Deployment Node]</tspan></text><text  id="v-1886" font-size="40px" xml:space="preserve" display="none" y="1466" font-weight="normal" fill="#ffffff" text-anchor="end" pointer-events="visible" font-family="Open Sans" transform="matrix(1,0,0,1,2845,0)"><tspan dy="0" style="fill-opacity: 0; stroke-opacity: 0;" >-</tspan></text><image  id="v-1887" pointer-events="visible"></image></g></g><g   id="j_169"  transform="translate(219,219)" style=""><g  id="v-1846" style="opacity: 1;"><rect  id="v-1847" width="2820" height="1370" rx="10" ry="10" fill="#ffffff" stroke="#888888" stroke-width="1" pointer-events="none" style="stroke: rgb(136, 136, 136);"></rect><text  id="v-1848" font-size="24px" xml:space="preserve" y="1331" font-weight="normal" text-anchor="start" pointer-events="visible" font-family="Open Sans" fill="#ffffff" transform="matrix(1,0,0,1,15,0)" style="fill: rgb(255, 255, 255);"><tspan dy="0" >kalkpro_project</tspan></text><text  id="v-1849" font-size="17px" xml:space="preserve" y="1355" font-weight="normal" text-anchor="start" pointer-events="visible" font-family="Open Sans" fill="#ffffff" transform="matrix(1,0,0,1,15,0)" style="fill: rgb(255, 255, 255);"><tspan dy="0" >[Deployment Node: VPC]</tspan></text><text  id="v-1850" font-size="40px" xml:space="preserve" display="none" y="1355" font-weight="normal" fill="#ffffff" text-anchor="end" pointer-events="visible" font-family="Open Sans" transform="matrix(1,0,0,1,2805,0)"><tspan dy="0" style="fill-opacity: 0; stroke-opacity: 0;" >-</tspan></text><image  id="v-1851" pointer-events="visible"></image></g></g><g   id="j_170"  transform="translate(239,239)" style=""><g  id="v-1852" style="opacity: 1;"><rect  id="v-1853" width="2780" height="1259" rx="10" ry="10" fill="#ffffff" stroke="#888888" stroke-width="1" pointer-events="none" style="stroke: rgb(136, 136, 136);"></rect><text  id="v-1854" font-size="24px" xml:space="preserve" y="1220" font-weight="normal" text-anchor="start" pointer-events="visible" font-family="Open Sans" fill="#ffffff" transform="matrix(1,0,0,1,15,0)" style="fill: rgb(255, 255, 255);"><tspan dy="0" >Кластер kalkpro-k8s</tspan></text><text  id="v-1855" font-size="17px" xml:space="preserve" y="1244" font-weight="normal" text-anchor="start" pointer-events="visible" font-family="Open Sans" fill="#ffffff" transform="matrix(1,0,0,1,15,0)" style="fill: rgb(255, 255, 255);"><tspan dy="0" >[Deployment Node: kubernetes]</tspan></text><text  id="v-1856" font-size="40px" xml:space="preserve" display="none" y="1244" font-weight="normal" fill="#ffffff" text-anchor="end" pointer-events="visible" font-family="Open Sans" transform="matrix(1,0,0,1,2765,0)"><tspan dy="0" style="fill-opacity: 0; stroke-opacity: 0;" >-</tspan></text><image  id="v-1857" pointer-events="visible"></image></g></g><g   id="j_171"  transform="translate(1623,885)" style=""><g  id="v-1858" style="opacity: 1;"><rect  id="v-1859" width="1292" height="522" rx="10" ry="10" fill="#ffffff" stroke="#888888" stroke-width="1" pointer-events="none" style="stroke: rgb(136, 136, 136);"></rect><text  id="v-1860" font-size="24px" xml:space="preserve" y="483" font-weight="normal" text-anchor="start" pointer-events="visible" font-family="Open Sans" fill="#ffffff" transform="matrix(1,0,0,1,15,0)" style="fill: rgb(255, 255, 255);"><tspan dy="0" >infrastructure</tspan></text><text  id="v-1861" font-size="17px" xml:space="preserve" y="507" font-weight="normal" text-anchor="start" pointer-events="visible" font-family="Open Sans" fill="#ffffff" transform="matrix(1,0,0,1,15,0)" style="fill: rgb(255, 255, 255);"><tspan dy="0" >[Deployment Node: k8s namespace]</tspan></text><text  id="v-1862" font-size="40px" xml:space="preserve" display="none" y="507" font-weight="normal" fill="#ffffff" text-anchor="end" pointer-events="visible" font-family="Open Sans" transform="matrix(1,0,0,1,1277,0)"><tspan dy="0" style="fill-opacity: 0; stroke-opacity: 0;" >-</tspan></text><image  id="v-1863" pointer-events="visible"></image></g></g><g   id="j_174"  transform="translate(259,259)" style=""><g  id="v-1876" style="opacity: 1;"><rect  id="v-1877" width="2740" height="411" rx="10" ry="10" fill="#ffffff" stroke="#888888" stroke-width="1" pointer-events="none" style="stroke: rgb(136, 136, 136);"></rect><text  id="v-1878" font-size="24px" xml:space="preserve" y="372" font-weight="normal" text-anchor="start" pointer-events="visible" font-family="Open Sans" fill="#ffffff" transform="matrix(1,0,0,1,15,0)" style="fill: rgb(255, 255, 255);"><tspan dy="0" >optistair-calc</tspan></text><text  id="v-1879" font-size="17px" xml:space="preserve" y="396" font-weight="normal" text-anchor="start" pointer-events="visible" font-family="Open Sans" fill="#ffffff" transform="matrix(1,0,0,1,15,0)" style="fill: rgb(255, 255, 255);"><tspan dy="0" >[Deployment Node: k8s namespace]</tspan></text><text  id="v-1880" font-size="40px" xml:space="preserve" display="none" y="396" font-weight="normal" fill="#ffffff" text-anchor="end" pointer-events="visible" font-family="Open Sans" transform="matrix(1,0,0,1,2725,0)"><tspan dy="0" style="fill-opacity: 0; stroke-opacity: 0;" >-</tspan></text><image  id="v-1881" pointer-events="visible"></image></g></g><g   id="j_172"  transform="translate(2405,905)" style=""><g  id="v-1864" style="opacity: 1;"><rect  id="v-1865" width="490" height="411" rx="10" ry="10" fill="#ffffff" stroke="#888888" stroke-width="1" pointer-events="none" style="stroke: rgb(136, 136, 136);"></rect><text  id="v-1866" font-size="24px" xml:space="preserve" y="372" font-weight="normal" text-anchor="start" pointer-events="visible" font-family="Open Sans" fill="#ffffff" transform="matrix(1,0,0,1,15,0)" style="fill: rgb(255, 255, 255);"><tspan dy="0" >balancer</tspan></text><text  id="v-1867" font-size="17px" xml:space="preserve" y="396" font-weight="normal" text-anchor="start" pointer-events="visible" font-family="Open Sans" fill="#ffffff" transform="matrix(1,0,0,1,15,0)" style="fill: rgb(255, 255, 255);"><tspan dy="0" >[Deployment Node: Ingregress Nginx]</tspan></text><text  id="v-1868" font-size="40px" xml:space="preserve" display="none" y="396" font-weight="normal" fill="#ffffff" text-anchor="end" pointer-events="visible" font-family="Open Sans" transform="matrix(1,0,0,1,475,0)"><tspan dy="0" style="fill-opacity: 0; stroke-opacity: 0;" >-</tspan></text><image  id="v-1869" pointer-events="visible"></image></g></g><g   id="j_173"  transform="translate(1643,905)" style=""><g  id="v-1870" style="opacity: 1;"><rect  id="v-1871" width="490" height="411" rx="10" ry="10" fill="#ffffff" stroke="#888888" stroke-width="1" pointer-events="none" style="stroke: rgb(136, 136, 136);"></rect><text  id="v-1872" font-size="24px" xml:space="preserve" y="372" font-weight="normal" text-anchor="start" pointer-events="visible" font-family="Open Sans" fill="#ffffff" transform="matrix(1,0,0,1,15,0)" style="fill: rgb(255, 255, 255);"><tspan dy="0" >pgsql</tspan></text><text  id="v-1873" font-size="17px" xml:space="preserve" y="396" font-weight="normal" text-anchor="start" pointer-events="visible" font-family="Open Sans" fill="#ffffff" transform="matrix(1,0,0,1,15,0)" style="fill: rgb(255, 255, 255);"><tspan dy="0" >[Deployment Node: postgres 17 operator 500Mi]</tspan></text><text  id="v-1874" font-size="40px" xml:space="preserve" display="none" y="396" font-weight="normal" fill="#ffffff" text-anchor="end" pointer-events="visible" font-family="Open Sans" transform="matrix(1,0,0,1,475,0)"><tspan dy="0" style="fill-opacity: 0; stroke-opacity: 0;" >-</tspan></text><image  id="v-1875" pointer-events="visible"></image></g></g><g   id="j_168"  transform="translate(2529,279)" style=""><g  id="v-1839" style="opacity: 1;"><rect  id="v-1840" rx="20" ry="20" stroke="#3c7fc0" stroke-width="2" pointer-events="visiblePainted" fill="#438dd5" width="450" height="300" style="fill: rgb(67, 141, 213); stroke: rgb(60, 127, 192);"></rect><text  id="v-1841" font-size="34" xml:space="preserve" y="0.8em" font-weight="bold" text-anchor="middle" pointer-events="visible" font-family="Open Sans" fill="#ffffff" transform="matrix(1,0,0,1,225,91.9)" style="fill: rgb(255, 255, 255);"><tspan dy="0" >Менеджер обработки</tspan><tspan dy="1.2em" x="0" >запросов</tspan></text><text  id="v-1842" font-size="17" xml:space="preserve" y="0.8em" text-anchor="middle" font-family="Open Sans" fill="#ffffff" transform="matrix(1,0,0,1,225,176.9)" style="fill: rgb(255, 255, 255);"><tspan dy="0" >[Container: Python]</tspan></text><text  id="v-1843" font-size="24" xml:space="preserve" display="none" y="0.8em" text-anchor="middle" font-family="Open Sans" fill="#ffffff" transform="matrix(1,0,0,1,225,208.1)" style="fill: rgb(255, 255, 255);"><tspan dy="0" style="fill-opacity: 0; stroke-opacity: 0;" >-</tspan></text><g  id="v-1844" color="#ffffff" transform="matrix(1,0,0,1,222.5,218.1)" display="none" style="fill: rgb(255, 255, 255);"><g ></g><g ></g><g ></g><g ></g></g><image  id="v-1845"></image></g></g><g   id="j_163"  transform="translate(1779,279)" style=""><g  id="v-1785" style="opacity: 1;"><rect  id="v-1786" rx="20" ry="20" stroke="#3c7fc0" stroke-width="2" pointer-events="visiblePainted" fill="#438dd5" width="450" height="300" style="fill: rgb(67, 141, 213); stroke: rgb(60, 127, 192);"></rect><text  id="v-1787" font-size="34" xml:space="preserve" y="0.8em" font-weight="bold" text-anchor="middle" pointer-events="visible" font-family="Open Sans" fill="#ffffff" transform="matrix(1,0,0,1,225,46.9)" style="fill: rgb(255, 255, 255);"><tspan dy="0" >Калькулятор: Прямая</tspan><tspan dy="1.2em" x="0" >лестница</tspan></text><text  id="v-1788" font-size="17" xml:space="preserve" y="0.8em" text-anchor="middle" font-family="Open Sans" fill="#ffffff" transform="matrix(1,0,0,1,225,131.9)" style="fill: rgb(255, 255, 255);"><tspan dy="0" >[Container: Python]</tspan></text><text  id="v-1789" font-size="24" xml:space="preserve" y="0.8em" text-anchor="middle" font-family="Open Sans" fill="#ffffff" transform="matrix(1,0,0,1,225,163.1)" style="fill: rgb(255, 255, 255);"><tspan dy="0" >Подбор оптимальной</tspan><tspan dy="1.2em" x="0" >конфигурации лестницы по</tspan><tspan dy="1.2em" x="0" >заданным параметрам проема</tspan></text><g  id="v-1790" color="#ffffff" transform="matrix(1,0,0,1,222.5,263.1)" display="none" style="fill: rgb(255, 255, 255);"><g ></g><g ></g><g ></g><g ></g></g><image  id="v-1791"></image></g></g><g   id="j_164"  transform="translate(1029,279)" style=""><g  id="v-1798" style="opacity: 1;"><rect  id="v-1799" rx="20" ry="20" stroke="#3c7fc0" stroke-width="2" pointer-events="visiblePainted" fill="#438dd5" width="450" height="300" style="fill: rgb(67, 141, 213); stroke: rgb(60, 127, 192);"></rect><text  id="v-1800" font-size="34" xml:space="preserve" y="0.8em" font-weight="bold" text-anchor="middle" pointer-events="visible" font-family="Open Sans" fill="#ffffff" transform="matrix(1,0,0,1,225,46.9)" style="fill: rgb(255, 255, 255);"><tspan dy="0" >Калькулятор:</tspan><tspan dy="1.2em" x="0" >Г-образная лестница</tspan></text><text  id="v-1801" font-size="17" xml:space="preserve" y="0.8em" text-anchor="middle" font-family="Open Sans" fill="#ffffff" transform="matrix(1,0,0,1,225,131.9)" style="fill: rgb(255, 255, 255);"><tspan dy="0" >[Container: Python]</tspan></text><text  id="v-1802" font-size="24" xml:space="preserve" y="0.8em" text-anchor="middle" font-family="Open Sans" fill="#ffffff" transform="matrix(1,0,0,1,225,163.1)" style="fill: rgb(255, 255, 255);"><tspan dy="0" >Подбор оптимальной</tspan><tspan dy="1.2em" x="0" >конфигурации лестницы по</tspan><tspan dy="1.2em" x="0" >заданным параметрам проема</tspan></text><g  id="v-1803" color="#ffffff" transform="matrix(1,0,0,1,222.5,263.1)" display="none" style="fill: rgb(255, 255, 255);"><g ></g><g ></g><g ></g><g ></g></g><image  id="v-1804"></image></g></g><g   id="j_165"  transform="translate(279,279)" style=""><g  id="v-1811" style="opacity: 1;"><rect  id="v-1812" rx="20" ry="20" stroke="#3c7fc0" stroke-width="2" pointer-events="visiblePainted" fill="#438dd5" width="450" height="300" style="fill: rgb(67, 141, 213); stroke: rgb(60, 127, 192);"></rect><text  id="v-1813" font-size="34" xml:space="preserve" y="0.8em" font-weight="bold" text-anchor="middle" pointer-events="visible" font-family="Open Sans" fill="#ffffff" transform="matrix(1,0,0,1,225,46.9)" style="fill: rgb(255, 255, 255);"><tspan dy="0" >Калькулятор:</tspan><tspan dy="1.2em" x="0" >П-образная лестница</tspan></text><text  id="v-1814" font-size="17" xml:space="preserve" y="0.8em" text-anchor="middle" font-family="Open Sans" fill="#ffffff" transform="matrix(1,0,0,1,225,131.9)" style="fill: rgb(255, 255, 255);"><tspan dy="0" >[Container: Python]</tspan></text><text  id="v-1815" font-size="24" xml:space="preserve" y="0.8em" text-anchor="middle" font-family="Open Sans" fill="#ffffff" transform="matrix(1,0,0,1,225,163.1)" style="fill: rgb(255, 255, 255);"><tspan dy="0" >Подбор оптимальной</tspan><tspan dy="1.2em" x="0" >конфигурации лестницы по</tspan><tspan dy="1.2em" x="0" >заданным параметрам проема</tspan></text><g  id="v-1816" color="#ffffff" transform="matrix(1,0,0,1,222.5,263.1)" display="none" style="fill: rgb(255, 255, 255);"><g ></g><g ></g><g ></g><g ></g></g><image  id="v-1817"></image></g></g><g   id="j_166"  transform="translate(2425,925)" style=""><g  id="v-1818" style="opacity: 1;"><rect  id="v-1819" rx="20" ry="20" stroke="#3c7fc0" stroke-width="2" pointer-events="visiblePainted" fill="#438dd5" width="450" height="300" style="fill: rgb(67, 141, 213); stroke: rgb(60, 127, 192);"></rect><text  id="v-1820" font-size="34" xml:space="preserve" y="0.8em" font-weight="bold" text-anchor="middle" pointer-events="visible" font-family="Open Sans" fill="#ffffff" transform="matrix(1,0,0,1,225,98.1)" style="fill: rgb(255, 255, 255);"><tspan dy="0" >Балансировщик</tspan></text><text  id="v-1821" font-size="17" xml:space="preserve" y="0.8em" text-anchor="middle" font-family="Open Sans" fill="#ffffff" transform="matrix(1,0,0,1,225,140.6)" style="fill: rgb(255, 255, 255);"><tspan dy="0" >[Container: Ingress nginx]</tspan></text><text  id="v-1822" font-size="24" xml:space="preserve" y="0.8em" text-anchor="middle" font-family="Open Sans" fill="#ffffff" transform="matrix(1,0,0,1,225,171.9)" style="fill: rgb(255, 255, 255);"><tspan dy="0" >K8s Ingress nginx</tspan></text><g  id="v-1823" color="#ffffff" transform="matrix(1,0,0,1,210,211.9)" display="none" style="fill: rgb(255, 255, 255);"><g ></g><g ></g><g ></g><g  transform="translate(5 0)"><svg xmlns="http://www.w3.org/2000/svg" width="20" height="20" fill="currentColor" viewBox="0 0 16 16"><path d="M6.354 5.5H4a3 3 0 0 0 0 6h3a3 3 0 0 0 2.83-4H9c-.086 0-.17.01-.25.031A2 2 0 0 1 7 10.5H4a2 2 0 1 1 0-4h1.535c.218-.376.495-.714.82-1z"></path><path d="M9 5.5a3 3 0 0 0-2.83 4h1.098A2 2 0 0 1 9 6.5h3a2 2 0 1 1 0 4h-1.535a4.02 4.02 0 0 1-.82 1H12a3 3 0 1 0 0-6H9z"></path></svg></g></g><image  id="v-1824"></image></g></g><g   id="j_167"  transform="translate(1663,925)" style=""><g  id="v-1828" style="opacity: 1;"><path  d="M 0,30 a 225,30 0,0,0 450 0 a 225,30 0,0,0 -450 0 l 0,240 a 225,30 0,0,0 450 0 l 0,-240" id="v-1829" stroke="#78a8d8" stroke-width="2" pointer-events="visiblePainted" fill="#85bbf0" style="fill: rgb(133, 187, 240); stroke: rgb(120, 168, 216);"></path><rect  id="v-1830" stroke-width="0" pointer-events="visiblePainted" fill="none" stroke="none" width="450" height="270" x="0" y="30"></rect><text  id="v-1831" font-size="34" xml:space="preserve" y="0.8em" font-weight="bold" text-anchor="middle" pointer-events="visible" font-family="Open Sans" fill="#ffffff" transform="matrix(1,0,0,1,225,128.1)" style="fill: rgb(255, 255, 255);"><tspan dy="0" >postgres-optistairs</tspan></text><text  id="v-1832" font-size="17" xml:space="preserve" y="0.8em" text-anchor="middle" font-family="Open Sans" fill="#ffffff" transform="matrix(1,0,0,1,225,170.6)" style="fill: rgb(255, 255, 255);"><tspan dy="0" >[Container: PostgreSQL]</tspan></text><text  id="v-1833" font-size="24" xml:space="preserve" y="0.8em" text-anchor="middle" font-family="Open Sans" fill="#ffffff" transform="matrix(1,0,0,1,225,201.9)" style="fill: rgb(255, 255, 255);"><tspan dy="0" >optistairs</tspan></text><g  id="v-1834" font-weight="normal" text-anchor="middle" color="#ffffff" transform="matrix(1,0,0,1,222.5,241.9)" display="none" style="fill: rgb(255, 255, 255);"><g ></g><g ></g><g ></g><g ></g></g><image  id="v-1835"></image></g></g><g   id="j_176" ><path  stroke="#707070" d="M 1401 579 L 1741 925" id="v-1903" stroke-width="2" stroke-dasharray="30 30" fill="none" style="opacity: 1;"></path><path  fill="black" stroke="black" d="M 0 0 0 0" transform="matrix(0.7004544764091044,0.71369708313713,-0.71369708313713,0.7004544764091044,1401.2099609375,579)"></path><path  fill="#707070" stroke="#707070" d="M 20 0 L 0 10 L 20 20 z" id="v-1905" transform="matrix(-0.7004545714436132,-0.7136969898659683,0.7136969898659683,-0.7004545714436132,1733.6529762064015,932.0045527224709)" style="opacity: 1;"></path><path  d="M 1401 579 L 1741 925" id="v-1904" fill="none" style="cursor: auto; pointer-events: visiblepainted;"></path><g ><g id="v-1894"  label-idx="0" cursor="move" transform="matrix(1,0,0,1,1571,752)" style="cursor: default; opacity: 1;"><rect joint-selector="rect" id="v-1898" fill="#ffffff" rx="3" ry="3" pointer-events="none" width="170.3143768310547" height="176.70167541503906" transform="matrix(1,0,0,1,-85.2,-88.4)"></rect><text joint-selector="text" id="v-1897" font-size="24px" xml:space="preserve" y="0.8em" fill="#707070" text-anchor="middle" pointer-events="none" font-family="Open Sans" font-weight="normal" transform="matrix(1,0,0,1,0,-81.4)"><tspan dy="0" >Получение</tspan><tspan dy="1.2em" x="0" >параметров</tspan><tspan dy="1.2em" x="0" >расчёта и</tspan><tspan dy="1.2em" x="0" >запись</tspan><tspan dy="1.2em" x="0" >подобранных</tspan><tspan dy="1.2em" x="0" >конфигураций</tspan></text></g><g id="v-1895"  label-idx="1" cursor="move" transform="matrix(1,0,0,1,1571,854)" style="cursor: default; opacity: 1;"><rect joint-selector="rect" id="v-1900" fill="#ffffff" rx="3" ry="3" pointer-events="none" width="53.528541564941406" height="23.54520034790039" transform="matrix(1,0,0,1,-26.8,-11.8)"></rect><text joint-selector="text" id="v-1899" font-size="17px" xml:space="preserve" y="0.8em" fill="#707070" text-anchor="middle" pointer-events="none" font-family="Open Sans" font-weight="normal" transform="matrix(1,0,0,1,0,-7.1)"><tspan dy="0" >[pgsql]</tspan></text></g><g id="v-1896"  label-idx="2" cursor="move" transform="matrix(1,0,0,1,1561,863.25)" style="cursor: default; opacity: 1;"><rect joint-selector="rect" id="v-1902" fill="#ffffff" rx="3" ry="3"  width="0" height="0" transform="matrix(1,0,0,1,0,0)" display="none"></rect><text joint-selector="text" id="v-1901" fill="#000000" font-size="14" text-anchor="middle" pointer-events="none"></text></g></g><g  display="none" style="display: none;"></g><g  id="v-1907" display="none"><g  id="v-1892"><path  end="source" d="M 26 0 L 0 13 L 26 26 z"></path></g><g  id="v-1893"><path  end="target" d="M 26 0 L 0 13 L 26 26 z"></path></g></g><g  id="v-1906" display="none"><g  id="v-1891" transform="translate(1429.035814619129, 607.5305642888785) "><g  event="remove"><circle r="11"></circle><path transform="scale(.8) translate(-16, -16)" d="M24.778,21.419 19.276,15.917 24.777,10.415 21.949,7.585 16.447,13.087 10.945,7.585 8.117,10.415 13.618,15.917 8.116,21.419 10.946,24.248 16.447,18.746 21.948,24.248z"></path><title>Remove link.</title></g><g  event="link:options"><circle r="11" transform="translate(25)"></circle><path fill="white" transform="scale(.55) translate(29, -16)" d="M31.229,17.736c0.064-0.571,0.104-1.148,0.104-1.736s-0.04-1.166-0.104-1.737l-4.377-1.557c-0.218-0.716-0.504-1.401-0.851-2.05l1.993-4.192c-0.725-0.91-1.549-1.734-2.458-2.459l-4.193,1.994c-0.647-0.347-1.334-0.632-2.049-0.849l-1.558-4.378C17.165,0.708,16.588,0.667,16,0.667s-1.166,0.041-1.737,0.105L12.707,5.15c-0.716,0.217-1.401,0.502-2.05,0.849L6.464,4.005C5.554,4.73,4.73,5.554,4.005,6.464l1.994,4.192c-0.347,0.648-0.632,1.334-0.849,2.05l-4.378,1.557C0.708,14.834,0.667,15.412,0.667,16s0.041,1.165,0.105,1.736l4.378,1.558c0.217,0.715,0.502,1.401,0.849,2.049l-1.994,4.193c0.725,0.909,1.549,1.733,2.459,2.458l4.192-1.993c0.648,0.347,1.334,0.633,2.05,0.851l1.557,4.377c0.571,0.064,1.148,0.104,1.737,0.104c0.588,0,1.165-0.04,1.736-0.104l1.558-4.377c0.715-0.218,1.399-0.504,2.049-0.851l4.193,1.993c0.909-0.725,1.733-1.549,2.458-2.458l-1.993-4.193c0.347-0.647,0.633-1.334,0.851-2.049L31.229,17.736zM16,20.871c-2.69,0-4.872-2.182-4.872-4.871c0-2.69,2.182-4.872,4.872-4.872c2.689,0,4.871,2.182,4.871,4.872C20.871,18.689,18.689,20.871,16,20.871z"></path><title>Link options.</title></g></g></g></g><g   id="j_177" ><path  stroke="#707070" d="M 1977 579 L 1915 925" id="v-1923" stroke-width="2" stroke-dasharray="30 30" fill="none" style="opacity: 1;"></path><path  fill="black" stroke="black" d="M 0 0 0 0" transform="matrix(-0.17676726693878098,0.9842526775879219,-0.9842526775879219,-0.17676726693878098,1977.0699462890625,579)"></path><path  fill="#707070" stroke="#707070" d="M 20 0 L 0 10 L 20 20 z" id="v-1925" transform="matrix(0.17676726693878064,-0.984252677587922,0.984252677587922,0.17676726693878064,1905.0874323906705,923.2323248096164)" style="opacity: 1;"></path><path  d="M 1977 579 L 1915 925" id="v-1924" fill="none" style="cursor: auto; pointer-events: visiblepainted;"></path><g ><g id="v-1914"  label-idx="0" cursor="move" transform="matrix(1,0,0,1,1946,752)" style="cursor: default; opacity: 1;"><rect joint-selector="rect" id="v-1918" fill="#ffffff" rx="3" ry="3" pointer-events="none" width="170.3143768310547" height="176.70167541503906" transform="matrix(1,0,0,1,-85.2,-88.4)"></rect><text joint-selector="text" id="v-1917" font-size="24px" xml:space="preserve" y="0.8em" fill="#707070" text-anchor="middle" pointer-events="none" font-family="Open Sans" font-weight="normal" transform="matrix(1,0,0,1,0,-81.4)"><tspan dy="0" >Получение</tspan><tspan dy="1.2em" x="0" >параметров</tspan><tspan dy="1.2em" x="0" >расчёта и</tspan><tspan dy="1.2em" x="0" >запись</tspan><tspan dy="1.2em" x="0" >подобранных</tspan><tspan dy="1.2em" x="0" >конфигураций</tspan></text></g><g id="v-1915"  label-idx="1" cursor="move" transform="matrix(1,0,0,1,1946,854)" style="cursor: default; opacity: 1;"><rect joint-selector="rect" id="v-1920" fill="#ffffff" rx="3" ry="3" pointer-events="none" width="53.528541564941406" height="23.54520034790039" transform="matrix(1,0,0,1,-26.8,-11.8)"></rect><text joint-selector="text" id="v-1919" font-size="17px" xml:space="preserve" y="0.8em" fill="#707070" text-anchor="middle" pointer-events="none" font-family="Open Sans" font-weight="normal" transform="matrix(1,0,0,1,0,-7.1)"><tspan dy="0" >[pgsql]</tspan></text></g><g id="v-1916"  label-idx="2" cursor="move" transform="matrix(1,0,0,1,1936,863.25)" style="cursor: default; opacity: 1;"><rect joint-selector="rect" id="v-1922" fill="#ffffff" rx="3" ry="3"  width="0" height="0" transform="matrix(1,0,0,1,0,0)" display="none"></rect><text joint-selector="text" id="v-1921" fill="#000000" font-size="14" text-anchor="middle" pointer-events="none"></text></g></g><g  display="none" style="display: none;"></g><g  id="v-1927" display="none"><g  id="v-1912"><path  end="source" d="M 26 0 L 0 13 L 26 26 z"></path></g><g  id="v-1913"><path  end="target" d="M 26 0 L 0 13 L 26 26 z"></path></g></g><g  id="v-1926" display="none"><g  id="v-1911" transform="translate(1969.944744743098, 618.372876111099) "><g  event="remove"><circle r="11"></circle><path transform="scale(.8) translate(-16, -16)" d="M24.778,21.419 19.276,15.917 24.777,10.415 21.949,7.585 16.447,13.087 10.945,7.585 8.117,10.415 13.618,15.917 8.116,21.419 10.946,24.248 16.447,18.746 21.948,24.248z"></path><title>Remove link.</title></g><g  event="link:options"><circle r="11" transform="translate(25)"></circle><path fill="white" transform="scale(.55) translate(29, -16)" d="M31.229,17.736c0.064-0.571,0.104-1.148,0.104-1.736s-0.04-1.166-0.104-1.737l-4.377-1.557c-0.218-0.716-0.504-1.401-0.851-2.05l1.993-4.192c-0.725-0.91-1.549-1.734-2.458-2.459l-4.193,1.994c-0.647-0.347-1.334-0.632-2.049-0.849l-1.558-4.378C17.165,0.708,16.588,0.667,16,0.667s-1.166,0.041-1.737,0.105L12.707,5.15c-0.716,0.217-1.401,0.502-2.05,0.849L6.464,4.005C5.554,4.73,4.73,5.554,4.005,6.464l1.994,4.192c-0.347,0.648-0.632,1.334-0.849,2.05l-4.378,1.557C0.708,14.834,0.667,15.412,0.667,16s0.041,1.165,0.105,1.736l4.378,1.558c0.217,0.715,0.502,1.401,0.849,2.049l-1.994,4.193c0.725,0.909,1.549,1.733,2.459,2.458l4.192-1.993c0.648,0.347,1.334,0.633,2.05,0.851l1.557,4.377c0.571,0.064,1.148,0.104,1.737,0.104c0.588,0,1.165-0.04,1.736-0.104l1.558-4.377c0.715-0.218,1.399-0.504,2.049-0.851l4.193,1.993c0.909-0.725,1.733-1.549,2.458-2.458l-1.993-4.193c0.347-0.647,0.633-1.334,0.851-2.049L31.229,17.736zM16,20.871c-2.69,0-4.872-2.182-4.872-4.871c0-2.69,2.182-4.872,4.872-4.872c2.689,0,4.871,2.182,4.871,4.872C20.871,18.689,18.689,20.871,16,20.871z"></path><title>Link options.</title></g></g></g></g><g   id="j_178" ><path  stroke="#707070" d="M 725 579 L 871 677 C 876.3333333333333 681 882 684.3333333333333 888 687 L 1663 988" id="v-1944" stroke-width="2" stroke-dasharray="30 30" fill="none" style="opacity: 1;"></path><path  fill="black" stroke="black" d="M 0 0 0 0" transform="matrix(0.8279461497068891,0.5608076079954137,-0.5608076079954137,0.8279461497068891,725.4600219726562,579)"></path><path  fill="#707070" stroke="#707070" d="M 20 0 L 0 10 L 20 20 z" id="v-1946" transform="matrix(-0.9321246138274406,-0.3621376869328083,0.3621376869328083,-0.9321246138274406,1659.3785802064463,996.91125093729)" style="opacity: 1;"></path><path  d="M 725 579 L 871 677 C 876.3333333333333 681 882 684.3333333333333 888 687 L 1663 988" id="v-1945" fill="none" style="cursor: auto; pointer-events: visiblepainted;"></path><g ><g id="v-1935"  label-idx="0" cursor="move" transform="matrix(1,0,0,1,1184.3330078125,802.0919189453125)" style="cursor: default; opacity: 1;"><rect joint-selector="rect" id="v-1939" fill="#ffffff" rx="3" ry="3" pointer-events="none" width="170.3143768310547" height="176.70167541503906" transform="matrix(1,0,0,1,-85.2,-88.4)"></rect><text joint-selector="text" id="v-1938" font-size="24px" xml:space="preserve" y="0.8em" fill="#707070" text-anchor="middle" pointer-events="none" font-family="Open Sans" font-weight="normal" transform="matrix(1,0,0,1,0,-81.4)"><tspan dy="0" >Получение</tspan><tspan dy="1.2em" x="0" >параметров</tspan><tspan dy="1.2em" x="0" >расчёта и</tspan><tspan dy="1.2em" x="0" >запись</tspan><tspan dy="1.2em" x="0" >подобранных</tspan><tspan dy="1.2em" x="0" >конфигураций</tspan></text></g><g id="v-1936"  label-idx="1" cursor="move" transform="matrix(1,0,0,1,1184.3330078125,904.0919189453125)" style="cursor: default; opacity: 1;"><rect joint-selector="rect" id="v-1941" fill="#ffffff" rx="3" ry="3" pointer-events="none" width="53.528541564941406" height="23.54520034790039" transform="matrix(1,0,0,1,-26.8,-11.8)"></rect><text joint-selector="text" id="v-1940" font-size="17px" xml:space="preserve" y="0.8em" fill="#707070" text-anchor="middle" pointer-events="none" font-family="Open Sans" font-weight="normal" transform="matrix(1,0,0,1,0,-7.1)"><tspan dy="0" >[pgsql]</tspan></text></g><g id="v-1937"  label-idx="2" cursor="move" transform="matrix(1,0,0,1,1174.3330078125,913.3419189453125)" style="cursor: default; opacity: 1;"><rect joint-selector="rect" id="v-1943" fill="#ffffff" rx="3" ry="3"  width="0" height="0" transform="matrix(1,0,0,1,0,0)" display="none"></rect><text joint-selector="text" id="v-1942" fill="#000000" font-size="14" text-anchor="middle" pointer-events="none"></text></g></g><g  display="none" style="display: none;"><g  transform="translate(879, 683)" id="v-2000"><circle  idx="0" r="10"></circle><path  idx="0" d="M16,5.333c-7.732,0-14,4.701-14,10.5c0,1.982,0.741,3.833,2.016,5.414L2,25.667l5.613-1.441c2.339,1.317,5.237,2.107,8.387,2.107c7.732,0,14-4.701,14-10.5C30,10.034,23.732,5.333,16,5.333z" transform="translate(5, -33)"></path><path  idx="0" transform="scale(.8) translate(9.5, -37)" d="M24.778,21.419 19.276,15.917 24.777,10.415 21.949,7.585 16.447,13.087 10.945,7.585 8.117,10.415 13.618,15.917 8.116,21.419 10.946,24.248 16.447,18.746 21.948,24.248z"><title>Remove vertex.</title></path></g></g><g  id="v-1948" display="none"><g  id="v-1933"><path  end="source" d="M 26 0 L 0 13 L 26 26 z"></path></g><g  id="v-1934"><path  end="target" d="M 26 0 L 0 13 L 26 26 z"></path></g></g><g  id="v-1947" display="none"><g  id="v-1931" transform="translate(758.2118528071271, 601.2928875006744) "><g  event="remove"><circle r="11"></circle><path transform="scale(.8) translate(-16, -16)" d="M24.778,21.419 19.276,15.917 24.777,10.415 21.949,7.585 16.447,13.087 10.945,7.585 8.117,10.415 13.618,15.917 8.116,21.419 10.946,24.248 16.447,18.746 21.948,24.248z"></path><title>Remove link.</title></g><g  event="link:options"><circle r="11" transform="translate(25)"></circle><path fill="white" transform="scale(.55) translate(29, -16)" d="M31.229,17.736c0.064-0.571,0.104-1.148,0.104-1.736s-0.04-1.166-0.104-1.737l-4.377-1.557c-0.218-0.716-0.504-1.401-0.851-2.05l1.993-4.192c-0.725-0.91-1.549-1.734-2.458-2.459l-4.193,1.994c-0.647-0.347-1.334-0.632-2.049-0.849l-1.558-4.378C17.165,0.708,16.588,0.667,16,0.667s-1.166,0.041-1.737,0.105L12.707,5.15c-0.716,0.217-1.401,0.502-2.05,0.849L6.464,4.005C5.554,4.73,4.73,5.554,4.005,6.464l1.994,4.192c-0.347,0.648-0.632,1.334-0.849,2.05l-4.378,1.557C0.708,14.834,0.667,15.412,0.667,16s0.041,1.165,0.105,1.736l4.378,1.558c0.217,0.715,0.502,1.401,0.849,2.049l-1.994,4.193c0.725,0.909,1.549,1.733,2.459,2.458l4.192-1.993c0.648,0.347,1.334,0.633,2.05,0.851l1.557,4.377c0.571,0.064,1.148,0.104,1.737,0.104c0.588,0,1.165-0.04,1.736-0.104l1.558-4.377c0.715-0.218,1.399-0.504,2.049-0.851l4.193,1.993c0.909-0.725,1.733-1.549,2.458-2.458l-1.993-4.193c0.347-0.647,0.633-1.334,0.851-2.049L31.229,17.736zM16,20.871c-2.69,0-4.872-2.182-4.872-4.871c0-2.69,2.182-4.872,4.872-4.872c2.689,0,4.871,2.182,4.871,4.872C20.871,18.689,18.689,20.871,16,20.871z"></path><title>Link options.</title></g></g></g></g><g   id="j_179" ><path  stroke="#707070" d="M 2674 925 L 2730 579" id="v-1964" stroke-width="2" stroke-dasharray="30 30" fill="none" style="opacity: 1;"></path><path  fill="black" stroke="black" d="M 0 0 0 0" transform="matrix(0.1589364972465923,-0.9872888077168626,0.9872888077168626,0.1589364972465923,2674.14990234375,925)"></path><path  fill="#707070" stroke="#707070" d="M 20 0 L 0 10 L 20 20 z" id="v-1966" transform="matrix(-0.15893636578113451,0.9872888288805285,-0.9872888288805285,-0.15893636578113451,2739.7229941341166,580.5893391385373)" style="opacity: 1;"></path><path  d="M 2674 925 L 2730 579" id="v-1965" fill="none" style="cursor: auto; pointer-events: visiblepainted;"></path><g ><g id="v-1955"  label-idx="0" cursor="move" transform="matrix(1,0,0,1,2702,752)" style="cursor: default; opacity: 1;"><rect joint-selector="rect" id="v-1959" fill="#ffffff" rx="3" ry="3" pointer-events="none" width="192.65370178222656" height="90.30166625976562" transform="matrix(1,0,0,1,-96.3,-45.2)"></rect><text joint-selector="text" id="v-1958" font-size="24px" xml:space="preserve" y="0.8em" fill="#707070" text-anchor="middle" pointer-events="none" font-family="Open Sans" font-weight="normal" transform="matrix(1,0,0,1,0,-38.2)"><tspan dy="0" >Маршрутизация</tspan><tspan dy="1.2em" x="0" >запросов с</tspan><tspan dy="1.2em" x="0" >внешнего IP</tspan></text></g><g id="v-1956"  label-idx="1" cursor="move" transform="matrix(1,0,0,1,2702,809)" style="cursor: default; opacity: 1;"><rect joint-selector="rect" id="v-1961" fill="#ffffff" rx="3" ry="3" pointer-events="none" width="52.58837127685547" height="23.54520034790039" transform="matrix(1,0,0,1,-26.3,-11.8)"></rect><text joint-selector="text" id="v-1960" font-size="17px" xml:space="preserve" y="0.8em" fill="#707070" text-anchor="middle" pointer-events="none" font-family="Open Sans" font-weight="normal" transform="matrix(1,0,0,1,0,-7.1)"><tspan dy="0" >[HTTP]</tspan></text></g><g id="v-1957"  label-idx="2" cursor="move" transform="matrix(1,0,0,1,2692,818.25)" style="cursor: default; opacity: 1;"><rect joint-selector="rect" id="v-1963" fill="#ffffff" rx="3" ry="3"  width="0" height="0" transform="matrix(1,0,0,1,0,0)" display="none"></rect><text joint-selector="text" id="v-1962" fill="#000000" font-size="14" text-anchor="middle" pointer-events="none"></text></g></g><g  display="none" style="display: none;"></g><g  id="v-1968" display="none"><g  id="v-1953"><path  end="source" d="M 26 0 L 0 13 L 26 26 z"></path></g><g  id="v-1954"><path  end="target" d="M 26 0 L 0 13 L 26 26 z"></path></g></g><g  id="v-1967" display="none"><g  id="v-1952" transform="translate(2680.39082466701, 885.5138333074033) "><g  event="remove"><circle r="11"></circle><path transform="scale(.8) translate(-16, -16)" d="M24.778,21.419 19.276,15.917 24.777,10.415 21.949,7.585 16.447,13.087 10.945,7.585 8.117,10.415 13.618,15.917 8.116,21.419 10.946,24.248 16.447,18.746 21.948,24.248z"></path><title>Remove link.</title></g><g  event="link:options"><circle r="11" transform="translate(25)"></circle><path fill="white" transform="scale(.55) translate(29, -16)" d="M31.229,17.736c0.064-0.571,0.104-1.148,0.104-1.736s-0.04-1.166-0.104-1.737l-4.377-1.557c-0.218-0.716-0.504-1.401-0.851-2.05l1.993-4.192c-0.725-0.91-1.549-1.734-2.458-2.459l-4.193,1.994c-0.647-0.347-1.334-0.632-2.049-0.849l-1.558-4.378C17.165,0.708,16.588,0.667,16,0.667s-1.166,0.041-1.737,0.105L12.707,5.15c-0.716,0.217-1.401,0.502-2.05,0.849L6.464,4.005C5.554,4.73,4.73,5.554,4.005,6.464l1.994,4.192c-0.347,0.648-0.632,1.334-0.849,2.05l-4.378,1.557C0.708,14.834,0.667,15.412,0.667,16s0.041,1.165,0.105,1.736l4.378,1.558c0.217,0.715,0.502,1.401,0.849,2.049l-1.994,4.193c0.725,0.909,1.549,1.733,2.459,2.458l4.192-1.993c0.648,0.347,1.334,0.633,2.05,0.851l1.557,4.377c0.571,0.064,1.148,0.104,1.737,0.104c0.588,0,1.165-0.04,1.736-0.104l1.558-4.377c0.715-0.218,1.399-0.504,2.049-0.851l4.193,1.993c0.909-0.725,1.733-1.549,2.458-2.458l-1.993-4.193c0.347-0.647,0.633-1.334,0.851-2.049L31.229,17.736zM16,20.871c-2.69,0-4.872-2.182-4.872-4.871c0-2.69,2.182-4.872,4.872-4.872c2.689,0,4.871,2.182,4.871,4.872C20.871,18.689,18.689,20.871,16,20.871z"></path><title>Link options.</title></g></g></g></g><g   id="j_180" ><path  stroke="#707070" d="M 2533 579 L 2387 677 C 2381.6666666666665 681 2375.6666666666665 683.6666666666666 2369 685 L 2256 715 C 2249.333333333333 716.3333333333333 2243.6666666666665 719.3333333333333 2239 724 L 2038 925" id="v-1986" stroke-width="2" stroke-dasharray="30 30" fill="none" style="opacity: 1;"></path><path  fill="black" stroke="black" d="M 0 0 0 0" transform="matrix(-0.8279461870449123,0.5608075528715633,-0.5608075528715633,-0.8279461870449123,2532.5400390625,579)"></path><path  fill="#707070" stroke="#707070" d="M 20 0 L 0 10 L 20 20 z" id="v-1988" transform="matrix(0.7071067811865474,-0.7071067811865477,0.7071067811865477,0.7071067811865474,2030.928909298144,917.928955078125)" style="opacity: 1;"></path><path  d="M 2533 579 L 2387 677 C 2381.6666666666665 681 2375.6666666666665 683.6666666666666 2369 685 L 2256 715 C 2249.333333333333 716.3333333333333 2243.6666666666665 719.3333333333333 2239 724 L 2038 925" id="v-1987" fill="none" style="cursor: auto; pointer-events: visiblepainted;"></path><g ><g id="v-1977"  label-idx="0" cursor="move" transform="matrix(1,0,0,1,2260.272216796875,713.8657836914062)" style="cursor: default; opacity: 1;"><rect joint-selector="rect" id="v-1981" fill="#ffffff" rx="3" ry="3" pointer-events="none" width="190.52809143066406" height="147.90167236328125" transform="matrix(1,0,0,1,-95.3,-74)"></rect><text joint-selector="text" id="v-1980" font-size="24px" xml:space="preserve" y="0.8em" fill="#707070" text-anchor="middle" pointer-events="none" font-family="Open Sans" font-weight="normal" transform="matrix(1,0,0,1,0,-67)"><tspan dy="0" >Создание</tspan><tspan dy="1.2em" x="0" >запросов на</tspan><tspan dy="1.2em" x="0" >расчет.</tspan><tspan dy="1.2em" x="0" >Получение</tspan><tspan dy="1.2em" x="0" >статуса запроса.</tspan></text></g><g id="v-1978"  label-idx="1" cursor="move" transform="matrix(1,0,0,1,2260.272216796875,800.8657836914062)" style="cursor: default; opacity: 1;"><rect joint-selector="rect" id="v-1983" fill="#ffffff" rx="3" ry="3" pointer-events="none" width="53.528541564941406" height="23.54520034790039" transform="matrix(1,0,0,1,-26.8,-11.8)"></rect><text joint-selector="text" id="v-1982" font-size="17px" xml:space="preserve" y="0.8em" fill="#707070" text-anchor="middle" pointer-events="none" font-family="Open Sans" font-weight="normal" transform="matrix(1,0,0,1,0,-7.1)"><tspan dy="0" >[pgsql]</tspan></text></g><g id="v-1979"  label-idx="2" cursor="move" transform="matrix(1,0,0,1,2250.272216796875,810.1157836914062)" style="cursor: default; opacity: 1;"><rect joint-selector="rect" id="v-1985" fill="#ffffff" rx="3" ry="3"  width="0" height="0" transform="matrix(1,0,0,1,0,0)" display="none"></rect><text joint-selector="text" id="v-1984" fill="#000000" font-size="14" text-anchor="middle" pointer-events="none"></text></g></g><g  display="none" style="display: none;"><g  transform="translate(2379, 683)" id="v-2001"><circle  idx="0" r="10"></circle><path  idx="0" d="M16,5.333c-7.732,0-14,4.701-14,10.5c0,1.982,0.741,3.833,2.016,5.414L2,25.667l5.613-1.441c2.339,1.317,5.237,2.107,8.387,2.107c7.732,0,14-4.701,14-10.5C30,10.034,23.732,5.333,16,5.333z" transform="translate(5, -33)"></path><path  idx="0" transform="scale(.8) translate(9.5, -37)" d="M24.778,21.419 19.276,15.917 24.777,10.415 21.949,7.585 16.447,13.087 10.945,7.585 8.117,10.415 13.618,15.917 8.116,21.419 10.946,24.248 16.447,18.746 21.948,24.248z"><title>Remove vertex.</title></path></g><g  transform="translate(2246, 717)" id="v-2002"><circle  idx="1" r="10"></circle><path  idx="1" d="M16,5.333c-7.732,0-14,4.701-14,10.5c0,1.982,0.741,3.833,2.016,5.414L2,25.667l5.613-1.441c2.339,1.317,5.237,2.107,8.387,2.107c7.732,0,14-4.701,14-10.5C30,10.034,23.732,5.333,16,5.333z" transform="translate(5, -33)"></path><path  idx="1" transform="scale(.8) translate(9.5, -37)" d="M24.778,21.419 19.276,15.917 24.777,10.415 21.949,7.585 16.447,13.087 10.945,7.585 8.117,10.415 13.618,15.917 8.116,21.419 10.946,24.248 16.447,18.746 21.948,24.248z"><title>Remove vertex.</title></path></g></g><g  id="v-1990" display="none"><g  id="v-1975"><path  end="source" d="M 26 0 L 0 13 L 26 26 z"></path></g><g  id="v-1976"><path  end="target" d="M 26 0 L 0 13 L 26 26 z"></path></g></g><g  id="v-1989" display="none"><g  id="v-1972" transform="translate(2499.7881471928727, 601.2928875006744) "><g  event="remove"><circle r="11"></circle><path transform="scale(.8) translate(-16, -16)" d="M24.778,21.419 19.276,15.917 24.777,10.415 21.949,7.585 16.447,13.087 10.945,7.585 8.117,10.415 13.618,15.917 8.116,21.419 10.946,24.248 16.447,18.746 21.948,24.248z"></path><title>Remove link.</title></g><g  event="link:options"><circle r="11" transform="translate(25)"></circle><path fill="white" transform="scale(.55) translate(29, -16)" d="M31.229,17.736c0.064-0.571,0.104-1.148,0.104-1.736s-0.04-1.166-0.104-1.737l-4.377-1.557c-0.218-0.716-0.504-1.401-0.851-2.05l1.993-4.192c-0.725-0.91-1.549-1.734-2.458-2.459l-4.193,1.994c-0.647-0.347-1.334-0.632-2.049-0.849l-1.558-4.378C17.165,0.708,16.588,0.667,16,0.667s-1.166,0.041-1.737,0.105L12.707,5.15c-0.716,0.217-1.401,0.502-2.05,0.849L6.464,4.005C5.554,4.73,4.73,5.554,4.005,6.464l1.994,4.192c-0.347,0.648-0.632,1.334-0.849,2.05l-4.378,1.557C0.708,14.834,0.667,15.412,0.667,16s0.041,1.165,0.105,1.736l4.378,1.558c0.217,0.715,0.502,1.401,0.849,2.049l-1.994,4.193c0.725,0.909,1.549,1.733,2.459,2.458l4.192-1.993c0.648,0.347,1.334,0.633,2.05,0.851l1.557,4.377c0.571,0.064,1.148,0.104,1.737,0.104c0.588,0,1.165-0.04,1.736-0.104l1.558-4.377c0.715-0.218,1.399-0.504,2.049-0.851l4.193,1.993c0.909-0.725,1.733-1.549,2.458-2.458l-1.993-4.193c0.347-0.647,0.633-1.334,0.851-2.049L31.229,17.736zM16,20.871c-2.69,0-4.872-2.182-4.872-4.871c0-2.69,2.182-4.872,4.872-4.872c2.689,0,4.871,2.182,4.871,4.872C20.871,18.689,18.689,20.871,16,20.871z"></path><title>Link options.</title></g></g></g></g></g><g ></g><g ></g><g ></g></g></svg>